<?xml version="1.0" standalone="no"?>
<!DOCTYPE svg PUBLIC "-//W3C//DTD SVG 1.1//EN" "http://www.w3.org/Graphics/SVG/1.1/DTD/svg11.dtd" >
<svg xmlns="http://www.w3.org/2000/svg" xmlns:xlink="http://www.w3.org/1999/xlink" version="1.1">
<metadata>
Created by FontForge 20170731 at Tue May 30 07:35:16 2017
 By Aleksey,,,
Copyright (c) 2017 by TypeType. Designers Ivan Gladkikh, Pavel Emelyanov. Technical designers Olexa Volochay, Nadyr Rakhimov, Dmitriy Greshnev. All rights reserved.
</metadata>
<defs>
<font id="TTNorms-Regular" horiz-adv-x="1187" >
  <font-face 
    font-family="TT Norms Regular"
    font-weight="400"
    font-stretch="normal"
    units-per-em="2048"
    panose-1="2 0 5 3 3 0 0 2 0 3"
    ascent="1638"
    descent="-410"
    x-height="983"
    cap-height="1434"
    bbox="-287 -451 2945 1976"
    underline-thickness="0"
    underline-position="0"
    unicode-range="U+000D-FB06"
  />
<missing-glyph horiz-adv-x="0" 
 />
    <glyph glyph-name="ij" unicode="ij" horiz-adv-x="1003" 
d="M686 -143v163q-72 -41 -184 -40q-139 0 -238.5 103t-99.5 257v643h143v-643q0 -100 61.5 -163.5t153.5 -63.5q41 0 82 13t62 26l20 12v819h143v-1126q0 -287 -266 -287q-33 0 -63.5 8t-44.5 16l-15 7v133q51 -31 113 -31q133 0 133 154zM143 1311q0 39 27 65.5t65.5 26.5
t65.5 -26.5t27 -65.5t-27 -65.5t-65.5 -26.5t-65.5 26.5t-27 65.5zM666 1311q0 39 26.5 65.5t65.5 26.5t65.5 -26.5t26.5 -65.5t-26.5 -65.5t-65.5 -26.5t-65.5 26.5t-26.5 65.5z" />
    <glyph glyph-name="uniFB00" unicode="ff" horiz-adv-x="1239" 
d="M1167 983v-133h-235v-850h-144v850h-440v-850h-143v850h-154v133h154v143q0 137 70.5 212t195.5 75q37 0 73 -8t54 -16l16 -7v-133q-61 31 -133 31q-133 0 -133 -154v-143h440v184q0 137 71 212t196 75q37 0 72.5 -8t52.5 -16l18 -7v-133q-61 31 -133 31
q-133 0 -133 -154v-184h235z" />
    <glyph glyph-name="uniFB01" unicode="fi" horiz-adv-x="1105" 
d="M788 0v850h-440v-850h-143v850h-154v133h154v184q0 137 70.5 212t195.5 75q37 0 73 -8t54 -16l16 -7v-133q-61 31 -133 31q-133 0 -133 -154v-184h584v-983h-144zM768 1311q0 39 26.5 65.5t65.5 26.5t65.5 -26.5t26.5 -65.5t-26.5 -65.5t-65.5 -26.5t-65.5 26.5
t-26.5 65.5z" />
    <glyph glyph-name="uniFB02" unicode="fl" horiz-adv-x="1126" 
d="M799 0v1087q0 98 -66.5 166t-159 68t-159 -67.5t-66.5 -166.5v-104h236v-133h-236v-850h-143v850h-154v133h154v104q0 152 107.5 259.5t261 107.5t261 -107.5t107.5 -259.5v-1087h-143z" />
    <glyph glyph-name="uniFB03" unicode="ffi" horiz-adv-x="1689" 
d="M1372 0v850h-440v-850h-144v850h-440v-850h-143v850h-154v133h154v143q0 137 70.5 212t195.5 75q37 0 73 -8t54 -16l16 -7v-133q-61 31 -133 31q-133 0 -133 -154v-143h440v184q0 137 71 212t196 75q37 0 72.5 -8t52.5 -16l18 -7v-133q-61 31 -133 31q-133 0 -133 -154
v-184h584v-983h-144zM1352 1311q0 39 26.5 65.5t65.5 26.5t65.5 -26.5t26.5 -65.5t-26.5 -65.5t-65.5 -26.5t-65.5 26.5t-26.5 65.5z" />
    <glyph glyph-name="uniFB06" unicode="st" horiz-adv-x="1607" 
d="M748 870l-103 -102q-8 12 -23.5 28.5t-71.5 45t-120 28.5q-82 0 -133 -43t-51 -100q0 -59 55 -95t133 -57.5t156 -49t133 -90t55 -159.5q0 -127 -97 -211.5t-261 -84.5q-70 0 -131.5 18t-101.5 43t-69.5 50.5t-43.5 43.5l-13 19l103 102q4 -6 11 -15.5t31.5 -34t52.5 -44
t72 -34.5t89 -15q104 0 159.5 46t55.5 117q0 61 -55.5 99.5t-133 61t-155.5 50t-133.5 87t-55.5 153.5q0 111 93.5 194t234.5 83q33 0 58.5 -2.5t35.5 -6.5l8 -2q-31 51 -30 123q0 137 112.5 237.5t266.5 100.5q160 0 264 -100.5t104 -247.5v-123h215v-133h-215v-584
q0 -154 133 -153q33 0 66 8t51 14l17 8v-133q-61 -31 -140 -30q-127 0 -198.5 74.5t-71.5 211.5v584h-184v133h184v123q0 92 -63.5 153.5t-161.5 61.5q-106 0 -171 -62.5t-65 -162.5q0 -63 25.5 -119.5t50.5 -81.5z" />
    <glyph glyph-name="c_t.liga" unicode="ct" horiz-adv-x="1771" 
d="M82 492q0 213 145.5 362.5t345.5 149.5l123 -11q-31 51 -30 123q0 139 113.5 238.5t275.5 99.5q154 0 256 -100.5t102 -247.5v-123h215v-133h-215v-584q0 -154 133 -153q33 0 66 8t51 14l16 8v-133q-61 -31 -139 -30q-127 0 -198.5 74.5t-71.5 211.5v584h-185v133h185
v123q0 92 -61.5 153.5t-153.5 61.5q-115 0 -180.5 -62.5t-65.5 -162.5q0 -68 41 -139.5t82 -108.5l41 -39l-103 -102q-4 6 -12 17t-35.5 40t-59.5 50.5t-83 38.5t-107 17q-141 0 -244.5 -109.5t-103.5 -269t103.5 -269t244.5 -109.5q86 0 163 41t112 82l33 40l102 -92
q-6 -8 -18.5 -22.5t-52.5 -49t-84 -61t-113.5 -49t-141.5 -22.5q-201 0 -346 149.5t-145 362.5z" />
    <glyph glyph-name="s_p.liga" unicode="sp" horiz-adv-x="2109" 
d="M1188 154v-584h-144v1536q0 90 -56 152.5t-128 62.5q-92 0 -153.5 -63.5t-61.5 -161.5q0 -63 25.5 -119.5t50.5 -81.5l27 -25l-103 -102q-8 12 -23.5 28.5t-71.5 45t-120 28.5q-82 0 -133 -43t-51 -100q0 -59 55 -95t133 -57.5t156 -49t133 -90t55 -159.5
q0 -127 -97 -211.5t-261 -84.5q-70 0 -131.5 18t-101.5 43t-69.5 50.5t-43.5 43.5l-13 19l103 102q4 -6 11 -15.5t31.5 -34t52.5 -44t72 -34.5t89 -15q104 0 159.5 46t55.5 117q0 61 -55.5 99.5t-133 61t-155.5 50t-133.5 87t-55.5 153.5q0 111 93.5 194t234.5 83
q33 0 58.5 -2.5t35.5 -6.5l8 -2q-31 51 -30 123q0 139 103.5 238.5t254.5 99.5q133 0 230.5 -102.5t97.5 -245.5v-277q4 6 14 18.5t43 42.5t71 53.5t97.5 42t122.5 18.5q188 0 329.5 -151t141.5 -361.5t-141.5 -361t-329.5 -150.5q-63 0 -121.5 18t-98.5 43t-69.5 50.5
t-44.5 43.5zM1188 491.5q0 -151.5 107.5 -265t240.5 -113.5q127 0 227.5 110.5t100.5 268t-100.5 268t-227.5 110.5q-133 0 -240.5 -113.5t-107.5 -265z" />
    <glyph glyph-name="f_t.liga" unicode="ft" horiz-adv-x="1310" 
d="M819 1085v226h133v-328h215v-133h-215v-584q0 -154 133 -153q33 0 66 8t49 14l19 8v-133q-61 -31 -140 -30q-127 0 -198.5 74.5t-71.5 211.5v584h-461v-850h-143v850h-154v133h154v184q0 137 70.5 212t195.5 75q37 0 73 -8t54 -16l16 -7v-133q-61 31 -133 31
q-133 0 -133 -154v-184h389q82 0 82 102z" />
    <glyph glyph-name=".notdef" horiz-adv-x="0" 
 />
    <glyph glyph-name="glyph1" horiz-adv-x="0" 
 />
    <glyph glyph-name="glyph1" horiz-adv-x="0" 
 />
    <glyph glyph-name="uni000D" unicode="&#xd;" horiz-adv-x="0" 
 />
    <glyph glyph-name="space" unicode=" " horiz-adv-x="389" 
 />
    <glyph glyph-name="exclam" unicode="!" horiz-adv-x="634" 
d="M379 348h-123l-31 1086h185zM215 82q0 45 27.5 73.5t75 28.5t75 -28.5t27.5 -73.5t-27.5 -73.5t-75 -28.5t-75 28.5t-27.5 73.5z" />
    <glyph glyph-name="quotedbl" unicode="&#x22;" horiz-adv-x="716" 
d="M266 1434v-430h-133v430h133zM584 1434v-430h-133v430h133z" />
    <glyph glyph-name="numbersign" unicode="#" horiz-adv-x="1484" 
d="M1075 1434h133l-82 -420h318l-21 -133h-321l-64 -328h303l-20 -133h-309l-80 -420h-133l80 420h-390l-79 -420h-134l80 420h-315l20 133h322l63 328h-303l21 133h307l82 420h133l-82 -420h389zM580 881l-64 -328h389l64 328h-389z" />
    <glyph glyph-name="dollar" unicode="$" horiz-adv-x="1157" 
d="M901 389q0 74 -43 126t-111.5 81t-151.5 52.5t-166 52t-151.5 69.5t-111.5 116t-43 179q0 147 105.5 256t283.5 129v209h143v-209q100 -12 187.5 -57t124.5 -84l37 -39l-103 -103q-4 6 -12 15.5t-38 34t-63.5 44t-89 35t-114.5 15.5q-141 0 -224.5 -72t-83.5 -174
q0 -74 43 -126t112 -81t152 -52.5t165.5 -52t151.5 -69.5t112 -115.5t43 -179.5q0 -164 -105.5 -274.5t-294.5 -130.5v-209h-143v207q-80 6 -152.5 30.5t-119.5 55t-82 59.5t-52 49l-14 19l94 104q4 -6 14.5 -18.5t45.5 -43t75.5 -53t109.5 -42t142 -19.5q158 0 243 73.5
t85 192.5z" />
    <glyph glyph-name="percent" unicode="%" horiz-adv-x="1556" 
d="M256 0l901 1434h143l-901 -1434h-143zM717 1137q0 -131 -93.5 -224.5t-224.5 -93.5t-224 93.5t-93 224.5t93 224t224 93t224.5 -93t93.5 -224zM584 1137q0 84 -53.5 139t-131 55t-131 -55t-53.5 -139t53.5 -139.5t131 -55.5t131 55.5t53.5 139.5zM840 297q0 131 93 224
t224 93t224.5 -93t93.5 -224t-93.5 -224t-224.5 -93t-224 93t-93 224zM973 297q0 -84 53 -139.5t131 -55.5t131 55.5t53 139.5t-53 139.5t-131 55.5t-131 -55.5t-53 -139.5z" />
    <glyph glyph-name="ampersand" unicode="&#x26;" horiz-adv-x="1280" 
d="M860 1147q0 -59 -27.5 -122.5t-66.5 -111t-78 -86.5t-65 -59l-29 -20l328 -400q10 14 25.5 43t41 119t25.5 186h133q0 -78 -13.5 -153.5t-33 -129t-40 -95.5t-32.5 -62l-14 -20q8 -14 23.5 -35t58.5 -54.5t82 -33.5l61 10v-133q-37 -10 -72 -10q-41 0 -79.5 16
t-65.5 40.5t-48.5 49.5t-31.5 41l-10 16q-6 -6 -16.5 -17t-46 -40t-76.5 -50.5t-105.5 -38.5t-134.5 -17q-180 0 -295 102t-115 246q0 72 29 141.5t69 117.5t80.5 86t69.5 56l29 19q-8 8 -22.5 23t-52.5 62.5t-65.5 91.5t-51 103t-23.5 109q0 131 95 224t232.5 93t232.5 -91
t95 -216zM840 236l-338 430q-8 -6 -23.5 -18.5t-54.5 -50.5t-68.5 -76t-54.5 -91t-25 -102q0 -98 74 -156.5t203 -58.5q82 0 153.5 30.5t102.5 61.5zM338 1137q0 -55 46 -129t91 -121l47 -47q8 6 22.5 17t49.5 45t61.5 68t49 80t22.5 87q0 78 -55.5 131t-139 53t-139 -53
t-55.5 -131z" />
    <glyph glyph-name="quotesingle" unicode="'" horiz-adv-x="399" 
d="M266 1434v-430h-133v430h133z" />
    <glyph glyph-name="parenleft" unicode="(" horiz-adv-x="686" 
d="M297 512q0 -152 32.5 -300.5t79 -252.5t93.5 -186t80 -121l32 -41l-112 -62q-14 14 -37 43t-81 124.5t-102 199.5t-81 267t-37 329t34.5 326.5t84 270.5t99.5 196t85 129l35 41l112 -62q-12 -14 -33.5 -42t-76.5 -119t-96 -189t-76 -248.5t-35 -302.5z" />
    <glyph glyph-name="parenright" unicode=")" horiz-adv-x="686" 
d="M389 512q0 152 -32.5 300.5t-80 252.5t-93.5 186t-79 121l-32 41l112 62q14 -14 37 -43t81 -124.5t102.5 -199.5t81 -267t36.5 -329t-34.5 -326.5t-85 -270.5t-99.5 -196t-84 -129l-35 -41l-112 62q12 14 33.5 42t77 119t96 189t75.5 248.5t35 302.5z" />
    <glyph glyph-name="asterisk" unicode="*" horiz-adv-x="798" 
d="M399 1014l-153 -226l-92 72l174 215l-256 62l41 112l245 -82l-20 267h123l-21 -267l246 82l41 -112l-256 -62l174 -215l-92 -72z" />
    <glyph glyph-name="plus" unicode="+" horiz-adv-x="1054" 
d="M594 143h-133v389h-379v134h379v389h133v-389h379v-134h-379v-389z" />
    <glyph glyph-name="comma" unicode="," horiz-adv-x="440" 
d="M184 184l144 -82l-236 -368l-92 51z" />
    <glyph glyph-name="hyphen" unicode="-" horiz-adv-x="870" 
d="M778 676v-133h-686v133h686z" />
    <glyph glyph-name="period" unicode="." horiz-adv-x="430" 
d="M113 82q0 45 27.5 73.5t74.5 28.5t74.5 -28.5t27.5 -73.5t-27.5 -73.5t-74.5 -28.5t-74.5 28.5t-27.5 73.5z" />
    <glyph glyph-name="slash" unicode="/" horiz-adv-x="890" 
d="M819 1454l-614 -1884h-133l614 1884h133z" />
    <glyph glyph-name="zero" unicode="0" horiz-adv-x="1392" 
d="M276 716.5q0 -278.5 124 -436t298 -157.5q172 0 295 158.5t123 435.5q0 279 -124 436.5t-296 157.5t-296 -158t-124 -436.5zM1270 717q0 -332 -169 -534.5t-403 -202.5q-236 0 -405.5 202.5t-169.5 534.5t170 534.5t403.5 202.5t403.5 -202.5t170 -534.5z" />
    <glyph glyph-name="one" unicode="1" horiz-adv-x="716" 
d="M389 1434h113v-1434h-154v1147h-266v92q70 2 126 23.5t89 49t54.5 55.5t29.5 46z" />
    <glyph glyph-name="two" unicode="2" horiz-adv-x="1126" 
d="M1004 0h-922q0 141 57.5 258t142.5 188.5t184 143.5t184 128t142.5 139t57.5 177q0 125 -82 201t-225 76q-72 0 -130.5 -25.5t-90 -61.5t-52 -72t-28.5 -62l-6 -25l-134 61q2 14 9.5 36t40 78t76.5 99t128 79t187 36q205 0 333 -120t128 -300q0 -104 -47.5 -193
t-119 -149.5t-161.5 -126t-171 -121t-150.5 -134.5t-98.5 -167h748v-143z" />
    <glyph glyph-name="three" unicode="3" horiz-adv-x="1146" 
d="M758 758q10 -2 28.5 -8.5t64.5 -33t81 -62.5t63.5 -103.5t28.5 -151.5q0 -170 -133 -294.5t-348 -124.5q-92 0 -175 22.5t-136.5 53t-94.5 62.5t-59 54l-17 23l103 102q4 -6 14 -18.5t45 -42t76 -53t106.5 -42t137.5 -18.5q156 0 247 79t91 197q0 115 -93.5 196
t-244.5 81h-144v143h144q129 0 202.5 69.5t73.5 186.5q0 102 -74.5 169t-201.5 67q-59 0 -115.5 -16.5t-93.5 -41t-64.5 -49t-40.5 -41.5l-14 -16l-102 113q6 8 17 21t51 46t86 58.5t121 47t155 21.5q188 0 309 -110.5t121 -268.5q0 -70 -22.5 -127t-54.5 -91t-62.5 -57.5
t-53.5 -33.5z" />
    <glyph glyph-name="four" unicode="4" horiz-adv-x="1198" 
d="M942 451h184v-144h-184v-307h-154v307h-727v174l687 953h194v-983zM788 451v809l-583 -809h583z" />
    <glyph glyph-name="five" unicode="5" horiz-adv-x="1249" 
d="M635 922q207 0 344 -135.5t137 -335.5q0 -209 -135 -340t-356 -131q-88 0 -170 22.5t-134.5 53t-92.5 62.5t-56 54l-18 23l102 102q4 -6 14.5 -18.5t45 -42t73.5 -53t102.5 -42t133.5 -18.5q154 0 246 90t92 238q0 145 -91.5 236t-236.5 91q-96 0 -176 -39t-111 -75
l-31 -39h-112l51 809h768v-144h-635l-31 -450q12 8 34 22.5t93.5 37t149.5 22.5z" />
    <glyph glyph-name="six" unicode="6" horiz-adv-x="1208" 
d="M614 922q207 0 344.5 -135.5t137.5 -336t-139.5 -335.5t-352.5 -135t-352 135t-139 336q0 78 25.5 154.5t49.5 115.5l27 37l430 676h154l-338 -533q59 21 153 21zM942 450.5q0 147.5 -92 237.5t-245.5 90t-246 -90t-92.5 -237.5t92.5 -237.5t246 -90t245.5 90t92 237.5z
" />
    <glyph glyph-name="seven" unicode="7" horiz-adv-x="1013" 
d="M61 1434h902v-144l-635 -1290h-154l635 1290h-748v144z" />
    <glyph glyph-name="eight" unicode="8" horiz-adv-x="1208" 
d="M604 840q121 0 193.5 66.5t72.5 169t-72.5 169t-193.5 66.5t-193.5 -66.5t-72.5 -169t72.5 -169t193.5 -66.5zM604 1454q174 0 297 -114.5t123 -264.5q0 -59 -19.5 -112.5t-46 -85t-53 -55t-45.5 -34.5l-20 -10q10 -4 26.5 -11t58.5 -38t74.5 -67.5t59 -102t26.5 -139.5
q0 -180 -138 -310t-343 -130t-343 130t-138 310q0 74 25.5 138.5t61.5 103t71.5 66.5t62.5 38l25 12q-8 4 -20.5 10.5t-44.5 32t-56.5 57t-44 85t-19.5 112.5q0 150 123 264.5t297 114.5zM604 717q-135 0 -231.5 -90t-96.5 -207q0 -121 90.5 -209t238 -88t237.5 88t90 209
q0 117 -96.5 207t-231.5 90z" />
    <glyph glyph-name="nine" unicode="9" horiz-adv-x="1208" 
d="M594 512q-207 0 -344 135t-137 336t139 336t352 135t352.5 -135t139.5 -336q0 -78 -26 -154.5t-50 -115.5l-27 -37l-430 -676h-153l338 532q-60 -20 -154 -20zM266 983q0 -147 92.5 -237.5t246 -90.5t245.5 90.5t92 237.5t-92 237.5t-245.5 90.5t-246 -90.5t-92.5 -237.5
z" />
    <glyph glyph-name="colon" unicode=":" horiz-adv-x="430" 
d="M113 82q0 45 27.5 73.5t74.5 28.5t74.5 -28.5t27.5 -73.5t-27.5 -73.5t-74.5 -28.5t-74.5 28.5t-27.5 73.5zM113 901q0 45 27.5 74t74.5 29t74.5 -29t27.5 -74t-27.5 -73.5t-74.5 -28.5t-74.5 28.5t-27.5 73.5z" />
    <glyph glyph-name="semicolon" unicode=";" horiz-adv-x="450" 
d="M184 184l144 -82l-236 -368l-92 51zM133 901q0 45 27.5 74t75 29t75 -29t27.5 -74t-27.5 -73.5t-75 -28.5t-75 28.5t-27.5 73.5z" />
    <glyph glyph-name="less" unicode="&#x3c;" horiz-adv-x="1013" 
d="M92 461v82l830 440v-143l-646 -338l646 -338v-144z" />
    <glyph glyph-name="equal" unicode="=" horiz-adv-x="1013" 
d="M922 492v-134h-830v134h830zM922 850v-133h-830v133h830z" />
    <glyph glyph-name="greater" unicode="&#x3e;" horiz-adv-x="1013" 
d="M922 543v-82l-830 -441v144l645 338l-645 338v143z" />
    <glyph glyph-name="question" unicode="?" horiz-adv-x="1075" 
d="M584 348h-144q-10 45 -10 92q0 90 41 163t100.5 121t118 94t99 108.5t40.5 138.5q0 102 -80.5 174t-216.5 72q-74 0 -134 -23.5t-93 -56.5t-54.5 -65.5t-29.5 -55.5l-6 -25l-133 41q4 14 11 36t41 78t80 99t131 79t187 36q195 0 323 -115.5t128 -273.5
q0 -90 -29.5 -160.5t-73.5 -111.5t-96.5 -84t-96.5 -80t-73.5 -99.5t-29.5 -140.5v-41zM410 82q0 45 28.5 73.5t73.5 28.5t73.5 -28.5t28.5 -73.5t-28.5 -73.5t-73.5 -28.5t-73.5 28.5t-28.5 73.5z" />
    <glyph glyph-name="at" unicode="@" horiz-adv-x="1843" 
d="M901 758q-94 0 -159.5 -72t-65.5 -184.5t65.5 -184t159.5 -71.5q100 0 168 71.5t68 184t-68 184.5t-168 72zM891 881q78 0 139.5 -29t83.5 -57l23 -27v102h123v-467q0 -158 122 -157q80 0 132.5 73.5t52.5 233.5q0 262 -183.5 438t-461.5 176q-270 0 -458 -189.5
t-188 -465.5t187.5 -465.5t458.5 -189.5q109 0 206 32.5t140 65.5l43 35l71 -92q-6 -6 -19 -17.5t-57 -40t-93.5 -50t-128 -39t-162.5 -17.5q-315 0 -547 231.5t-232 546.5t231.5 546.5t547.5 231.5q326 0 552 -217t226 -520q0 -209 -90 -319.5t-228 -110.5q-47 0 -87 14.5
t-64.5 36t-42 43t-25.5 35.5l-6 14q-2 -6 -8 -15t-29.5 -33.5t-51.5 -44t-75 -35t-102 -15.5q-141 0 -244.5 109.5t-103.5 269.5t103.5 269.5t244.5 109.5z" />
    <glyph glyph-name="A" unicode="A" horiz-adv-x="1433" 
d="M993 543l-276 676l-277 -676h553zM1055 399h-676l-164 -399h-164l594 1434h143l594 -1434h-163z" />
    <glyph glyph-name="B" unicode="B" horiz-adv-x="1372" 
d="M1004 768q10 -4 25 -11t56 -38t72 -68t56.5 -102.5t25.5 -138.5q0 -178 -122 -294t-318 -116h-584v1434h553q174 0 286.5 -106.5t112.5 -262.5q0 -63 -16 -116.5t-41 -85.5t-49.5 -54.5t-40.5 -30.5zM369 143h430q129 0 207.5 75t78.5 192q0 119 -79.5 202.5t-206.5 83.5
h-430v-553zM768 1290h-399v-459h399q115 0 180.5 62.5t65.5 171.5q0 100 -65.5 162.5t-180.5 62.5z" />
    <glyph glyph-name="C" unicode="C" horiz-adv-x="1536" 
d="M123 717q0 307 215 522t522 215q109 0 209 -30.5t165.5 -73.5t115 -87t71.5 -75l23 -31l-103 -92q-6 10 -18 26.5t-56 58.5t-95.5 74.5t-135.5 59.5t-176 27q-246 0 -415 -171t-169 -423t169 -423t415 -171q92 0 176 25.5t139.5 61.5t97.5 71.5t60 62.5l19 25l102 -93
q-8 -12 -24.5 -31.5t-73 -70.5t-119.5 -91t-165.5 -71.5t-211.5 -31.5q-307 0 -522 215t-215 522z" />
    <glyph glyph-name="D" unicode="D" horiz-adv-x="1536" 
d="M215 1434h451q313 0 530 -211t217 -506t-217 -506t-530 -211h-451v1434zM666 1290h-297v-1147h297q252 0 423 167t171 406.5t-171 406.5t-423 167z" />
    <glyph glyph-name="E" unicode="E" horiz-adv-x="1310" 
d="M369 143h850v-143h-1004v1434h983v-144h-829v-471h665v-143h-665v-533z" />
    <glyph glyph-name="F" unicode="F" horiz-adv-x="1259" 
d="M215 1434h973v-144h-819v-491h655v-144h-655v-655h-154v1434z" />
    <glyph glyph-name="G" unicode="G" horiz-adv-x="1628" 
d="M123 717q0 307 215 522t522 215q109 0 209 -30.5t165.5 -73.5t115 -87t71.5 -75l23 -31l-103 -92q-6 10 -18 26.5t-56 58.5t-95.5 74.5t-135.5 59.5t-176 27q-246 0 -415 -171t-169 -423t169 -423t415 -171q86 0 164 20.5t128 49t88 56t54 48.5l17 20v277h-328v143h481
v-461q-8 -12 -25.5 -31.5t-74.5 -70.5t-122.5 -91t-169 -71.5t-212.5 -31.5q-307 0 -522 215t-215 522z" />
    <glyph glyph-name="H" unicode="H" horiz-adv-x="1536" 
d="M215 0v1434h154v-635h798v635h154v-1434h-154v655h-798v-655h-154z" />
    <glyph glyph-name="I" unicode="I" horiz-adv-x="583" 
d="M215 0v1434h154v-1434h-154z" />
    <glyph glyph-name="J" unicode="J" horiz-adv-x="1013" 
d="M655 1434h154v-1014q0 -193 -124 -316.5t-316 -123.5q-63 0 -122 16t-98.5 40.5t-69.5 49.5t-44 41l-15 16l103 103q4 -4 10 -13.5t28.5 -30t49.5 -36.5t70 -29.5t88 -13.5q131 0 208.5 80t77.5 217v1014z" />
    <glyph glyph-name="K" unicode="K" horiz-adv-x="1372" 
d="M369 625l737 809h194l-542 -594l594 -840h-185l-512 727l-286 -307v-420h-154v1434h154v-809z" />
    <glyph glyph-name="L" unicode="L" horiz-adv-x="1146" 
d="M1106 0h-891v1434h154v-1291h737v-143z" />
    <glyph glyph-name="M" unicode="M" horiz-adv-x="1884" 
d="M1516 1167l-574 -757l-573 757v-1167h-154v1434h133l594 -779l594 779h133v-1434h-153v1167z" />
    <glyph glyph-name="N" unicode="N" horiz-adv-x="1597" 
d="M1229 1434h153v-1434h-133l-880 1157v-1157h-154v1434h133l881 -1158v1158z" />
    <glyph glyph-name="O" unicode="O" horiz-adv-x="1720" 
d="M276 717q0 -252 169 -423t415 -171t415 171t169 423t-169 423t-415 171t-415 -171t-169 -423zM1597 717q0 -307 -215 -522t-522 -215t-522 215t-215 522t215 522t522 215t522 -215t215 -522z" />
    <glyph glyph-name="P" unicode="P" horiz-adv-x="1331" 
d="M215 1434h543q199 0 330 -129t131 -321.5t-131.5 -322t-329.5 -129.5h-389v-532h-154v1434zM758 1290h-389v-614h389q139 0 223 84t84 223t-84 223t-223 84z" />
    <glyph glyph-name="Q" unicode="Q" horiz-adv-x="1720" 
d="M1597 717q0 -100 -23.5 -191.5t-60 -156t-80.5 -120.5t-89.5 -91t-82 -60.5t-61.5 -36.5l-22 -10q4 -8 13 -22.5t44 -49t76 -61.5t109.5 -49.5t146.5 -22.5l92 11v-133q-31 -10 -92 -11q-109 0 -204 30t-152.5 72t-99.5 84t-58 72l-19 29q-72 -20 -174 -20
q-307 0 -522 215t-215 522t215 522t522 215t522 -215t215 -522zM276 717q0 -252 169 -423t415 -171t415 171t169 423t-169 423t-415 171t-415 -171t-169 -423z" />
    <glyph glyph-name="R" unicode="R" horiz-adv-x="1382" 
d="M215 1434h573q190 0 315.5 -123t125.5 -307q0 -92 -31 -168t-74 -119t-87 -73t-74 -40l-31 -10l338 -594h-174l-318 573h-409v-573h-154v1434zM788 1290h-419v-573h419q131 0 209 77.5t78 209t-78 209t-209 77.5z" />
    <glyph glyph-name="S" unicode="S" horiz-adv-x="1157" 
d="M901 389q0 74 -43 126t-111.5 81t-151.5 52.5t-166 52t-151.5 69.5t-111.5 116t-43 179q0 162 127 275.5t334 113.5q78 0 148.5 -19.5t117.5 -46t84 -53t53 -45.5l17 -20l-103 -103q-4 6 -12 15.5t-38 34t-63.5 44t-89 35t-114.5 15.5q-141 0 -224.5 -72t-83.5 -174
q0 -74 43 -126t112 -81t152 -52.5t165.5 -52t151.5 -69.5t112 -115.5t43 -179.5q0 -182 -128 -295.5t-354 -113.5q-92 0 -175 22.5t-136 53t-94 62.5t-57 54l-19 23l94 104q4 -6 14.5 -18.5t45.5 -43t75.5 -53t109.5 -42t142 -19.5q158 0 243 73.5t85 192.5z" />
    <glyph glyph-name="T" unicode="T" horiz-adv-x="1136" 
d="M41 1434h1055v-144h-451v-1290h-153v1290h-451v144z" />
    <glyph glyph-name="U" unicode="U" horiz-adv-x="1556" 
d="M778 123q178 0 304 128t126 312v871h154v-871q0 -238 -173 -410.5t-410.5 -172.5t-410.5 173t-173 410v871h153v-871q0 -184 126 -312t304 -128z" />
    <glyph glyph-name="V" unicode="V" horiz-adv-x="1392" 
d="M625 0l-564 1434h164l471 -1219l471 1219h164l-563 -1434h-143z" />
    <glyph glyph-name="W" unicode="W" horiz-adv-x="2129" 
d="M1444 0l-379 1198l-379 -1198h-154l-471 1434h164l379 -1198l389 1198h144l389 -1198l379 1198h163l-471 -1434h-153z" />
    <glyph glyph-name="X" unicode="X" horiz-adv-x="1331" 
d="M666 870l399 564h184l-491 -686l532 -748h-184l-440 625l-441 -625h-184l532 748l-491 686h184z" />
    <glyph glyph-name="Y" unicode="Y" horiz-adv-x="1300" 
d="M645 666h10l430 768h175l-533 -932v-502h-154v502l-532 932h174z" />
    <glyph glyph-name="Z" unicode="Z" horiz-adv-x="1228" 
d="M932 1290h-809v144h993v-144l-840 -1147h861v-143h-1045v143z" />
    <glyph glyph-name="bracketleft" unicode="[" horiz-adv-x="686" 
d="M328 1321v-1618h276v-133h-420v1884h420v-133h-276z" />
    <glyph glyph-name="backslash" unicode="\" horiz-adv-x="890" 
d="M686 -430l-614 1884h133l614 -1884h-133z" />
    <glyph glyph-name="bracketright" unicode="]" horiz-adv-x="686" 
d="M358 -297v1618h-276v133h420v-1884h-420v133h276z" />
    <glyph glyph-name="asciicircum" unicode="^" horiz-adv-x="819" 
d="M358 1434h103l266 -574h-133l-184 410l-185 -410h-133z" />
    <glyph glyph-name="underscore" unicode="_" horiz-adv-x="675" 
d="M696 -215v-133h-716v133h716z" />
    <glyph glyph-name="grave" unicode="`" horiz-adv-x="430" 
d="M215 1434l154 -277h-113l-195 277h154z" />
    <glyph glyph-name="a" unicode="a" horiz-adv-x="1064" 
d="M369 563l379 62q0 109 -69 177t-177 68q-78 0 -146.5 -35.5t-99.5 -72.5l-31 -35l-92 92q6 8 16.5 20.5t46 44t74.5 56.5t102.5 44.5t129.5 19.5q168 0 278.5 -109t110.5 -270v-625h-143v133q-4 -6 -12.5 -16.5t-38 -37t-63.5 -47t-89.5 -36.5t-114.5 -16
q-147 0 -247.5 87t-100.5 199q0 123 74 198.5t213 98.5zM430 113q139 0 228.5 91t89.5 236v62l-338 -62q-184 -35 -185 -174q0 -66 54.5 -109.5t150.5 -43.5z" />
    <glyph glyph-name="b" unicode="b" horiz-adv-x="1228" 
d="M307 491.5q0 -151.5 107.5 -265t240.5 -113.5q127 0 227.5 110.5t100.5 268t-100.5 268t-227.5 110.5q-133 0 -240.5 -113.5t-107.5 -265zM307 1434v-605q4 6 14.5 18.5t43 42.5t70.5 53.5t97.5 42t122.5 18.5q188 0 329.5 -151t141.5 -361.5t-141 -361t-330 -150.5
q-63 0 -121.5 18t-98.5 43t-69.5 50.5t-43.5 43.5l-15 19v-154h-143v1434h143z" />
    <glyph glyph-name="c" unicode="c" horiz-adv-x="1054" 
d="M82 492q0 213 145.5 362.5t345.5 149.5q115 0 214.5 -49.5t142.5 -98.5l43 -47l-103 -102q-4 6 -12 17t-35.5 40t-59.5 50.5t-83 38.5t-107 17q-141 0 -244.5 -109.5t-103.5 -269t103.5 -269t244.5 -109.5q86 0 163 41t112 82l33 40l102 -92q-6 -8 -18.5 -22.5t-52.5 -49
t-84 -61t-113.5 -49t-141.5 -22.5q-201 0 -346 149.5t-145 362.5z" />
    <glyph glyph-name="d" unicode="d" horiz-adv-x="1228" 
d="M901 491.5q0 151.5 -107.5 265t-240.5 113.5q-127 0 -227.5 -110.5t-100.5 -268t100.5 -268t227.5 -110.5q133 0 240.5 113.5t107.5 265zM901 829v605h143v-1434h-143v154q-4 -6 -14 -18.5t-43 -42.5t-71 -53.5t-97.5 -41.5t-122.5 -18q-188 0 -329.5 150.5t-141.5 361
t141.5 361.5t329.5 151q63 0 121.5 -18.5t98.5 -43t69.5 -50.5t44.5 -44z" />
    <glyph glyph-name="e" unicode="e" horiz-adv-x="1136" 
d="M1024 438l-799 2q8 -133 109.5 -230t238.5 -97q92 0 171 41t112 82l35 40l92 -92q-6 -8 -17.5 -22.5t-50 -49t-83 -61t-115 -49t-144.5 -22.5q-201 0 -346 149.5t-145 362.5t143.5 362.5t337.5 149.5q201 0 336 -139.5t135 -352.5zM563 870q-129 0 -225 -91t-113 -216
h666q-16 133 -107.5 220t-220.5 87z" />
    <glyph glyph-name="f" unicode="f" horiz-adv-x="655" 
d="M584 983v-133h-236v-850h-143v850h-154v133h154v184q0 137 70.5 212t195.5 75q37 0 73 -8t54 -16l16 -7v-133q-61 31 -133 31q-133 0 -133 -154v-184h236z" />
    <glyph glyph-name="g" unicode="g" 
d="M870 61v123q-4 -6 -12 -17t-37.5 -40t-64.5 -50.5t-92.5 -39t-120.5 -17.5q-186 0 -323.5 143.5t-137.5 348.5t137 348.5t324 143.5q63 0 119.5 -16.5t93.5 -41t63.5 -49.5t38.5 -41l12 -16v143h144v-922q0 -207 -140.5 -349t-341.5 -142q-78 0 -148.5 21.5t-115.5 51
t-79.5 59.5t-49.5 52l-16 21l92 92q4 -6 13.5 -17.5t40 -40t64.5 -50t88 -39t111 -17.5q139 0 238.5 103t99.5 255zM225 512q0 -150 96.5 -254t221.5 -104q133 0 230 103t97 255t-97 255t-230 103q-125 0 -221.5 -104t-96.5 -254z" />
    <glyph glyph-name="h" unicode="h" horiz-adv-x="1198" 
d="M307 1434v-594q4 6 12.5 17t38 40t63.5 50.5t89 39t115 17.5q178 0 288.5 -115t110.5 -305v-584h-143v584q0 129 -75 207.5t-192 78.5q-131 0 -219 -92t-88 -235v-543h-143v1434h143z" />
    <glyph glyph-name="i" unicode="i" horiz-adv-x="471" 
d="M154 0v983h143v-983h-143zM133 1311q0 39 26.5 65.5t65.5 26.5t65.5 -26.5t26.5 -65.5t-26.5 -65.5t-65.5 -26.5t-65.5 26.5t-26.5 65.5z" />
    <glyph glyph-name="j" unicode="j" horiz-adv-x="471" 
d="M154 -143v1126h143v-1126q0 -287 -266 -287q-33 0 -63.5 8t-45.5 16l-14 7v133q51 -31 112 -31q134 0 134 154zM133 1311q0 39 26.5 65.5t65.5 26.5t65.5 -26.5t26.5 -65.5t-26.5 -65.5t-65.5 -26.5t-65.5 26.5t-26.5 65.5z" />
    <glyph glyph-name="k" unicode="k" horiz-adv-x="1044" 
d="M307 276v-276h-143v1434h143v-973l492 522h174l-379 -399l420 -584h-164l-348 481z" />
    <glyph glyph-name="l" unicode="l" horiz-adv-x="491" 
d="M307 1434v-1434h-143v1434h143z" />
    <glyph glyph-name="m" unicode="m" horiz-adv-x="1781" 
d="M1464 0v584q0 137 -67.5 211.5t-177.5 74.5q-113 0 -190 -89t-77 -238v-543h-143v584q0 135 -67.5 210.5t-178.5 75.5q-113 0 -189.5 -89t-76.5 -238v-543h-143v983h143v-123q4 6 10 15.5t30.5 34t54.5 44t78 35t103 15.5q66 0 123.5 -18.5t91 -43t58 -50.5t35.5 -44
l10 -19q4 6 11 18.5t37 42.5t64.5 53.5t95 42t130.5 18.5q168 0 273.5 -111t105.5 -309v-584h-144z" />
    <glyph glyph-name="n" unicode="n" 
d="M297 983v-143q4 6 12 17t38 40t63.5 50.5t89 39t114.5 17.5q178 0 289 -115t111 -305v-584h-144v584q0 129 -74.5 207.5t-191.5 78.5q-131 0 -219 -92t-88 -235v-543h-143v983h143z" />
    <glyph glyph-name="o" unicode="o" 
d="M942 491.5q0 159.5 -105.5 269t-253 109.5t-253 -109.5t-105.5 -268.5q0 -158 105.5 -268.5t253 -110.5t253 109.5t105.5 269zM82 491.5q0 215.5 146.5 364t355.5 148.5t355 -148.5t146 -364t-146 -363.5t-355 -148t-355.5 148t-146.5 363.5z" />
    <glyph glyph-name="p" unicode="p" horiz-adv-x="1218" 
d="M297 491.5q0 -151.5 107.5 -265t240.5 -113.5q127 0 227.5 110.5t100.5 268t-100.5 268t-227.5 110.5q-133 0 -240.5 -113.5t-107.5 -265zM297 154v-584h-143v1413h143v-154q4 6 14.5 18.5t43 42.5t70.5 53.5t97.5 42t122.5 18.5q188 0 329.5 -151t141.5 -361.5
t-141 -361t-330 -150.5q-63 0 -121.5 18t-98.5 43t-69.5 50.5t-44.5 43.5z" />
    <glyph glyph-name="q" unicode="q" horiz-adv-x="1218" 
d="M901 491.5q0 151.5 -107.5 265t-240.5 113.5q-127 0 -227.5 -110.5t-100.5 -268t100.5 -268t227.5 -110.5q133 0 240.5 113.5t107.5 265zM901 -430v584q-4 -6 -14 -18.5t-43 -42.5t-71 -53.5t-97.5 -41.5t-122.5 -18q-188 0 -329.5 150.5t-141.5 361t141.5 361.5
t329.5 151q63 0 121.5 -18.5t98.5 -43t69.5 -50.5t44.5 -44l14 -19v154h143v-1413h-143z" />
    <glyph glyph-name="r" unicode="r" horiz-adv-x="706" 
d="M666 1004v-144h-62q-127 0 -217 -88t-90 -229v-543h-143v983h143v-133q4 6 12 16.5t38 37t64.5 47t92 37t121.5 16.5h41z" />
    <glyph glyph-name="s" unicode="s" horiz-adv-x="880" 
d="M748 870l-103 -102q-8 12 -23.5 28.5t-71.5 45t-120 28.5q-82 0 -133 -43t-51 -100q0 -59 55 -95t133 -57.5t156 -49t133 -90t55 -159.5q0 -127 -97 -211.5t-261 -84.5q-70 0 -131.5 18t-101.5 43t-69.5 50.5t-43.5 43.5l-13 19l103 102q4 -6 11 -15.5t31.5 -34t52.5 -44
t72 -34.5t89 -15q104 0 159.5 46t55.5 117q0 61 -55.5 99.5t-133 61t-155.5 50t-133.5 87t-55.5 153.5q0 111 93.5 194t234.5 83q57 0 111.5 -13.5t89.5 -33t62.5 -40t39.5 -32.5z" />
    <glyph glyph-name="t" unicode="t" horiz-adv-x="737" 
d="M246 1085v226h133v-328h215v-133h-215v-584q0 -154 133 -153q33 0 65.5 8t49.5 14l18 8v-133q-61 -31 -139 -30q-127 0 -198.5 74.5t-71.5 211.5v584h-185v133h113q82 0 82 102z" />
    <glyph glyph-name="u" unicode="u" horiz-adv-x="1198" 
d="M870 0v133q-4 -6 -12 -16.5t-37.5 -37t-63.5 -47t-89.5 -36.5t-114.5 -16q-172 0 -285.5 119.5t-113.5 310.5v573h143v-573q0 -129 80 -213t196 -84q125 0 211 92t86 235v543h144v-983h-144z" />
    <glyph glyph-name="v" unicode="v" horiz-adv-x="1003" 
d="M563 0h-143l-400 983h154l318 -788l317 788h154z" />
    <glyph glyph-name="w" unicode="w" horiz-adv-x="1495" 
d="M676 983h123l245 -758l256 758h154l-338 -983h-133l-246 748l-245 -748h-134l-338 983h154l256 -758z" />
    <glyph glyph-name="x" unicode="x" horiz-adv-x="983" 
d="M481 399l-286 -399h-175l369 512l-338 471h174l256 -358l256 358h174l-338 -471l369 -512h-174z" />
    <glyph glyph-name="y" unicode="y" horiz-adv-x="1003" 
d="M369 -143l51 143l-400 983h154l318 -799l317 799h154l-451 -1126q-61 -156 -131 -221.5t-176 -65.5q-33 0 -63.5 5t-45.5 11l-14 4v134q51 -20 102 -21q130 0 185 154z" />
    <glyph glyph-name="z" unicode="z" horiz-adv-x="952" 
d="M840 983v-133l-594 -717h614v-133h-788v133l594 717h-574v133h748z" />
    <glyph glyph-name="braceleft" unicode="{" horiz-adv-x="727" 
d="M123 451v122q143 0 143 144v461q0 125 82 200.5t225 75.5h82v-123h-82q-84 0 -129 -42t-45 -111v-461q0 -49 -12 -88t-30.5 -59.5t-37 -35t-30.5 -18.5l-13 -4q4 -2 13.5 -5t30 -17.5t37 -35t29.5 -59.5t13 -88v-461q0 -70 45 -111.5t129 -41.5h82v-123h-82
q-143 0 -225 75.5t-82 200.5v461q0 144 -143 144z" />
    <glyph glyph-name="bar" unicode="|" horiz-adv-x="686" 
d="M410 1454v-1884h-134v1884h134z" />
    <glyph glyph-name="braceright" unicode="}" horiz-adv-x="727" 
d="M604 573v-122q-143 0 -143 -144v-461q0 -125 -82 -200.5t-225 -75.5h-82v123h82q84 0 129 42t45 111v461q0 49 12 88t30.5 59.5t37 35t30.5 18.5l13 4q-4 2 -13.5 5t-30 17.5t-37 35t-29.5 59.5t-13 88v461q0 70 -45 111.5t-129 41.5h-82v123h82q143 0 225 -75.5
t82 -200.5v-461q0 -144 143 -144z" />
    <glyph glyph-name="asciitilde" unicode="~" horiz-adv-x="1085" 
d="M348 614q-59 0 -105 -30.5t-63 -61.5l-16 -30l-92 71q4 6 11 18.5t32.5 42t55.5 53t78 42t99 18.5q86 0 151.5 -35.5t120 -71.5t117.5 -36q59 0 105.5 30.5t62.5 61.5l17 31l92 -72q-4 -6 -11.5 -18.5t-33 -42t-55 -53t-78 -42t-99.5 -18.5q-86 0 -151.5 36t-120 71.5
t-117.5 35.5z" />
    <glyph glyph-name="uni00A0" unicode="&#xa0;" horiz-adv-x="389" 
 />
    <glyph glyph-name="exclamdown" unicode="&#xa1;" horiz-adv-x="573" 
d="M225 635h123l31 -1065h-184zM389 901q0 -45 -28.5 -73.5t-73.5 -28.5t-74 28.5t-29 73.5t29 74t74 29t73.5 -29t28.5 -74z" />
    <glyph glyph-name="cent" unicode="&#xa2;" horiz-adv-x="1024" 
d="M82 492q0 195 123 337t297 168v211h133v-213q90 -14 170 -58t113 -81l34 -37l-92 -92q-12 16 -33.5 40t-96.5 63.5t-157 39.5q-141 0 -244.5 -109.5t-103.5 -269t103.5 -269t244.5 -109.5q82 0 154 35.5t102 72.5l31 35l92 -92q-12 -16 -36.5 -43t-107.5 -75t-173 -58
v-213h-133v211q-176 27 -298 166t-122 340z" />
    <glyph glyph-name="sterling" unicode="&#xa3;" horiz-adv-x="1146" 
d="M276 1004q0 199 124 324.5t317 125.5q70 0 132 -18.5t104 -43t73 -50t45 -44.5l14 -18l-102 -102q-10 14 -30.5 36.5t-89 59.5t-146.5 37q-123 0 -210 -89t-87 -218v-267h420v-143h-420v-318q0 -41 -13.5 -73.5t-25.5 -46.5l-12 -13h716v-143h-952v143q61 0 102 39t41 94
v318h-133v143h133v267z" />
    <glyph glyph-name="currency" unicode="&#xa4;" horiz-adv-x="1372" 
d="M102 573v144h164v717h533q199 0 324.5 -122t125.5 -308.5t-126 -308.5t-324 -122h-379v-174h502v-143h-502v-256h-154v256h-164v143h164v174h-164zM799 1290h-379v-573h379q129 0 213 82t84 204.5t-84 204.5t-213 82z" />
    <glyph glyph-name="yen" unicode="&#xa5;" horiz-adv-x="1300" 
d="M1055 522h-318l-10 -20v-133h328v-133h-328v-236h-154v236h-327v133h327v133l-12 20h-315v133h239l-444 779h174l430 -768h10l430 768h175l-447 -779h242v-133z" />
    <glyph glyph-name="brokenbar" unicode="&#xa6;" horiz-adv-x="686" 
d="M276 348h134v-778h-134v778zM410 676h-134v778h134v-778z" />
    <glyph glyph-name="section" unicode="&#xa7;" horiz-adv-x="1105" 
d="M276 655q0 -63 50.5 -112t104.5 -71.5t129 -45.5t85 -27q8 2 20.5 5.5t44 17.5t56.5 33.5t44 56.5t19 82q0 51 -29.5 94t-80.5 70.5t-96 46t-97.5 34t-64.5 21.5q-8 -2 -20.5 -5t-44 -19.5t-56.5 -37t-44.5 -59.5t-19.5 -84zM973 594q0 -86 -51.5 -152.5t-102.5 -89.5
l-51 -24q6 -2 16.5 -8.5t37 -27t47 -45t37 -63.5t16.5 -82q0 -135 -111 -231t-289 -96q-70 0 -132 19.5t-104 46t-73 53t-45 45.5l-14 20l102 102q4 -6 11 -16t33 -36.5t53.5 -47t73.5 -37t95 -16.5q119 0 187.5 57.5t68.5 136.5q0 66 -66.5 112t-161.5 78t-189.5 69.5
t-161 111.5t-66.5 182q0 55 21.5 103.5t51.5 79t59.5 53t49.5 31.5l23 10q-6 2 -15.5 7t-34 24.5t-44 42t-34.5 60.5t-15 81q0 127 102 217t266 90q92 0 174 -36t119 -70l35 -37l-103 -94q-10 12 -28.5 29.5t-77.5 46t-119 28.5q-104 0 -164.5 -51t-60.5 -123
q0 -68 65.5 -114t158.5 -76.5t186.5 -68.5t159 -111.5t65.5 -182.5z" />
    <glyph glyph-name="dieresis" unicode="&#xa8;" horiz-adv-x="696" 
d="M61 1300.5q0 38.5 27 65.5t66 27t65.5 -27t26.5 -65.5t-26.5 -65.5t-65.5 -27t-66 27t-27 65.5zM451 1300.5q0 38.5 26.5 65.5t65.5 27t65.5 -27t26.5 -65.5t-26.5 -65.5t-65.5 -27t-65.5 27t-26.5 65.5z" />
    <glyph glyph-name="copyright" unicode="&#xa9;" horiz-adv-x="1802" 
d="M287 717q0 -262 176 -438.5t438 -176.5t438.5 176.5t176.5 438.5t-176.5 438t-438.5 176t-438 -176t-176 -438zM645 716.5q0 -114.5 76 -190t190 -75.5q68 0 124.5 28.5t78.5 57.5l23 26l82 -82q-4 -6 -12.5 -16t-37 -37t-61.5 -47.5t-86 -36.5t-111 -16
q-170 0 -279.5 110.5t-109.5 278.5t109.5 278.5t279.5 110.5q90 0 167 -39t110 -76l31 -39l-82 -82q-2 4 -8.5 12.5t-27 28t-45 33.5t-63.5 26.5t-82 12.5q-115 0 -190.5 -76t-75.5 -190.5zM1649 717q0 -307 -217.5 -522t-530.5 -215t-530 215t-217 522t217 522t530 215
t530.5 -215t217.5 -522z" />
    <glyph glyph-name="ordfeminine" unicode="&#xaa;" horiz-adv-x="675" 
d="M266 829q-82 0 -138 50.5t-56 113.5q0 150 184 185l215 41q0 61 -36 97t-97 36q-45 0 -84 -20.5t-53 -41.5l-17 -20l-71 61q8 14 24.5 34.5t74.5 54.5t126 34q115 0 175 -58.5t60 -166.5v-379h-102v82q-6 -12 -18.5 -28.5t-65.5 -45.5t-121 -29zM471 1126l-195 -41
q-92 -18 -92 -81q0 -82 103 -82q78 0 131 52t53 132v20z" />
    <glyph glyph-name="guillemotleft" unicode="&#xab;" horiz-adv-x="952" 
d="M328 154l-236 338l236 337h153l-235 -337l235 -338h-153zM707 154l-236 338l236 337h153l-235 -337l235 -338h-153z" />
    <glyph glyph-name="logicalnot" unicode="&#xac;" horiz-adv-x="942" 
d="M860 799v-420h-143v287h-625v133h768z" />
    <glyph glyph-name="uni00AD" unicode="&#xad;" horiz-adv-x="870" 
d="M778 666v-134h-686v134h686z" />
    <glyph glyph-name="registered" unicode="&#xae;" horiz-adv-x="1802" 
d="M1044 655l185 -317h-131l-156 287h-174v-287h-123v758h289q113 0 183.5 -67.5t70.5 -168.5q0 -68 -36 -119t-71 -69zM768 973v-225h174q133 0 133 112.5t-133 112.5h-174zM287 717q0 -262 176 -438.5t438 -176.5t438.5 176.5t176.5 438.5t-176.5 438t-438.5 176
t-438 -176t-176 -438zM1649 717q0 -307 -217.5 -522t-530.5 -215t-530 215t-217 522t217 522t530 215t530.5 -215t217.5 -522z" />
    <glyph glyph-name="macron" unicode="&#xaf;" horiz-adv-x="716" 
d="M655 1413v-113h-594v113h594z" />
    <glyph glyph-name="degree" unicode="&#xb0;" horiz-adv-x="737" 
d="M205 1177.5q0 -69.5 47 -116.5t116.5 -47t116.5 47t47 116.5t-47 116.5t-116.5 47t-116.5 -47t-47 -116.5zM655 1177.5q0 -116.5 -81.5 -196.5t-204.5 -80t-205 80t-82 196.5t82 196.5t205 80t204.5 -80t81.5 -196.5z" />
    <glyph glyph-name="plusminus" unicode="&#xb1;" horiz-adv-x="1054" 
d="M92 51v133h871v-133h-871zM594 317h-133v390h-379v133h379v389h133v-389h379v-133h-379v-390z" />
    <glyph glyph-name="uni00B2" unicode="&#xb2;" horiz-adv-x="614" 
d="M543 922h-482q0 86 38 154.5t92.5 112.5t108.5 81t92 78t38 86q0 47 -35 79.5t-88 32.5q-45 0 -81 -27.5t-50 -56.5l-12 -28l-92 30q2 8 6 20.5t21.5 44.5t41 56.5t67.5 44t99 19.5q106 0 171 -60.5t65 -154.5q0 -63 -29 -112.5t-74 -83.5t-92 -63.5t-91 -68.5t-62 -82
h348v-102z" />
    <glyph glyph-name="uni00B3" unicode="&#xb3;" horiz-adv-x="634" 
d="M451 1300q4 -2 12 -4t27.5 -15t34 -30.5t26.5 -50.5t12 -74q0 -94 -66.5 -154.5t-179.5 -60.5q-82 0 -148.5 31t-90.5 62l-27 30l72 82q8 -12 23.5 -28.5t65.5 -45t105 -28.5q133 0 134 112q0 55 -38 89t-106 34h-82v103h82q53 0 83 27.5t30 74.5q0 41 -32 66.5t-91 25.5
q-43 0 -81 -22.5t-54 -44.5l-17 -23l-73 76q8 12 24.5 31.5t75.5 52.5t125 33q104 0 169.5 -57.5t65.5 -137.5q0 -55 -20 -93t-41 -50z" />
    <glyph glyph-name="acute" unicode="&#xb4;" horiz-adv-x="430" 
d="M61 1157l154 277h154l-195 -277h-113z" />
    <glyph glyph-name="mu" unicode="&#xb5;" 
d="M860 143q-4 -6 -11 -17t-35 -40t-60.5 -50.5t-87 -38.5t-113.5 -17q-78 0 -141.5 20t-87.5 41l-27 20v-491h-143v1413h143v-584q0 -129 74.5 -207.5t191.5 -78.5q125 0 206 87t81 230v553h143v-778q0 -39 27 -65.5t65 -26.5l52 10v-133q-20 -10 -62 -10q-57 0 -100 16
t-64.5 40.5t-34 49.5t-14.5 41z" />
    <glyph glyph-name="paragraph" unicode="&#xb6;" horiz-adv-x="1105" 
d="M430 -205v963q-139 0 -238.5 100t-99.5 237.5t99.5 238t238.5 100.5h481v-1639h-133v1505h-215v-1505h-133z" />
    <glyph glyph-name="periodcentered" unicode="&#xb7;" horiz-adv-x="389" 
d="M92 512q0 45 27.5 73.5t75 28.5t75 -28.5t27.5 -73.5t-27.5 -73.5t-75 -28.5t-75 28.5t-27.5 73.5z" />
    <glyph glyph-name="cedilla" unicode="&#xb8;" horiz-adv-x="491" 
d="M236 41h92l-72 -154h10q76 0 120 -41t44 -106q0 -68 -52 -114t-142 -46q-45 0 -89.5 16.5t-64.5 32.5l-21 17l41 67q51 -51 134 -51q45 0 73.5 24.5t28.5 57.5q0 31 -22.5 51.5t-59.5 20.5q-16 0 -31.5 -5.5t-23.5 -11.5l-6 -4l-52 51z" />
    <glyph glyph-name="uni00B9" unicode="&#xb9;" horiz-adv-x="430" 
d="M215 1638h92v-716h-112v542h-134v82q55 0 93.5 23.5t50.5 46.5z" />
    <glyph glyph-name="ordmasculine" unicode="&#xba;" horiz-adv-x="737" 
d="M174 1136.5q0 -98.5 54.5 -156.5t140.5 -58t140 58t54 156.5t-54 157t-140 58.5t-140.5 -58.5t-54.5 -157zM676 1136.5q0 -137.5 -88 -227.5t-219 -90t-219.5 90t-88.5 227.5t88.5 227.5t219.5 90t219 -90t88 -227.5z" />
    <glyph glyph-name="guillemotright" unicode="&#xbb;" horiz-adv-x="952" 
d="M860 492l-235 -338h-154l236 338l-236 337h154zM481 492l-235 -338h-154l236 338l-236 337h154z" />
    <glyph glyph-name="onequarter" unicode="&#xbc;" horiz-adv-x="1361" 
d="M133 0l881 1434h133l-881 -1434h-133zM236 1434h92v-717h-113v543h-133v81q55 0 93 24t50 46zM1198 266h82v-102h-82v-164h-113v164h-337v102l317 451h133v-451zM1085 266v318l-225 -318h225z" />
    <glyph glyph-name="onehalf" unicode="&#xbd;" horiz-adv-x="1423" 
d="M133 0l881 1434h133l-881 -1434h-133zM236 1434h92v-717h-113v543h-133v81q55 0 93 24t50 46zM1331 0h-481q0 86 38 154.5t92 112.5t108.5 81t92.5 78t38 86q0 47 -35 80t-88 33q-45 0 -81 -28t-48 -56l-15 -29l-92 31q2 8 6 20t21.5 44t41 56.5t67.5 44t100 19.5
q106 0 170.5 -60.5t64.5 -154.5q0 -63 -28.5 -112.5t-73.5 -83t-92 -63.5t-91.5 -69t-62.5 -82h348v-102z" />
    <glyph glyph-name="threequarters" unicode="&#xbe;" horiz-adv-x="1495" 
d="M266 0l881 1434h133l-881 -1434h-133zM1331 266h82v-102h-82v-164h-112v164h-338v102l317 451h133v-451zM1219 266v318l-226 -318h226zM461 1096q4 -2 12 -4t27.5 -15.5t34 -31t26.5 -50t12 -73.5q0 -94 -66.5 -154.5t-178.5 -60.5q-82 0 -148.5 30.5t-93.5 61.5l-25 30
l72 82q8 -12 23.5 -28.5t65.5 -45t106 -28.5q133 0 133 113q0 55 -38 88.5t-106 33.5h-81v103h81q53 0 83 27.5t30 74.5q0 41 -31.5 66.5t-91.5 25.5q-43 0 -81 -22.5t-54 -44.5l-16 -23l-74 76q8 12 24.5 31.5t76 52.5t124.5 33q104 0 170 -57.5t66 -137.5q0 -55 -20.5 -93
t-41.5 -50z" />
    <glyph glyph-name="questiondown" unicode="&#xbf;" horiz-adv-x="952" 
d="M461 635h143q10 -45 10 -92q0 -76 -29.5 -139.5t-73.5 -102.5t-96.5 -80t-96.5 -75.5t-73.5 -89t-29.5 -117.5q0 -102 81 -174t216 -72q74 0 133.5 23.5t90 56t51 65.5t26.5 56l6 24l133 -41q-2 -14 -9 -35.5t-40 -78t-77 -99.5t-128 -79t-186 -36q-195 0 -323 116
t-128 274q0 90 30 159.5t74 108.5t96 79t96 74.5t74 95t30 138.5v41zM635 901q0 -45 -28.5 -73.5t-74 -28.5t-74 28.5t-28.5 73.5t28.5 74t74 29t74 -29t28.5 -74z" />
    <glyph glyph-name="Agrave" unicode="&#xc0;" horiz-adv-x="1433" 
d="M993 543l-276 676l-277 -676h553zM1055 399h-676l-164 -399h-164l594 1434h143l594 -1434h-163zM614 1905l154 -277h-113l-194 277h153z" />
    <glyph glyph-name="Aacute" unicode="&#xc1;" horiz-adv-x="1433" 
d="M993 543l-276 676l-277 -676h553zM1055 399h-676l-164 -399h-164l594 1434h143l594 -1434h-163zM676 1628l153 277h154l-195 -277h-112z" />
    <glyph glyph-name="Acircumflex" unicode="&#xc2;" horiz-adv-x="1433" 
d="M993 543l-276 676l-277 -676h553zM1055 399h-676l-164 -399h-164l594 1434h143l594 -1434h-163zM788 1905l226 -277h-133l-164 195l-164 -195h-133l225 277h143z" />
    <glyph glyph-name="Atilde" unicode="&#xc3;" horiz-adv-x="1433" 
d="M993 543l-276 676l-277 -676h553zM1055 399h-676l-164 -399h-164l594 1434h143l594 -1434h-163zM584 1761q-33 0 -57.5 -33.5t-24.5 -99.5h-103q0 119 52.5 182.5t132.5 63.5q61 0 108 -34t84 -66.5t74 -32.5q33 0 57.5 33.5t24.5 99.5h102q0 -119 -52 -182.5t-132 -63.5
q-61 0 -108.5 34t-84 66.5t-73.5 32.5z" />
    <glyph glyph-name="Adieresis" unicode="&#xc4;" horiz-adv-x="1433" 
d="M993 543l-276 676l-277 -676h553zM1055 399h-676l-164 -399h-164l594 1434h143l594 -1434h-163zM430 1753q0 39 26.5 65.5t65.5 26.5t65.5 -26.5t26.5 -65.5t-26.5 -65.5t-65.5 -26.5t-65.5 26.5t-26.5 65.5zM819 1753q0 39 26.5 65.5t65.5 26.5t66 -26.5t27 -65.5
t-27 -65.5t-66 -26.5t-65.5 26.5t-26.5 65.5z" />
    <glyph glyph-name="Aring" unicode="&#xc5;" horiz-adv-x="1433" 
d="M993 543l-276 676l-277 -676h553zM1055 399h-676l-164 -399h-164l594 1434h143l594 -1434h-163zM625 1761q0 -45 26.5 -73.5t65.5 -28.5t65.5 28.5t26.5 73.5t-26.5 74t-65.5 29t-65.5 -29t-26.5 -74zM911 1761q0 -84 -55 -139t-139 -55t-139.5 55t-55.5 139t55.5 139.5
t139.5 55.5t139 -55.5t55 -139.5z" />
    <glyph glyph-name="AE" unicode="&#xc6;" horiz-adv-x="1966" 
d="M1116 143h758v-143h-911v420h-605l-235 -420h-164l799 1434h1095v-144h-737v-471h574v-143h-574v-533zM840 1290l-410 -727h533v727h-123z" />
    <glyph glyph-name="Ccedilla" unicode="&#xc7;" horiz-adv-x="1536" 
d="M123 717q0 307 215 522t522 215q109 0 209 -30.5t165.5 -73.5t115 -87t71.5 -75l23 -31l-103 -92q-6 10 -18 26.5t-56 58.5t-95.5 74.5t-135.5 59.5t-176 27q-246 0 -415 -171t-169 -423t169 -423t415 -171q92 0 176 25.5t139.5 61.5t97.5 71.5t60 62.5l19 25l102 -93
q-8 -12 -23.5 -30.5t-69.5 -68.5t-115.5 -88t-160 -71.5t-202.5 -35.5l-43 -95h10q76 0 120 -41t44 -106q0 -68 -52.5 -114t-142.5 -46q-45 0 -89 16.5t-64 32.5l-21 17l41 67q51 -51 133 -51q45 0 74 24.5t29 57.5q0 31 -22.5 51.5t-59.5 20.5q-16 0 -31.5 -5.5
t-22.5 -11.5l-8 -4l-51 51l64 138q-285 25 -476.5 234.5t-191.5 498.5z" />
    <glyph glyph-name="Egrave" unicode="&#xc8;" horiz-adv-x="1310" 
d="M369 143h850v-143h-1004v1434h983v-144h-829v-471h665v-143h-665v-533zM645 1905l154 -277h-113l-194 277h153z" />
    <glyph glyph-name="Eacute" unicode="&#xc9;" horiz-adv-x="1310" 
d="M369 143h850v-143h-1004v1434h983v-144h-829v-471h665v-143h-665v-533zM645 1628l154 277h153l-194 -277h-113z" />
    <glyph glyph-name="Ecircumflex" unicode="&#xca;" horiz-adv-x="1310" 
d="M369 143h850v-143h-1004v1434h983v-144h-829v-471h665v-143h-665v-533zM788 1894l226 -276h-133l-164 194l-164 -194h-133l225 276h143z" />
    <glyph glyph-name="Edieresis" unicode="&#xcb;" horiz-adv-x="1310" 
d="M369 143h850v-143h-1004v1434h983v-144h-829v-471h665v-143h-665v-533zM430 1751q0 39 26.5 65.5t65.5 26.5t65.5 -26.5t26.5 -65.5t-26.5 -65.5t-65.5 -26.5t-65.5 26.5t-26.5 65.5zM819 1751q0 39 26.5 65.5t65.5 26.5t66 -26.5t27 -65.5t-27 -65.5t-66 -26.5
t-65.5 26.5t-26.5 65.5z" />
    <glyph glyph-name="Igrave" unicode="&#xcc;" horiz-adv-x="583" 
d="M215 0v1434h154v-1434h-154zM195 1905l153 -277h-112l-195 277h154z" />
    <glyph glyph-name="Iacute" unicode="&#xcd;" horiz-adv-x="583" 
d="M215 0v1434h154v-1434h-154zM246 1628l153 277h154l-195 -277h-112z" />
    <glyph glyph-name="Icircumflex" unicode="&#xce;" horiz-adv-x="583" 
d="M215 0v1434h154v-1434h-154zM369 1894l225 -276h-133l-164 194l-164 -194h-133l225 276h144z" />
    <glyph glyph-name="Idieresis" unicode="&#xcf;" horiz-adv-x="583" 
d="M215 0v1434h154v-1434h-154zM10 1751q0 39 26.5 65.5t65.5 26.5t66 -26.5t27 -65.5t-27 -65.5t-66 -26.5t-65.5 26.5t-26.5 65.5zM399 1751q0 39 27 65.5t65.5 26.5t65.5 -26.5t27 -65.5t-27 -65.5t-65.5 -26.5t-65.5 26.5t-27 65.5z" />
    <glyph glyph-name="Eth" unicode="&#xd0;" horiz-adv-x="1566" 
d="M246 1434h450q313 0 530.5 -211t217.5 -506t-217 -506t-531 -211h-450v645h-195v143h195v646zM696 1290h-297v-502h349v-143h-349v-502h297q252 0 423 167t171 406.5t-171 406.5t-423 167z" />
    <glyph glyph-name="Ntilde" unicode="&#xd1;" horiz-adv-x="1597" 
d="M1229 1434h153v-1434h-133l-880 1157v-1157h-154v1434h133l881 -1158v1158zM666 1761q-33 0 -57.5 -33.5t-24.5 -99.5h-103q0 119 52.5 182.5t132.5 63.5q61 0 108 -34t84 -66.5t74 -32.5q33 0 57.5 33.5t24.5 99.5h102q0 -119 -52 -182.5t-132 -63.5q-61 0 -108.5 34
t-84 66.5t-73.5 32.5z" />
    <glyph glyph-name="Ograve" unicode="&#xd2;" horiz-adv-x="1720" 
d="M276 717q0 -252 169 -423t415 -171t415 171t169 423t-169 423t-415 171t-415 -171t-169 -423zM1597 717q0 -307 -215 -522t-522 -215t-522 215t-215 522t215 522t522 215t522 -215t215 -522zM768 1905l154 -277h-113l-195 277h154z" />
    <glyph glyph-name="Oacute" unicode="&#xd3;" horiz-adv-x="1720" 
d="M276 717q0 -252 169 -423t415 -171t415 171t169 423t-169 423t-415 171t-415 -171t-169 -423zM1597 717q0 -307 -215 -522t-522 -215t-522 215t-215 522t215 522t522 215t522 -215t215 -522zM819 1628l154 277h153l-194 -277h-113z" />
    <glyph glyph-name="Ocircumflex" unicode="&#xd4;" horiz-adv-x="1720" 
d="M276 717q0 -252 169 -423t415 -171t415 171t169 423t-169 423t-415 171t-415 -171t-169 -423zM1597 717q0 -307 -215 -522t-522 -215t-522 215t-215 522t215 522t522 215t522 -215t215 -522zM932 1894l225 -276h-133l-164 194l-164 -194h-133l225 276h144z" />
    <glyph glyph-name="Otilde" unicode="&#xd5;" horiz-adv-x="1720" 
d="M276 717q0 -252 169 -423t415 -171t415 171t169 423t-169 423t-415 171t-415 -171t-169 -423zM1597 717q0 -307 -215 -522t-522 -215t-522 215t-215 522t215 522t522 215t522 -215t215 -522zM737 1761q-33 0 -57.5 -33.5t-24.5 -99.5h-102q0 119 52 182.5t132 63.5
q61 0 108.5 -34t84.5 -66.5t74 -32.5q33 0 57 33.5t24 99.5h103q0 -119 -52.5 -182.5t-131.5 -63.5q-61 0 -108.5 34t-84.5 66.5t-74 32.5z" />
    <glyph glyph-name="Odieresis" unicode="&#xd6;" horiz-adv-x="1720" 
d="M276 717q0 -252 169 -423t415 -171t415 171t169 423t-169 423t-415 171t-415 -171t-169 -423zM1597 717q0 -307 -215 -522t-522 -215t-522 215t-215 522t215 522t522 215t522 -215t215 -522zM573 1751q0 39 27 65.5t66 26.5t65.5 -26.5t26.5 -65.5t-26.5 -65.5
t-65.5 -26.5t-66 26.5t-27 65.5zM963 1751q0 39 26.5 65.5t65.5 26.5t65.5 -26.5t26.5 -65.5t-26.5 -65.5t-65.5 -26.5t-65.5 26.5t-26.5 65.5z" />
    <glyph glyph-name="multiply" unicode="&#xd7;" horiz-adv-x="942" 
d="M184 1014l287 -287l287 287l92 -92l-287 -287l287 -287l-92 -92l-287 287l-287 -287l-92 92l287 287l-287 287z" />
    <glyph glyph-name="Oslash" unicode="&#xd8;" horiz-adv-x="1720" 
d="M389 348l840 840q-16 14 -46 34.5t-126 54.5t-197 34q-246 0 -415 -171t-169 -423q0 -100 28 -192.5t56 -135.5zM1444 717q0 100 -27.5 192t-56.5 135l-29 41l-839 -839q16 -14 45.5 -35t126 -54.5t196.5 -33.5q246 0 415 171t169 423zM1597 717q0 -307 -215 -522
t-522 -215q-127 0 -244.5 40.5t-173.5 81.5l-53 41l-184 -184l-103 102l185 185q-6 8 -17.5 21.5t-40 61.5t-50 99t-39 130t-17.5 159q0 307 215 522t522 215q127 0 245 -41t173 -82l53 -41l185 185l102 -103l-184 -184q6 -8 17 -21.5t40 -61.5t50.5 -99.5t38.5 -130
t17 -158.5z" />
    <glyph glyph-name="Ugrave" unicode="&#xd9;" horiz-adv-x="1556" 
d="M778 123q178 0 304 128t126 312v871h154v-871q0 -238 -173 -410.5t-410.5 -172.5t-410.5 173t-173 410v871h153v-871q0 -184 126 -312t304 -128zM707 1905l153 -277h-112l-195 277h154z" />
    <glyph glyph-name="Uacute" unicode="&#xda;" horiz-adv-x="1556" 
d="M778 123q178 0 304 128t126 312v871h154v-871q0 -238 -173 -410.5t-410.5 -172.5t-410.5 173t-173 410v871h153v-871q0 -184 126 -312t304 -128zM707 1628l153 277h154l-195 -277h-112z" />
    <glyph glyph-name="Ucircumflex" unicode="&#xdb;" horiz-adv-x="1556" 
d="M778 123q178 0 304 128t126 312v871h154v-871q0 -238 -173 -410.5t-410.5 -172.5t-410.5 173t-173 410v871h153v-871q0 -184 126 -312t304 -128zM850 1894l225 -276h-133l-164 194l-164 -194h-133l226 276h143z" />
    <glyph glyph-name="Udieresis" unicode="&#xdc;" horiz-adv-x="1556" 
d="M778 123q178 0 304 128t126 312v871h154v-871q0 -238 -173 -410.5t-410.5 -172.5t-410.5 173t-173 410v871h153v-871q0 -184 126 -312t304 -128zM481 1751q0 39 27 65.5t65.5 26.5t65.5 -26.5t27 -65.5t-27 -65.5t-65.5 -26.5t-65.5 26.5t-27 65.5zM870 1751
q0 39 27 65.5t65.5 26.5t65.5 -26.5t27 -65.5t-27 -65.5t-65.5 -26.5t-65.5 26.5t-27 65.5z" />
    <glyph glyph-name="Yacute" unicode="&#xdd;" horiz-adv-x="1300" 
d="M645 666h10l430 768h175l-533 -932v-502h-154v502l-532 932h174zM604 1628l154 277h153l-194 -277h-113z" />
    <glyph glyph-name="Thorn" unicode="&#xde;" horiz-adv-x="1331" 
d="M369 1147v-819h245q197 0 319 115.5t122 293.5t-122 294t-319 116h-245zM369 1290h245q258 0 426 -159.5t168 -393t-168 -393.5t-426 -160h-245v-225h-154v1516h154v-185z" />
    <glyph glyph-name="germandbls" unicode="&#xdf;" horiz-adv-x="1198" 
d="M809 788q10 -4 29.5 -11t66.5 -36.5t84 -66.5t66.5 -105.5t29.5 -148.5q0 -178 -124.5 -299t-315.5 -121h-92v143h92q129 0 213 80t84 197t-84 196.5t-213 79.5h-92v144h20q109 0 188 68.5t79 166.5q0 100 -77 173t-190 73q-115 0 -190.5 -73.5t-75.5 -182.5v-1065h-143
v1065q0 162 117.5 275.5t292 113.5t292 -111.5t117.5 -267.5q0 -55 -18.5 -105t-43 -82t-50 -55.5t-44.5 -33.5z" />
    <glyph glyph-name="agrave" unicode="&#xe0;" horiz-adv-x="1064" 
d="M369 563l379 62q0 109 -69 177t-177 68q-78 0 -146.5 -35.5t-99.5 -72.5l-31 -35l-92 92q6 8 16.5 20.5t46 44t74.5 56.5t102.5 44.5t129.5 19.5q168 0 278.5 -109t110.5 -270v-625h-143v133q-4 -6 -12.5 -16.5t-38 -37t-63.5 -47t-89.5 -36.5t-114.5 -16
q-147 0 -247.5 87t-100.5 199q0 123 74 198.5t213 98.5zM430 113q139 0 228.5 91t89.5 236v62l-338 -62q-184 -35 -185 -174q0 -66 54.5 -109.5t150.5 -43.5zM440 1434l154 -277h-113l-194 277h153z" />
    <glyph glyph-name="aacute" unicode="&#xe1;" horiz-adv-x="1064" 
d="M369 563l379 62q0 109 -69 177t-177 68q-78 0 -146.5 -35.5t-99.5 -72.5l-31 -35l-92 92q6 8 16.5 20.5t46 44t74.5 56.5t102.5 44.5t129.5 19.5q168 0 278.5 -109t110.5 -270v-625h-143v133q-4 -6 -12.5 -16.5t-38 -37t-63.5 -47t-89.5 -36.5t-114.5 -16
q-147 0 -247.5 87t-100.5 199q0 123 74 198.5t213 98.5zM430 113q139 0 228.5 91t89.5 236v62l-338 -62q-184 -35 -185 -174q0 -66 54.5 -109.5t150.5 -43.5zM471 1157l154 277h153l-194 -277h-113z" />
    <glyph glyph-name="acircumflex" unicode="&#xe2;" horiz-adv-x="1064" 
d="M369 563l379 62q0 109 -69 177t-177 68q-78 0 -146.5 -35.5t-99.5 -72.5l-31 -35l-92 92q6 8 16.5 20.5t46 44t74.5 56.5t102.5 44.5t129.5 19.5q168 0 278.5 -109t110.5 -270v-625h-143v133q-4 -6 -12.5 -16.5t-38 -37t-63.5 -47t-89.5 -36.5t-114.5 -16
q-147 0 -247.5 87t-100.5 199q0 123 74 198.5t213 98.5zM430 113q139 0 228.5 91t89.5 236v62l-338 -62q-184 -35 -185 -174q0 -66 54.5 -109.5t150.5 -43.5zM614 1434l226 -277h-133l-164 195l-164 -195h-133l225 277h143z" />
    <glyph glyph-name="atilde" unicode="&#xe3;" horiz-adv-x="1064" 
d="M369 563l379 62q0 109 -69 177t-177 68q-78 0 -146.5 -35.5t-99.5 -72.5l-31 -35l-92 92q6 8 16.5 20.5t46 44t74.5 56.5t102.5 44.5t129.5 19.5q168 0 278.5 -109t110.5 -270v-625h-143v133q-4 -6 -12.5 -16.5t-38 -37t-63.5 -47t-89.5 -36.5t-114.5 -16
q-147 0 -247.5 87t-100.5 199q0 123 74 198.5t213 98.5zM430 113q139 0 228.5 91t89.5 236v62l-338 -62q-184 -35 -185 -174q0 -66 54.5 -109.5t150.5 -43.5zM399 1290q-33 0 -57.5 -33.5t-24.5 -99.5h-102q0 119 52 182.5t132 63.5q61 0 108.5 -34t84.5 -66.5t74 -32.5
q33 0 57.5 33.5t24.5 99.5h102q0 -119 -52.5 -182.5t-131.5 -63.5q-61 0 -108.5 34t-84.5 66.5t-74 32.5z" />
    <glyph glyph-name="adieresis" unicode="&#xe4;" horiz-adv-x="1064" 
d="M369 563l379 62q0 109 -69 177t-177 68q-78 0 -146.5 -35.5t-99.5 -72.5l-31 -35l-92 92q6 8 16.5 20.5t46 44t74.5 56.5t102.5 44.5t129.5 19.5q168 0 278.5 -109t110.5 -270v-625h-143v133q-4 -6 -12.5 -16.5t-38 -37t-63.5 -47t-89.5 -36.5t-114.5 -16
q-147 0 -247.5 87t-100.5 199q0 123 74 198.5t213 98.5zM430 113q139 0 228.5 91t89.5 236v62l-338 -62q-184 -35 -185 -174q0 -66 54.5 -109.5t150.5 -43.5zM246 1290q0 39 26.5 65.5t65.5 26.5t65.5 -26.5t26.5 -65.5t-26.5 -65.5t-65.5 -26.5t-65.5 26.5t-26.5 65.5z
M635 1290q0 39 26.5 65.5t65.5 26.5t65.5 -26.5t26.5 -65.5t-26.5 -65.5t-65.5 -26.5t-65.5 26.5t-26.5 65.5z" />
    <glyph glyph-name="aring" unicode="&#xe5;" horiz-adv-x="1064" 
d="M369 563l379 62q0 109 -69 177t-177 68q-78 0 -146.5 -35.5t-99.5 -72.5l-31 -35l-92 92q6 8 16.5 20.5t46 44t74.5 56.5t102.5 44.5t129.5 19.5q168 0 278.5 -109t110.5 -270v-625h-143v133q-4 -6 -12.5 -16.5t-38 -37t-63.5 -47t-89.5 -36.5t-114.5 -16
q-147 0 -247.5 87t-100.5 199q0 123 74 198.5t213 98.5zM430 113q139 0 228.5 91t89.5 236v62l-338 -62q-184 -35 -185 -174q0 -66 54.5 -109.5t150.5 -43.5zM440 1311q0 -45 27 -74t65.5 -29t65.5 29t27 74t-27 73.5t-65.5 28.5t-65.5 -28.5t-27 -73.5zM727 1311
q0 -84 -55.5 -139.5t-139 -55.5t-139 55.5t-55.5 139.5t55.5 139t139 55t139 -55t55.5 -139z" />
    <glyph glyph-name="ae" unicode="&#xe6;" horiz-adv-x="1781" 
d="M1669 440h-768q8 -131 109.5 -229t232.5 -98q90 0 167 41t110 82l30 40l95 -92q-6 -8 -16.5 -22.5t-48.5 -49t-81 -61t-112.5 -49t-143.5 -22.5q-78 0 -149.5 25.5t-117.5 61t-81 71.5t-51 63l-15 24q-4 -10 -13 -26.5t-42 -58.5t-75 -74.5t-113.5 -59t-155.5 -26.5
q-156 0 -252 83.5t-96 202.5q0 125 97 216t241 91h338v31q0 119 -68.5 192.5t-177.5 73.5q-78 0 -144.5 -35.5t-93.5 -72.5l-28 -35l-92 92q4 8 14 20.5t44 44t72 56.5t99 44.5t127 19.5q70 0 130 -21.5t97 -51.5t63.5 -59.5t39.5 -52.5l10 -20q6 8 16.5 22.5t46 49t76.5 61
t105.5 49.5t134.5 23q188 0 319 -141.5t131 -360.5zM1229 870q-121 0 -216 -89t-112 -208h645q-23 133 -109.5 215t-207.5 82zM430 113q143 0 235.5 96t92.5 231h-338q-90 0 -142.5 -48t-52.5 -126q0 -66 54.5 -109.5t150.5 -43.5z" />
    <glyph glyph-name="ccedilla" unicode="&#xe7;" horiz-adv-x="1054" 
d="M82 492q0 213 145.5 362.5t345.5 149.5q115 0 214.5 -49.5t142.5 -98.5l43 -47l-103 -102q-4 6 -12 17t-35.5 40t-59.5 50.5t-83 38.5t-107 17q-141 0 -244.5 -109.5t-103.5 -269t103.5 -269t244.5 -109.5q86 0 163 41t112 82l33 40l102 -92q-6 -8 -16.5 -20t-48 -45
t-78.5 -59.5t-104.5 -50t-129.5 -27.5l-43 -95h10q76 0 120 -41t44 -106q0 -68 -52 -114t-142 -46q-45 0 -89 16.5t-65 32.5l-20 17l41 67q51 -51 133 -51q45 0 73.5 24.5t28.5 57.5q0 31 -22.5 51.5t-59.5 20.5q-16 0 -31.5 -5.5t-23.5 -11.5l-6 -4l-51 51l63 138
q-182 23 -307 167t-125 341z" />
    <glyph glyph-name="egrave" unicode="&#xe8;" horiz-adv-x="1136" 
d="M1024 438l-799 2q8 -133 109.5 -230t238.5 -97q92 0 171 41t112 82l35 40l92 -92q-6 -8 -17.5 -22.5t-50 -49t-83 -61t-115 -49t-144.5 -22.5q-201 0 -346 149.5t-145 362.5t143.5 362.5t337.5 149.5q201 0 336 -139.5t135 -352.5zM563 870q-129 0 -225 -91t-113 -216
h666q-16 133 -107.5 220t-220.5 87zM481 1434l154 -277h-113l-194 277h153z" />
    <glyph glyph-name="eacute" unicode="&#xe9;" horiz-adv-x="1136" 
d="M1024 438l-799 2q8 -133 109.5 -230t238.5 -97q92 0 171 41t112 82l35 40l92 -92q-6 -8 -17.5 -22.5t-50 -49t-83 -61t-115 -49t-144.5 -22.5q-201 0 -346 149.5t-145 362.5t143.5 362.5t337.5 149.5q201 0 336 -139.5t135 -352.5zM563 870q-129 0 -225 -91t-113 -216
h666q-16 133 -107.5 220t-220.5 87zM512 1157l154 277h153l-194 -277h-113z" />
    <glyph glyph-name="ecircumflex" unicode="&#xea;" horiz-adv-x="1136" 
d="M1024 438l-799 2q8 -133 109.5 -230t238.5 -97q92 0 171 41t112 82l35 40l92 -92q-6 -8 -17.5 -22.5t-50 -49t-83 -61t-115 -49t-144.5 -22.5q-201 0 -346 149.5t-145 362.5t143.5 362.5t337.5 149.5q201 0 336 -139.5t135 -352.5zM563 870q-129 0 -225 -91t-113 -216
h666q-16 133 -107.5 220t-220.5 87zM645 1434l225 -277h-133l-164 195l-163 -195h-134l226 277h143z" />
    <glyph glyph-name="edieresis" unicode="&#xeb;" horiz-adv-x="1136" 
d="M1024 438l-799 2q8 -133 109.5 -230t238.5 -97q92 0 171 41t112 82l35 40l92 -92q-6 -8 -17.5 -22.5t-50 -49t-83 -61t-115 -49t-144.5 -22.5q-201 0 -346 149.5t-145 362.5t143.5 362.5t337.5 149.5q201 0 336 -139.5t135 -352.5zM563 870q-129 0 -225 -91t-113 -216
h666q-16 133 -107.5 220t-220.5 87zM276 1290q0 39 27 65.5t66 26.5t65.5 -26.5t26.5 -65.5t-26.5 -65.5t-65.5 -26.5t-66 26.5t-27 65.5zM666 1290q0 39 26.5 65.5t65.5 26.5t65.5 -26.5t26.5 -65.5t-26.5 -65.5t-65.5 -26.5t-65.5 26.5t-26.5 65.5z" />
    <glyph glyph-name="igrave" unicode="&#xec;" horiz-adv-x="471" 
d="M123 1434l153 -277h-112l-195 277h154zM154 0v983h143v-983h-143z" />
    <glyph glyph-name="iacute" unicode="&#xed;" horiz-adv-x="471" 
d="M164 1157l153 277h154l-195 -277h-112zM154 0v983h143v-983h-143z" />
    <glyph glyph-name="icircumflex" unicode="&#xee;" horiz-adv-x="471" 
d="M154 0v983h143v-983h-143zM297 1434l225 -277h-133l-164 195l-164 -195h-133l226 277h143z" />
    <glyph glyph-name="idieresis" unicode="&#xef;" horiz-adv-x="471" 
d="M-61 1290q0 39 26.5 65.5t65.5 26.5t65.5 -26.5t26.5 -65.5t-26.5 -65.5t-65.5 -26.5t-65.5 26.5t-26.5 65.5zM328 1290q0 39 26.5 65.5t65.5 26.5t65.5 -26.5t26.5 -65.5t-26.5 -65.5t-65.5 -26.5t-65.5 26.5t-26.5 65.5zM154 0v983h143v-983h-143z" />
    <glyph glyph-name="eth" unicode="&#xf0;" horiz-adv-x="1177" 
d="M891 1495l-205 -143q14 -8 39 -26.5t86 -86.5t108.5 -147.5t86 -214t38.5 -283.5q0 -291 -138 -452.5t-353 -161.5q-195 0 -333 143t-138 348q0 199 142.5 345.5t328.5 146.5q104 0 191 -49.5t122 -98.5l35 -47q-16 94 -56 181t-83 142.5t-84 98.5t-68 61l-26 19
l-236 -174l-72 112l185 133q-102 72 -236 103l41 123q78 -23 155 -58.5t116 -60.5l36 -25l246 174zM881 471q0 152 -97.5 255t-230.5 103t-230.5 -103t-97.5 -255t97.5 -255t230.5 -103t230.5 103t97.5 255z" />
    <glyph glyph-name="ntilde" unicode="&#xf1;" 
d="M297 983v-143q4 6 12 17t38 40t63.5 50.5t89 39t114.5 17.5q178 0 289 -115t111 -305v-584h-144v584q0 129 -74.5 207.5t-191.5 78.5q-131 0 -219 -92t-88 -235v-543h-143v983h143zM451 1290q-33 0 -57.5 -33.5t-24.5 -99.5h-103q0 119 52.5 182.5t132.5 63.5
q61 0 108 -34t84 -66.5t74 -32.5q33 0 57.5 33.5t24.5 99.5h102q0 -119 -52 -182.5t-132 -63.5q-61 0 -108.5 34t-84 66.5t-73.5 32.5z" />
    <glyph glyph-name="ograve" unicode="&#xf2;" 
d="M942 491.5q0 159.5 -105.5 269t-253 109.5t-253 -109.5t-105.5 -268.5q0 -158 105.5 -268.5t253 -110.5t253 109.5t105.5 269zM82 491.5q0 215.5 146.5 364t355.5 148.5t355 -148.5t146 -364t-146 -363.5t-355 -148t-355.5 148t-146.5 363.5zM481 1434l154 -277h-113
l-194 277h153z" />
    <glyph glyph-name="oacute" unicode="&#xf3;" 
d="M942 491.5q0 159.5 -105.5 269t-253 109.5t-253 -109.5t-105.5 -268.5q0 -158 105.5 -268.5t253 -110.5t253 109.5t105.5 269zM82 491.5q0 215.5 146.5 364t355.5 148.5t355 -148.5t146 -364t-146 -363.5t-355 -148t-355.5 148t-146.5 363.5zM522 1157l154 277h153
l-194 -277h-113z" />
    <glyph glyph-name="ocircumflex" unicode="&#xf4;" 
d="M942 491.5q0 159.5 -105.5 269t-253 109.5t-253 -109.5t-105.5 -268.5q0 -158 105.5 -268.5t253 -110.5t253 109.5t105.5 269zM82 491.5q0 215.5 146.5 364t355.5 148.5t355 -148.5t146 -364t-146 -363.5t-355 -148t-355.5 148t-146.5 363.5zM655 1434l226 -277h-133
l-164 195l-164 -195h-133l225 277h143z" />
    <glyph glyph-name="otilde" unicode="&#xf5;" 
d="M942 491.5q0 159.5 -105.5 269t-253 109.5t-253 -109.5t-105.5 -268.5q0 -158 105.5 -268.5t253 -110.5t253 109.5t105.5 269zM82 491.5q0 215.5 146.5 364t355.5 148.5t355 -148.5t146 -364t-146 -363.5t-355 -148t-355.5 148t-146.5 363.5zM451 1290q-33 0 -57.5 -33.5
t-24.5 -99.5h-103q0 119 52.5 182.5t132.5 63.5q61 0 108 -34t84 -66.5t74 -32.5q33 0 57.5 33.5t24.5 99.5h102q0 -119 -52 -182.5t-132 -63.5q-61 0 -108.5 34t-84 66.5t-73.5 32.5z" />
    <glyph glyph-name="odieresis" unicode="&#xf6;" 
d="M942 491.5q0 159.5 -105.5 269t-253 109.5t-253 -109.5t-105.5 -268.5q0 -158 105.5 -268.5t253 -110.5t253 109.5t105.5 269zM82 491.5q0 215.5 146.5 364t355.5 148.5t355 -148.5t146 -364t-146 -363.5t-355 -148t-355.5 148t-146.5 363.5zM287 1290q0 39 26.5 65.5
t65.5 26.5t65.5 -26.5t26.5 -65.5t-26.5 -65.5t-65.5 -26.5t-65.5 26.5t-26.5 65.5zM676 1290q0 39 26.5 65.5t65.5 26.5t65.5 -26.5t26.5 -65.5t-26.5 -65.5t-65.5 -26.5t-65.5 26.5t-26.5 65.5z" />
    <glyph glyph-name="divide" unicode="&#xf7;" horiz-adv-x="1044" 
d="M952 666v-134h-860v134h860zM625 235.5q0 -47.5 -28 -75t-75 -27.5t-74.5 27.5t-27.5 75t27.5 75t74.5 27.5t75 -27.5t28 -75zM420 963q0 45 27.5 73.5t74.5 28.5t75 -28.5t28 -73.5t-28 -74t-75 -29t-74.5 29t-27.5 74z" />
    <glyph glyph-name="oslash" unicode="&#xf8;" 
d="M287 276l501 523q-82 72 -204 71q-147 0 -253 -109.5t-106 -268.5q0 -59 15.5 -112.5t29.5 -78.5zM942 492q0 59 -15.5 112t-29.5 78l-16 25l-502 -523q82 -72 205 -71q147 0 252.5 109.5t105.5 269.5zM1085 492q0 -215 -146 -363.5t-355 -148.5q-82 0 -157 25.5
t-108 51.5l-32 25l-133 -133l-93 92l134 133q-12 12 -31 37t-50.5 107.5t-31.5 173.5q0 215 146.5 363.5t355.5 148.5q82 0 156.5 -26t107.5 -52l33 -25l133 133l92 -92l-133 -133q12 -12 30.5 -36.5t50 -107.5t31.5 -173z" />
    <glyph glyph-name="ugrave" unicode="&#xf9;" horiz-adv-x="1198" 
d="M870 0v133q-4 -6 -12 -16.5t-37.5 -37t-63.5 -47t-89.5 -36.5t-114.5 -16q-172 0 -285.5 119.5t-113.5 310.5v573h143v-573q0 -129 80 -213t196 -84q125 0 211 92t86 235v543h144v-983h-144zM492 1434l153 -277h-113l-194 277h154z" />
    <glyph glyph-name="uacute" unicode="&#xfa;" horiz-adv-x="1198" 
d="M870 0v133q-4 -6 -12 -16.5t-37.5 -37t-63.5 -47t-89.5 -36.5t-114.5 -16q-172 0 -285.5 119.5t-113.5 310.5v573h143v-573q0 -129 80 -213t196 -84q125 0 211 92t86 235v543h144v-983h-144zM512 1157l154 277h153l-194 -277h-113z" />
    <glyph glyph-name="ucircumflex" unicode="&#xfb;" horiz-adv-x="1198" 
d="M870 0v133q-4 -6 -12 -16.5t-37.5 -37t-63.5 -47t-89.5 -36.5t-114.5 -16q-172 0 -285.5 119.5t-113.5 310.5v573h143v-573q0 -129 80 -213t196 -84q125 0 211 92t86 235v543h144v-983h-144zM655 1434l226 -277h-133l-164 195l-164 -195h-133l225 277h143z" />
    <glyph glyph-name="udieresis" unicode="&#xfc;" horiz-adv-x="1198" 
d="M870 0v133q-4 -6 -12 -16.5t-37.5 -37t-63.5 -47t-89.5 -36.5t-114.5 -16q-172 0 -285.5 119.5t-113.5 310.5v573h143v-573q0 -129 80 -213t196 -84q125 0 211 92t86 235v543h144v-983h-144zM287 1280q0 39 26.5 65.5t65.5 26.5t65.5 -26.5t26.5 -65.5t-26.5 -65.5
t-65.5 -26.5t-65.5 26.5t-26.5 65.5zM676 1280q0 39 26.5 65.5t65.5 26.5t65.5 -26.5t26.5 -65.5t-26.5 -65.5t-65.5 -26.5t-65.5 26.5t-26.5 65.5z" />
    <glyph glyph-name="yacute" unicode="&#xfd;" horiz-adv-x="1003" 
d="M369 -143l51 143l-400 983h154l318 -799l317 799h154l-451 -1126q-61 -156 -131 -221.5t-176 -65.5q-33 0 -63.5 5t-45.5 11l-14 4v134q51 -20 102 -21q130 0 185 154zM451 1157l153 277h154l-195 -277h-112z" />
    <glyph glyph-name="thorn" unicode="&#xfe;" horiz-adv-x="1228" 
d="M307 491.5q0 -151.5 107.5 -265t240.5 -113.5q127 0 227.5 110.5t100.5 268t-100.5 268t-227.5 110.5q-133 0 -240.5 -113.5t-107.5 -265zM307 154v-584h-143v1864h143v-605q4 6 14.5 18.5t43 42.5t70.5 53.5t97.5 42t122.5 18.5q188 0 329.5 -151t141.5 -361.5
t-141 -361t-330 -150.5q-63 0 -121.5 18t-98.5 43t-69.5 50.5t-43.5 43.5z" />
    <glyph glyph-name="ydieresis" unicode="&#xff;" horiz-adv-x="1003" 
d="M369 -143l51 143l-400 983h154l318 -799l317 799h154l-451 -1126q-61 -156 -131 -221.5t-176 -65.5q-33 0 -63.5 5t-45.5 11l-14 4v134q51 -20 102 -21q130 0 185 154zM195 1290q0 39 26.5 65.5t65.5 26.5t65.5 -26.5t26.5 -65.5t-26.5 -65.5t-65.5 -26.5t-65.5 26.5
t-26.5 65.5zM584 1290q0 39 26.5 65.5t65.5 26.5t65.5 -26.5t26.5 -65.5t-26.5 -65.5t-65.5 -26.5t-65.5 26.5t-26.5 65.5z" />
    <glyph glyph-name="Amacron" unicode="&#x100;" horiz-adv-x="1433" 
d="M993 543l-276 676l-277 -676h553zM1055 399h-676l-164 -399h-164l594 1434h143l594 -1434h-163zM1014 1812v-112h-594v112h594z" />
    <glyph glyph-name="amacron" unicode="&#x101;" horiz-adv-x="1064" 
d="M369 563l379 62q0 109 -69 177t-177 68q-78 0 -146.5 -35.5t-99.5 -72.5l-31 -35l-92 92q6 8 16.5 20.5t46 44t74.5 56.5t102.5 44.5t129.5 19.5q168 0 278.5 -109t110.5 -270v-625h-143v133q-4 -6 -12.5 -16.5t-38 -37t-63.5 -47t-89.5 -36.5t-114.5 -16
q-147 0 -247.5 87t-100.5 199q0 123 74 198.5t213 98.5zM430 113q139 0 228.5 91t89.5 236v62l-338 -62q-184 -35 -185 -174q0 -66 54.5 -109.5t150.5 -43.5zM829 1362v-113h-593v113h593z" />
    <glyph glyph-name="Abreve" unicode="&#x102;" horiz-adv-x="1433" 
d="M993 543l-276 676l-277 -676h553zM1055 399h-676l-164 -399h-164l594 1434h143l594 -1434h-163zM717 1731q78 0 121 45t43 129h112q0 -123 -76.5 -200t-199.5 -77t-200 77t-77 200h113q0 -84 43 -129t121 -45z" />
    <glyph glyph-name="abreve" unicode="&#x103;" horiz-adv-x="1064" 
d="M369 563l379 62q0 109 -69 177t-177 68q-78 0 -146.5 -35.5t-99.5 -72.5l-31 -35l-92 92q6 8 16.5 20.5t46 44t74.5 56.5t102.5 44.5t129.5 19.5q168 0 278.5 -109t110.5 -270v-625h-143v133q-4 -6 -12.5 -16.5t-38 -37t-63.5 -47t-89.5 -36.5t-114.5 -16
q-147 0 -247.5 87t-100.5 199q0 123 74 198.5t213 98.5zM430 113q139 0 228.5 91t89.5 236v62l-338 -62q-184 -35 -185 -174q0 -66 54.5 -109.5t150.5 -43.5zM532.5 1260q77.5 0 120.5 45t43 129h113q0 -123 -77 -200t-199.5 -77t-199.5 77t-77 200h113q0 -84 43 -129
t120.5 -45z" />
    <glyph glyph-name="Aogonek" unicode="&#x104;" horiz-adv-x="1433" 
d="M1219 0l-164 399h-676l-164 -399h-164l594 1434h143l594 -1434h-61q-113 -123 -113 -225q0 -92 103 -92q27 0 57.5 7t48.5 15l17 8v-102q-61 -31 -136 -31q-90 0 -141 49t-51 135q0 59 28.5 118t57.5 89zM993 543l-276 676l-277 -676h553z" />
    <glyph glyph-name="aogonek" unicode="&#x105;" horiz-adv-x="1064" 
d="M891 0h-41q-113 -123 -113 -225q0 -92 103 -92q27 0 57.5 7t48.5 15l17 8v-102q-61 -31 -136 -31q-90 0 -141 49t-51 135q0 59 28.5 118t57.5 89l27 29v133q-4 -6 -12.5 -16.5t-38 -37t-63.5 -47t-89.5 -36.5t-114.5 -16q-147 0 -247.5 87t-100.5 199q0 123 73.5 199
t213.5 98l379 62q0 109 -69 177t-177 68q-78 0 -146.5 -35.5t-99.5 -72.5l-31 -35l-92 92q6 8 16.5 20.5t46 44t74.5 56.5t102.5 44.5t129.5 19.5q168 0 278.5 -109t110.5 -270v-625zM430 113q139 0 228.5 91t89.5 236v62l-338 -62q-184 -35 -185 -174q0 -66 54.5 -109.5
t150.5 -43.5z" />
    <glyph glyph-name="Cacute" unicode="&#x106;" horiz-adv-x="1536" 
d="M123 717q0 307 215 522t522 215q109 0 209 -30.5t165.5 -73.5t115 -87t71.5 -75l23 -31l-103 -92q-6 10 -18 26.5t-56 58.5t-95.5 74.5t-135.5 59.5t-176 27q-246 0 -415 -171t-169 -423t169 -423t415 -171q92 0 176 25.5t139.5 61.5t97.5 71.5t60 62.5l19 25l102 -93
q-8 -12 -24.5 -31.5t-73 -70.5t-119.5 -91t-165.5 -71.5t-211.5 -31.5q-307 0 -522 215t-215 522zM778 1628l154 277h153l-194 -277h-113z" />
    <glyph glyph-name="cacute" unicode="&#x107;" horiz-adv-x="1054" 
d="M82 492q0 213 145.5 362.5t345.5 149.5q115 0 214.5 -49.5t142.5 -98.5l43 -47l-103 -102q-4 6 -12 17t-35.5 40t-59.5 50.5t-83 38.5t-107 17q-141 0 -244.5 -109.5t-103.5 -269t103.5 -269t244.5 -109.5q86 0 163 41t112 82l33 40l102 -92q-6 -8 -18.5 -22.5t-52.5 -49
t-84 -61t-113.5 -49t-141.5 -22.5q-201 0 -346 149.5t-145 362.5zM512 1157l154 277h153l-194 -277h-113z" />
    <glyph glyph-name="Ccircumflex" unicode="&#x108;" horiz-adv-x="1536" 
d="M123 717q0 307 215 522t522 215q109 0 209 -30.5t165.5 -73.5t115 -87t71.5 -75l23 -31l-103 -92q-6 10 -18 26.5t-56 58.5t-95.5 74.5t-135.5 59.5t-176 27q-246 0 -415 -171t-169 -423t169 -423t415 -171q92 0 176 25.5t139.5 61.5t97.5 71.5t60 62.5l19 25l102 -93
q-8 -12 -24.5 -31.5t-73 -70.5t-119.5 -91t-165.5 -71.5t-211.5 -31.5q-307 0 -522 215t-215 522zM922 1905l225 -277h-133l-164 195l-164 -195h-133l225 277h144z" />
    <glyph glyph-name="ccircumflex" unicode="&#x109;" horiz-adv-x="1054" 
d="M82 492q0 213 145.5 362.5t345.5 149.5q115 0 214.5 -49.5t142.5 -98.5l43 -47l-103 -102q-4 6 -12 17t-35.5 40t-59.5 50.5t-83 38.5t-107 17q-141 0 -244.5 -109.5t-103.5 -269t103.5 -269t244.5 -109.5q86 0 163 41t112 82l33 40l102 -92q-6 -8 -18.5 -22.5t-52.5 -49
t-84 -61t-113.5 -49t-141.5 -22.5q-201 0 -346 149.5t-145 362.5zM635 1434l225 -277h-133l-164 195l-164 -195h-133l226 277h143z" />
    <glyph glyph-name="Ccaron" unicode="&#x10c;" horiz-adv-x="1536" 
d="M123 717q0 307 215 522t522 215q109 0 209 -30.5t165.5 -73.5t115 -87t71.5 -75l23 -31l-103 -92q-6 10 -18 26.5t-56 58.5t-95.5 74.5t-135.5 59.5t-176 27q-246 0 -415 -171t-169 -423t169 -423t415 -171q92 0 176 25.5t139.5 61.5t97.5 71.5t60 62.5l19 25l102 -93
q-8 -12 -24.5 -31.5t-73 -70.5t-119.5 -91t-165.5 -71.5t-211.5 -31.5q-307 0 -522 215t-215 522zM1147 1905l-225 -277h-144l-225 277h133l164 -195l164 195h133z" />
    <glyph glyph-name="ccaron" unicode="&#x10d;" horiz-adv-x="1054" 
d="M82 492q0 213 145.5 362.5t345.5 149.5q115 0 214.5 -49.5t142.5 -98.5l43 -47l-103 -102q-4 6 -12 17t-35.5 40t-59.5 50.5t-83 38.5t-107 17q-141 0 -244.5 -109.5t-103.5 -269t103.5 -269t244.5 -109.5q86 0 163 41t112 82l33 40l102 -92q-6 -8 -18.5 -22.5t-52.5 -49
t-84 -61t-113.5 -49t-141.5 -22.5q-201 0 -346 149.5t-145 362.5zM860 1434l-225 -277h-143l-226 277h133l164 -195l164 195h133z" />
    <glyph glyph-name="Dcaron" unicode="&#x10e;" horiz-adv-x="1536" 
d="M215 1434h451q313 0 530 -211t217 -506t-217 -506t-530 -211h-451v1434zM666 1290h-297v-1147h297q252 0 423 167t171 406.5t-171 406.5t-423 167zM1055 1905l-226 -277h-143l-225 277h133l164 -195l164 195h133z" />
    <glyph glyph-name="dcaron" unicode="&#x10f;" horiz-adv-x="1320" 
d="M901 491.5q0 151.5 -107.5 265t-240.5 113.5q-127 0 -227.5 -110.5t-100.5 -268t100.5 -268t227.5 -110.5q133 0 240.5 113.5t107.5 265zM901 829v605h143v-1434h-143v154q-4 -6 -14 -18.5t-43 -42.5t-71 -53.5t-97.5 -41.5t-122.5 -18q-188 0 -329.5 150.5t-141.5 361
t141.5 361.5t329.5 151q63 0 121.5 -18.5t98.5 -43t69.5 -50.5t44.5 -44zM1178 1157l92 277h133l-123 -277h-102z" />
    <glyph glyph-name="Dcroat" unicode="&#x110;" horiz-adv-x="1566" 
d="M246 1434h450q313 0 530.5 -211t217.5 -506t-217 -506t-531 -211h-450v645h-195v143h195v646zM696 1290h-297v-502h349v-143h-349v-502h297q252 0 423 167t171 406.5t-171 406.5t-423 167z" />
    <glyph glyph-name="dcroat" unicode="&#x111;" horiz-adv-x="1228" 
d="M891 788v328h-266v133h266v185h143v-185h164v-133h-164v-1116h-143v154q-4 -6 -13.5 -18.5t-41 -42.5t-67.5 -53.5t-94.5 -41.5t-121.5 -18q-186 0 -328.5 146t-142.5 345t142.5 345.5t328.5 146.5q63 0 120.5 -18.5t95.5 -43t66.5 -50.5t41.5 -44zM891 471
q0 143 -102.5 250.5t-235.5 107.5q-125 0 -226.5 -107.5t-101.5 -250.5t101.5 -250.5t226.5 -107.5q133 0 235.5 107.5t102.5 250.5z" />
    <glyph glyph-name="Emacron" unicode="&#x112;" horiz-adv-x="1310" 
d="M369 143h850v-143h-1004v1434h983v-144h-829v-471h665v-143h-665v-533zM1014 1812v-112h-594v112h594z" />
    <glyph glyph-name="emacron" unicode="&#x113;" horiz-adv-x="1136" 
d="M1024 438l-799 2q8 -133 109.5 -230t238.5 -97q92 0 171 41t112 82l35 40l92 -92q-6 -8 -17.5 -22.5t-50 -49t-83 -61t-115 -49t-144.5 -22.5q-201 0 -346 149.5t-145 362.5t143.5 362.5t337.5 149.5q201 0 336 -139.5t135 -352.5zM563 870q-129 0 -225 -91t-113 -216
h666q-16 133 -107.5 220t-220.5 87zM870 1341v-112h-594v112h594z" />
    <glyph glyph-name="Edotaccent" unicode="&#x116;" horiz-adv-x="1310" 
d="M369 143h850v-143h-1004v1434h983v-144h-829v-471h665v-143h-665v-533zM625 1761q0 39 26.5 65.5t65.5 26.5t65.5 -26.5t26.5 -65.5t-26.5 -65.5t-65.5 -26.5t-65.5 26.5t-26.5 65.5z" />
    <glyph glyph-name="edotaccent" unicode="&#x117;" horiz-adv-x="1136" 
d="M1024 438l-799 2q8 -133 109.5 -230t238.5 -97q92 0 171 41t112 82l35 40l92 -92q-6 -8 -17.5 -22.5t-50 -49t-83 -61t-115 -49t-144.5 -22.5q-201 0 -346 149.5t-145 362.5t143.5 362.5t337.5 149.5q201 0 336 -139.5t135 -352.5zM563 870q-129 0 -225 -91t-113 -216
h666q-16 133 -107.5 220t-220.5 87zM471 1290q0 39 26.5 65.5t65.5 26.5t65.5 -26.5t26.5 -65.5t-26.5 -65.5t-65.5 -26.5t-65.5 26.5t-26.5 65.5z" />
    <glyph glyph-name="Eogonek" unicode="&#x118;" horiz-adv-x="1310" 
d="M1116 0h-901v1434h983v-144h-829v-471h665v-143h-665v-533h850v-143q-113 -123 -113 -225q0 -92 102 -92q27 0 57.5 7t49.5 15l16 8v-102q-61 -31 -135 -31q-90 0 -141 49t-51 135q0 59 28.5 118t57.5 89z" />
    <glyph glyph-name="eogonek" unicode="&#x119;" horiz-adv-x="1136" 
d="M1024 438l-799 2q8 -133 109.5 -230t238.5 -97q92 0 171 41t112 82l35 40l92 -92q-4 -6 -14.5 -18t-43 -42t-69.5 -55.5t-95.5 -50t-119.5 -32.5q-98 -119 -98 -211t102 -92q27 0 57.5 7t47.5 15l18 8v-102q-61 -31 -135 -31q-90 0 -141.5 49t-51.5 135q0 117 95 218
q-188 16 -320.5 161.5t-132.5 348.5q0 213 143.5 362.5t337.5 149.5q201 0 336 -139.5t135 -352.5zM563 870q-129 0 -225 -91t-113 -216h666q-16 133 -107.5 220t-220.5 87z" />
    <glyph glyph-name="Ecaron" unicode="&#x11a;" horiz-adv-x="1310" 
d="M369 143h850v-143h-1004v1434h983v-144h-829v-471h665v-143h-665v-533zM1024 1894l-225 -276h-144l-225 276h133l164 -194l164 194h133z" />
    <glyph glyph-name="ecaron" unicode="&#x11b;" horiz-adv-x="1136" 
d="M1024 438l-799 2q8 -133 109.5 -230t238.5 -97q92 0 171 41t112 82l35 40l92 -92q-6 -8 -17.5 -22.5t-50 -49t-83 -61t-115 -49t-144.5 -22.5q-201 0 -346 149.5t-145 362.5t143.5 362.5t337.5 149.5q201 0 336 -139.5t135 -352.5zM563 870q-129 0 -225 -91t-113 -216
h666q-16 133 -107.5 220t-220.5 87zM870 1434l-225 -277h-143l-226 277h134l163 -195l164 195h133z" />
    <glyph glyph-name="Gbreve" unicode="&#x11e;" horiz-adv-x="1628" 
d="M123 717q0 307 215 522t522 215q109 0 209 -30.5t165.5 -73.5t115 -87t71.5 -75l23 -31l-103 -92q-6 10 -18 26.5t-56 58.5t-95.5 74.5t-135.5 59.5t-176 27q-246 0 -415 -171t-169 -423t169 -423t415 -171q86 0 164 20.5t128 49t88 56t54 48.5l17 20v277h-328v143h481
v-461q-8 -12 -25.5 -31.5t-74.5 -70.5t-122.5 -91t-169 -71.5t-212.5 -31.5q-307 0 -522 215t-215 522zM840 1720q78 0 121 45t43 129h112q0 -123 -76.5 -199.5t-199.5 -76.5t-200 77t-77 199h113q0 -84 43 -129t121 -45z" />
    <glyph glyph-name="gbreve" unicode="&#x11f;" 
d="M870 61v123q-4 -6 -12 -17t-37.5 -40t-64.5 -50.5t-92.5 -39t-120.5 -17.5q-186 0 -323.5 143.5t-137.5 348.5t137 348.5t324 143.5q63 0 119.5 -16.5t93.5 -41t63.5 -49.5t38.5 -41l12 -16v143h144v-922q0 -207 -140.5 -349t-341.5 -142q-78 0 -148.5 21.5t-115.5 51
t-79.5 59.5t-49.5 52l-16 21l92 92q4 -6 13.5 -17.5t40 -40t64.5 -50t88 -39t111 -17.5q139 0 238.5 103t99.5 255zM225 512q0 -150 96.5 -254t221.5 -104q133 0 230 103t97 255t-97 255t-230 103q-125 0 -221.5 -104t-96.5 -254zM573.5 1260q77.5 0 120.5 45t43 129h113
q0 -123 -77 -200t-199.5 -77t-199.5 77t-77 200h113q0 -84 43 -129t120.5 -45z" />
    <glyph glyph-name="uni0122" unicode="&#x122;" horiz-adv-x="1628" 
d="M123 717q0 307 215 522t522 215q109 0 209 -30.5t165.5 -73.5t115 -87t71.5 -75l23 -31l-103 -92q-6 10 -18 26.5t-56 58.5t-95.5 74.5t-135.5 59.5t-176 27q-246 0 -415 -171t-169 -423t169 -423t415 -171q86 0 164 20.5t128 49t88 56t54 48.5l17 20v277h-328v143h481
v-461q-8 -12 -25.5 -31.5t-74.5 -70.5t-122.5 -91t-169 -71.5t-212.5 -31.5q-307 0 -522 215t-215 522zM696 -440l92 276h134l-123 -276h-103z" />
    <glyph glyph-name="uni0123" unicode="&#x123;" 
d="M870 61v123q-4 -6 -12 -17t-37.5 -40t-64.5 -50.5t-92.5 -39t-120.5 -17.5q-186 0 -323.5 143.5t-137.5 348.5t137 348.5t324 143.5q63 0 119.5 -16.5t93.5 -41t63.5 -49.5t38.5 -41l12 -16v143h144v-922q0 -207 -140.5 -349t-341.5 -142q-78 0 -148.5 21.5t-115.5 51
t-79.5 59.5t-49.5 52l-16 21l92 92q4 -6 13.5 -17.5t40 -40t64.5 -50t88 -39t111 -17.5q139 0 238.5 103t99.5 255zM225 512q0 -150 96.5 -254t221.5 -104q133 0 230 103t97 255t-97 255t-230 103q-125 0 -221.5 -104t-96.5 -254zM717 1434l-92 -277h-133l122 277h103z" />
    <glyph glyph-name="Imacron" unicode="&#x12a;" horiz-adv-x="583" 
d="M215 0v1434h154v-1434h-154zM594 1812v-112h-594v112h594z" />
    <glyph glyph-name="imacron" unicode="&#x12b;" horiz-adv-x="471" 
d="M522 1341v-112h-594v112h594zM154 0v983h143v-983h-143z" />
    <glyph glyph-name="Iogonek" unicode="&#x12e;" horiz-adv-x="583" 
d="M215 0v1434h154v-1434h-52q-113 -123 -112 -225q0 -92 102 -92q27 0 57.5 7t49.5 15l16 8v-102q-61 -31 -135 -31q-90 0 -141.5 49t-51.5 135q0 59 29 118t57 89z" />
    <glyph glyph-name="iogonek" unicode="&#x12f;" horiz-adv-x="471" 
d="M154 0v983h143v-983h-41q-113 -123 -113 -225q0 -92 103 -92q27 0 57.5 7t48.5 15l17 8v-102q-61 -31 -136 -31q-90 0 -141 49t-51 135q0 59 28.5 118t57.5 89zM133 1311q0 39 26.5 65.5t65.5 26.5t65.5 -26.5t26.5 -65.5t-26.5 -65.5t-65.5 -26.5t-65.5 26.5t-26.5 65.5
z" />
    <glyph glyph-name="Idotaccent" unicode="&#x130;" horiz-adv-x="583" 
d="M215 0v1434h154v-1434h-154zM205 1761q0 39 26.5 65.5t65.5 26.5t65.5 -26.5t26.5 -65.5t-26.5 -65.5t-65.5 -26.5t-65.5 26.5t-26.5 65.5z" />
    <glyph glyph-name="dotlessi" unicode="&#x131;" horiz-adv-x="471" 
d="M154 0v983h143v-983h-143z" />
    <glyph glyph-name="uni0136" unicode="&#x136;" horiz-adv-x="1372" 
d="M369 625l737 809h194l-542 -594l594 -840h-185l-512 727l-286 -307v-420h-154v1434h154v-809zM575 -440l93 276h133l-123 -276h-103z" />
    <glyph glyph-name="uni0137" unicode="&#x137;" horiz-adv-x="1044" 
d="M307 276v-276h-143v1434h143v-973l492 522h174l-379 -399l420 -584h-164l-348 481zM410 -440l92 276h133l-123 -276h-102z" />
    <glyph glyph-name="Lacute" unicode="&#x139;" horiz-adv-x="1146" 
d="M1106 0h-891v1434h154v-1291h737v-143zM246 1628l153 277h154l-195 -277h-112z" />
    <glyph glyph-name="lacute" unicode="&#x13a;" horiz-adv-x="491" 
d="M307 1434v-1434h-143v1434h143zM184 1628l154 277h154l-195 -277h-113z" />
    <glyph glyph-name="uni013B" unicode="&#x13b;" horiz-adv-x="1146" 
d="M1106 0h-891v1434h154v-1291h737v-143zM522 -440l92 276h134l-123 -276h-103z" />
    <glyph glyph-name="uni013C" unicode="&#x13c;" horiz-adv-x="491" 
d="M307 1434v-1434h-143v1434h143zM72 -440l92 276h133l-123 -276h-102z" />
    <glyph glyph-name="Lcaron" unicode="&#x13d;" horiz-adv-x="1146" 
d="M1106 0h-891v1434h154v-1291h737v-143zM543 1157l92 277h133l-123 -277h-102z" />
    <glyph glyph-name="lcaron" unicode="&#x13e;" horiz-adv-x="583" 
d="M307 1434v-1434h-143v1434h143zM430 1157l92 277h133l-123 -277h-102z" />
    <glyph glyph-name="Lslash" unicode="&#x141;" horiz-adv-x="1259" 
d="M1219 0h-891v584l-246 -144l-72 123l318 174v697h153v-605l287 175l72 -123l-359 -205v-533h738v-143z" />
    <glyph glyph-name="lslash" unicode="&#x142;" horiz-adv-x="716" 
d="M420 1434v-584l256 164l61 -103l-317 -204v-707h-144v635l-256 -154l-61 103l317 194v656h144z" />
    <glyph glyph-name="Nacute" unicode="&#x143;" horiz-adv-x="1597" 
d="M1229 1434h153v-1434h-133l-880 1157v-1157h-154v1434h133l881 -1158v1158zM748 1628l153 277h154l-195 -277h-112z" />
    <glyph glyph-name="nacute" unicode="&#x144;" 
d="M297 983v-143q4 6 12 17t38 40t63.5 50.5t89 39t114.5 17.5q178 0 289 -115t111 -305v-584h-144v584q0 129 -74.5 207.5t-191.5 78.5q-131 0 -219 -92t-88 -235v-543h-143v983h143zM543 1157l153 277h154l-195 -277h-112z" />
    <glyph glyph-name="uni0145" unicode="&#x145;" horiz-adv-x="1597" 
d="M1229 1434h153v-1434h-133l-880 1157v-1157h-154v1434h133l881 -1158v1158zM676 -440l92 276h133l-123 -276h-102z" />
    <glyph glyph-name="uni0146" unicode="&#x146;" 
d="M297 983v-143q4 6 12 17t38 40t63.5 50.5t89 39t114.5 17.5q178 0 289 -115t111 -305v-584h-144v584q0 129 -74.5 207.5t-191.5 78.5q-131 0 -219 -92t-88 -235v-543h-143v983h143zM430 -440l92 276h133l-123 -276h-102z" />
    <glyph glyph-name="Ncaron" unicode="&#x147;" horiz-adv-x="1597" 
d="M1229 1434h153v-1434h-133l-880 1157v-1157h-154v1434h133l881 -1158v1158zM1106 1894l-225 -276h-144l-225 276h133l164 -194l164 194h133z" />
    <glyph glyph-name="ncaron" unicode="&#x148;" 
d="M297 983v-143q4 6 12 17t38 40t63.5 50.5t89 39t114.5 17.5q178 0 289 -115t111 -305v-584h-144v584q0 129 -74.5 207.5t-191.5 78.5q-131 0 -219 -92t-88 -235v-543h-143v983h143zM891 1434l-225 -277h-144l-225 277h133l164 -195l164 195h133z" />
    <glyph glyph-name="Omacron" unicode="&#x14c;" horiz-adv-x="1720" 
d="M276 717q0 -252 169 -423t415 -171t415 171t169 423t-169 423t-415 171t-415 -171t-169 -423zM1597 717q0 -307 -215 -522t-522 -215t-522 215t-215 522t215 522t522 215t522 -215t215 -522zM1157 1812v-112h-594v112h594z" />
    <glyph glyph-name="omacron" unicode="&#x14d;" 
d="M942 491.5q0 159.5 -105.5 269t-253 109.5t-253 -109.5t-105.5 -268.5q0 -158 105.5 -268.5t253 -110.5t253 109.5t105.5 269zM82 491.5q0 215.5 146.5 364t355.5 148.5t355 -148.5t146 -364t-146 -363.5t-355 -148t-355.5 148t-146.5 363.5zM881 1341v-112h-594v112h594
z" />
    <glyph glyph-name="Ohungarumlaut" unicode="&#x150;" horiz-adv-x="1720" 
d="M276 717q0 -252 169 -423t415 -171t415 171t169 423t-169 423t-415 171t-415 -171t-169 -423zM1597 717q0 -307 -215 -522t-522 -215t-522 215t-215 522t215 522t522 215t522 -215t215 -522zM645 1618l154 276h153l-196 -276h-111zM963 1618l151 276h156l-195 -276h-112z
" />
    <glyph glyph-name="ohungarumlaut" unicode="&#x151;" 
d="M942 491.5q0 159.5 -105.5 269t-253 109.5t-253 -109.5t-105.5 -268.5q0 -158 105.5 -268.5t253 -110.5t253 109.5t105.5 269zM82 491.5q0 215.5 146.5 364t355.5 148.5t355 -148.5t146 -364t-146 -363.5t-355 -148t-355.5 148t-146.5 363.5zM358 1157l154 277h154
l-197 -277h-111zM676 1157l151 277h156l-195 -277h-112z" />
    <glyph glyph-name="OE" unicode="&#x152;" horiz-adv-x="2058" 
d="M1208 143h758v-143h-1116q-307 0 -517 208t-210 509t210 509t517 208h1096v-144h-738v-471h574v-143h-574v-533zM276 717q0 -246 164 -410t410 -164h205v1147h-205q-246 0 -410 -163.5t-164 -409.5z" />
    <glyph glyph-name="oe" unicode="&#x153;" horiz-adv-x="1925" 
d="M1812 430h-768q16 -133 112.5 -225t225.5 -92q90 0 167 41t110 82l31 40l92 -92q-6 -8 -16.5 -22.5t-47.5 -49t-80 -61t-112.5 -49t-143.5 -22.5q-80 0 -151.5 26.5t-116.5 63t-79 74.5t-48 65l-14 27q-6 -10 -16.5 -28t-48.5 -62t-82 -77.5t-114.5 -61t-148.5 -27.5
q-195 0 -338 149.5t-143 362.5t143.5 362.5t337.5 149.5q78 0 148.5 -27t116.5 -63.5t80 -74.5t50 -65l15 -26q4 10 14 27.5t46 61.5t78 77.5t112.5 61.5t148.5 28q188 0 319.5 -141.5t131.5 -360.5zM225 491.5q0 -157.5 102.5 -268t235.5 -110.5t235.5 110.5t102.5 268
t-102.5 268t-235.5 110.5t-235.5 -110.5t-102.5 -268zM1372 870q-121 0 -216 -91t-112 -216h635q-16 137 -100 222t-207 85z" />
    <glyph glyph-name="Racute" unicode="&#x154;" horiz-adv-x="1382" 
d="M215 1434h573q190 0 315.5 -123t125.5 -307q0 -92 -31 -168t-74 -119t-87 -73t-74 -40l-31 -10l338 -594h-174l-318 573h-409v-573h-154v1434zM788 1290h-419v-573h419q131 0 209 77.5t78 209t-78 209t-209 77.5zM635 1628l153 277h154l-194 -277h-113z" />
    <glyph glyph-name="racute" unicode="&#x155;" horiz-adv-x="706" 
d="M666 1004v-144h-62q-127 0 -217 -88t-90 -229v-543h-143v983h143v-133q4 6 12 16.5t38 37t64.5 47t92 37t121.5 16.5h41zM348 1157l154 277h153l-194 -277h-113z" />
    <glyph glyph-name="uni0156" unicode="&#x156;" horiz-adv-x="1382" 
d="M215 1434h573q190 0 315.5 -123t125.5 -307q0 -92 -31 -168t-74 -119t-87 -73t-74 -40l-31 -10l338 -594h-174l-318 573h-409v-573h-154v1434zM788 1290h-419v-573h419q131 0 209 77.5t78 209t-78 209t-209 77.5zM563 -440l92 276h133l-122 -276h-103z" />
    <glyph glyph-name="uni0157" unicode="&#x157;" horiz-adv-x="706" 
d="M666 1004v-144h-62q-127 0 -217 -88t-90 -229v-543h-143v983h143v-133q4 6 12 16.5t38 37t64.5 47t92 37t121.5 16.5h41zM72 -440l92 276h133l-123 -276h-102z" />
    <glyph glyph-name="Rcaron" unicode="&#x158;" horiz-adv-x="1382" 
d="M215 1434h573q190 0 315.5 -123t125.5 -307q0 -92 -31 -168t-74 -119t-87 -73t-74 -40l-31 -10l338 -594h-174l-318 573h-409v-573h-154v1434zM788 1290h-419v-573h419q131 0 209 77.5t78 209t-78 209t-209 77.5zM1004 1894l-226 -276h-143l-225 276h133l164 -194
l163 194h134z" />
    <glyph glyph-name="rcaron" unicode="&#x159;" horiz-adv-x="706" 
d="M666 1004v-144h-62q-127 0 -217 -88t-90 -229v-543h-143v983h143v-133q4 6 12 16.5t38 37t64.5 47t92 37t121.5 16.5h41zM707 1434l-226 -277h-143l-225 277h133l164 -195l163 195h134z" />
    <glyph glyph-name="Sacute" unicode="&#x15a;" horiz-adv-x="1157" 
d="M901 389q0 74 -43 126t-111.5 81t-151.5 52.5t-166 52t-151.5 69.5t-111.5 116t-43 179q0 162 127 275.5t334 113.5q78 0 148.5 -19.5t117.5 -46t84 -53t53 -45.5l17 -20l-103 -103q-4 6 -12 15.5t-38 34t-63.5 44t-89 35t-114.5 15.5q-141 0 -224.5 -72t-83.5 -174
q0 -74 43 -126t112 -81t152 -52.5t165.5 -52t151.5 -69.5t112 -115.5t43 -179.5q0 -182 -128 -295.5t-354 -113.5q-92 0 -175 22.5t-136 53t-94 62.5t-57 54l-19 23l94 104q4 -6 14.5 -18.5t45.5 -43t75.5 -53t109.5 -42t142 -19.5q158 0 243 73.5t85 192.5zM522 1628
l154 277h153l-194 -277h-113z" />
    <glyph glyph-name="sacute" unicode="&#x15b;" horiz-adv-x="880" 
d="M748 870l-103 -102q-8 12 -23.5 28.5t-71.5 45t-120 28.5q-82 0 -133 -43t-51 -100q0 -59 55 -95t133 -57.5t156 -49t133 -90t55 -159.5q0 -127 -97 -211.5t-261 -84.5q-70 0 -131.5 18t-101.5 43t-69.5 50.5t-43.5 43.5l-13 19l103 102q4 -6 11 -15.5t31.5 -34t52.5 -44
t72 -34.5t89 -15q104 0 159.5 46t55.5 117q0 61 -55.5 99.5t-133 61t-155.5 50t-133.5 87t-55.5 153.5q0 111 93.5 194t234.5 83q57 0 111.5 -13.5t89.5 -33t62.5 -40t39.5 -32.5zM358 1157l154 277h154l-195 -277h-113z" />
    <glyph glyph-name="Scedilla" unicode="&#x15e;" horiz-adv-x="1157" 
d="M901 389q0 74 -43 126t-111.5 81t-151.5 52.5t-166 52t-151.5 69.5t-111.5 116t-43 179q0 162 127 275.5t334 113.5q78 0 148.5 -19.5t117.5 -46t84 -53t53 -45.5l17 -20l-103 -103q-4 6 -12 15.5t-38 34t-63.5 44t-89 35t-114.5 15.5q-141 0 -224.5 -72t-83.5 -174
q0 -74 43 -126t112 -81t152 -52.5t165.5 -52t151.5 -69.5t112 -115.5t43 -179.5q0 -172 -116 -284.5t-323 -122.5l-43 -95h11q76 0 120 -41t44 -106q0 -68 -52.5 -114t-142.5 -46q-45 0 -89 16.5t-65 32.5l-20 17l41 67q51 -51 133 -51q45 0 73.5 24.5t28.5 57.5
q0 31 -22.5 51.5t-59.5 20.5q-16 0 -31.5 -5.5t-21.5 -11.5l-8 -4l-51 51l63 136q-82 6 -156.5 29.5t-122.5 54t-84 60.5t-52 50l-17 19l94 104q4 -6 14.5 -18.5t45.5 -43t75.5 -53t109.5 -42t142 -19.5q158 0 243 73.5t85 192.5z" />
    <glyph glyph-name="scedilla" unicode="&#x15f;" horiz-adv-x="880" 
d="M748 870l-103 -102q-8 12 -23.5 28.5t-71.5 45t-120 28.5q-82 0 -133 -43t-51 -100q0 -59 55 -95t133 -57.5t156 -49t133 -90t55 -159.5q0 -119 -85 -200.5t-230 -93.5l-43 -95h10q76 0 120 -41t44 -106q0 -68 -52.5 -114t-142.5 -46q-45 0 -89 16.5t-64 32.5l-21 17
l41 67q51 -51 133 -51q45 0 74 24.5t29 57.5q0 31 -22.5 51.5t-59.5 20.5q-16 0 -31.5 -5.5t-23.5 -11.5l-7 -4l-51 51l64 136q-59 6 -112.5 25.5t-88.5 44t-60.5 48t-35.5 39.5l-13 15l103 102q4 -6 11 -15.5t31.5 -34t52.5 -44t72 -34.5t89 -15q104 0 159.5 46t55.5 117
q0 61 -55.5 99.5t-133 61t-155.5 50t-133.5 87t-55.5 153.5q0 111 93.5 194t234.5 83q57 0 111.5 -13.5t89.5 -33t62.5 -40t39.5 -32.5z" />
    <glyph glyph-name="Scaron" unicode="&#x160;" horiz-adv-x="1157" 
d="M901 389q0 74 -43 126t-111.5 81t-151.5 52.5t-166 52t-151.5 69.5t-111.5 116t-43 179q0 162 127 275.5t334 113.5q78 0 148.5 -19.5t117.5 -46t84 -53t53 -45.5l17 -20l-103 -103q-4 6 -12 15.5t-38 34t-63.5 44t-89 35t-114.5 15.5q-141 0 -224.5 -72t-83.5 -174
q0 -74 43 -126t112 -81t152 -52.5t165.5 -52t151.5 -69.5t112 -115.5t43 -179.5q0 -182 -128 -295.5t-354 -113.5q-92 0 -175 22.5t-136 53t-94 62.5t-57 54l-19 23l94 104q4 -6 14.5 -18.5t45.5 -43t75.5 -53t109.5 -42t142 -19.5q158 0 243 73.5t85 192.5zM881 1894
l-226 -276h-143l-225 276h133l164 -194l164 194h133z" />
    <glyph glyph-name="scaron" unicode="&#x161;" horiz-adv-x="880" 
d="M748 870l-103 -102q-8 12 -23.5 28.5t-71.5 45t-120 28.5q-82 0 -133 -43t-51 -100q0 -59 55 -95t133 -57.5t156 -49t133 -90t55 -159.5q0 -127 -97 -211.5t-261 -84.5q-70 0 -131.5 18t-101.5 43t-69.5 50.5t-43.5 43.5l-13 19l103 102q4 -6 11 -15.5t31.5 -34t52.5 -44
t72 -34.5t89 -15q104 0 159.5 46t55.5 117q0 61 -55.5 99.5t-133 61t-155.5 50t-133.5 87t-55.5 153.5q0 111 93.5 194t234.5 83q57 0 111.5 -13.5t89.5 -33t62.5 -40t39.5 -32.5zM727 1434l-225 -277h-144l-225 277h133l164 -195l164 195h133z" />
    <glyph glyph-name="uni0162" unicode="&#x162;" horiz-adv-x="1136" 
d="M41 1434h1055v-144h-451v-1290h-153v1290h-451v144zM410 -440l92 276h133l-123 -276h-102z" />
    <glyph glyph-name="uni0163" unicode="&#x163;" horiz-adv-x="737" 
d="M246 1085v226h133v-328h215v-133h-215v-584q0 -154 133 -153q33 0 65.5 8t49.5 14l18 8v-133q-61 -31 -139 -30q-127 0 -198.5 74.5t-71.5 211.5v584h-185v133h113q82 0 82 102zM287 -440l92 276h133l-123 -276h-102z" />
    <glyph glyph-name="Tcaron" unicode="&#x164;" horiz-adv-x="1136" 
d="M41 1434h1055v-144h-451v-1290h-153v1290h-451v144zM870 1894l-225 -276h-143l-226 276h134l163 -194l164 194h133z" />
    <glyph glyph-name="tcaron" unicode="&#x165;" horiz-adv-x="768" 
d="M246 1085v226h133v-328h215v-133h-215v-584q0 -154 133 -153q33 0 65.5 8t49.5 14l18 8v-133q-61 -31 -139 -30q-127 0 -198.5 74.5t-71.5 211.5v584h-185v133h113q82 0 82 102zM614 1157l93 277h133l-123 -277h-103z" />
    <glyph glyph-name="Umacron" unicode="&#x16a;" horiz-adv-x="1556" 
d="M778 123q178 0 304 128t126 312v871h154v-871q0 -238 -173 -410.5t-410.5 -172.5t-410.5 173t-173 410v871h153v-871q0 -184 126 -312t304 -128zM1075 1812v-112h-594v112h594z" />
    <glyph glyph-name="umacron" unicode="&#x16b;" horiz-adv-x="1198" 
d="M870 0v133q-4 -6 -12 -16.5t-37.5 -37t-63.5 -47t-89.5 -36.5t-114.5 -16q-172 0 -285.5 119.5t-113.5 310.5v573h143v-573q0 -129 80 -213t196 -84q125 0 211 92t86 235v543h144v-983h-144zM881 1341v-112h-594v112h594z" />
    <glyph glyph-name="Uring" unicode="&#x16e;" horiz-adv-x="1556" 
d="M778 123q178 0 304 128t126 312v871h154v-871q0 -238 -173 -410.5t-410.5 -172.5t-410.5 173t-173 410v871h153v-871q0 -184 126 -312t304 -128zM686 1782q0 -45 26.5 -74t65.5 -29t65.5 29t26.5 74t-26.5 73.5t-65.5 28.5t-65.5 -28.5t-26.5 -73.5zM973 1782
q0 -84 -55.5 -139.5t-139.5 -55.5t-139 55.5t-55 139.5t55 139t139 55t139.5 -55t55.5 -139z" />
    <glyph glyph-name="uring" unicode="&#x16f;" horiz-adv-x="1198" 
d="M870 0v133q-4 -6 -12 -16.5t-37.5 -37t-63.5 -47t-89.5 -36.5t-114.5 -16q-172 0 -285.5 119.5t-113.5 310.5v573h143v-573q0 -129 80 -213t196 -84q125 0 211 92t86 235v543h144v-983h-144zM481 1311q0 -45 27 -74t65.5 -29t65.5 29t27 74t-27 73.5t-65.5 28.5
t-65.5 -28.5t-27 -73.5zM768 1311q0 -84 -55.5 -139.5t-139.5 -55.5t-139 55.5t-55 139.5t55 139t139 55t139.5 -55t55.5 -139z" />
    <glyph glyph-name="Uhungarumlaut" unicode="&#x170;" horiz-adv-x="1556" 
d="M778 123q178 0 304 128t126 312v871h154v-871q0 -238 -173 -410.5t-410.5 -172.5t-410.5 173t-173 410v871h153v-871q0 -184 126 -312t304 -128zM543 1618l153 276h154l-197 -276h-110zM860 1618l152 276h155l-194 -276h-113z" />
    <glyph glyph-name="uhungarumlaut" unicode="&#x171;" horiz-adv-x="1198" 
d="M870 0v133q-4 -6 -12 -16.5t-37.5 -37t-63.5 -47t-89.5 -36.5t-114.5 -16q-172 0 -285.5 119.5t-113.5 310.5v573h143v-573q0 -129 80 -213t196 -84q125 0 211 92t86 235v543h144v-983h-144zM348 1157l154 277h153l-196 -277h-111zM666 1157l151 277h156l-195 -277h-112z
" />
    <glyph glyph-name="Uogonek" unicode="&#x172;" horiz-adv-x="1556" 
d="M778 123q178 0 304 128t126 312v871h154v-871q0 -217 -146.5 -383t-359.5 -194q-98 -121 -98 -211q0 -92 102 -92q27 0 57.5 7t49.5 15l16 8v-102q-61 -31 -135 -31q-90 0 -141.5 49t-51.5 135q0 106 93 218q-227 12 -390 182t-163 399v871h153v-871q0 -184 126 -312
t304 -128z" />
    <glyph glyph-name="uogonek" unicode="&#x173;" horiz-adv-x="1198" 
d="M870 0v133q-4 -6 -12 -16.5t-37.5 -37t-63.5 -47t-89.5 -36.5t-114.5 -16q-172 0 -285.5 119.5t-113.5 310.5v573h143v-573q0 -129 80 -213t196 -84q125 0 211 92t86 235v543h144v-983h-41q-113 -123 -113 -225q0 -92 103 -92q27 0 57.5 7t48.5 15l16 8v-102
q-61 -31 -135 -31q-90 0 -141 49t-51 135q0 59 28.5 118t57.5 89z" />
    <glyph glyph-name="Ydieresis" unicode="&#x178;" horiz-adv-x="1300" 
d="M645 666h10l430 768h175l-533 -932v-502h-154v502l-532 932h174zM369 1751q0 39 26.5 65.5t65.5 26.5t65.5 -26.5t26.5 -65.5t-26.5 -65.5t-65.5 -26.5t-65.5 26.5t-26.5 65.5zM758 1751q0 39 26.5 65.5t65.5 26.5t65.5 -26.5t26.5 -65.5t-26.5 -65.5t-65.5 -26.5
t-65.5 26.5t-26.5 65.5z" />
    <glyph glyph-name="Zacute" unicode="&#x179;" horiz-adv-x="1228" 
d="M932 1290h-809v144h993v-144l-840 -1147h861v-143h-1045v143zM553 1628l154 277h153l-194 -277h-113z" />
    <glyph glyph-name="zacute" unicode="&#x17a;" horiz-adv-x="952" 
d="M840 983v-133l-594 -717h614v-133h-788v133l594 717h-574v133h748zM399 1157l154 277h154l-195 -277h-113z" />
    <glyph glyph-name="Zdotaccent" unicode="&#x17b;" horiz-adv-x="1228" 
d="M932 1290h-809v144h993v-144l-840 -1147h861v-143h-1045v143zM512 1761q0 39 26.5 65.5t65.5 26.5t65.5 -26.5t26.5 -65.5t-26.5 -65.5t-65.5 -26.5t-65.5 26.5t-26.5 65.5z" />
    <glyph glyph-name="zdotaccent" unicode="&#x17c;" horiz-adv-x="952" 
d="M840 983v-133l-594 -717h614v-133h-788v133l594 717h-574v133h748zM358 1280q0 39 27 65.5t65.5 26.5t65.5 -26.5t27 -65.5t-27 -65.5t-65.5 -26.5t-65.5 26.5t-27 65.5z" />
    <glyph glyph-name="Zcaron" unicode="&#x17d;" horiz-adv-x="1228" 
d="M932 1290h-809v144h993v-144l-840 -1147h861v-143h-1045v143zM911 1894l-225 -276h-143l-226 276h134l163 -194l164 194h133z" />
    <glyph glyph-name="zcaron" unicode="&#x17e;" horiz-adv-x="952" 
d="M840 983v-133l-594 -717h614v-133h-788v133l594 717h-574v133h748zM758 1434l-226 -277h-143l-225 277h133l164 -195l164 195h133z" />
    <glyph glyph-name="florin" unicode="&#x192;" horiz-adv-x="716" 
d="M123 -154l153 840h-163v133h184l72 348q29 147 103.5 217t203.5 70q33 0 63.5 -8t44.5 -16l15 -7v-133q-51 31 -123 31q-133 0 -164 -154l-72 -348h236v-133h-256l-154 -840q-51 -287 -307 -286q-33 0 -63.5 7t-45.5 15l-14 8v134q51 -31 123 -31q135 -1 164 153z" />
    <glyph glyph-name="uni0218" unicode="&#x218;" horiz-adv-x="1157" 
d="M901 389q0 74 -43 126t-111.5 81t-151.5 52.5t-166 52t-151.5 69.5t-111.5 116t-43 179q0 162 127 275.5t334 113.5q78 0 148.5 -19.5t117.5 -46t84 -53t53 -45.5l17 -20l-103 -103q-4 6 -12 15.5t-38 34t-63.5 44t-89 35t-114.5 15.5q-141 0 -224.5 -72t-83.5 -174
q0 -74 43 -126t112 -81t152 -52.5t165.5 -52t151.5 -69.5t112 -115.5t43 -179.5q0 -182 -128 -295.5t-354 -113.5q-92 0 -175 22.5t-136 53t-94 62.5t-57 54l-19 23l94 104q4 -6 14.5 -18.5t45.5 -43t75.5 -53t109.5 -42t142 -19.5q158 0 243 73.5t85 192.5zM430 -440
l92 276h133l-123 -276h-102z" />
    <glyph glyph-name="uni0219" unicode="&#x219;" horiz-adv-x="880" 
d="M748 870l-103 -102q-8 12 -23.5 28.5t-71.5 45t-120 28.5q-82 0 -133 -43t-51 -100q0 -59 55 -95t133 -57.5t156 -49t133 -90t55 -159.5q0 -127 -97 -211.5t-261 -84.5q-70 0 -131.5 18t-101.5 43t-69.5 50.5t-43.5 43.5l-13 19l103 102q4 -6 11 -15.5t31.5 -34t52.5 -44
t72 -34.5t89 -15q104 0 159.5 46t55.5 117q0 61 -55.5 99.5t-133 61t-155.5 50t-133.5 87t-55.5 153.5q0 111 93.5 194t234.5 83q57 0 111.5 -13.5t89.5 -33t62.5 -40t39.5 -32.5zM266 -440l92 276h134l-123 -276h-103z" />
    <glyph glyph-name="uni021A" unicode="&#x21a;" horiz-adv-x="1136" 
d="M41 1434h1055v-144h-451v-1290h-153v1290h-451v144zM410 -440l92 276h133l-123 -276h-102z" />
    <glyph glyph-name="uni021B" unicode="&#x21b;" horiz-adv-x="737" 
d="M246 1085v226h133v-328h215v-133h-215v-584q0 -154 133 -153q33 0 65.5 8t49.5 14l18 8v-133q-61 -31 -139 -30q-127 0 -198.5 74.5t-71.5 211.5v584h-185v133h113q82 0 82 102zM287 -440l92 276h133l-123 -276h-102z" />
    <glyph glyph-name="uni02BC" unicode="&#x2bc;" horiz-adv-x="348" 
d="M61 1157l93 277h133l-123 -277h-103z" />
    <glyph glyph-name="circumflex" unicode="&#x2c6;" horiz-adv-x="716" 
d="M430 1434l225 -277h-133l-164 195l-163 -195h-134l226 277h143z" />
    <glyph glyph-name="caron" unicode="&#x2c7;" horiz-adv-x="716" 
d="M655 1434l-225 -277h-143l-226 277h134l163 -195l164 195h133z" />
    <glyph glyph-name="breve" unicode="&#x2d8;" horiz-adv-x="675" 
d="M338 1260q78 0 121 45t43 129h112q0 -123 -76.5 -200t-199.5 -77t-200 77t-77 200h113q0 -84 43 -129t121 -45z" />
    <glyph glyph-name="dotaccent" unicode="&#x2d9;" horiz-adv-x="307" 
d="M61 1311q0 39 27 65.5t66 26.5t65.5 -26.5t26.5 -65.5t-26.5 -65.5t-65.5 -26.5t-66 26.5t-27 65.5z" />
    <glyph glyph-name="ring" unicode="&#x2da;" horiz-adv-x="512" 
d="M164 1229q0 -45 26.5 -74t65.5 -29t65.5 29t26.5 74t-26.5 73.5t-65.5 28.5t-65.5 -28.5t-26.5 -73.5zM451 1229q0 -84 -55.5 -139.5t-139.5 -55.5t-139.5 55.5t-55.5 139.5t55.5 139t139.5 55t139.5 -55t55.5 -139z" />
    <glyph glyph-name="ogonek" unicode="&#x2db;" horiz-adv-x="450" 
d="M174 0h102q-113 -123 -112 -225q0 -92 102 -92q27 0 57.5 7t49.5 15l16 8v-102q-61 -31 -135 -31q-90 0 -141.5 49t-51.5 135q0 59 28 118t56 89z" />
    <glyph glyph-name="tilde" unicode="&#x2dc;" horiz-adv-x="757" 
d="M246 1311q-33 0 -57.5 -34t-24.5 -99h-103q0 119 52.5 182t132.5 63q61 0 108 -33.5t84 -66.5t74 -33q33 0 57.5 34t24.5 99h102q0 -119 -52 -182t-132 -63q-61 0 -108.5 33.5t-84 66.5t-73.5 33z" />
    <glyph glyph-name="hungarumlaut" unicode="&#x2dd;" horiz-adv-x="747" 
d="M61 1157l154 277h154l-197 -277h-111zM379 1157l151 277h156l-194 -277h-113z" />
    <glyph glyph-name="uni0401" unicode="&#x401;" horiz-adv-x="1310" 
d="M369 143h850v-143h-1004v1434h983v-144h-829v-471h665v-143h-665v-533zM420 1751q0 39 26.5 65.5t65.5 26.5t65.5 -26.5t26.5 -65.5t-26.5 -65.5t-65.5 -26.5t-65.5 26.5t-26.5 65.5zM809 1751q0 39 26.5 65.5t65.5 26.5t65.5 -26.5t26.5 -65.5t-26.5 -65.5t-65.5 -26.5
t-65.5 26.5t-26.5 65.5z" />
    <glyph glyph-name="uni0402" unicode="&#x402;" horiz-adv-x="1464" 
d="M911 932q195 0 312.5 -126t117.5 -345q0 -221 -128 -351t-343 -130v143q147 0 232.5 89t85.5 249q0 152 -82 239.5t-215 87.5q-96 0 -188.5 -40.5t-137.5 -81.5l-43 -41v-625h-153v1290h-369v144h891v-144h-369v-491q16 14 49 36.5t134.5 59.5t205.5 37z" />
    <glyph glyph-name="uni0403" unicode="&#x403;" horiz-adv-x="1126" 
d="M604 1628l154 277h153l-194 -277h-113zM215 0v1434h891v-144h-737v-1290h-154z" />
    <glyph glyph-name="uni0404" unicode="&#x404;" horiz-adv-x="1536" 
d="M123 717q0 307 215 522t522 215q109 0 209 -30.5t165.5 -73.5t115 -87t71.5 -75l23 -31l-103 -92q-6 10 -18 26.5t-57 58.5t-96.5 74.5t-134.5 59.5t-175 27q-233 0 -393 -145.5t-191 -366.5h758v-144h-758q23 -227 187 -379.5t397 -152.5q92 0 176 25.5t138.5 61.5
t96.5 71.5t60 62.5l21 25l102 -93q-8 -12 -24.5 -31.5t-73 -70.5t-119.5 -91t-165.5 -71.5t-211.5 -31.5q-307 0 -522 215t-215 522z" />
    <glyph glyph-name="uni0405" unicode="&#x405;" horiz-adv-x="1157" 
d="M901 389q0 74 -43 126t-111.5 81t-151.5 52.5t-166 52t-151.5 69.5t-111.5 116t-43 179q0 162 127 275.5t334 113.5q78 0 148.5 -19.5t117.5 -46t84 -53t53 -45.5l17 -20l-103 -103q-4 6 -12 15.5t-38 34t-63.5 44t-89 35t-114.5 15.5q-141 0 -224.5 -72t-83.5 -174
q0 -74 43 -126t112 -81t152 -52.5t165.5 -52t151.5 -69.5t112 -115.5t43 -179.5q0 -182 -128 -295.5t-354 -113.5q-92 0 -175 22.5t-136 53t-94 62.5t-57 54l-19 23l94 104q4 -6 14.5 -18.5t45.5 -43t75.5 -53t109.5 -42t142 -19.5q158 0 243 73.5t85 192.5z" />
    <glyph glyph-name="uni0406" unicode="&#x406;" horiz-adv-x="583" 
d="M215 0v1434h154v-1434h-154z" />
    <glyph glyph-name="uni0407" unicode="&#x407;" horiz-adv-x="583" 
d="M215 0v1434h154v-1434h-154zM10 1751q0 39 26.5 65.5t65.5 26.5t66 -26.5t27 -65.5t-27 -65.5t-66 -26.5t-65.5 26.5t-26.5 65.5zM399 1751q0 39 27 65.5t65.5 26.5t65.5 -26.5t27 -65.5t-27 -65.5t-65.5 -26.5t-65.5 26.5t-27 65.5z" />
    <glyph glyph-name="uni0408" unicode="&#x408;" horiz-adv-x="1013" 
d="M655 1434h154v-1014q0 -193 -124 -316.5t-316 -123.5q-63 0 -122 16t-98.5 40.5t-69.5 49.5t-44 41l-15 16l103 103q4 -4 10 -13.5t28.5 -30t49.5 -36.5t70 -29.5t88 -13.5q131 0 208.5 80t77.5 217v1014z" />
    <glyph glyph-name="uni0409" unicode="&#x409;" horiz-adv-x="2211" 
d="M1628 0h-522v1290h-584v-286q0 -317 -26.5 -525.5t-82 -315t-123 -145t-167.5 -38.5q-33 0 -65.5 5t-49.5 11l-18 4v154q61 -20 112 -21q63 0 107.5 31t83.5 119t57.5 267t18.5 454v430h891v-533h368q199 0 330 -129t131 -321.5t-131 -321.5t-330 -129zM1260 143h368
q137 0 222 84t85 223.5t-85 223.5t-222 84h-368v-615z" />
    <glyph glyph-name="uni040A" unicode="&#x40a;" horiz-adv-x="2211" 
d="M215 0v1434h154v-533h737v533h154v-533h368q199 0 330 -129t131 -321.5t-131 -321.5t-330 -129h-522v758h-737v-758h-154zM1260 143h368q137 0 222 84t85 223.5t-85 223.5t-222 84h-368v-615z" />
    <glyph glyph-name="uni040B" unicode="&#x40b;" horiz-adv-x="1515" 
d="M0 1290v144h891v-144h-369v-491q16 14 49 36.5t134.5 59.5t205.5 37q193 0 311.5 -121t118.5 -319v-492h-153v492q0 131 -83 213.5t-214 82.5q-96 0 -188.5 -40.5t-137.5 -81.5l-43 -41v-625h-153v1290h-369z" />
    <glyph glyph-name="uni040C" unicode="&#x40c;" horiz-adv-x="1372" 
d="M369 625l737 809h194l-542 -594l594 -840h-185l-512 727l-286 -307v-420h-154v1434h154v-809zM666 1628l153 277h154l-195 -277h-112z" />
    <glyph glyph-name="uni040E" unicode="&#x40e;" horiz-adv-x="1249" 
d="M635 1628q-123 0 -200 77t-77 200h113q0 -70 47 -117t117 -47t117 47t47 117h112q0 -123 -76.5 -200t-199.5 -77zM666 594l389 840h164l-533 -1117q-88 -184 -179 -260.5t-241 -76.5q-33 0 -65.5 5t-48.5 11l-19 4v143q51 -20 123 -20q96 0 152.5 44t113.5 150l62 113
q-66 125 -250 470t-283 534h164z" />
    <glyph glyph-name="uni040F" unicode="&#x40f;" horiz-adv-x="1525" 
d="M1311 1434v-1434h-471v-307h-154v307h-471v1434h154v-1291h788v1291h154z" />
    <glyph glyph-name="uni0410" unicode="&#x410;" horiz-adv-x="1433" 
d="M993 543l-276 676l-277 -676h553zM1055 399h-676l-164 -399h-164l594 1434h143l594 -1434h-163z" />
    <glyph glyph-name="uni0411" unicode="&#x411;" horiz-adv-x="1341" 
d="M369 1290v-430h399q190 0 320.5 -126t130.5 -304t-130.5 -304t-320.5 -126h-553v1434h891v-144h-737zM369 143h399q129 0 213 82t84 205t-84 205t-213 82h-399v-574z" />
    <glyph glyph-name="uni0412" unicode="&#x412;" horiz-adv-x="1372" 
d="M1004 768q10 -4 25 -11t56 -38t72 -68t56.5 -102.5t25.5 -138.5q0 -178 -122 -294t-318 -116h-584v1434h553q174 0 286.5 -106.5t112.5 -262.5q0 -63 -16 -116.5t-41 -85.5t-49.5 -54.5t-40.5 -30.5zM369 143h430q129 0 207.5 75t78.5 192q0 119 -79.5 202.5t-206.5 83.5
h-430v-553zM768 1290h-399v-459h399q115 0 180.5 62.5t65.5 171.5q0 100 -65.5 162.5t-180.5 62.5z" />
    <glyph glyph-name="uni0413" unicode="&#x413;" horiz-adv-x="1126" 
d="M215 0v1434h891v-144h-737v-1290h-154z" />
    <glyph glyph-name="uni0414" unicode="&#x414;" horiz-adv-x="1454" 
d="M0 143h82q10 8 27.5 27.5t61.5 92.5t78 163t61.5 244.5t27.5 333.5v430h881v-1291h174v-450h-154v307h-1085v-307h-154v450zM492 1004q0 -174 -26 -328t-61.5 -247t-71.5 -161.5t-63 -95.5l-24 -29h819v1147h-573v-286z" />
    <glyph glyph-name="uni0415" unicode="&#x415;" horiz-adv-x="1310" 
d="M369 143h850v-143h-1004v1434h983v-144h-829v-471h665v-143h-665v-533z" />
    <glyph glyph-name="uni0416" unicode="&#x416;" horiz-adv-x="1976" 
d="M1260 727l-195 -205v-522h-154v522l-194 205l-512 -727h-185l594 840l-542 594h194l645 -705v705h154v-705l645 705h195l-543 -594l594 -840h-184z" />
    <glyph glyph-name="uni0417" unicode="&#x417;" horiz-adv-x="1218" 
d="M799 758q12 -2 31.5 -9.5t70.5 -35t91 -64.5t72 -103.5t32 -146.5q0 -168 -146.5 -293.5t-376.5 -125.5q-94 0 -182 23.5t-145.5 56t-101.5 65.5t-62 55l-21 25l103 102q6 -8 17.5 -20.5t50 -44t82.5 -56t115 -44t144 -19.5q170 0 269.5 82t99.5 194q0 121 -99.5 204
t-269.5 83h-163v143h163q147 0 232.5 69t85.5 167q0 104 -85 175t-233 71q-100 0 -189 -41t-130 -82l-39 -41l-102 102q6 8 19 22.5t57 49.5t93.5 61.5t128 49t162.5 22.5q215 0 343 -109.5t128 -269.5q0 -70 -25.5 -127t-61 -91t-71.5 -57.5t-63 -33.5z" />
    <glyph glyph-name="uni0418" unicode="&#x418;" horiz-adv-x="1597" 
d="M1382 0h-153v1157l-881 -1157h-133v1434h154v-1158l880 1158h133v-1434z" />
    <glyph glyph-name="uni0419" unicode="&#x419;" horiz-adv-x="1597" 
d="M799 1628q-123 0 -200 77t-77 200h113q0 -70 47 -117t116.5 -47t117 47t47.5 117h112q0 -123 -76.5 -200t-199.5 -77zM1382 0h-153v1157l-881 -1157h-133v1434h154v-1158l880 1158h133v-1434z" />
    <glyph glyph-name="uni041A" unicode="&#x41a;" horiz-adv-x="1372" 
d="M369 625l737 809h194l-542 -594l594 -840h-185l-512 727l-286 -307v-420h-154v1434h154v-809z" />
    <glyph glyph-name="uni041B" unicode="&#x41b;" horiz-adv-x="1505" 
d="M1290 1434v-1434h-153v1290h-615v-286q0 -317 -26.5 -525.5t-82 -315t-123 -145t-167.5 -38.5q-33 0 -65.5 5t-49.5 11l-18 4v154q61 -20 112 -21q63 0 107.5 31t83.5 119t57.5 267t18.5 454v430h921z" />
    <glyph glyph-name="uni041C" unicode="&#x41c;" horiz-adv-x="1884" 
d="M1516 1167l-574 -757l-573 757v-1167h-154v1434h133l594 -779l594 779h133v-1434h-153v1167z" />
    <glyph glyph-name="uni041D" unicode="&#x41d;" horiz-adv-x="1536" 
d="M215 0v1434h154v-635h798v635h154v-1434h-154v655h-798v-655h-154z" />
    <glyph glyph-name="uni041E" unicode="&#x41e;" horiz-adv-x="1720" 
d="M276 717q0 -252 169 -423t415 -171t415 171t169 423t-169 423t-415 171t-415 -171t-169 -423zM1597 717q0 -307 -215 -522t-522 -215t-522 215t-215 522t215 522t522 215t522 -215t215 -522z" />
    <glyph glyph-name="uni041F" unicode="&#x41f;" horiz-adv-x="1536" 
d="M1321 1434v-1434h-154v1290h-798v-1290h-154v1434h1106z" />
    <glyph glyph-name="uni0420" unicode="&#x420;" horiz-adv-x="1331" 
d="M215 1434h543q199 0 330 -129t131 -321.5t-131.5 -322t-329.5 -129.5h-389v-532h-154v1434zM758 1290h-389v-614h389q139 0 223 84t84 223t-84 223t-223 84z" />
    <glyph glyph-name="uni0421" unicode="&#x421;" horiz-adv-x="1546" 
d="M123 717q0 307 215 522t522 215q109 0 209 -30.5t165.5 -73.5t115 -87t71.5 -75l23 -31l-103 -92q-6 10 -18 26.5t-56 58.5t-95.5 74.5t-135.5 59.5t-176 27q-246 0 -415 -171t-169 -423t169 -423t415 -171q92 0 176 25.5t139.5 61.5t97.5 71.5t60 62.5l19 25l102 -93
q-8 -12 -24.5 -31.5t-73 -70.5t-119.5 -91t-165.5 -71.5t-211.5 -31.5q-307 0 -522 215t-215 522z" />
    <glyph glyph-name="uni0422" unicode="&#x422;" horiz-adv-x="1136" 
d="M41 1434h1055v-144h-451v-1290h-153v1290h-451v144z" />
    <glyph glyph-name="uni0423" unicode="&#x423;" horiz-adv-x="1249" 
d="M666 594l389 840h164l-533 -1117q-88 -184 -179 -260.5t-241 -76.5q-33 0 -65.5 5t-48.5 11l-19 4v143q51 -20 123 -20q96 0 152.5 44t113.5 150l62 113q-66 125 -250 470t-283 534h164z" />
    <glyph glyph-name="uni0424" unicode="&#x424;" horiz-adv-x="1730" 
d="M266 737.5q0 -190.5 137.5 -311.5t384.5 -129v881q-248 -8 -385 -129t-137 -311.5zM1464 737.5q0 190.5 -137 311t-385 129.5v-881q248 8 385 129t137 311.5zM942 154v-195h-154v195q-307 8 -491 174t-184 409.5t184 409.5t491 174v154h154v-154q307 -8 491.5 -174
t184.5 -409.5t-184.5 -409.5t-491.5 -174z" />
    <glyph glyph-name="uni0425" unicode="&#x425;" horiz-adv-x="1331" 
d="M666 870l399 564h184l-491 -686l532 -748h-184l-440 625l-441 -625h-184l532 748l-491 686h184z" />
    <glyph glyph-name="uni0426" unicode="&#x426;" horiz-adv-x="1546" 
d="M215 0v1434h154v-1291h778v1291h153v-1291h185v-450h-154v307h-1116z" />
    <glyph glyph-name="uni0427" unicode="&#x427;" horiz-adv-x="1443" 
d="M348 1434v-430q0 -172 94.5 -265.5t264.5 -93.5q66 0 128 15.5t104 38t73.5 46t48.5 37.5l14 17v635h154v-1434h-154v625q-16 -14 -49 -35t-134 -54.5t-206 -33.5q-227 0 -359 134t-132 368v430h153z" />
    <glyph glyph-name="uni0428" unicode="&#x428;" horiz-adv-x="2078" 
d="M215 0v1434h154v-1291h594v1291h153v-1291h594v1291h154v-1434h-1649z" />
    <glyph glyph-name="uni0429" unicode="&#x429;" horiz-adv-x="2109" 
d="M215 0v1434h154v-1291h594v1291h153v-1291h594v1291h154v-1291h184v-450h-154v307h-1679z" />
    <glyph glyph-name="uni042A" unicode="&#x42a;" horiz-adv-x="1454" 
d="M870 0h-522v1290h-348v144h502v-533h368q199 0 330 -129t131 -321.5t-131 -321.5t-330 -129zM502 143h368q137 0 222.5 84t85.5 223.5t-85 223.5t-223 84h-368v-615z" />
    <glyph glyph-name="uni042B" unicode="&#x42b;" horiz-adv-x="1812" 
d="M1597 0h-153v1434h153v-1434zM737 0h-522v1434h154v-533h368q199 0 330 -129t131 -321.5t-131 -321.5t-330 -129zM369 143h368q139 0 223 84t84 223.5t-83.5 223.5t-223.5 84h-368v-615z" />
    <glyph glyph-name="uni042C" unicode="&#x42c;" horiz-adv-x="1341" 
d="M758 0h-543v1434h154v-533h389q199 0 330 -129t131 -321.5t-131 -321.5t-330 -129zM369 143h389q139 0 223 84t84 223.5t-84 223.5t-223 84h-389v-615z" />
    <glyph glyph-name="uni042D" unicode="&#x42d;" horiz-adv-x="1536" 
d="M1413 717q0 -307 -215 -522t-522 -215q-109 0 -210 30.5t-168 73.5t-118 87t-74 75l-24 30l102 93q6 -10 19.5 -26.5t59.5 -58.5t98.5 -75t137.5 -59.5t177 -26.5q233 0 397 152.5t187 379.5h-758v144h758q-31 221 -191 366.5t-393 145.5q-92 0 -175 -25.5t-136.5 -61.5
t-93.5 -72t-58 -62l-18 -25l-103 92q8 12 23.5 31.5t70 71t117 91.5t163.5 71.5t210 31.5q307 0 522 -215t215 -522z" />
    <glyph glyph-name="uni042E" unicode="&#x42e;" horiz-adv-x="2160" 
d="M369 1434v-635h276q31 274 227.5 464.5t468.5 190.5q287 0 492 -213t205 -524t-205 -524t-492 -213q-274 0 -473.5 194.5t-222.5 480.5h-276v-655h-154v1434h154zM799 717q0 -258 157.5 -426t385 -168t385 168t157.5 426t-157.5 426t-385 168t-385 -168t-157.5 -426z" />
    <glyph glyph-name="uni042F" unicode="&#x42f;" horiz-adv-x="1372" 
d="M584 1434h573v-1434h-153v573h-410l-318 -573h-174l338 594q-12 4 -31.5 11t-70.5 39t-91 74t-72 117.5t-32 168.5q0 184 125.5 307t315.5 123zM1004 1290h-420q-131 0 -209 -77.5t-78 -209t78 -209t209 -77.5h420v573z" />
    <glyph glyph-name="uni0430" unicode="&#x430;" horiz-adv-x="1064" 
d="M369 563l379 62q0 109 -69 177t-177 68q-78 0 -146.5 -35.5t-99.5 -72.5l-31 -35l-92 92q6 8 16.5 20.5t46 44t74.5 56.5t102.5 44.5t129.5 19.5q168 0 278.5 -109t110.5 -270v-625h-143v133q-4 -6 -12.5 -16.5t-38 -37t-63.5 -47t-89.5 -36.5t-114.5 -16
q-147 0 -247.5 87t-100.5 199q0 123 74 198.5t213 98.5zM430 113q139 0 228.5 91t89.5 236v62l-338 -62q-184 -35 -185 -174q0 -66 54.5 -109.5t150.5 -43.5z" />
    <glyph glyph-name="uni0431" unicode="&#x431;" horiz-adv-x="1198" 
d="M1085 471q0 -207 -140 -349t-341 -142q-217 0 -354 165.5t-137 468.5q0 678 501 768q109 18 194 47t114 48l30 18l72 -113q-82 -72 -389 -133q-162 -33 -261.5 -153.5t-107.5 -327.5q4 8 13.5 21.5t41 46t69.5 58.5t98.5 47.5t125.5 21.5q195 0 333 -143.5t138 -348.5z
M266 471q0 -152 99.5 -255t238.5 -103t238.5 103t99.5 255t-99.5 255t-238.5 103t-238.5 -103t-99.5 -255z" />
    <glyph glyph-name="uni0432" unicode="&#x432;" horiz-adv-x="1064" 
d="M154 983h450q135 0 216 -72.5t81 -183.5q0 -63 -30.5 -114.5t-61.5 -71.5l-31 -19q6 -2 17.5 -6t40 -21.5t50 -41t39 -67.5t17.5 -99q0 -133 -83 -210t-234 -77h-471v983zM625 461h-328v-328h328q84 0 129 43t45 121t-45 121t-129 43zM758 717q0 133 -154 133h-307v-266
h307q154 0 154 133z" />
    <glyph glyph-name="uni0433" unicode="&#x433;" horiz-adv-x="839" 
d="M809 983v-133h-512v-850h-143v983h655z" />
    <glyph glyph-name="uni0434" unicode="&#x434;" horiz-adv-x="1136" 
d="M1065 133v-379h-143v246h-789v-246h-143v379h71q6 6 18.5 20.5t42.5 65.5t53.5 110.5t42 159t18.5 207.5v287h675v-850h154zM379 850v-154q0 -168 -41 -308t-82 -198l-41 -57h553v717h-389z" />
    <glyph glyph-name="uni0435" unicode="&#x435;" horiz-adv-x="1136" 
d="M1024 438l-799 2q8 -133 109.5 -230t238.5 -97q92 0 171 41t112 82l35 40l92 -92q-6 -8 -17.5 -22.5t-50 -49t-83 -61t-115 -49t-144.5 -22.5q-201 0 -346 149.5t-145 362.5t143.5 362.5t337.5 149.5q201 0 336 -139.5t135 -352.5zM563 870q-129 0 -225 -91t-113 -216
h666q-16 133 -107.5 220t-220.5 87z" />
    <glyph glyph-name="uni0436" unicode="&#x436;" horiz-adv-x="1495" 
d="M666 328l-144 153l-348 -481h-164l420 584l-379 399h174l441 -471v471h143v-471l440 471h174l-379 -399l420 -584h-164l-348 481l-143 -153v-328h-143v328z" />
    <glyph glyph-name="uni0437" unicode="&#x437;" horiz-adv-x="901" 
d="M748 727q0 -49 -15.5 -89t-38 -62.5t-46 -38t-38.5 -21.5l-16 -4q8 -2 21.5 -5t46 -19.5t58 -40t47 -68.5t21.5 -103q0 -125 -98 -210.5t-280 -85.5q-70 0 -132.5 18t-104.5 43t-72.5 50.5t-45.5 43.5l-14 19l92 92q12 -14 33.5 -37t93.5 -59.5t150 -36.5q117 0 176 45
t59 118.5t-59.5 118.5t-175.5 45h-113v133h113q88 0 141 45.5t53 109t-49 103t-145 39.5q-68 0 -129.5 -27.5t-87.5 -56.5l-29 -28l-103 102q14 16 41 40t117 64t191 40q150 0 244 -82t94 -195z" />
    <glyph glyph-name="uni0438" unicode="&#x438;" 
d="M891 983h123v-983h-144v737l-594 -737h-122v983h143v-737z" />
    <glyph glyph-name="uni0439" unicode="&#x439;" 
d="M584 1260q78 0 121 45t43 129h112q0 -123 -76.5 -200t-199.5 -77t-200 77t-77 200h113q0 -84 43 -129t121 -45zM891 983h123v-983h-144v737l-594 -737h-122v983h143v-737z" />
    <glyph glyph-name="uni043A" unicode="&#x43a;" horiz-adv-x="1034" 
d="M297 276v-276h-143v983h143v-522l491 522h175l-379 -399l420 -584h-164l-348 481z" />
    <glyph glyph-name="uni043B" unicode="&#x43b;" horiz-adv-x="1146" 
d="M256 983h717v-983h-144v850h-430v-154q0 -217 -21.5 -361.5t-64.5 -220t-95 -105t-126 -29.5q-25 0 -50.5 5t-37.5 11l-14 4v143q41 -20 82 -20q63 0 99 36t60.5 166t24.5 371v287z" />
    <glyph glyph-name="uni043C" unicode="&#x43c;" horiz-adv-x="1331" 
d="M1014 727l-359 -451l-358 451v-727h-143v983h112l389 -491l389 491h113v-983h-143v727z" />
    <glyph glyph-name="uni043D" unicode="&#x43d;" horiz-adv-x="1177" 
d="M860 0v430h-563v-430h-143v983h143v-420h563v420h144v-983h-144z" />
    <glyph glyph-name="uni043E" unicode="&#x43e;" 
d="M942 491.5q0 159.5 -105.5 269t-253 109.5t-253 -109.5t-105.5 -268.5q0 -158 105.5 -268.5t253 -110.5t253 109.5t105.5 269zM82 491.5q0 215.5 146.5 364t355.5 148.5t355 -148.5t146 -364t-146 -363.5t-355 -148t-355.5 148t-146.5 363.5z" />
    <glyph glyph-name="uni043F" unicode="&#x43f;" horiz-adv-x="1177" 
d="M860 0v848h-563v-848h-143v983h850v-983h-144z" />
    <glyph glyph-name="uni0440" unicode="&#x440;" horiz-adv-x="1218" 
d="M297 491.5q0 -151.5 107.5 -265t240.5 -113.5q127 0 227.5 110.5t100.5 268t-100.5 268t-227.5 110.5q-133 0 -240.5 -113.5t-107.5 -265zM297 154v-584h-143v1413h143v-154q4 6 14.5 18.5t43 42.5t70.5 53.5t97.5 42t122.5 18.5q188 0 329.5 -151t141.5 -361.5
t-141 -361t-330 -150.5q-63 0 -121.5 18t-98.5 43t-69.5 50.5t-44.5 43.5z" />
    <glyph glyph-name="uni0441" unicode="&#x441;" horiz-adv-x="1054" 
d="M82 492q0 213 145.5 362.5t345.5 149.5q115 0 214.5 -49.5t142.5 -98.5l43 -47l-103 -102q-4 6 -12 17t-35.5 40t-59.5 50.5t-83 38.5t-107 17q-141 0 -244.5 -109.5t-103.5 -269t103.5 -269t244.5 -109.5q86 0 163 41t112 82l33 40l102 -92q-6 -8 -18.5 -22.5t-52.5 -49
t-84 -61t-113.5 -49t-141.5 -22.5q-201 0 -346 149.5t-145 362.5z" />
    <glyph glyph-name="uni0442" unicode="&#x442;" horiz-adv-x="921" 
d="M31 850v133h839v-133h-348v-850h-143v850h-348z" />
    <glyph glyph-name="uni0443" unicode="&#x443;" horiz-adv-x="1003" 
d="M369 -143l51 143l-400 983h154l318 -799l317 799h154l-451 -1126q-61 -156 -131 -221.5t-176 -65.5q-33 0 -63.5 5t-45.5 11l-14 4v134q51 -20 102 -21q130 0 185 154z" />
    <glyph glyph-name="uni0444" unicode="&#x444;" horiz-adv-x="1454" 
d="M225 492q0 -166 116 -272.5t304 -106.5v757q-188 0 -304 -107t-116 -271zM1208 492q0 164 -115.5 271t-304.5 107v-757q188 0 304 106.5t116 272.5zM788 -20v-410h-143v410q-250 0 -406.5 146t-156.5 365.5t156.5 366t406.5 146.5v430h143v-430q250 0 407 -146.5
t157 -366t-157 -365.5t-407 -146z" />
    <glyph glyph-name="uni0445" unicode="&#x445;" horiz-adv-x="983" 
d="M481 399l-286 -399h-175l369 512l-338 471h174l256 -358l256 358h174l-338 -471l369 -512h-174z" />
    <glyph glyph-name="uni0446" unicode="&#x446;" horiz-adv-x="1208" 
d="M154 0v983h143v-850h543v850h143v-850h154v-379h-144v246h-839z" />
    <glyph glyph-name="uni0447" unicode="&#x447;" horiz-adv-x="1105" 
d="M788 0v399q-113 -82 -276 -82q-168 0 -273.5 105.5t-105.5 273.5v287h143v-287q0 -106 69 -175.5t177 -69.5q74 0 140.5 22.5t95.5 46.5l30 23v440h144v-983h-144z" />
    <glyph glyph-name="uni0448" unicode="&#x448;" horiz-adv-x="1597" 
d="M154 0v983h143v-850h420v850h145v-850h418v850h143v-983h-1269z" />
    <glyph glyph-name="uni0449" unicode="&#x449;" horiz-adv-x="1648" 
d="M154 0v983h143v-850h420v850h145v-850h418v850h143v-850h154v-379h-143v246h-1280z" />
    <glyph glyph-name="uni044A" unicode="&#x44a;" horiz-adv-x="1095" 
d="M993 327.5q0 -147.5 -95 -237.5t-261 -90h-391v850h-256v133h399v-328h246q166 0 262 -90t96 -237.5zM389 133h248q96 0 154.5 54.5t58.5 140.5t-58.5 140t-156.5 54h-246v-389z" />
    <glyph glyph-name="uni044B" unicode="&#x44b;" horiz-adv-x="1402" 
d="M1229 983v-983h-144v983h144zM297 133h248q96 0 154.5 54.5t58.5 140.5t-58.5 140t-156.5 54h-246v-389zM901 327.5q0 -147.5 -95 -237.5t-261 -90h-391v983h143v-328h246q166 0 262 -90t96 -237.5z" />
    <glyph glyph-name="uni044C" unicode="&#x44c;" horiz-adv-x="1013" 
d="M297 133h258q96 0 154.5 54.5t58.5 140.5t-58.5 140t-156.5 54h-256v-389zM911 327.5q0 -147.5 -95 -237.5t-261 -90h-401v983h143v-328h256q166 0 262 -90t96 -237.5z" />
    <glyph glyph-name="uni044D" unicode="&#x44d;" horiz-adv-x="1044" 
d="M942 492q0 -213 -145.5 -362.5t-345.5 -149.5q-72 0 -140.5 21.5t-116 51t-83 59t-54.5 52.5l-16 20l102 92q4 -6 13.5 -17t39 -40t62.5 -50.5t85 -38.5t108 -17q129 0 230 97t118 230h-492v133h481q-16 119 -113 208t-224 89q-55 0 -105.5 -16t-84.5 -41t-59.5 -49.5
t-37.5 -40.5l-10 -16l-103 102q6 8 17.5 21.5t49.5 46t81 58.5t111.5 47.5t140.5 21.5q201 0 346 -149.5t145 -362.5z" />
    <glyph glyph-name="uni044E" unicode="&#x44e;" horiz-adv-x="1597" 
d="M1495 492q0 -213 -145.5 -362.5t-345.5 -149.5q-188 0 -328.5 131t-163.5 319h-215v-430h-143v983h143v-420h215q25 180 164 310.5t328 130.5q201 0 346 -149.5t145 -362.5zM655 491.5q0 -159.5 103.5 -269t245 -109.5t245 109.5t103.5 269t-103.5 269t-245 109.5
t-245 -109.5t-103.5 -269z" />
    <glyph glyph-name="uni044F" unicode="&#x44f;" horiz-adv-x="1044" 
d="M92 655q0 141 99.5 234.5t259.5 93.5h419v-983h-143v328h-287l-204 -328h-164l225 358q-8 2 -22.5 7.5t-49.5 27t-61.5 52t-49 85.5t-22.5 125zM727 850h-276q-98 0 -156.5 -54.5t-58.5 -140.5t58 -140t157 -54h276v389z" />
    <glyph glyph-name="uni0451" unicode="&#x451;" horiz-adv-x="1136" 
d="M1024 438l-799 2q8 -133 109.5 -230t238.5 -97q92 0 171 41t112 82l35 40l92 -92q-6 -8 -17.5 -22.5t-50 -49t-83 -61t-115 -49t-144.5 -22.5q-201 0 -346 149.5t-145 362.5t143.5 362.5t337.5 149.5q201 0 336 -139.5t135 -352.5zM563 870q-129 0 -225 -91t-113 -216
h666q-16 133 -107.5 220t-220.5 87zM274 1292q0 39 27 65.5t66 26.5t65.5 -26.5t26.5 -65.5t-26.5 -65.5t-65.5 -26.5t-66 26.5t-27 65.5zM664 1292q0 39 26.5 65.5t65.5 26.5t65.5 -26.5t26.5 -65.5t-26.5 -65.5t-65.5 -26.5t-65.5 26.5t-26.5 65.5z" />
    <glyph glyph-name="uni0452" unicode="&#x452;" 
d="M328 1434v-185h286v-133h-286v-338q4 6 12 17.5t38 40t63.5 50t89 39t114.5 17.5q180 0 300 -130t120 -341q0 -219 -128 -355t-323 -136v133q133 0 220.5 96t87.5 262q0 150 -84 244t-203 94q-131 0 -219 -92t-88 -236v-481h-144v1116h-174v133h174v185h144z" />
    <glyph glyph-name="uni0453" unicode="&#x453;" horiz-adv-x="839" 
d="M410 1157l153 277h154l-195 -277h-112zM809 983v-133h-512v-850h-143v983h655z" />
    <glyph glyph-name="uni0454" unicode="&#x454;" horiz-adv-x="1054" 
d="M82 492q0 213 145.5 362.5t345.5 149.5q115 0 214.5 -49.5t142.5 -98.5l43 -47l-103 -102q-4 6 -12 17t-35.5 40t-59.5 50.5t-83 38.5t-107 17q-127 0 -224 -89t-113 -208h481v-133h-492q16 -133 117.5 -230t230.5 -97q86 0 163 41t112 82l33 40l102 -92
q-6 -8 -18.5 -22.5t-52.5 -49t-84 -61t-113.5 -49t-141.5 -22.5q-201 0 -346 149.5t-145 362.5z" />
    <glyph glyph-name="uni0455" unicode="&#x455;" horiz-adv-x="880" 
d="M748 870l-103 -102q-8 12 -23.5 28.5t-71.5 45t-120 28.5q-82 0 -133 -43t-51 -100q0 -59 55 -95t133 -57.5t156 -49t133 -90t55 -159.5q0 -127 -97 -211.5t-261 -84.5q-70 0 -131.5 18t-101.5 43t-69.5 50.5t-43.5 43.5l-13 19l103 102q4 -6 11 -15.5t31.5 -34t52.5 -44
t72 -34.5t89 -15q104 0 159.5 46t55.5 117q0 61 -55.5 99.5t-133 61t-155.5 50t-133.5 87t-55.5 153.5q0 111 93.5 194t234.5 83q57 0 111.5 -13.5t89.5 -33t62.5 -40t39.5 -32.5z" />
    <glyph glyph-name="uni0456" unicode="&#x456;" horiz-adv-x="471" 
d="M154 0v983h143v-983h-143zM133 1311q0 39 26.5 65.5t65.5 26.5t65.5 -26.5t26.5 -65.5t-26.5 -65.5t-65.5 -26.5t-65.5 26.5t-26.5 65.5z" />
    <glyph glyph-name="uni0457" unicode="&#x457;" horiz-adv-x="471" 
d="M-61 1294q0 39 26.5 65.5t65.5 26.5t65.5 -26.5t26.5 -65.5t-26.5 -65.5t-65.5 -26.5t-65.5 26.5t-26.5 65.5zM328 1294q0 39 26.5 65.5t65.5 26.5t65.5 -26.5t26.5 -65.5t-26.5 -65.5t-65.5 -26.5t-65.5 26.5t-26.5 65.5zM154 0v983h143v-983h-143z" />
    <glyph glyph-name="uni0458" unicode="&#x458;" horiz-adv-x="471" 
d="M154 -143v1126h143v-1126q0 -287 -266 -287q-33 0 -63.5 8t-45.5 16l-14 7v133q51 -31 112 -31q134 0 134 154zM133 1311q0 39 26.5 65.5t65.5 26.5t65.5 -26.5t26.5 -65.5t-26.5 -65.5t-65.5 -26.5t-65.5 26.5t-26.5 65.5z" />
    <glyph glyph-name="uni0459" unicode="&#x459;" horiz-adv-x="1648" 
d="M1546 307.5q0 -141.5 -92 -224.5t-264 -83h-391v850h-400v-154q0 -217 -21.5 -361.5t-64.5 -220t-95 -105t-126 -29.5q-25 0 -50.5 5t-37.5 11l-14 4v143q41 -20 82 -20q63 0 99 36t60.5 166t24.5 371v287h686v-369h246q172 0 265 -82.5t93 -224zM942 133h248
q102 0 157.5 47t55.5 127t-55.5 127t-159.5 47h-246v-348z" />
    <glyph glyph-name="uni045A" unicode="&#x45a;" horiz-adv-x="1669" 
d="M1567 307.5q0 -141.5 -92.5 -224.5t-264.5 -83h-391v481h-522v-481h-143v983h143v-369h522v369h144v-369h245q172 0 265.5 -82.5t93.5 -224zM963 133h247q102 0 157.5 47t55.5 127t-55 127t-160 47h-245v-348z" />
    <glyph glyph-name="uni045B" unicode="&#x45b;" horiz-adv-x="1218" 
d="M328 1434v-185h286v-133h-286v-338q4 6 12 17.5t38 40t63.5 50t89 39t114.5 17.5q178 0 288.5 -114.5t110.5 -305.5v-522h-143v522q0 129 -74.5 208t-191.5 79q-131 0 -219 -92t-88 -236v-481h-144v1116h-174v133h174v185h144z" />
    <glyph glyph-name="uni045C" unicode="&#x45c;" horiz-adv-x="1034" 
d="M471 1157l154 277h153l-194 -277h-113zM297 276v-276h-143v983h143v-522l491 522h175l-379 -399l420 -584h-164l-348 481z" />
    <glyph glyph-name="uni045E" unicode="&#x45e;" horiz-adv-x="1003" 
d="M369 -143l51 143l-400 983h154l318 -799l317 799h154l-451 -1126q-61 -156 -131 -221.5t-176 -65.5q-33 0 -63.5 5t-45.5 11l-14 4v134q51 -20 102 -21q130 0 185 154zM491.5 1260q77.5 0 120.5 45t43 129h113q0 -123 -77 -200t-199.5 -77t-199.5 77t-77 200h113
q0 -84 43 -129t120.5 -45z" />
    <glyph glyph-name="uni045F" unicode="&#x45f;" horiz-adv-x="1167" 
d="M154 0v983h143v-850h553v850h143v-983h-348v-246h-143v246h-348z" />
    <glyph glyph-name="uni0490" unicode="&#x490;" horiz-adv-x="1126" 
d="M963 1434v286h143v-430h-737v-1290h-154v1434h748z" />
    <glyph glyph-name="uni0491" unicode="&#x491;" horiz-adv-x="839" 
d="M154 0v983h520v246h135v-379h-512v-850h-143z" />
    <glyph glyph-name="uni1E9E" unicode="&#x1e9e;" horiz-adv-x="1331" 
d="M1126 1290l-327 -430q170 0 289.5 -124t119.5 -306q0 -180 -133 -305t-338 -125h-102v143h102q143 0 230.5 81t87.5 206t-85 206t-222 81h-113v143l328 430h-318q-131 0 -209 -80t-78 -215v-995h-153v995q0 190 124 314.5t316 124.5h481v-144z" />
    <glyph glyph-name="endash" unicode="&#x2013;" horiz-adv-x="983" 
d="M891 666v-134h-799v134h799z" />
    <glyph glyph-name="emdash" unicode="&#x2014;" horiz-adv-x="1474" 
d="M1382 666v-134h-1290v134h1290z" />
    <glyph glyph-name="quoteleft" unicode="&#x2018;" horiz-adv-x="430" 
d="M184 1024l-133 82l236 369l92 -52z" />
    <glyph glyph-name="quoteright" unicode="&#x2019;" horiz-adv-x="430" 
d="M246 1475l133 -82l-236 -369l-92 51z" />
    <glyph glyph-name="quotesinglbase" unicode="&#x201a;" horiz-adv-x="440" 
d="M184 184l144 -82l-236 -358l-92 41z" />
    <glyph glyph-name="quotedblleft" unicode="&#x201c;" horiz-adv-x="747" 
d="M184 1024l-133 82l236 369l92 -52zM502 1024l-133 82l235 369l92 -52z" />
    <glyph glyph-name="quotedblright" unicode="&#x201d;" horiz-adv-x="747" 
d="M563 1475l133 -82l-235 -369l-92 51zM246 1475l133 -82l-236 -369l-92 51z" />
    <glyph glyph-name="quotedblbase" unicode="&#x201e;" horiz-adv-x="757" 
d="M184 184l144 -82l-236 -358l-92 41zM502 184l143 -82l-235 -358l-93 41z" />
    <glyph glyph-name="dagger" unicode="&#x2020;" horiz-adv-x="860" 
d="M369 1157v277h123v-277h245v-113h-245v-634h-123v634h-246v113h246z" />
    <glyph glyph-name="daggerdbl" unicode="&#x2021;" horiz-adv-x="860" 
d="M369 1157v277h123v-277h245v-113h-245v-245h245v-113h-245v-276h-123v276h-246v113h246v245h-246v113h246z" />
    <glyph glyph-name="bullet" unicode="&#x2022;" horiz-adv-x="819" 
d="M215 491.5q0 77.5 58.5 136t136 58.5t136 -58.5t58.5 -136t-58.5 -136t-136 -58.5t-136 58.5t-58.5 136z" />
    <glyph glyph-name="ellipsis" unicode="&#x2026;" horiz-adv-x="1372" 
d="M123 82q0 45 28.5 73.5t73.5 28.5t74 -28.5t29 -73.5t-29 -73.5t-74 -28.5t-73.5 28.5t-28.5 73.5zM584 82q0 45 27.5 73.5t74.5 28.5t74.5 -28.5t27.5 -73.5t-27.5 -73.5t-74.5 -28.5t-74.5 28.5t-27.5 73.5zM1044 82q0 45 29 73.5t74 28.5t73.5 -28.5t28.5 -73.5
t-28.5 -73.5t-73.5 -28.5t-74 28.5t-29 73.5z" />
    <glyph glyph-name="perthousand" unicode="&#x2030;" horiz-adv-x="2293" 
d="M256 0l901 1434h143l-901 -1434h-143zM717 1137q0 -131 -93.5 -224.5t-224.5 -93.5t-224 93.5t-93 224.5t93 224t224 93t224.5 -93t93.5 -224zM584 1137q0 84 -53.5 139t-131 55t-131 -55t-53.5 -139t53.5 -139.5t131 -55.5t131 55.5t53.5 139.5zM840 297q0 131 93 224
t224 93t224.5 -93t93.5 -224t-93.5 -224t-224.5 -93t-224 93t-93 224zM973 297q0 -84 53 -139.5t131 -55.5t131 55.5t53 139.5t-53 139.5t-131 55.5t-131 -55.5t-53 -139.5zM1577 297q0 131 93 224t224 93t224.5 -93t93.5 -224t-93.5 -224t-224.5 -93t-224 93t-93 224z
M1710 297q0 -84 53.5 -139.5t131 -55.5t131 55.5t53.5 139.5t-53.5 139.5t-131 55.5t-131 -55.5t-53.5 -139.5z" />
    <glyph glyph-name="guilsinglleft" unicode="&#x2039;" horiz-adv-x="573" 
d="M481 829l-235 -337l235 -338h-143l-246 338l246 337h143z" />
    <glyph glyph-name="guilsinglright" unicode="&#x203a;" horiz-adv-x="573" 
d="M328 492l-236 337h144l245 -337l-245 -338h-144z" />
    <glyph glyph-name="fraction" unicode="&#x2044;" horiz-adv-x="419" 
d="M-287 0l881 1434h133l-881 -1434h-133z" />
    <glyph glyph-name="uni2070" unicode="&#x2070;" horiz-adv-x="716" 
d="M174 1280q0 -123 55.5 -194.5t129 -71.5t129 71.5t55.5 194.5t-55.5 194.5t-129 71.5t-129 -71.5t-55.5 -194.5zM655 1280q0 -172 -85 -270.5t-212 -98.5t-212 98.5t-85 270.5t85 270.5t212 98.5t212 -98.5t85 -270.5z" />
    <glyph glyph-name="uni2074" unicode="&#x2074;" horiz-adv-x="634" 
d="M492 1188h81v-103h-81v-163h-113v163h-338v103l317 450h134v-450zM379 1188v317l-225 -317h225z" />
    <glyph glyph-name="uni2075" unicode="&#x2075;" horiz-adv-x="593" 
d="M307 1372q106 0 176 -67.5t70 -167.5q0 -94 -73.5 -160t-192.5 -66q-82 0 -148.5 28t-93.5 56l-25 29l72 72q8 -8 23.5 -22.5t65.5 -37t106 -22.5q74 0 113.5 33.5t39.5 89.5q0 61 -37.5 97t-105.5 36q-39 0 -73 -10.5t-48 -20.5l-12 -10h-92l41 409h399v-102h-307
l-21 -195q51 31 123 31z" />
    <glyph glyph-name="uni2076" unicode="&#x2076;" horiz-adv-x="614" 
d="M276 1403h31q113 0 189.5 -73t76.5 -173t-76.5 -173t-189 -73t-189.5 73t-77 173q0 41 12.5 82t24.5 61l14 21l215 317h123zM461 1157.5q0 61.5 -43 102t-110.5 40.5t-110.5 -39.5t-43 -101.5q0 -63 43 -104t110.5 -41t110.5 41t43 102.5z" />
    <glyph glyph-name="uni2077" unicode="&#x2077;" horiz-adv-x="563" 
d="M41 1638h481v-102l-276 -614h-113l277 614h-369v102z" />
    <glyph glyph-name="uni2078" unicode="&#x2078;" horiz-adv-x="573" 
d="M286.5 1014q67.5 0 105.5 32.5t38 79.5q0 49 -39 86t-104.5 37t-104.5 -36.5t-39 -86.5q0 -47 38 -79.5t105.5 -32.5zM286.5 1352q112.5 0 112.5 102q0 39 -30.5 65.5t-81.5 26.5t-82 -26.5t-31 -65.5q0 -102 112.5 -102zM286.5 911q-112.5 0 -184 63.5t-71.5 151.5
q0 59 33.5 103.5t66.5 56.5l33 14q-4 2 -11.5 5.5t-24.5 16.5t-30.5 29.5t-25 44t-11.5 58.5q0 80 63.5 137.5t162 57.5t162 -57.5t63.5 -137.5q0 -31 -10 -58.5t-25.5 -44t-31 -28.5t-25.5 -16l-10 -7q6 -2 14 -5t31.5 -17t41 -31.5t32 -50.5t14.5 -70q0 -88 -72 -151.5
t-184.5 -63.5z" />
    <glyph glyph-name="uni2079" unicode="&#x2079;" horiz-adv-x="614" 
d="M338 1157h-31q-113 0 -189.5 73t-76.5 173t77 173t189.5 73t189 -73t76.5 -173q0 -41 -12 -82t-24 -61l-15 -21l-215 -317h-123zM154 1402.5q0 -61.5 43 -102t110.5 -40.5t110.5 39.5t43 101.5q0 63 -43 104t-110.5 41t-110.5 -41t-43 -102.5z" />
    <glyph glyph-name="uni2080" unicode="&#x2080;" horiz-adv-x="716" 
d="M174 153.5q0 -122.5 55.5 -194.5t129 -72t129 72t55.5 194.5t-55.5 194.5t-129 72t-129 -72t-55.5 -194.5zM655 154q0 -172 -85 -270.5t-212 -98.5t-212 98.5t-85 270.5t85 270t212 98t212 -98t85 -270z" />
    <glyph glyph-name="uni2081" unicode="&#x2081;" horiz-adv-x="430" 
d="M215 512h92v-717h-112v543h-134v82q55 0 93.5 23.5t50.5 45.5z" />
    <glyph glyph-name="uni2082" unicode="&#x2082;" horiz-adv-x="614" 
d="M543 -205h-482q0 86 38 154.5t92.5 112.5t108.5 81t92 78t38 86q0 47 -35 80t-88 33q-45 0 -81 -27.5t-50 -56.5l-12 -29l-92 31q2 8 6 20.5t21.5 44t41 56t67.5 44t99 19.5q106 0 171 -60.5t65 -154.5q0 -63 -29 -112.5t-74 -83t-92 -63.5t-91 -68.5t-62 -81.5h348v-103
z" />
    <glyph glyph-name="uni2083" unicode="&#x2083;" horiz-adv-x="634" 
d="M451 174q4 -2 12 -4t27.5 -15.5t34 -31t26.5 -50t12 -73.5q0 -94 -66.5 -154.5t-179.5 -60.5q-82 0 -148.5 30.5t-90.5 61.5l-27 31l72 82q8 -12 23.5 -28.5t65.5 -45.5t105 -29q133 0 134 113q0 55 -38 89t-106 34h-82v102h82q53 0 83 28t30 75q0 41 -32 66.5t-91 25.5
q-43 0 -81 -22.5t-54 -45.5l-17 -22l-73 76q8 12 24.5 31.5t75.5 52t125 32.5q104 0 169.5 -57t65.5 -137q0 -55 -20 -93t-41 -51z" />
    <glyph glyph-name="uni2084" unicode="&#x2084;" horiz-adv-x="634" 
d="M492 61h81v-102h-81v-164h-113v164h-338v102l317 451h134v-451zM379 61v318l-225 -318h225z" />
    <glyph glyph-name="uni2085" unicode="&#x2085;" horiz-adv-x="593" 
d="M307 246q106 0 176 -67.5t70 -168.5q0 -94 -73.5 -159.5t-192.5 -65.5q-82 0 -148.5 27.5t-93.5 56.5l-25 29l72 71q8 -8 23.5 -22.5t65.5 -37t106 -22.5q74 0 113.5 34t39.5 89q0 61 -37.5 97t-105.5 36q-39 0 -73 -10t-48 -20l-12 -11h-92l41 410h399v-102h-307
l-21 -195q51 31 123 31z" />
    <glyph glyph-name="uni2086" unicode="&#x2086;" horiz-adv-x="614" 
d="M276 276h31q113 0 189.5 -72.5t76.5 -173t-76.5 -173t-189 -72.5t-189.5 72.5t-77 173.5q0 41 12.5 82t24.5 61l14 21l215 317h123zM461 30.5q0 61.5 -43 102.5t-110.5 41t-110.5 -40t-43 -101q0 -63 43 -104.5t110.5 -41.5t110.5 41t43 102.5z" />
    <glyph glyph-name="uni2087" unicode="&#x2087;" horiz-adv-x="563" 
d="M41 512h481v-102l-276 -615h-113l277 615h-369v102z" />
    <glyph glyph-name="uni2088" unicode="&#x2088;" horiz-adv-x="573" 
d="M286.5 -113q67.5 0 105.5 33t38 80q0 49 -39 86t-104.5 37t-104.5 -37t-39 -86q0 -47 38 -80t105.5 -33zM286.5 225q112.5 0 112.5 103q0 39 -30.5 65.5t-81.5 26.5t-82 -26.5t-31 -65.5q0 -103 112.5 -103zM286.5 -215q-112.5 0 -184 63.5t-71.5 151.5q0 59 33.5 103
t66.5 57l33 14q-4 2 -11.5 5t-24.5 16.5t-30.5 30t-25 44t-11.5 58.5q0 80 63.5 137t162 57t162 -57t63.5 -137q0 -31 -10 -58.5t-25.5 -44t-31 -29t-25.5 -16.5l-10 -6q6 -2 14 -5t31.5 -17.5t41 -32t32 -50t14.5 -69.5q0 -88 -72 -151.5t-184.5 -63.5z" />
    <glyph glyph-name="uni2089" unicode="&#x2089;" horiz-adv-x="614" 
d="M338 31h-31q-113 0 -189.5 72.5t-76.5 173t77 173t189.5 72.5t189 -72.5t76.5 -173.5q0 -41 -12 -81.5t-24 -61.5l-15 -20l-215 -318h-123zM154 276.5q0 -61.5 43 -102.5t110.5 -41t110.5 40t43 101q0 63 -43 104.5t-110.5 41.5t-110.5 -41t-43 -102.5z" />
    <glyph glyph-name="Euro" unicode="&#x20ac;" horiz-adv-x="1515" 
d="M420 614h502v-133h-471q35 -127 177 -242.5t314 -115.5q106 0 203.5 46t140.5 93l45 45l103 -102q-8 -8 -21.5 -23.5t-60.5 -54.5t-100.5 -68.5t-137.5 -54t-172 -24.5q-233 0 -411.5 147t-243.5 354h-205v133h184v205h-184v133h205q66 207 244 354.5t411 147.5
q88 0 170 -23.5t136.5 -56.5t95 -65.5t61.5 -55.5l18 -24l-102 -103q-6 8 -16.5 20.5t-47 44.5t-77.5 56.5t-105.5 44t-132.5 19.5q-172 0 -314.5 -116t-176.5 -243h471v-133h-502v-205z" />
    <glyph glyph-name="uni20B4" unicode="&#x20b4;" horiz-adv-x="1300" 
d="M133 809v143h758q31 41 31 113q0 102 -83 174t-225 72q-59 0 -113.5 -14.5t-90 -36t-62 -43t-39.5 -35.5l-12 -15l-102 103q6 8 17 20.5t51 44t85 56t117 44t149 19.5q207 0 334 -113.5t127 -275.5q0 -33 -5 -60.5t-9 -39.5l-6 -13h112v-143h-1034zM1167 625v-144h-757
q-31 -41 -31 -112q0 -102 83 -174t224 -72q59 0 113.5 14.5t90.5 36t62.5 43t38.5 35.5l13 14l102 -102q-6 -8 -17.5 -20.5t-51.5 -44t-85 -56.5t-116.5 -44t-149.5 -19q-207 0 -334 113.5t-127 275.5q0 33 5.5 60.5t11.5 39.5l4 12h-113v144h1034z" />
    <glyph glyph-name="uni20BD" unicode="&#x20bd;" horiz-adv-x="1372" 
d="M102 573v144h164v717h533q199 0 324.5 -122t125.5 -308.5t-126 -308.5t-324 -122h-379v-174h502v-143h-502v-256h-154v256h-164v143h164v174h-164zM799 1290h-379v-573h379q129 0 213 82t84 204.5t-84 204.5t-213 82z" />
    <glyph glyph-name="uni2116" unicode="&#x2116;" horiz-adv-x="2304" 
d="M1597 0v133h594v-133h-594zM1219 1434h153v-1434h-133l-870 1157v-1157h-154v1434h133l871 -1158v1158zM2212 666q0 -131 -93.5 -224.5t-224.5 -93.5t-224 93.5t-93 224.5t93 224t224 93t224.5 -93t93.5 -224zM2079 666q0 84 -53.5 139t-131 55t-131 -55t-53.5 -139
t53.5 -139.5t131 -55.5t131 55.5t53.5 139.5z" />
    <glyph glyph-name="trademark" unicode="&#x2122;" horiz-adv-x="1361" 
d="M1137 1229l-205 -266l-205 266v-410h-113v615h103l215 -287l215 287h102v-615h-112v410zM20 1331v103h482v-103h-185v-512h-112v512h-185z" />
    <glyph glyph-name="minus" unicode="&#x2212;" horiz-adv-x="1054" 
d="M963 666v-134h-871v134h871z" />
    <glyph glyph-name="approxequal" unicode="&#x2248;" horiz-adv-x="1105" 
d="M358 788q-59 0 -105 -31.5t-63 -62.5l-16 -30l-92 63q4 6 10 18.5t30.5 42t54.5 53t78 42t103 18.5q70 0 126.5 -20.5t88 -46t77.5 -46t98 -20.5q59 0 105 31.5t62 62.5l17 31l92 -64q-4 -6 -10 -18t-31 -42t-54.5 -53.5t-77.5 -42t-103 -18.5q-70 0 -126.5 20.5
t-88 46.5t-78 46t-97.5 20zM358 442q-59 0 -105 -30.5t-63 -63.5l-16 -31l-92 64q4 6 10 18.5t30.5 42t54.5 53t78 42t103 18.5q86 0 151.5 -34t120 -66.5t118.5 -32.5q59 0 105 30.5t62 63.5l17 31l92 -64q-4 -6 -10 -18t-31 -42t-54.5 -53.5t-77.5 -42t-103 -18.5
q-86 0 -152 34t-120.5 66.5t-117.5 32.5z" />
    <glyph glyph-name="notequal" unicode="&#x2260;" horiz-adv-x="1013" 
d="M922 492v-134h-463l-111 -235h-133l111 235h-234v134h295l107 225h-402v133h463l111 235h133l-111 -235h234v-133h-295l-107 -225h402z" />
    <glyph glyph-name="lessequal" unicode="&#x2264;" horiz-adv-x="1013" 
d="M92 676v82l830 389v-143l-635 -287l635 -287v-143zM92 31v133h830v-133h-830z" />
    <glyph glyph-name="greaterequal" unicode="&#x2265;" horiz-adv-x="1013" 
d="M922 758v-82l-830 -389v143l635 287l-635 287v143zM922 164v-133h-830v133h830z" />
    <glyph glyph-name="uniF6C3" unicode="&#xf6c3;" horiz-adv-x="348" 
d="M61 -440l93 276h133l-123 -276h-103z" />
    <glyph glyph-name="uniF6D1" unicode="&#xf6d1;" horiz-adv-x="675" 
d="M338 1628q-123 0 -200 77t-77 200h113q0 -70 47 -117t117 -47t117 47t47 117h112q0 -123 -76.5 -200t-199.5 -77z" />
    <glyph glyph-name="uniF6D4" unicode="&#xf6d4;" horiz-adv-x="675" 
d="M338 1260q78 0 121 45t43 129h112q0 -123 -76.5 -200t-199.5 -77t-200 77t-77 200h113q0 -84 43 -129t121 -45z" />
    <glyph glyph-name="glyph2" horiz-adv-x="681" 
 />
    <glyph glyph-name="glyph443" horiz-adv-x="1331" 
d="M1126 1290l-327 -430q170 0 289.5 -124t119.5 -306q0 -180 -133 -305t-338 -125h-102v143h102q143 0 230.5 81t87.5 206t-85 206t-222 81h-113v143l328 430h-318q-131 0 -209 -80t-78 -215v-995h-153v995q0 190 124 314.5t316 124.5h481v-144z" />
    <glyph glyph-name="at.case" horiz-adv-x="1843" 
d="M901 963q-94 0 -159.5 -72t-65.5 -184.5t65.5 -184t159.5 -71.5q100 0 168 71.5t68 184t-68 184.5t-168 72zM891 1085q78 0 139.5 -28.5t83.5 -57.5l23 -26v102h123v-467q0 -158 122 -157q80 0 132.5 73.5t52.5 233.5q0 262 -183.5 438t-461.5 176q-270 0 -458 -189.5
t-188 -466t187.5 -466t458.5 -189.5q109 0 206 33t140 66l43 35l71 -93q-6 -6 -19 -17t-57 -40t-93.5 -50.5t-128 -38.5t-162.5 -17q-315 0 -547 231t-232 546.5t231.5 547t547.5 231.5q326 0 552 -217t226 -520q0 -209 -90 -319.5t-228 -110.5q-47 0 -87 14t-64.5 35.5
t-42 43t-25.5 36.5l-6 14q-2 -6 -8 -15.5t-29.5 -34t-51.5 -44t-75 -34.5t-102 -15q-141 0 -244.5 109.5t-103.5 269t103.5 269t244.5 109.5z" />
    <glyph glyph-name="parenleft.case" horiz-adv-x="686" 
d="M297 716.5q0 -151.5 32.5 -300t79 -253t93.5 -186t80 -120.5l32 -41l-112 -62q-14 14 -37 43t-81 124t-102 199.5t-81 267.5t-37 329t34.5 326.5t84 270t99.5 195.5t85 129l35 41l112 -61q-12 -14 -33.5 -42t-76.5 -119t-96 -189.5t-76 -249t-35 -302z" />
    <glyph glyph-name="parenright.case" horiz-adv-x="686" 
d="M389 716.5q0 151.5 -32.5 300t-80 253t-93.5 186.5t-79 121l-32 41l112 61q14 -14 37 -42.5t81 -124t102.5 -200t81 -267t36.5 -328.5t-34.5 -327t-85 -270.5t-99.5 -195.5t-84 -129l-35 -41l-112 62q12 14 33.5 41.5t77 119t96 189.5t75.5 248.5t35 302z" />
    <glyph glyph-name="bracketleft.case" horiz-adv-x="686" 
d="M328 1526v-1618h276v-133h-420v1884h420v-133h-276z" />
    <glyph glyph-name="bracketright.case" horiz-adv-x="686" 
d="M358 -92v1618h-276v133h420v-1884h-420v133h276z" />
    <glyph glyph-name="braceleft.case" horiz-adv-x="727" 
d="M123 655v123q143 0 143 144v460q0 125 82 201t225 76h82v-123h-82q-84 0 -129 -42t-45 -112v-460q0 -49 -12 -88t-30.5 -59.5t-37 -35t-30.5 -18.5l-13 -4q4 -2 13.5 -5t30 -17.5t37 -35t29.5 -59.5t13 -88v-461q0 -70 45 -111.5t129 -41.5h82v-123h-82q-143 0 -225 75.5
t-82 200.5v461q0 143 -143 143z" />
    <glyph glyph-name="braceright.case" horiz-adv-x="727" 
d="M604 778v-123q-143 0 -143 -143v-461q0 -125 -82 -200.5t-225 -75.5h-82v123h82q84 0 129 42t45 111v461q0 49 12 88t30.5 59.5t37 35t30.5 18.5l13 4q-4 2 -13.5 5t-30 17.5t-37 35t-29.5 59t-13 88.5v460q0 70 -45 112t-129 42h-82v123h82q143 0 225 -76t82 -201v-460
q0 -144 143 -144z" />
    <glyph glyph-name="exclamdown.case" horiz-adv-x="634" 
d="M256 1085h123l31 -1085h-185zM420 1352q0 -45 -27.5 -74t-75 -29t-75 29t-27.5 74t27.5 73.5t75 28.5t75 -28.5t27.5 -73.5z" />
    <glyph glyph-name="questiondown.case" horiz-adv-x="1064" 
d="M481 1075h144q10 -45 10 -92q0 -90 -41 -162.5t-100.5 -121t-118 -94.5t-99 -108.5t-40.5 -138.5q0 -102 80.5 -173.5t215.5 -71.5q74 0 134.5 23.5t93.5 56t54.5 65.5t29.5 57l6 23l133 -41q-4 -14 -11 -35.5t-41 -78t-80 -99.5t-131 -79t-188 -36q-195 0 -322.5 116
t-127.5 273q0 90 29.5 161t73.5 112t96.5 84t96.5 79.5t73.5 99t29.5 140.5v41zM655 1341.5q0 -47.5 -28.5 -75t-73.5 -27.5t-73.5 27.5t-28.5 75t28.5 75t73.5 27.5t73.5 -27.5t28.5 -75z" />
    <glyph glyph-name="guillemotleft.case" horiz-adv-x="952" 
d="M328 379l-236 338l236 338h153l-235 -338l235 -338h-153zM707 379l-236 338l236 338h153l-235 -338l235 -338h-153z" />
    <glyph glyph-name="guillemotright.case" horiz-adv-x="952" 
d="M860 717l-235 -338h-154l236 338l-236 338h154zM481 717l-235 -338h-154l236 338l-236 338h154z" />
    <glyph glyph-name="guilsinglleft.case" horiz-adv-x="573" 
d="M481 1055l-235 -338l235 -338h-143l-246 338l246 338h143z" />
    <glyph glyph-name="guilsinglright.case" horiz-adv-x="573" 
d="M328 717l-236 338h144l245 -338l-245 -338h-144z" />
    <glyph glyph-name="hyphen.case" horiz-adv-x="870" 
d="M778 741v-133h-686v133h686z" />
    <glyph glyph-name="endash.case" horiz-adv-x="983" 
d="M891 772v-133h-799v133h799z" />
    <glyph glyph-name="emdash.case" horiz-adv-x="1474" 
d="M1382 772v-133h-1290v133h1290z" />
    <glyph glyph-name="periodcentered.case" horiz-adv-x="389" 
d="M92 721q0 45 27.5 73.5t75 28.5t75 -28.5t27.5 -73.5t-27.5 -74t-75 -29t-75 29t-27.5 74z" />
    <glyph glyph-name="zero.tnum" horiz-adv-x="1290" 
d="M225 716.5q0 -278.5 124 -436t298 -157.5q172 0 295 158.5t123 435.5q0 279 -124 436.5t-296 157.5t-296 -158t-124 -436.5zM1219 717q0 -332 -169 -534.5t-403 -202.5q-236 0 -405.5 202.5t-169.5 534.5t170 534.5t403.5 202.5t403.5 -202.5t170 -534.5z" />
    <glyph glyph-name="one.tnum" horiz-adv-x="1290" 
d="M655 1434h113v-1434h-154v1147h-266v92q70 2 126 23.5t89 49t54.5 55.5t29.5 46z" />
    <glyph glyph-name="two.tnum" horiz-adv-x="1290" 
d="M1096 0h-922q0 141 57.5 258t142.5 188.5t184 143.5t184 128t142.5 139t57.5 177q0 125 -82 201t-225 76q-72 0 -130.5 -25.5t-90 -61.5t-52 -72t-26.5 -62l-8 -25l-133 61q2 14 9 36t39.5 78t77 99t128 79t186.5 36q205 0 333 -120t128 -300q0 -104 -47.5 -193
t-119 -149.5t-161.5 -126t-171 -121t-150.5 -134.5t-98.5 -167h748v-143z" />
    <glyph glyph-name="three.tnum" horiz-adv-x="1290" 
d="M840 758q10 -2 28.5 -8.5t64.5 -33t81 -62.5t63.5 -103.5t28.5 -151.5q0 -170 -133 -294.5t-348 -124.5q-92 0 -175 22.5t-136.5 53t-94.5 62.5t-59 54l-17 23l103 102q4 -6 14 -18.5t45 -42t76 -53t106.5 -42t137.5 -18.5q156 0 247 79t91 197q0 115 -93.5 196
t-244.5 81h-144v143h144q129 0 202.5 69.5t73.5 186.5q0 102 -74.5 169t-201.5 67q-59 0 -115.5 -16.5t-93.5 -41t-64.5 -49t-40.5 -41.5l-14 -16l-102 113q6 8 17 21t51 46t86 58.5t121 47t155 21.5q188 0 309 -110.5t121 -268.5q0 -70 -22.5 -127t-54.5 -91t-62.5 -57.5
t-53.5 -33.5z" />
    <glyph glyph-name="four.tnum" horiz-adv-x="1290" 
d="M1004 451h184v-144h-184v-307h-154v307h-727v174l686 953h195v-983zM850 451v809l-584 -809h584z" />
    <glyph glyph-name="five.tnum" horiz-adv-x="1290" 
d="M655 922q207 0 344.5 -135.5t137.5 -335.5q0 -209 -135.5 -340t-356.5 -131q-88 0 -170 22.5t-134 53t-92 62.5t-56 54l-19 23l102 102q4 -6 14.5 -18.5t45.5 -42t74 -53t102 -42t133 -18.5q154 0 246 90t92 238q0 145 -91 236t-237 91q-96 0 -176 -39t-110 -75l-31 -39
h-113l51 809h768v-144h-634l-31 -450q12 8 33.5 22.5t93 37t149.5 22.5z" />
    <glyph glyph-name="six.tnum" horiz-adv-x="1290" 
d="M645 922q207 0 344 -135.5t137 -336t-139 -335.5t-352 -135t-352.5 135t-139.5 336q0 78 26 154.5t52 115.5l25 37l430 676h153l-337 -533q59 21 153 21zM973 450.5q0 147.5 -92.5 237.5t-246 90t-245.5 -90t-92 -237.5t92 -237.5t245.5 -90t246 90t92.5 237.5z" />
    <glyph glyph-name="seven.tnum" horiz-adv-x="1290" 
d="M205 1434h901v-144l-635 -1290h-154l635 1290h-747v144z" />
    <glyph glyph-name="eight.tnum" horiz-adv-x="1290" 
d="M645 840q121 0 193.5 66.5t72.5 169t-72.5 169t-193.5 66.5t-193.5 -66.5t-72.5 -169t72.5 -169t193.5 -66.5zM645 1454q174 0 297 -114.5t123 -264.5q0 -59 -19.5 -112.5t-46 -85t-53 -55t-45.5 -34.5l-20 -10q10 -4 26.5 -11t58.5 -38t74.5 -67.5t59 -102t26.5 -139.5
q0 -180 -138 -310t-343 -130t-343 130t-138 310q0 74 25.5 138.5t61.5 103t71.5 66.5t62.5 38l25 12q-8 4 -20.5 10.5t-44.5 32t-56.5 57t-44 85t-19.5 112.5q0 150 123 264.5t297 114.5zM645 717q-135 0 -231.5 -90t-96.5 -207q0 -121 90.5 -209t238 -88t237.5 88t90 209
q0 117 -96.5 207t-231.5 90z" />
    <glyph glyph-name="nine.tnum" horiz-adv-x="1290" 
d="M645 512q-207 0 -344 135t-137 336t139 336t352 135t352.5 -135t139.5 -336q0 -78 -25.5 -154.5t-52.5 -115.5l-25 -37l-430 -676h-153l338 532q-60 -20 -154 -20zM317 983q0 -147 92.5 -237.5t246 -90.5t245.5 90.5t92 237.5t-92 237.5t-245.5 90.5t-246 -90.5
t-92.5 -237.5z" />
    <glyph glyph-name="Igrave.salt" horiz-adv-x="768" 
d="M287 1905l153 -277h-112l-195 277h154zM82 1290v144h604v-144h-225v-1147h225v-143h-604v143h225v1147h-225z" />
    <glyph glyph-name="Iacute.salt" horiz-adv-x="768" 
d="M82 1290v144h604v-144h-225v-1147h225v-143h-604v143h225v1147h-225zM338 1628l154 277h153l-194 -277h-113z" />
    <glyph glyph-name="Icircumflex.salt" horiz-adv-x="768" 
d="M461 1905l225 -277h-133l-164 195l-164 -195h-133l225 277h144zM82 1290v144h604v-144h-225v-1147h225v-143h-604v143h225v1147h-225z" />
    <glyph glyph-name="Idieresis.salt" horiz-adv-x="768" 
d="M102 1751q0 39 27 65.5t65.5 26.5t65.5 -26.5t27 -65.5t-27 -65.5t-65.5 -26.5t-65.5 26.5t-27 65.5zM492 1751q0 39 26.5 65.5t65.5 26.5t65.5 -26.5t26.5 -65.5t-26.5 -65.5t-65.5 -26.5t-65.5 26.5t-26.5 65.5zM82 1290v144h604v-144h-225v-1147h225v-143h-604v143
h225v1147h-225z" />
    <glyph glyph-name="Idotaccent.salt" horiz-adv-x="768" 
d="M297 1761q0 39 26.5 65.5t65.5 26.5t65.5 -26.5t26.5 -65.5t-26.5 -65.5t-65.5 -26.5t-65.5 26.5t-26.5 65.5zM82 1290v144h604v-144h-225v-1147h225v-143h-604v143h225v1147h-225z" />
    <glyph glyph-name="Imacron.salt" horiz-adv-x="768" 
d="M686 1812v-112h-594v112h594zM82 1290v144h604v-144h-225v-1147h225v-143h-604v143h225v1147h-225z" />
    <glyph glyph-name="Iogonek.salt" horiz-adv-x="768" 
d="M584 0h-502v143h225v1147h-225v144h604v-144h-225v-1147h225v-143q-113 -123 -113 -225q0 -92 103 -92q27 0 57.5 7t48.5 15l17 8v-102q-61 -31 -135 -31q-90 0 -141.5 49t-51.5 135q0 59 28.5 118t57.5 89z" />
    <glyph glyph-name="I.salt" horiz-adv-x="768" 
d="M82 1290v144h604v-144h-225v-1147h225v-143h-604v143h225v1147h-225z" />
    <glyph glyph-name="lslash.salt" horiz-adv-x="747" 
d="M297 266v369l-266 -154l-62 103l328 194v656h143v-574l256 154l62 -103l-318 -194v-451q0 -154 144 -153q27 0 55.5 8t42.5 14l14 8v-133q-61 -31 -133 -30q-125 0 -195.5 74.5t-70.5 211.5z" />
    <glyph glyph-name="uni045E.salt" horiz-adv-x="1003" 
d="M491.5 1260q77.5 0 120.5 45t43 129h113q0 -123 -77 -200t-199.5 -77t-199.5 77t-77 200h113q0 -84 43 -129t120.5 -45zM236 -430l184 430l-400 983h154l318 -788l317 788h154l-574 -1413h-153z" />
    <glyph glyph-name="agrave.salt" horiz-adv-x="1075" 
d="M369 563l379 62q0 109 -69 177t-177 68q-78 0 -146.5 -35.5t-99.5 -72.5l-31 -35l-92 92q6 8 16.5 20.5t46 44t74.5 56.5t102.5 44.5t129.5 19.5q168 0 278.5 -109t110.5 -270v-420q0 -39 26.5 -65.5t65.5 -26.5l51 10v-133q-20 -10 -61 -10q-57 0 -100.5 16t-65 40.5
t-33.5 49.5t-14 41l-2 16q-4 -6 -11.5 -17t-36 -40t-63.5 -50.5t-93 -38.5t-124 -17q-147 0 -247.5 87t-100.5 199q0 123 74 198.5t213 98.5zM430 113q139 0 228.5 91t89.5 236v62l-338 -62q-184 -35 -185 -174q0 -66 54.5 -109.5t150.5 -43.5zM451 1434l153 -277h-112
l-195 277h154z" />
    <glyph glyph-name="aacute.salt" horiz-adv-x="1075" 
d="M369 563l379 62q0 109 -69 177t-177 68q-78 0 -146.5 -35.5t-99.5 -72.5l-31 -35l-92 92q6 8 16.5 20.5t46 44t74.5 56.5t102.5 44.5t129.5 19.5q168 0 278.5 -109t110.5 -270v-420q0 -39 26.5 -65.5t65.5 -26.5l51 10v-133q-20 -10 -61 -10q-57 0 -100.5 16t-65 40.5
t-33.5 49.5t-14 41l-2 16q-4 -6 -11.5 -17t-36 -40t-63.5 -50.5t-93 -38.5t-124 -17q-147 0 -247.5 87t-100.5 199q0 123 74 198.5t213 98.5zM430 113q139 0 228.5 91t89.5 236v62l-338 -62q-184 -35 -185 -174q0 -66 54.5 -109.5t150.5 -43.5zM481 1157l154 277h153
l-194 -277h-113z" />
    <glyph glyph-name="abreve.salt" horiz-adv-x="1075" 
d="M369 563l379 62q0 109 -69 177t-177 68q-78 0 -146.5 -35.5t-99.5 -72.5l-31 -35l-92 92q6 8 16.5 20.5t46 44t74.5 56.5t102.5 44.5t129.5 19.5q168 0 278.5 -109t110.5 -270v-420q0 -39 26.5 -65.5t65.5 -26.5l51 10v-133q-20 -10 -61 -10q-57 0 -100.5 16t-65 40.5
t-33.5 49.5t-14 41l-2 16q-4 -6 -11.5 -17t-36 -40t-63.5 -50.5t-93 -38.5t-124 -17q-147 0 -247.5 87t-100.5 199q0 123 74 198.5t213 98.5zM430 113q139 0 228.5 91t89.5 236v62l-338 -62q-184 -35 -185 -174q0 -66 54.5 -109.5t150.5 -43.5zM543 1260q78 0 121 45t43 129
h112q0 -123 -76.5 -200t-199.5 -77t-200 77t-77 200h113q0 -84 43 -129t121 -45z" />
    <glyph glyph-name="acircumflex.salt" horiz-adv-x="1075" 
d="M369 563l379 62q0 109 -69 177t-177 68q-78 0 -146.5 -35.5t-99.5 -72.5l-31 -35l-92 92q6 8 16.5 20.5t46 44t74.5 56.5t102.5 44.5t129.5 19.5q168 0 278.5 -109t110.5 -270v-420q0 -39 26.5 -65.5t65.5 -26.5l51 10v-133q-20 -10 -61 -10q-57 0 -100.5 16t-65 40.5
t-33.5 49.5t-14 41l-2 16q-4 -6 -11.5 -17t-36 -40t-63.5 -50.5t-93 -38.5t-124 -17q-147 0 -247.5 87t-100.5 199q0 123 74 198.5t213 98.5zM430 113q139 0 228.5 91t89.5 236v62l-338 -62q-184 -35 -185 -174q0 -66 54.5 -109.5t150.5 -43.5zM635 1434l225 -277h-133
l-164 195l-164 -195h-133l226 277h143z" />
    <glyph glyph-name="adieresis.salt" horiz-adv-x="1075" 
d="M369 563l379 62q0 109 -69 177t-177 68q-78 0 -146.5 -35.5t-99.5 -72.5l-31 -35l-92 92q6 8 16.5 20.5t46 44t74.5 56.5t102.5 44.5t129.5 19.5q168 0 278.5 -109t110.5 -270v-420q0 -39 26.5 -65.5t65.5 -26.5l51 10v-133q-20 -10 -61 -10q-57 0 -100.5 16t-65 40.5
t-33.5 49.5t-14 41l-2 16q-4 -6 -11.5 -17t-36 -40t-63.5 -50.5t-93 -38.5t-124 -17q-147 0 -247.5 87t-100.5 199q0 123 74 198.5t213 98.5zM430 113q139 0 228.5 91t89.5 236v62l-338 -62q-184 -35 -185 -174q0 -66 54.5 -109.5t150.5 -43.5zM266 1290q0 39 26.5 65.5
t65.5 26.5t66 -26.5t27 -65.5t-27 -65.5t-66 -26.5t-65.5 26.5t-26.5 65.5zM655 1290q0 39 27 65.5t65.5 26.5t65.5 -26.5t27 -65.5t-27 -65.5t-65.5 -26.5t-65.5 26.5t-27 65.5z" />
    <glyph glyph-name="amacron.salt" horiz-adv-x="1075" 
d="M369 563l379 62q0 109 -69 177t-177 68q-78 0 -146.5 -35.5t-99.5 -72.5l-31 -35l-92 92q6 8 16.5 20.5t46 44t74.5 56.5t102.5 44.5t129.5 19.5q168 0 278.5 -109t110.5 -270v-420q0 -39 26.5 -65.5t65.5 -26.5l51 10v-133q-20 -10 -61 -10q-57 0 -100.5 16t-65 40.5
t-33.5 49.5t-14 41l-2 16q-4 -6 -11.5 -17t-36 -40t-63.5 -50.5t-93 -38.5t-124 -17q-147 0 -247.5 87t-100.5 199q0 123 74 198.5t213 98.5zM430 113q139 0 228.5 91t89.5 236v62l-338 -62q-184 -35 -185 -174q0 -66 54.5 -109.5t150.5 -43.5zM850 1362v-113h-594v113h594z
" />
    <glyph glyph-name="aogonek.salt" horiz-adv-x="1075" 
d="M430 113q139 0 228.5 91t89.5 236v62l-338 -62q-184 -35 -185 -174q0 -66 54.5 -109.5t150.5 -43.5zM758 143q-4 -6 -11 -17q-8 -11 -36.5 -40t-63.5 -50.5t-93 -38.5t-124 -17q-147 0 -247.5 87t-100.5 199q0 123 73.5 199t213.5 98l379 62q0 109 -69 177t-177 68
q-78 0 -146.5 -35.5t-99.5 -72.5l-31 -35l-92 92q6 8 16.5 20.5t46 44t74.5 56.5t102.5 44.5t129.5 19.5q168 0 278.5 -109t110.5 -270v-420q0 -39 26.5 -65.5t65.5 -26.5l51 10v-133q-18 -8 -49 -10q-94 -113 -94 -205t102 -92q27 0 57.5 7t47.5 15l18 8v-102
q-61 -31 -135 -31q-90 0 -141.5 49t-51.5 135q0 74 35 134.5t68 91.5q-57 16 -90 54t-39 69z" />
    <glyph glyph-name="aring.salt" horiz-adv-x="1075" 
d="M451 1311q0 -45 26.5 -74t65.5 -29t65.5 29t26.5 74t-26.5 73.5t-65.5 28.5t-65.5 -28.5t-26.5 -73.5zM737 1311q0 -84 -55 -139.5t-139 -55.5t-139.5 55.5t-55.5 139.5t55.5 139t139.5 55t139 -55t55 -139zM369 563l379 62q0 109 -69 177t-177 68q-78 0 -146.5 -35.5
t-99.5 -72.5l-31 -35l-92 92q6 8 16.5 20.5t46 44t74.5 56.5t102.5 44.5t129.5 19.5q168 0 278.5 -109t110.5 -270v-420q0 -39 26.5 -65.5t65.5 -26.5l51 10v-133q-20 -10 -61 -10q-57 0 -100.5 16t-65 40.5t-33.5 49.5t-14 41l-2 16q-4 -6 -11.5 -17t-36 -40t-63.5 -50.5
t-93 -38.5t-124 -17q-147 0 -247.5 87t-100.5 199q0 123 74 198.5t213 98.5zM430 113q139 0 228.5 91t89.5 236v62l-338 -62q-184 -35 -185 -174q0 -66 54.5 -109.5t150.5 -43.5z" />
    <glyph glyph-name="atilde.salt" horiz-adv-x="1075" 
d="M369 563l379 62q0 109 -69 177t-177 68q-78 0 -146.5 -35.5t-99.5 -72.5l-31 -35l-92 92q6 8 16.5 20.5t46 44t74.5 56.5t102.5 44.5t129.5 19.5q168 0 278.5 -109t110.5 -270v-420q0 -39 26.5 -65.5t65.5 -26.5l51 10v-133q-20 -10 -61 -10q-57 0 -100.5 16t-65 40.5
t-33.5 49.5t-14 41l-2 16q-4 -6 -11.5 -17t-36 -40t-63.5 -50.5t-93 -38.5t-124 -17q-147 0 -247.5 87t-100.5 199q0 123 74 198.5t213 98.5zM430 113q139 0 228.5 91t89.5 236v62l-338 -62q-184 -35 -185 -174q0 -66 54.5 -109.5t150.5 -43.5zM420 1290q-33 0 -57.5 -33.5
t-24.5 -99.5h-102q0 119 52 182.5t132 63.5q61 0 108 -34t84 -66.5t74 -32.5q33 0 57.5 33.5t24.5 99.5h102q0 -119 -52 -182.5t-132 -63.5q-61 0 -108.5 34t-84 66.5t-73.5 32.5z" />
    <glyph glyph-name="lacute.salt" horiz-adv-x="593" 
d="M174 1628l154 277h153l-194 -277h-113zM164 266v1168h143v-1168q0 -154 144 -153q27 0 55.5 8t42.5 14l14 8v-133q-61 -31 -133 -30q-125 0 -195.5 74.5t-70.5 211.5z" />
    <glyph glyph-name="lcaron.salt" horiz-adv-x="604" 
d="M164 266v1168h143v-1168q0 -154 144 -153q27 0 55.5 8t42.5 14l14 8v-133q-61 -31 -133 -30q-125 0 -195.5 74.5t-70.5 211.5zM440 1157l92 277h134l-123 -277h-103z" />
    <glyph glyph-name="uni013C.salt" horiz-adv-x="593" 
d="M164 266v1168h143v-1168q0 -154 144 -153q27 0 55.5 8t42.5 14l14 8v-133q-61 -31 -133 -30q-125 0 -195.5 74.5t-70.5 211.5zM205 -440l92 276h133l-123 -276h-102z" />
    <glyph glyph-name="yacute.salt" 
d="M532 1157l154 277h154l-195 -277h-113zM870 31v162q-4 -6 -12 -17.5t-37.5 -39t-63.5 -49t-89.5 -39t-114.5 -17.5q-178 0 -288.5 116.5t-110.5 313.5v522h143v-522q0 -129 80 -213t194 -84q127 0 213 92t86 236v491h144v-952q0 -190 -133 -325.5t-318 -135.5
q-78 0 -148.5 21.5t-115.5 51t-80 59.5t-51 52l-14 21l92 92q4 -6 13 -17.5t40 -40t64.5 -50t88 -39t111.5 -17.5q131 0 219 92.5t88 235.5z" />
    <glyph glyph-name="ydieresis.salt" 
d="M870 31v162q-4 -6 -12 -17.5t-37.5 -39t-63.5 -49t-89.5 -39t-114.5 -17.5q-178 0 -288.5 116.5t-110.5 313.5v522h143v-522q0 -129 80 -213t194 -84q127 0 213 92t86 236v491h144v-952q0 -190 -133 -325.5t-318 -135.5q-78 0 -148.5 21.5t-115.5 51t-80 59.5t-51 52
l-14 21l92 92q4 -6 13 -17.5t40 -40t64.5 -50t88 -39t111.5 -17.5q131 0 219 92.5t88 235.5zM297 1280q0 39 26.5 65.5t65.5 26.5t65.5 -26.5t26.5 -65.5t-26.5 -65.5t-65.5 -26.5t-65.5 26.5t-26.5 65.5zM686 1280q0 39 26.5 65.5t65.5 26.5t65.5 -26.5t26.5 -65.5
t-26.5 -65.5t-65.5 -26.5t-65.5 26.5t-26.5 65.5z" />
    <glyph glyph-name="ugrave.salt" 
d="M502 1434l153 -277h-112l-195 277h154zM860 143q-4 -6 -11 -17t-35 -40t-60.5 -50.5t-87 -38.5t-113.5 -17q-178 0 -288.5 114.5t-110.5 304.5v584h143v-584q0 -129 74.5 -207.5t191.5 -78.5q125 0 206 87t81 230v553h143v-778q0 -39 27 -65.5t65 -26.5l52 10v-133
q-20 -10 -62 -10q-57 0 -100 16t-64.5 40.5t-34 49.5t-14.5 41z" />
    <glyph glyph-name="uacute.salt" 
d="M522 1157l154 277h153l-194 -277h-113zM860 143q-4 -6 -11 -17t-35 -40t-60.5 -50.5t-87 -38.5t-113.5 -17q-178 0 -288.5 114.5t-110.5 304.5v584h143v-584q0 -129 74.5 -207.5t191.5 -78.5q125 0 206 87t81 230v553h143v-778q0 -39 27 -65.5t65 -26.5l52 10v-133
q-20 -10 -62 -10q-57 0 -100 16t-64.5 40.5t-34 49.5t-14.5 41z" />
    <glyph glyph-name="ucircumflex.salt" 
d="M860 143q-4 -6 -11 -17t-35 -40t-60.5 -50.5t-87 -38.5t-113.5 -17q-178 0 -288.5 114.5t-110.5 304.5v584h143v-584q0 -129 74.5 -207.5t191.5 -78.5q125 0 206 87t81 230v553h143v-778q0 -39 27 -65.5t65 -26.5l52 10v-133q-20 -10 -62 -10q-57 0 -100 16t-64.5 40.5
t-34 49.5t-14.5 41zM666 1434l225 -277h-133l-164 195l-164 -195h-133l225 277h144z" />
    <glyph glyph-name="udieresis.salt" 
d="M860 143q-4 -6 -11 -17t-35 -40t-60.5 -50.5t-87 -38.5t-113.5 -17q-178 0 -288.5 114.5t-110.5 304.5v584h143v-584q0 -129 74.5 -207.5t191.5 -78.5q125 0 206 87t81 230v553h143v-778q0 -39 27 -65.5t65 -26.5l52 10v-133q-20 -10 -62 -10q-57 0 -100 16t-64.5 40.5
t-34 49.5t-14.5 41zM297 1280q0 39 26.5 65.5t65.5 26.5t65.5 -26.5t26.5 -65.5t-26.5 -65.5t-65.5 -26.5t-65.5 26.5t-26.5 65.5zM686 1280q0 39 26.5 65.5t65.5 26.5t65.5 -26.5t26.5 -65.5t-26.5 -65.5t-65.5 -26.5t-65.5 26.5t-26.5 65.5z" />
    <glyph glyph-name="uhungarumlaut.salt" 
d="M860 143q-4 -6 -11 -17t-35 -40t-60.5 -50.5t-87 -38.5t-113.5 -17q-178 0 -288.5 114.5t-110.5 304.5v584h143v-584q0 -129 74.5 -207.5t191.5 -78.5q125 0 206 87t81 230v553h143v-778q0 -39 27 -65.5t65 -26.5l52 10v-133q-20 -10 -62 -10q-57 0 -100 16t-64.5 40.5
t-34 49.5t-14.5 41zM358 1157l154 277h154l-197 -277h-111zM676 1157l151 277h156l-195 -277h-112z" />
    <glyph glyph-name="umacron.salt" 
d="M860 143q-4 -6 -11 -17t-35 -40t-60.5 -50.5t-87 -38.5t-113.5 -17q-178 0 -288.5 114.5t-110.5 304.5v584h143v-584q0 -129 74.5 -207.5t191.5 -78.5q125 0 206 87t81 230v553h143v-778q0 -39 27 -65.5t65 -26.5l52 10v-133q-20 -10 -62 -10q-57 0 -100 16t-64.5 40.5
t-34 49.5t-14.5 41zM881 1341v-112h-594v112h594z" />
    <glyph glyph-name="uogonek.salt" 
d="M860 143q-4 -6 -11 -17t-35 -40t-60.5 -50.5t-87 -38.5t-113.5 -17q-178 0 -288.5 114.5t-110.5 304.5v584h143v-584q0 -129 74.5 -207.5t191.5 -78.5q125 0 206 87t81 230v553h143v-778q0 -39 27 -65.5t65 -26.5l52 10v-133q-18 -8 -50 -10q-94 -113 -94 -205t103 -92
q27 0 57.5 7t46.5 15l19 8v-102q-61 -31 -136 -31q-90 0 -141 49t-51 135q0 74 35 134.5t67 91.5q-57 16 -90 54t-39 69z" />
    <glyph glyph-name="uring.salt" 
d="M492 1311q0 -45 26.5 -74t65.5 -29t65.5 29t26.5 74t-26.5 73.5t-65.5 28.5t-65.5 -28.5t-26.5 -73.5zM778 1311q0 -84 -55 -139.5t-139 -55.5t-139.5 55.5t-55.5 139.5t55.5 139t139.5 55t139 -55t55 -139zM860 143q-4 -6 -11 -17t-35 -40t-60.5 -50.5t-87 -38.5
t-113.5 -17q-178 0 -288.5 114.5t-110.5 304.5v584h143v-584q0 -129 74.5 -207.5t191.5 -78.5q125 0 206 87t81 230v553h143v-778q0 -39 27 -65.5t65 -26.5l52 10v-133q-20 -10 -62 -10q-57 0 -100 16t-64.5 40.5t-34 49.5t-14.5 41z" />
    <glyph glyph-name="a.salt" horiz-adv-x="1075" 
d="M369 563l379 62q0 109 -69 177t-177 68q-78 0 -146.5 -35.5t-99.5 -72.5l-31 -35l-92 92q6 8 16.5 20.5t46 44t74.5 56.5t102.5 44.5t129.5 19.5q168 0 278.5 -109t110.5 -270v-420q0 -39 26.5 -65.5t65.5 -26.5l51 10v-133q-20 -10 -61 -10q-57 0 -100.5 16t-65 40.5
t-33.5 49.5t-14 41l-2 16q-4 -6 -11.5 -17t-36 -40t-63.5 -50.5t-93 -38.5t-124 -17q-147 0 -247.5 87t-100.5 199q0 123 74 198.5t213 98.5zM430 113q139 0 228.5 91t89.5 236v62l-338 -62q-184 -35 -185 -174q0 -66 54.5 -109.5t150.5 -43.5z" />
    <glyph glyph-name="l.salt" horiz-adv-x="593" 
d="M164 266v1168h143v-1168q0 -154 144 -153q27 0 55.5 8t42.5 14l14 8v-133q-61 -31 -133 -30q-125 0 -195.5 74.5t-70.5 211.5z" />
    <glyph glyph-name="uni0443.salt" horiz-adv-x="1003" 
d="M236 -430l184 430l-400 983h154l318 -788l317 788h154l-574 -1413h-153z" />
    <glyph glyph-name="y.salt" 
d="M870 31v162q-4 -6 -12 -17.5t-37.5 -39t-63.5 -49t-89.5 -39t-114.5 -17.5q-178 0 -288.5 116.5t-110.5 313.5v522h143v-522q0 -129 80 -213t194 -84q127 0 213 92t86 236v491h144v-952q0 -190 -133 -325.5t-318 -135.5q-78 0 -148.5 21.5t-115.5 51t-80 59.5t-51 52
l-14 21l92 92q4 -6 13 -17.5t40 -40t64.5 -50t88 -39t111.5 -17.5q131 0 219 92.5t88 235.5z" />
    <glyph glyph-name="u.salt" 
d="M860 143q-4 -6 -11 -17t-35 -40t-60.5 -50.5t-87 -38.5t-113.5 -17q-178 0 -288.5 114.5t-110.5 304.5v584h143v-584q0 -129 74.5 -207.5t191.5 -78.5q125 0 206 87t81 230v553h143v-778q0 -39 27 -65.5t65 -26.5l52 10v-133q-20 -10 -62 -10q-57 0 -100 16t-64.5 40.5
t-34 49.5t-14.5 41z" />
    <glyph glyph-name="uni0430.salt" horiz-adv-x="1075" 
d="M369 563l379 62q0 109 -69 177t-177 68q-78 0 -146.5 -35.5t-99.5 -72.5l-31 -35l-92 92q6 8 16.5 20.5t46 44t74.5 56.5t102.5 44.5t129.5 19.5q168 0 278.5 -109t110.5 -270v-420q0 -39 26.5 -65.5t65.5 -26.5l51 10v-133q-20 -10 -61 -10q-57 0 -100.5 16t-65 40.5
t-33.5 49.5t-14 41l-2 16q-4 -6 -11.5 -17t-36 -40t-63.5 -50.5t-93 -38.5t-124 -17q-147 0 -247.5 87t-100.5 199q0 123 74 198.5t213 98.5zM430 113q139 0 228.5 91t89.5 236v62l-338 -62q-184 -35 -185 -174q0 -66 54.5 -109.5t150.5 -43.5z" />
    <glyph glyph-name="zero.frac" horiz-adv-x="716" 
d="M174 1075q0 -123 55.5 -194.5t129 -71.5t129 71.5t55.5 194.5t-55.5 194.5t-129 71.5t-129 -71.5t-55.5 -194.5zM655 1075q0 -172 -85 -270t-212 -98t-212 98t-85 270t85 270.5t212 98.5t212 -98.5t85 -270.5z" />
    <glyph glyph-name="one.frac" horiz-adv-x="430" 
d="M215 1434h92v-717h-112v543h-134v81q55 0 93.5 24t50.5 46z" />
    <glyph glyph-name="two.frac" horiz-adv-x="614" 
d="M543 717h-482q0 86 38 154.5t92.5 112.5t108.5 81t92 78t38 86q0 47 -35 79.5t-88 32.5q-45 0 -81 -27.5t-50 -56.5l-12 -28l-92 31q2 8 6 20t21.5 44t41 56.5t67.5 44t99 19.5q106 0 171 -60.5t65 -154.5q0 -63 -29 -112.5t-74 -83.5t-92 -63.5t-91 -68.5t-62 -82h348
v-102z" />
    <glyph glyph-name="three.frac" horiz-adv-x="634" 
d="M451 1096q4 -2 12 -4t27.5 -15.5t34 -31t26.5 -50t12 -73.5q0 -94 -66.5 -154.5t-179.5 -60.5q-82 0 -148.5 30.5t-90.5 61.5l-27 30l72 82q8 -12 23.5 -28.5t65.5 -45t105 -28.5q133 0 134 113q0 55 -38 88.5t-106 33.5h-82v103h82q53 0 83 27.5t30 74.5q0 41 -32 66.5
t-91 25.5q-43 0 -81 -22.5t-54 -44.5l-17 -23l-73 76q8 12 24.5 31.5t75.5 52.5t125 33q104 0 169.5 -57.5t65.5 -137.5q0 -55 -20 -93t-41 -50z" />
    <glyph glyph-name="four.frac" horiz-adv-x="634" 
d="M492 983h81v-102h-81v-164h-113v164h-338v102l317 451h134v-451zM379 983v317l-225 -317h225z" />
    <glyph glyph-name="five.frac" horiz-adv-x="593" 
d="M307 1167q106 0 176 -67.5t70 -167.5q0 -94 -73.5 -159.5t-192.5 -65.5q-82 0 -148.5 27.5t-93.5 56.5l-25 28l72 72q8 -8 23.5 -22.5t65.5 -37t106 -22.5q74 0 113.5 34t39.5 89q0 61 -37.5 97t-105.5 36q-39 0 -73 -10.5t-48 -20.5l-12 -10h-92l41 410h399v-103h-307
l-21 -194q51 30 123 30z" />
    <glyph glyph-name="six.frac" horiz-adv-x="614" 
d="M276 1198h31q113 0 189.5 -72.5t76.5 -173t-76.5 -173t-189 -72.5t-189.5 72.5t-77 172.5q0 41 12.5 82t24.5 62l14 20l215 318h123zM461 952.5q0 61.5 -43 102.5t-110.5 41t-110.5 -40t-43 -102q0 -63 43 -104t110.5 -41t110.5 41t43 102.5z" />
    <glyph glyph-name="seven.frac" horiz-adv-x="563" 
d="M41 1434h481v-103l-276 -614h-113l277 614h-369v103z" />
    <glyph glyph-name="eight.frac" horiz-adv-x="573" 
d="M286.5 809q67.5 0 105.5 32.5t38 80.5q0 49 -39 85.5t-104.5 36.5t-104.5 -36.5t-39 -85.5q0 -47 38 -80t105.5 -33zM286.5 1147q112.5 0 112.5 102q0 39 -30.5 65.5t-81.5 26.5t-82 -26.5t-31 -65.5q0 -102 112.5 -102zM286.5 707q-112.5 0 -184 63.5t-71.5 151.5
q0 59 33.5 103t66.5 56l33 15q-4 2 -11.5 5t-24.5 16t-30.5 29.5t-25 44.5t-11.5 58q0 80 63.5 137.5t162 57.5t162 -57.5t63.5 -137.5q0 -31 -10 -58.5t-25.5 -44t-31 -28.5t-25.5 -16l-10 -6q6 -2 14 -5.5t31.5 -17.5t41 -31.5t32 -50.5t14.5 -69q0 -88 -72 -151.5
t-184.5 -63.5z" />
    <glyph glyph-name="nine.frac" horiz-adv-x="614" 
d="M338 952h-31q-113 0 -189.5 73t-76.5 173t77 173t189.5 73t189 -73t76.5 -173q0 -41 -12 -82t-24 -61l-15 -21l-215 -317h-123zM154 1198.5q0 -61.5 43 -102.5t110.5 -41t110.5 40t43 101q0 63 -43 104t-110.5 41t-110.5 -40.5t-43 -102z" />
    <glyph glyph-name="zero.dnom" horiz-adv-x="716" 
d="M174 358.5q0 -122.5 55.5 -194.5t129 -72t129 72t55.5 194.5t-55.5 194.5t-129 72t-129 -72t-55.5 -194.5zM655 358q0 -172 -85 -270t-212 -98t-212 98t-85 270t85 270.5t212 98.5t212 -98.5t85 -270.5z" />
    <glyph glyph-name="one.dnom" horiz-adv-x="430" 
d="M215 717h92v-717h-112v543h-134v82q55 0 93.5 23.5t50.5 45.5z" />
    <glyph glyph-name="two.dnom" horiz-adv-x="614" 
d="M543 0h-482q0 86 38 154.5t92.5 112.5t108.5 81t92 78t38 86q0 47 -35 80t-88 33q-45 0 -81 -28t-50 -56l-12 -29l-92 31q2 8 6 20t21.5 44t41 56.5t67.5 44t99 19.5q106 0 171 -60.5t65 -154.5q0 -63 -29 -112.5t-74 -83t-92 -63.5t-91 -69t-62 -82h348v-102z" />
    <glyph glyph-name="three.dnom" horiz-adv-x="634" 
d="M451 379q4 -2 12 -4t27.5 -15.5t34 -31t26.5 -50t12 -73.5q0 -94 -66.5 -154.5t-179.5 -60.5q-82 0 -148.5 30.5t-90.5 61.5l-27 31l72 82q8 -12 23.5 -28.5t65.5 -45.5t105 -29q133 0 134 113q0 55 -38 89t-106 34h-82v102h82q53 0 83 27.5t30 74.5q0 41 -32 67t-91 26
q-43 0 -81 -22.5t-54 -45.5l-17 -22l-73 75q8 12 24.5 32t75.5 52.5t125 32.5q104 0 169.5 -57.5t65.5 -137.5q0 -55 -20 -93t-41 -50z" />
    <glyph glyph-name="four.dnom" horiz-adv-x="634" 
d="M492 266h81v-102h-81v-164h-113v164h-338v102l317 451h134v-451zM379 266v318l-225 -318h225z" />
    <glyph glyph-name="five.dnom" horiz-adv-x="593" 
d="M307 451q106 0 176 -68t70 -168q0 -94 -73.5 -159.5t-192.5 -65.5q-82 0 -148.5 27.5t-93.5 56.5l-25 28l72 72q8 -8 23.5 -22.5t65.5 -37t106 -22.5q74 0 113.5 34t39.5 89q0 61 -37.5 97t-105.5 36q-39 0 -73 -10t-48 -21l-12 -10h-92l41 410h399v-103h-307l-21 -194
q51 31 123 31z" />
    <glyph glyph-name="six.dnom" horiz-adv-x="614" 
d="M276 481h31q113 0 189.5 -72.5t76.5 -173t-76.5 -173t-189 -72.5t-189.5 72.5t-77 173.5q0 41 12.5 81.5t24.5 61.5l14 20l215 318h123zM461 235.5q0 61.5 -43 102.5t-110.5 41t-110.5 -40t-43 -101q0 -63 43 -104.5t110.5 -41.5t110.5 41t43 102.5z" />
    <glyph glyph-name="seven.dnom" horiz-adv-x="563" 
d="M41 717h481v-103l-276 -614h-113l277 614h-369v103z" />
    <glyph glyph-name="eight.dnom" horiz-adv-x="573" 
d="M286.5 92q67.5 0 105.5 33t38 80q0 49 -39 86t-104.5 37t-104.5 -37t-39 -86q0 -47 38 -80t105.5 -33zM286.5 430q112.5 0 112.5 102q0 39 -30.5 66t-81.5 27t-82 -27t-31 -66q0 -102 112.5 -102zM286.5 -10q-112.5 0 -184 63.5t-71.5 151.5q0 59 33.5 103t66.5 57l33 14
q-4 2 -11.5 5t-24.5 16.5t-30.5 29.5t-25 44t-11.5 58q0 80 63.5 137.5t162 57.5t162 -57.5t63.5 -137.5q0 -31 -10 -58.5t-25.5 -43.5t-31 -28.5t-25.5 -16.5l-10 -6q6 -2 14 -5t31.5 -17.5t41 -32t32 -50t14.5 -69.5q0 -88 -72 -151.5t-184.5 -63.5z" />
    <glyph glyph-name="nine.dnom" horiz-adv-x="614" 
d="M338 236h-31q-113 0 -189.5 72.5t-76.5 173t77 173t189.5 72.5t189 -72.5t76.5 -173.5q0 -41 -12 -82t-24 -61l-15 -21l-215 -317h-123zM154 481.5q0 -61.5 43 -102.5t110.5 -41t110.5 40t43 101q0 63 -43 104.5t-110.5 41.5t-110.5 -41t-43 -102.5z" />
    <glyph glyph-name="glyph532" horiz-adv-x="3149" 
d="M569 942v-63h-147v-408h-72v408h-145v63h364zM1063 811q66 0 112 -51t46 -121q0 -74 -46.5 -124t-111.5 -50q-59 0 -96 43v-162h-70v459h49l19 -39q39 45 98 45zM1057 528q39 0 67.5 33t28.5 78q0 43 -28.5 74.5t-67.5 31.5t-67.5 -31.5t-28.5 -74.5q0 -45 27.5 -78
t68.5 -33zM682 567l90 238h76l-158 -389q-33 -70 -100 -70q-14 0 -21 2v58q47 0 64 40l12 33l-129 326h76zM1435.5 811q65.5 0 110.5 -50t45 -120l-2 -31h-243q4 -35 29.5 -59.5t60.5 -24.5q55 0 75 35h72q-18 -45 -58 -70.5t-89 -25.5q-66 0 -113 50t-47 124q0 72 47 122
t112.5 50zM1346 666h180q-2 35 -30 58.5t-60.5 23.5t-59 -22.5t-30.5 -59.5zM1923 942v-63h-147v-408h-72v408h-145v63h364zM2417 811q66 0 111.5 -51t45.5 -121q0 -74 -46 -124t-111 -50q-59 0 -97 43v-162h-69v459h49l18 -39q40 45 99 45zM2410 528q39 0 68 33t29 78
q0 43 -29 74.5t-67.5 31.5t-67.5 -31.5t-29 -74.5q0 -45 27.5 -78t68.5 -33zM2036 567l90 238h76l-158 -389q-33 -70 -100 -70q-14 0 -21 2v58q47 0 64 40l12 33l-129 326h76zM2789.5 811q65.5 0 110.5 -50t45 -120l-2 -31h-244q4 -35 30 -59.5t60 -24.5q55 0 76 35h72
q-18 -45 -58 -70.5t-90 -25.5q-66 0 -112.5 50t-46.5 124q0 72 47 122t112.5 50zM2699 666h180q-2 35 -29.5 58.5t-60 23.5t-59.5 -22.5t-31 -59.5z" />
    </font>
</defs>
</svg>
