<?xml version="1.0" standalone="no"?>
<!DOCTYPE svg PUBLIC "-//W3C//DTD SVG 1.1//EN" "http://www.w3.org/Graphics/SVG/1.1/DTD/svg11.dtd" >
<svg xmlns="http://www.w3.org/2000/svg" xmlns:xlink="http://www.w3.org/1999/xlink" version="1.1">
<metadata>
Created by FontForge 20170731 at Tue May 30 07:15:02 2017
 By Aleksey,,,
Copyright (c) 2017 by TypeType. Designers Ivan Gladkikh, Pavel Emelyanov. Technical designers Olexa Volochay, Nadyr Rakhimov, Dmitriy Greshnev. All rights reserved.
</metadata>
<defs>
<font id="TTNorms-Medium" horiz-adv-x="1187" >
  <font-face 
    font-family="TT Norms Medium"
    font-weight="500"
    font-stretch="normal"
    units-per-em="2048"
    panose-1="2 0 8 3 3 0 0 2 0 3"
    ascent="1638"
    descent="-410"
    x-height="983"
    cap-height="1434"
    bbox="-348 -461 2945 1987"
    underline-thickness="0"
    underline-position="0"
    unicode-range="U+000D-FB06"
  />
<missing-glyph horiz-adv-x="0" 
 />
    <glyph glyph-name="ij" unicode="ij" horiz-adv-x="1064" 
d="M696 205v778h205v-1106q0 -307 -287 -307q-37 0 -72.5 5t-54.5 11l-16 4v185q51 -20 102 -21q53 0 88 35t35 90v141q-61 -41 -184 -40q-156 0 -262.5 110.5t-106.5 278.5v614h205v-614q0 -92 56.5 -148.5t148.5 -56.5q37 0 73 10t54 21zM922 1290q0 -53 -35 -88
t-88.5 -35t-88 35t-34.5 88t34.5 88t88 35t88.5 -35t35 -88zM369 1290q0 -53 -35 -88t-88 -35t-88 35t-35 88t35 88t88 35t88 -35t35 -88z" />
    <glyph glyph-name="uniFB00" unicode="ff" horiz-adv-x="1310" 
d="M1239 983v-184h-225v-799h-205v799h-410v-799h-204v799h-144v184h144v123q0 307 286 307q37 0 73 -5t52 -11l19 -4v-185q-51 20 -103 21q-53 0 -88 -35t-35 -90v-121h410v164q0 307 287 307q37 0 72.5 -5t52.5 -11l18 -4v-185q-51 20 -102 21q-53 0 -88 -35t-35 -90v-162
h225z" />
    <glyph glyph-name="uniFB01" unicode="fi" horiz-adv-x="1177" 
d="M1014 983v-983h-205v799h-410v-799h-204v799h-144v184h144v164q0 307 286 307q37 0 68 -5t43 -11l12 -4v-185q-31 20 -82 21q-53 0 -88 -35t-35 -90v-162h615zM1034 1290q0 -53 -34.5 -88t-88 -35t-88.5 35t-35 88t35 88t88.5 35t88 -35t34.5 -88z" />
    <glyph glyph-name="uniFB02" unicode="fl" 
d="M809 1065q0 92 -56.5 148.5t-148.5 56.5t-148.5 -56.5t-56.5 -148.5v-82h226v-184h-226v-799h-204v799h-144v184h144v82q0 170 113.5 279.5t295.5 109.5t296 -109.5t114 -279.5v-1065h-205v1065z" />
    <glyph glyph-name="uniFB03" unicode="ffi" horiz-adv-x="1792" 
d="M809 983v164q0 307 287 307q37 0 72.5 -5t52.5 -11l18 -4v-185q-51 20 -102 21q-53 0 -88 -35t-35 -90v-162h614v-983h-205v799h-409v-799h-205v799h-410v-799h-204v799h-144v184h144v123q0 307 286 307q37 0 73 -5t52 -11l19 -4v-185q-51 20 -103 21q-53 0 -88 -35
t-35 -90v-121h410zM1649 1290q0 -53 -35 -88t-88 -35t-88 35t-35 88t35 88t88 35t88 -35t35 -88z" />
    <glyph glyph-name="uniFB06" unicode="st" horiz-adv-x="1638" 
d="M758 870l-133 -133q-8 8 -23.5 22.5t-64 37t-97.5 22.5q-66 0 -104.5 -30.5t-38.5 -71.5q0 -43 37 -72t93 -44t120.5 -37.5t121 -50.5t93.5 -86t37 -140q0 -127 -102.5 -217t-266.5 -90q-72 0 -137.5 18t-107.5 43t-73.5 50.5t-45.5 43.5l-15 19l133 133q10 -14 29.5 -35
t84 -54.5t132.5 -33.5q82 0 123 33.5t41 89.5q0 43 -37 71.5t-93 44t-120.5 38t-121 50t-93.5 86t-37 140.5q0 113 99.5 200t248.5 87l72 -11q-20 31 -20 113q0 135 117.5 241.5t281.5 106.5q174 0 291.5 -113.5t117.5 -275.5v-82h205v-184h-205v-510q0 -55 35 -90t88 -35
q23 0 48.5 5t39.5 11l15 4v-184q-61 -20 -144 -20q-287 0 -286 307v512h-185v184h185v82q0 92 -56.5 148.5t-148.5 56.5t-148.5 -58.5t-56.5 -156.5q0 -49 17.5 -95.5t35.5 -66.5z" />
    <glyph glyph-name="c_t.liga" unicode="ct" horiz-adv-x="1822" 
d="M983 809l-133 -133q-10 16 -30.5 39.5t-89 63.5t-146.5 40q-125 0 -216.5 -95t-91.5 -232.5t91.5 -232.5t216.5 -95q78 0 146.5 39t98.5 76l31 38l133 -133q-6 -8 -18 -22.5t-52 -49t-84 -61t-114 -49t-141 -22.5q-207 0 -359.5 152.5t-152.5 359t152.5 359.5t359.5 153
l92 -11q-20 31 -21 113q0 135 119 241.5t291 106.5q182 0 301 -112.5t119 -276.5v-82h205v-184h-205v-510q0 -55 34.5 -90t88.5 -35q23 0 48 5t40 11l14 4v-184q-61 -20 -143 -20q-287 0 -287 307v512h-184v184h184v82q0 92 -58.5 148.5t-156.5 56.5q-100 0 -157.5 -57.5
t-57.5 -157.5q0 -70 33.5 -125t99.5 -121z" />
    <glyph glyph-name="s_p.liga" unicode="sp" horiz-adv-x="2129" 
d="M1556 -20q-55 0 -107 13t-89 32.5t-65.5 40t-41.5 32.5l-14 15v-543h-205v1495q0 98 -48 151.5t-126 53.5t-126 -52.5t-48 -142.5q0 -59 17.5 -110.5t35.5 -71.5l19 -23l-133 -133q-8 8 -23.5 22.5t-64 37t-97.5 22.5q-66 0 -104.5 -30.5t-38.5 -71.5q0 -43 37 -72
t93 -44t120.5 -37.5t121 -50.5t93.5 -86t37 -140q0 -127 -102.5 -217t-266.5 -90q-72 0 -137.5 18t-107.5 43t-73.5 50.5t-45.5 43.5l-15 19l133 133q10 -14 29.5 -35t84 -54.5t132.5 -33.5q82 0 123 33.5t41 89.5q0 43 -37 71.5t-93 44t-120.5 38t-121 50t-93.5 86
t-37 140.5q0 113 99.5 200t248.5 87l72 -11q-20 31 -20 113q0 147 104 247.5t264 100.5q170 0 274.5 -106.5t104.5 -282.5v-195q14 14 40 37t108.5 60t168.5 37q195 0 338.5 -149.5t143.5 -362.5t-143.5 -362.5t-338.5 -149.5zM1536 819q-117 0 -207 -96t-90 -231.5
t90 -231.5t207 -96t207 96t90 231.5t-90 231.5t-207 96z" />
    <glyph glyph-name="f_t.liga" unicode="ft" horiz-adv-x="1372" 
d="M850 1106v205h184v-328h205v-184h-205v-510q0 -55 35 -90t88 -35q23 0 48.5 5t39.5 11l15 4v-184q-61 -20 -144 -20q-287 0 -287 307v512h-430v-799h-204v799h-144v184h144v164q0 307 286 307q37 0 73 -5t52 -11l19 -4v-185q-51 20 -103 21q-53 0 -88 -35t-35 -90v-162
h349q102 0 102 123z" />
    <glyph glyph-name=".notdef" horiz-adv-x="0" 
 />
    <glyph glyph-name="glyph1" horiz-adv-x="0" 
 />
    <glyph glyph-name="glyph1" horiz-adv-x="0" 
 />
    <glyph glyph-name="uni000D" unicode="&#xd;" horiz-adv-x="0" 
 />
    <glyph glyph-name="space" unicode=" " horiz-adv-x="409" 
 />
    <glyph glyph-name="exclam" unicode="!" horiz-adv-x="675" 
d="M420 379h-164l-41 1055h246zM205 112.5q0 53.5 40 93.5t93 40t93 -40t40 -93.5t-40 -93t-93 -39.5t-93 39.5t-40 93z" />
    <glyph glyph-name="quotedbl" unicode="&#x22;" horiz-adv-x="757" 
d="M307 1434v-430h-184v430h184zM635 1434v-430h-184v430h184z" />
    <glyph glyph-name="numbersign" unicode="#" horiz-adv-x="1525" 
d="M174 1024h307l72 410h174l-72 -410h338l72 410h174l-72 -410h318l-31 -154h-317l-62 -307h307l-30 -153h-308l-71 -410h-174l71 410h-338l-71 -410h-174l71 410h-317l31 153h315l64 307h-308zM625 870l-62 -307h338l62 307h-338z" />
    <glyph glyph-name="dollar" unicode="$" horiz-adv-x="1208" 
d="M492 1659h204v-215q90 -14 172 -57.5t119 -79.5l37 -37l-143 -144q-4 4 -11.5 13.5t-34 30t-57 37t-80 29.5t-104.5 13q-111 0 -178.5 -55t-67.5 -129q0 -66 42 -111t108.5 -70.5t147.5 -46t162 -50t147.5 -71.5t108.5 -120t42 -186q0 -80 -22.5 -145.5t-58.5 -107.5
t-80 -75t-88 -49.5t-80 -27.5t-58 -13l-23 -2v-215h-204v215q-74 8 -143.5 33.5t-116 55.5t-82 58.5t-52.5 46.5l-16 21l143 143q4 -6 13.5 -17.5t43 -40t72.5 -50t103.5 -39t136.5 -17.5q133 0 210 64.5t77 161.5q0 66 -42 110.5t-108.5 70t-147.5 46t-162 50.5t-147.5 72
t-108.5 119.5t-42 186.5q0 94 38 168t92 111.5t108.5 62.5t93.5 31l37 6v215z" />
    <glyph glyph-name="percent" unicode="%" horiz-adv-x="1576" 
d="M737 1137q0 -131 -95 -224.5t-232.5 -93.5t-232.5 93.5t-95 224.5t95 224t232.5 93t232.5 -93t95 -224zM246 1136.5q0 -69.5 47 -116.5t116.5 -47t116.5 47t47 116.5t-47 116.5t-116.5 47t-116.5 -47t-47 -116.5zM246 0l901 1434h184l-901 -1434h-184zM840 297
q0 131 95 224t232.5 93t232.5 -93t95 -224t-95 -224t-232.5 -93t-232.5 93t-95 224zM1331 297q0 70 -47 117t-116.5 47t-116.5 -47t-47 -117t47 -117t116.5 -47t116.5 47t47 117z" />
    <glyph glyph-name="ampersand" unicode="&#x26;" horiz-adv-x="1310" 
d="M1065 266q6 -12 19.5 -28.5t50 -45t73.5 -28.5q10 0 19.5 3t15.5 5t6 4v-186q-41 -10 -82 -10q-63 0 -122.5 35.5t-86.5 70.5l-26 37q-14 -16 -43 -40t-122 -63.5t-194 -39.5q-193 0 -311.5 102t-118.5 246q0 74 28 145.5t66.5 120.5t77.5 88t66 57l29 19
q-23 23 -57 61.5t-91 136t-57 170.5q0 139 98 233.5t250 94.5q150 0 249 -91t99 -216q0 -90 -61.5 -187.5t-122.5 -148.5l-62 -53l277 -338q72 113 72 276h184q0 -109 -31 -216t-61 -161zM573 164q63 0 125 22.5t93 46.5l28 23l-297 369q-20 -14 -49 -41t-77 -99.5
t-48 -136.5q0 -86 56 -135t169 -49zM707 1126q0 61 -43 102.5t-111 41.5t-111 -41t-43 -103q0 -45 38 -104t77 -96l39 -35q16 14 42 39.5t69 88t43 107.5z" />
    <glyph glyph-name="quotesingle" unicode="'" horiz-adv-x="430" 
d="M307 1434v-430h-184v430h184z" />
    <glyph glyph-name="parenleft" unicode="(" horiz-adv-x="696" 
d="M348 512q0 -143 30 -286.5t72 -246t83.5 -184.5t72.5 -123l29 -41l-154 -92q-12 16 -33.5 45t-77 126t-96.5 202.5t-75.5 269.5t-34.5 330t32.5 327.5t80 273.5t93.5 199t79 130l32 43l154 -92q-12 -14 -31.5 -43t-69 -120t-87 -187.5t-68.5 -242t-31 -288.5z" />
    <glyph glyph-name="parenright" unicode=")" horiz-adv-x="696" 
d="M348 512q0 143 -29.5 286.5t-71.5 246t-84 184.5t-73 123l-29 41l154 92q12 -16 33.5 -45t77 -126t96.5 -202.5t75.5 -269.5t34.5 -330t-32.5 -327.5t-79.5 -273.5t-93 -199t-79 -130l-33 -43l-154 92q12 14 32 43t69 120t87 187.5t68.5 242t30.5 288.5z" />
    <glyph glyph-name="asterisk" unicode="*" horiz-adv-x="819" 
d="M492 1434l-21 -256l236 92l51 -154l-246 -61l164 -205l-123 -102l-143 225l-144 -225l-123 102l164 205l-246 61l52 154l235 -92l-20 256h164z" />
    <glyph glyph-name="plus" unicode="+" horiz-adv-x="1075" 
d="M625 143h-174v369h-369v184h369v369h174v-369h368v-184h-368v-369z" />
    <glyph glyph-name="comma" unicode="," horiz-adv-x="491" 
d="M205 246l184 -103l-256 -409l-133 71z" />
    <glyph glyph-name="hyphen" unicode="-" horiz-adv-x="880" 
d="M799 696v-184h-717v184h717z" />
    <glyph glyph-name="period" unicode="." horiz-adv-x="471" 
d="M369 112.5q0 -53.5 -40 -93t-93.5 -39.5t-93.5 39.5t-40 93t40 93.5t93.5 40t93.5 -40t40 -93.5z" />
    <glyph glyph-name="slash" unicode="/" horiz-adv-x="921" 
d="M860 1454l-614 -1884h-185l615 1884h184z" />
    <glyph glyph-name="zero" unicode="0" horiz-adv-x="1454" 
d="M123 717q0 336 175 536.5t429 200.5t429 -200.5t175 -536.5t-175 -536.5t-429 -200.5t-429 200.5t-175 536.5zM1106 717q0 248 -111.5 390t-267.5 142t-267.5 -142t-111.5 -390t111.5 -390.5t267.5 -142.5t267.5 142.5t111.5 390.5z" />
    <glyph glyph-name="one" unicode="1" horiz-adv-x="788" 
d="M389 1434h174v-1434h-225v1085h-256v154q129 14 196.5 61.5t110.5 133.5z" />
    <glyph glyph-name="two" unicode="2" horiz-adv-x="1157" 
d="M1034 0h-952q0 133 40 241.5t104.5 180.5t142 132t154.5 109.5t141.5 97.5t104.5 112.5t40 140.5q0 109 -67.5 172t-188.5 63q-59 0 -110.5 -21.5t-80 -51t-50 -59.5t-29.5 -52l-7 -21l-184 82q4 14 11.5 36t42 78t80.5 99t133 79t194 36q211 0 346 -127t135 -313
q0 -98 -40 -182t-101.5 -140.5t-141 -116t-154.5 -108.5t-147.5 -117.5t-111.5 -144.5h696v-205z" />
    <glyph glyph-name="three" unicode="3" horiz-adv-x="1167" 
d="M809 758q10 -4 27.5 -11.5t61.5 -36t78 -65.5t61.5 -102.5t27.5 -143.5q0 -176 -140.5 -297.5t-371.5 -121.5q-98 0 -186 23.5t-145.5 56t-99.5 65.5t-61 55l-20 25l143 143q4 -6 14.5 -17.5t45.5 -40t73.5 -50t102 -39t133.5 -17.5q133 0 210 64.5t77 161t-77 161
t-210 64.5h-143v205h143q106 0 165.5 55t59.5 149.5t-59.5 149.5t-165.5 55q-90 0 -170 -39t-113 -75l-34 -39l-144 143q6 8 18.5 22.5t55.5 52.5t92 65.5t129 51t166 23.5q211 0 331 -108.5t120 -280.5q0 -59 -20.5 -113.5t-49.5 -88.5t-56.5 -58.5t-48.5 -34.5z" />
    <glyph glyph-name="four" unicode="4" horiz-adv-x="1249" 
d="M1004 492h184v-205h-184v-287h-226v287h-696v245l635 902h287v-942zM778 492v686l-481 -686h481z" />
    <glyph glyph-name="five" unicode="5" horiz-adv-x="1290" 
d="M676 952q215 0 353 -136t138 -345q0 -217 -141 -354t-371 -137q-98 0 -186 23.5t-145.5 56t-99.5 65.5t-60 55l-21 25l144 143q4 -6 14 -17.5t45 -40t74 -50t102.5 -39t132.5 -17.5q123 0 205 82t82 205t-82 205t-205 82q-90 0 -161.5 -33t-98.5 -66l-26 -34h-164l41 809
h829v-205h-624l-21 -338q82 61 246 61z" />
    <glyph glyph-name="six" unicode="6" horiz-adv-x="1249" 
d="M655 963q186 0 328.5 -146.5t142.5 -345.5q0 -201 -149.5 -346t-362.5 -145t-362.5 145t-149.5 346q0 82 29 164t57 123l27 41l410 635h225l-318 -492q51 21 123 21zM922 471q0 123 -89.5 210t-218.5 87t-218 -87t-89 -210t89 -210t218 -87t218.5 87t89.5 210z" />
    <glyph glyph-name="seven" unicode="7" horiz-adv-x="1075" 
d="M61 1434h953v-185l-604 -1249h-226l594 1229h-717v205z" />
    <glyph glyph-name="eight" unicode="8" horiz-adv-x="1228" 
d="M614.5 686q-120.5 0 -203.5 -77t-83 -179t83 -179t203.5 -77t203.5 77t83 179t-83 179t-203.5 77zM614.5 1270q-98.5 0 -162 -59.5t-63.5 -145.5t63.5 -145.5t162 -59.5t162 59.5t63.5 145.5t-63.5 145.5t-162 59.5zM614.5 1454q180.5 0 305 -116.5t124.5 -272.5
q0 -51 -14 -99t-35.5 -79t-43 -54.5t-36.5 -33.5l-14 -11q8 -6 22.5 -16t49.5 -45t61.5 -74t49 -99t22.5 -124q0 -186 -140.5 -318t-351.5 -132t-351 132t-140 318q0 100 51 189.5t102 130.5l52 38q-16 10 -40 31t-64 92.5t-40 153.5q0 156 125 272.5t305.5 116.5z" />
    <glyph glyph-name="nine" unicode="9" horiz-adv-x="1249" 
d="M594 471q-186 0 -328.5 146.5t-142.5 345.5q0 201 149.5 346t362.5 145t362.5 -145.5t149.5 -345.5q0 -82 -28.5 -164t-57.5 -123l-27 -41l-409 -635h-226l318 492q-51 -21 -123 -21zM328 962.5q0 -122.5 89 -209.5t218 -87t218 87t89 209.5t-89 210t-218 87.5
t-218 -87.5t-89 -210z" />
    <glyph glyph-name="colon" unicode=":" horiz-adv-x="471" 
d="M102 112.5q0 53.5 40 93.5t93.5 40t93.5 -40t40 -93.5t-40 -93t-93.5 -39.5t-93.5 39.5t-40 93zM102 870.5q0 53.5 40 93.5t93.5 40t93.5 -40t40 -93.5t-40 -93.5t-93.5 -40t-93.5 40t-40 93.5z" />
    <glyph glyph-name="semicolon" unicode=";" horiz-adv-x="501" 
d="M205 246l184 -103l-256 -409l-133 71zM133 870.5q0 53.5 40 93.5t93 40t93 -40t40 -93.5t-40 -93.5t-93 -40t-93 40t-40 93.5z" />
    <glyph glyph-name="less" unicode="&#x3c;" horiz-adv-x="1024" 
d="M82 451v102l860 451v-205l-573 -297l573 -297v-205z" />
    <glyph glyph-name="equal" unicode="=" horiz-adv-x="1003" 
d="M922 512v-184h-840v184h840zM922 881v-185h-840v185h840z" />
    <glyph glyph-name="greater" unicode="&#x3e;" horiz-adv-x="1024" 
d="M942 553v-102l-860 -451v205l573 297l-573 297v205z" />
    <glyph glyph-name="question" unicode="?" horiz-adv-x="1095" 
d="M420 471q0 84 38 152.5t92 112.5t108.5 87t92 98.5t37.5 122.5q0 86 -65.5 145.5t-169.5 59.5q-66 0 -120 -21.5t-84 -51t-49 -59.5t-26 -52l-8 -21l-184 72q4 14 11 37t43 81t83 102t136 81t198 37q201 0 331 -114.5t130 -274.5q0 -113 -41 -193.5t-99.5 -128
t-118 -89.5t-100.5 -105.5t-41 -149.5v-20h-184q-10 51 -10 92zM389 112.5q0 53.5 40 93.5t93 40t93 -40t40 -93.5t-40 -93t-93 -39.5t-93 39.5t-40 93z" />
    <glyph glyph-name="at" unicode="@" horiz-adv-x="1863" 
d="M922 737q-92 0 -159 -68.5t-67 -167t66.5 -167t159.5 -68.5q86 0 145 65.5t59 170t-59 170t-145 65.5zM901 881q68 0 124 -22.5t79 -47.5l22 -23v82h144v-481q0 -53 32.5 -88t79.5 -35q76 0 125 71t49 216q0 248 -179 421t-445 173q-254 0 -439.5 -187.5t-185.5 -447.5
t185.5 -447.5t439.5 -187.5q104 0 196.5 33t133.5 65l38 35l93 -112q-6 -6 -19.5 -17.5t-57.5 -40t-93 -50t-128 -39t-163 -17.5q-322 0 -555.5 231.5t-233.5 546.5t233.5 546.5t555.5 231.5q334 0 561 -217t227 -520q0 -209 -93 -319.5t-245 -110.5q-68 0 -124 30.5
t-78 61.5l-23 31q-8 -14 -25.5 -35t-83 -54.5t-147.5 -33.5q-147 0 -252.5 109.5t-105.5 269.5t105.5 269.5t252.5 109.5z" />
    <glyph glyph-name="A" unicode="A" horiz-adv-x="1495" 
d="M41 0l594 1434h225l594 -1434h-235l-154 379h-635l-154 -379h-235zM748 1178l-236 -594h471z" />
    <glyph glyph-name="B" unicode="B" horiz-adv-x="1402" 
d="M819 0h-614v1434h583q174 0 297 -115t123 -264q0 -86 -35.5 -158t-70.5 -100l-37 -29q8 -4 22.5 -13.5t52.5 -41t65.5 -69.5t51 -98.5t23.5 -125.5q0 -172 -132 -296t-329 -124zM430 195h389q100 0 168 67.5t68 167.5t-67.5 168t-168.5 68h-389v-471zM788 1239h-358v-389
h358q84 0 139.5 55.5t55.5 139t-55.5 139t-139.5 55.5z" />
    <glyph glyph-name="C" unicode="C" horiz-adv-x="1556" 
d="M881 1454q109 0 209 -28.5t165.5 -69.5t114.5 -81t72 -69l22 -28l-143 -144q-6 8 -17.5 22.5t-52.5 52.5t-88 65.5t-122.5 51t-159.5 23.5q-223 0 -378 -154.5t-155 -377.5t154.5 -378t378.5 -155q84 0 160.5 23.5t127 56.5t89 65.5t57.5 55.5l16 25l144 -144
q-8 -12 -24.5 -31.5t-73 -68.5t-120 -87t-166 -68.5t-210.5 -30.5q-322 0 -540 214t-218 523t218 523t540 214z" />
    <glyph glyph-name="D" unicode="D" horiz-adv-x="1556" 
d="M205 1434h502q299 0 513 -212t214 -505t-214 -505t-513 -212h-502v1434zM707 1229h-277v-1024h277q209 0 355 148.5t146 363.5t-146 363.5t-355 148.5z" />
    <glyph glyph-name="E" unicode="E" horiz-adv-x="1341" 
d="M430 205h809v-205h-1034v1434h1014v-205h-789v-379h625v-205h-625v-440z" />
    <glyph glyph-name="F" unicode="F" horiz-adv-x="1290" 
d="M205 1434h1003v-205h-778v-400h614v-204h-614v-625h-225v1434z" />
    <glyph glyph-name="G" unicode="G" horiz-adv-x="1658" 
d="M993 758h502v-512q-8 -10 -24.5 -28.5t-74 -65t-123 -81t-172 -63t-220.5 -28.5q-322 0 -540 214t-218 523t218 523t540 214q109 0 209 -28.5t165.5 -69.5t114.5 -81t72 -69l22 -28l-143 -144q-6 8 -17.5 22.5t-52.5 52.5t-88 65.5t-122.5 51t-159.5 23.5
q-223 0 -378 -154.5t-155 -377.5t154.5 -378t378.5 -155q74 0 141.5 14.5t110.5 36t75.5 43t46.5 35.5l15 15v225h-277v205z" />
    <glyph glyph-name="H" unicode="H" horiz-adv-x="1566" 
d="M1362 1434v-1434h-225v625h-707v-625h-225v1434h225v-605h707v605h225z" />
    <glyph glyph-name="I" unicode="I" horiz-adv-x="634" 
d="M205 0v1434h225v-1434h-225z" />
    <glyph glyph-name="J" unicode="J" horiz-adv-x="1044" 
d="M614 1434h226v-1004q0 -201 -129 -325.5t-342 -124.5q-63 0 -122 16t-98.5 40.5t-69.5 49.5t-44 41l-15 16l144 144q6 -12 20.5 -28.5t67.5 -45.5t117 -29q115 0 180 65.5t65 180.5v1004z" />
    <glyph glyph-name="K" unicode="K" horiz-adv-x="1423" 
d="M430 1434v-697l645 697h287l-553 -594l594 -840h-277l-471 676l-225 -246v-430h-225v1434h225z" />
    <glyph glyph-name="L" unicode="L" 
d="M1126 0h-921v1434h225v-1229h696v-205z" />
    <glyph glyph-name="M" unicode="M" horiz-adv-x="1904" 
d="M952 737l553 697h195v-1434h-225v1044l-523 -655l-522 655v-1044h-225v1434h194z" />
    <glyph glyph-name="N" unicode="N" horiz-adv-x="1628" 
d="M1198 1434h225v-1434h-194l-799 1034v-1034h-225v1434h194l799 -1035v1035z" />
    <glyph glyph-name="O" unicode="O" horiz-adv-x="1761" 
d="M348 717q0 -223 154.5 -378t378 -155t378 155t154.5 378t-154.5 377.5t-378 154.5t-378 -154.5t-154.5 -377.5zM123 717q0 309 218 523t539.5 214t539.5 -214t218 -523t-218 -523t-539.5 -214t-539.5 214t-218 523z" />
    <glyph glyph-name="P" unicode="P" horiz-adv-x="1382" 
d="M205 1434h573q205 0 343.5 -134.5t138.5 -327t-138.5 -326.5t-343.5 -134h-348v-512h-225v1434zM778 1229h-348v-512h348q106 0 181 73.5t75 182t-75 182.5t-181 74z" />
    <glyph glyph-name="Q" unicode="Q" horiz-adv-x="1781" 
d="M123 717q0 309 218 523t539.5 214t539.5 -214t218 -523q0 -135 -42 -252t-102 -188.5t-120.5 -123t-103.5 -71.5l-41 -23q4 -8 13 -21t44 -47t79 -57.5t123 -39t171 -7.5v-184q-127 -14 -239.5 10.5t-183.5 69.5t-124 91t-76 81l-22 35q-72 -10 -133 -10q-322 0 -540 214
t-218 523zM348 717q0 -223 154.5 -378t378 -155t378 155t154.5 378t-154.5 377.5t-378 154.5t-378 -154.5t-154.5 -377.5z" />
    <glyph glyph-name="R" unicode="R" horiz-adv-x="1433" 
d="M205 0v1434h604q199 0 330 -127t131 -314q0 -88 -30 -164.5t-72 -120.5t-84 -77t-72 -45l-29 -13l328 -573h-246l-307 553h-328v-553h-225zM1044 993.5q0 100.5 -67.5 168t-167.5 67.5h-379v-471h379q100 0 167.5 67.5t67.5 168z" />
    <glyph glyph-name="S" unicode="S" horiz-adv-x="1208" 
d="M881 410q0 66 -42 110.5t-108.5 70t-147.5 46t-162 50.5t-147.5 72t-108.5 119.5t-42 186.5q0 166 127 277.5t344 111.5q80 0 153.5 -19.5t122 -46t85 -53t53.5 -45.5l16 -20l-143 -144q-4 4 -11.5 13.5t-34 30t-57 37t-80 29.5t-104.5 13q-111 0 -178.5 -55t-67.5 -129
q0 -66 42 -111t108.5 -70.5t147.5 -46t162 -50t147.5 -71.5t108.5 -120t42 -186q0 -190 -136 -310t-376 -120q-98 0 -186.5 23.5t-145.5 56t-99 65.5t-61 55l-20 25l143 143q4 -6 13.5 -17.5t43 -40t72.5 -50t103.5 -39t136.5 -17.5q133 0 210 65t77 161z" />
    <glyph glyph-name="T" unicode="T" horiz-adv-x="1167" 
d="M41 1434h1085v-205h-430v-1229h-225v1229h-430v205z" />
    <glyph glyph-name="U" unicode="U" horiz-adv-x="1576" 
d="M788.5 184q153.5 0 266 115t112.5 274v861h226v-861q0 -246 -176.5 -419.5t-428 -173.5t-428 174t-176.5 419v861h226v-861q0 -160 112.5 -274.5t266 -114.5z" />
    <glyph glyph-name="V" unicode="V" horiz-adv-x="1474" 
d="M625 0l-564 1434h236l440 -1147l441 1147h235l-563 -1434h-225z" />
    <glyph glyph-name="W" unicode="W" horiz-adv-x="2211" 
d="M1219 1434l348 -1096l348 1096h235l-471 -1434h-225l-348 1085l-348 -1085h-226l-471 1434h236l348 -1096l348 1096h226z" />
    <glyph glyph-name="X" unicode="X" horiz-adv-x="1413" 
d="M707 932l358 502h266l-491 -686l532 -748h-266l-399 563l-400 -563h-266l532 748l-491 686h266z" />
    <glyph glyph-name="Y" unicode="Y" horiz-adv-x="1351" 
d="M287 1434l389 -686l389 686h246l-523 -922v-512h-225v512l-522 922h246z" />
    <glyph glyph-name="Z" unicode="Z" horiz-adv-x="1290" 
d="M901 1229h-768v205h1034v-205l-798 -1024h819v-205h-1086v205z" />
    <glyph glyph-name="bracketleft" unicode="[" horiz-adv-x="675" 
d="M348 1290v-1556h266v-164h-450v1884h450v-164h-266z" />
    <glyph glyph-name="backslash" unicode="\" horiz-adv-x="921" 
d="M676 -430l-615 1884h185l614 -1884h-184z" />
    <glyph glyph-name="bracketright" unicode="]" horiz-adv-x="675" 
d="M328 -266v1556h-267v164h451v-1884h-451v164h267z" />
    <glyph glyph-name="asciicircum" unicode="^" horiz-adv-x="839" 
d="M348 1434h144l266 -594h-185l-153 358l-154 -358h-184z" />
    <glyph glyph-name="underscore" unicode="_" horiz-adv-x="696" 
d="M717 -184v-185h-737v185h737z" />
    <glyph glyph-name="grave" unicode="`" horiz-adv-x="491" 
d="M276 1434l154 -287h-154l-215 287h215z" />
    <glyph glyph-name="a" unicode="a" horiz-adv-x="1075" 
d="M922 0h-205v102q-4 -4 -13.5 -13t-38 -29.5t-61.5 -37t-83 -29.5t-101 -13q-150 0 -249 87t-99 199q0 121 76.5 203t209.5 104l359 62q0 78 -57.5 131t-147.5 53q-78 0 -141.5 -32.5t-87.5 -65.5l-27 -35l-133 133q6 8 16.5 20.5t47 44t77.5 56.5t108.5 44.5t139.5 19.5
q180 0 295 -106.5t115 -262.5v-635zM451 164q125 0 195.5 74.5t70.5 212.5v20l-318 -51q-55 -10 -89 -45t-34 -88q0 -49 47.5 -86t127.5 -37z" />
    <glyph glyph-name="b" unicode="b" horiz-adv-x="1249" 
d="M676 1004q195 0 338 -149.5t143 -362.5t-143.5 -362.5t-337.5 -149.5q-55 0 -107.5 13t-89.5 32.5t-65.5 40t-40.5 32.5l-15 15v-113h-204v1434h204v-564q14 14 40 37t109 60t169 37zM655.5 164q116.5 0 206.5 96t90 231.5t-90 231.5t-206.5 96t-207 -96t-90.5 -231.5
t90.5 -231.5t207 -96z" />
    <glyph glyph-name="c" unicode="c" horiz-adv-x="1064" 
d="M72 491.5q0 206.5 152.5 359.5t359.5 153q115 0 214 -49.5t142 -98.5l43 -47l-133 -133q-10 16 -30.5 39.5t-89 63.5t-146.5 40q-125 0 -216.5 -95t-91.5 -232.5t91.5 -232.5t216.5 -95q78 0 146.5 39t98.5 76l31 38l133 -133q-6 -8 -18 -22.5t-52 -49t-84 -61t-114 -49
t-141 -22.5q-207 0 -359.5 152.5t-152.5 359z" />
    <glyph glyph-name="d" unicode="d" horiz-adv-x="1249" 
d="M553 1004q55 0 107.5 -13.5t89 -33t65.5 -40t41 -32.5l14 -15v564h205v-1434h-205v113q-14 -14 -39.5 -37t-108.5 -59.5t-169 -36.5q-195 0 -338 149.5t-143 362.5t143 362.5t338 149.5zM573.5 164q116.5 0 206.5 96t90 231.5t-90 231.5t-206.5 96t-207 -96t-90.5 -231.5
t90.5 -231.5t207 -96z" />
    <glyph glyph-name="e" unicode="e" horiz-adv-x="1146" 
d="M1044 420h-768q16 -104 102.5 -180t205.5 -76q86 0 160.5 39t105.5 76l31 38l133 -133q-6 -8 -18.5 -22.5t-53.5 -49t-87 -61t-119.5 -49t-151.5 -22.5q-209 0 -360.5 153.5t-151.5 368.5q0 207 147.5 354.5t354 147.5t344 -137.5t137.5 -344.5zM573 829
q-111 0 -186.5 -65.5t-101.5 -169.5h569q-18 104 -93 169.5t-188 65.5z" />
    <glyph glyph-name="f" unicode="f" horiz-adv-x="696" 
d="M625 983v-184h-226v-799h-204v799h-144v184h144v164q0 307 286 307q37 0 73 -5t52 -11l19 -4v-185q-51 20 -103 21q-53 0 -88 -35t-35 -90v-162h226z" />
    <glyph glyph-name="g" unicode="g" 
d="M829 59v84l-13 -13q-9 -9 -37.5 -29.5t-61.5 -37t-83 -30t-102 -13.5q-186 0 -323 143.5t-137 348.5t137 348.5t323 143.5q82 0 156 -31t107 -62l34 -30v102h205v-922q0 -207 -142 -349t-349 -142q-84 0 -160 21.5t-125 51t-86 59.5t-53 52l-17 21l134 133q4 -6 13 -16.5
t38.5 -37t62.5 -47t85 -37t108 -16.5q125 0 205.5 85t80.5 220zM276 512q0 -129 83 -218t194 -89t193.5 89t82.5 218t-82.5 218t-193.5 89t-194 -89t-83 -218z" />
    <glyph glyph-name="h" unicode="h" horiz-adv-x="1208" 
d="M358 1434v-553q4 4 13.5 13t38 29.5t61.5 37t83 30t101 13.5q178 0 289 -117t111 -314v-573h-205v573q0 106 -67.5 176t-168.5 70q-117 0 -186.5 -75.5t-69.5 -211.5v-532h-204v1434h204z" />
    <glyph glyph-name="i" unicode="i" horiz-adv-x="512" 
d="M348 983v-983h-205v983h205zM369 1290q0 -53 -35 -88t-88 -35t-88 35t-35 88t35 88t88 35t88 -35t35 -88z" />
    <glyph glyph-name="j" unicode="j" horiz-adv-x="512" 
d="M143 -121v1104h205v-1106q0 -307 -287 -307q-37 0 -72.5 5t-54.5 11l-16 4v185q51 -20 102 -21q53 0 88 35t35 90zM369 1290q0 -53 -35 -88t-88 -35t-88 35t-35 88t35 88t88 35t88 -35t35 -88z" />
    <glyph glyph-name="k" unicode="k" horiz-adv-x="1085" 
d="M1024 983l-379 -410l410 -573h-226l-317 440l-154 -164v-276h-204v1434h204v-891l420 440h246z" />
    <glyph glyph-name="l" unicode="l" horiz-adv-x="532" 
d="M358 1434v-1434h-204v1434h204z" />
    <glyph glyph-name="m" unicode="m" horiz-adv-x="1761" 
d="M1403 0v573q0 121 -55.5 183.5t-149.5 62.5q-96 0 -160.5 -76.5t-64.5 -210.5v-532h-205v573q0 121 -55.5 183.5t-149.5 62.5q-96 0 -160.5 -76.5t-64.5 -210.5v-532h-205v983h205v-102q12 14 33.5 34.5t90 54.5t142.5 34q59 0 112.5 -16.5t85.5 -41t55.5 -49.5t33.5 -41
l10 -16q4 6 13.5 17t41 40t67.5 50.5t94.5 39t121.5 17.5q172 0 270.5 -110t98.5 -321v-573h-205z" />
    <glyph glyph-name="n" unicode="n" 
d="M338 983v-102l13 13q9 9 38 29.5t61.5 37t83 30t101.5 13.5q178 0 288.5 -117t110.5 -314v-573h-205v573q0 106 -67.5 176t-167.5 70q-117 0 -186.5 -75.5t-69.5 -211.5v-532h-205v983h205z" />
    <glyph glyph-name="o" unicode="o" 
d="M891 491.5q0 137.5 -91 232.5t-216 95t-216.5 -95t-91.5 -232.5t91.5 -232.5t216.5 -95t216 95t91 232.5zM72 491.5q0 206.5 152.5 359.5t359.5 153t359.5 -153t152.5 -359.5t-152.5 -359t-359.5 -152.5t-359.5 152.5t-152.5 359z" />
    <glyph glyph-name="p" unicode="p" horiz-adv-x="1228" 
d="M655 -20q-55 0 -107 13t-89 32.5t-65.5 40t-41.5 32.5l-14 15v-543h-205v1413h205v-113q14 14 39.5 37t108.5 60t169 37q195 0 338.5 -149.5t143.5 -362.5t-143.5 -362.5t-338.5 -149.5zM635 819q-117 0 -207 -96t-90 -231.5t90 -231.5t207 -96t207 96t90 231.5
t-90 231.5t-207 96z" />
    <glyph glyph-name="q" unicode="q" horiz-adv-x="1228" 
d="M553 -20q-195 0 -338 149.5t-143 362.5t143 362.5t338 149.5q55 0 107.5 -13.5t89 -33t65.5 -40t41 -32.5l14 -15v113h205v-1413h-205v543q-14 -14 -39.5 -37t-108.5 -59.5t-169 -36.5zM573.5 819q-116.5 0 -207 -96t-90.5 -231.5t90.5 -231.5t207 -96t206.5 96t90 231.5
t-90 231.5t-206.5 96z" />
    <glyph glyph-name="r" unicode="r" horiz-adv-x="716" 
d="M686 809q-41 10 -92 10q-117 0 -186.5 -75.5t-69.5 -211.5v-532h-205v983h205v-102l13 13q9 9 38 29.5t61.5 37t83 30t101.5 13.5h51v-195z" />
    <glyph glyph-name="s" unicode="s" horiz-adv-x="890" 
d="M758 870l-133 -133q-8 8 -23.5 22.5t-64 37t-97.5 22.5q-66 0 -104.5 -30.5t-38.5 -71.5q0 -43 37 -72t93 -44t120.5 -37.5t121 -50.5t93.5 -86t37 -140q0 -127 -102.5 -217t-266.5 -90q-72 0 -137.5 18t-107.5 43t-73.5 50.5t-45.5 43.5l-15 19l133 133q10 -14 29.5 -35
t84 -54.5t132.5 -33.5q82 0 123 33.5t41 89.5q0 43 -37 71.5t-93 44t-120.5 38t-121 50t-93.5 86t-37 140.5q0 113 99.5 200t248.5 87q59 0 114.5 -13.5t90.5 -33t61.5 -40t38.5 -32.5z" />
    <glyph glyph-name="t" unicode="t" horiz-adv-x="778" 
d="M256 1106v205h184v-328h205v-184h-205v-510q0 -55 35 -90t88 -35q23 0 48.5 5t39.5 11l15 4v-184q-61 -20 -144 -20q-287 0 -286 307v512h-185v184h103q102 0 102 123z" />
    <glyph glyph-name="u" unicode="u" horiz-adv-x="1198" 
d="M829 0v102l-13 -13q-9 -9 -37.5 -29.5t-61.5 -37t-83 -29.5t-102 -13q-178 0 -288.5 116.5t-110.5 313.5v573h205v-573q0 -106 67.5 -176t167.5 -70q117 0 186.5 75.5t69.5 211.5v532h205v-983h-205z" />
    <glyph glyph-name="v" unicode="v" horiz-adv-x="1044" 
d="M614 0h-204l-400 983h215l287 -717l287 717h215z" />
    <glyph glyph-name="w" unicode="w" horiz-adv-x="1556" 
d="M676 983h184l225 -676l226 676h215l-338 -983h-195l-225 655l-225 -655h-195l-338 983h215l226 -676z" />
    <glyph glyph-name="x" unicode="x" horiz-adv-x="1024" 
d="M625 512l368 -512h-235l-256 358l-256 -358h-236l369 512l-338 471h235l226 -317l225 317h236z" />
    <glyph glyph-name="y" unicode="y" horiz-adv-x="1044" 
d="M369 -102l41 102l-400 983h215l287 -717l287 717h215l-441 -1085q-76 -182 -150.5 -255t-186.5 -73q-41 0 -77 5t-53 11l-14 4v185q51 -20 103 -21q117 1 174 144z" />
    <glyph glyph-name="z" unicode="z" horiz-adv-x="983" 
d="M870 983v-184l-542 -615h563v-184h-819v184l542 615h-522v184h778z" />
    <glyph glyph-name="braceleft" unicode="{" horiz-adv-x="737" 
d="M123 430v164q123 0 123 123v440q0 139 83 218t234 79h113v-164h-113q-61 0 -97 -35.5t-36 -97.5v-440q0 -37 -6 -69t-16.5 -52.5t-22.5 -36.5t-23.5 -24.5t-21.5 -14.5t-16 -8h-5h5q6 -2 16 -8t21.5 -14.5t23.5 -24.5t22.5 -36.5t16.5 -52.5t6 -69v-440q0 -61 36 -97
t97 -36h113v-164h-113q-152 0 -234.5 79t-82.5 218v440q0 123 -123 123z" />
    <glyph glyph-name="bar" unicode="|" horiz-adv-x="716" 
d="M451 1454v-1884h-185v1884h185z" />
    <glyph glyph-name="braceright" unicode="}" horiz-adv-x="737" 
d="M614 594v-164q-123 0 -122 -123v-440q0 -139 -83 -218t-235 -79h-113v164h113q61 0 97 35.5t36 97.5v440q0 37 6 69t16.5 52.5t23 36.5t23.5 24.5t21.5 14.5t16.5 8h4h-4q-6 2 -16.5 8t-21.5 14.5t-23.5 24.5t-23 36.5t-16.5 52.5t-6 69v440q0 61 -35.5 97t-97.5 36h-113
v164h113q152 0 235 -79t83 -218v-440q-1 -123 122 -123z" />
    <glyph glyph-name="asciitilde" unicode="~" horiz-adv-x="1126" 
d="M758 614q55 0 101 31t65 62l18 30l123 -92q-4 -8 -12.5 -20.5t-37 -44t-61 -56t-86 -44t-110.5 -19.5q-86 0 -153.5 33.5t-123 66.5t-112.5 33q-55 0 -101.5 -31t-64.5 -61l-19 -31l-123 92q4 8 12.5 20.5t37 44t61.5 56.5t86 44.5t111 19.5q88 0 154.5 -34t122 -67
t112.5 -33z" />
    <glyph glyph-name="uni00A0" unicode="&#xa0;" horiz-adv-x="409" 
 />
    <glyph glyph-name="exclamdown" unicode="&#xa1;" horiz-adv-x="593" 
d="M215 604h164l41 -1034h-246zM164 870.5q0 53.5 40 93.5t93 40t93 -40t40 -93.5t-40 -93.5t-93 -40t-93 40t-40 93.5z" />
    <glyph glyph-name="cent" unicode="&#xa2;" horiz-adv-x="1013" 
d="M276 491.5q0 -135.5 90.5 -231.5t206.5 -96q68 0 127.5 30.5t83.5 61.5l25 31l133 -133q-12 -14 -35.5 -38t-98.5 -68t-153 -58v-215h-184v215q-170 41 -284.5 175t-114.5 326.5t114.5 326.5t284.5 175v215h184v-215q78 -14 146.5 -53t99.5 -72l31 -30l-133 -133
q-8 12 -24.5 31.5t-75 51t-126.5 31.5q-117 0 -207 -96t-90 -231.5z" />
    <glyph glyph-name="sterling" unicode="&#xa3;" 
d="M266 983q0 215 128 343t343 128q72 0 138.5 -19.5t110.5 -46t77 -53t47 -45.5l16 -20l-143 -144q-4 4 -10 13.5t-28.5 30t-49.5 37t-70 29.5t-88 13q-115 0 -190.5 -75.5t-75.5 -190.5v-225h399v-185h-399v-266q0 -37 -10 -67.5t-21 -42.5l-10 -13h696v-184h-983v184
q53 0 88 35t35 88v266h-123v185h123v225z" />
    <glyph glyph-name="currency" unicode="&#xa4;" horiz-adv-x="1413" 
d="M492 758h337q100 0 168 67.5t68 168t-67.5 168t-168.5 67.5h-337v-471zM829 553h-337v-143h460v-205h-460v-205h-226v205h-164v205h164v143h-164v205h164v676h563q199 0 330 -127t131 -313.5t-131 -313.5t-330 -127z" />
    <glyph glyph-name="yen" unicode="&#xa5;" horiz-adv-x="1351" 
d="M676 748l389 686h246l-430 -748h225v-174h-318v-123h318v-174h-318v-215h-225v215h-317v174h317v123h-317v174h225l-430 748h246z" />
    <glyph glyph-name="brokenbar" unicode="&#xa6;" horiz-adv-x="716" 
d="M266 348h185v-778h-185v778zM451 676h-185v778h185v-778z" />
    <glyph glyph-name="section" unicode="&#xa7;" horiz-adv-x="1095" 
d="M891 1321l-133 -133q-92 82 -205 82q-184 0 -184 -123q0 -55 62.5 -95t151.5 -71t177 -69t150.5 -113.5t62.5 -184.5q0 -51 -19.5 -98t-46 -75.5t-53.5 -51t-47 -33.5l-19 -8q6 -4 15.5 -10t34 -27.5t44 -46t35 -62.5t15.5 -79q0 -143 -119 -245.5t-311 -102.5
q-123 0 -222.5 49t-138.5 98l-39 47l134 133q10 -16 30.5 -39.5t89 -63.5t146.5 -40q111 0 168 45t57 119q0 55 -64.5 95t-156.5 70.5t-183.5 68.5t-156 114t-64.5 184q0 51 19.5 98.5t46.5 76t53.5 51t44.5 32.5l21 9q-14 8 -35 26.5t-54.5 76.5t-33.5 122q0 129 105.5 218
t283.5 89q96 0 180 -32.5t121 -65.5zM768 614q0 74 -79 127.5t-159 69.5l-79 18q-6 -2 -15.5 -4t-34 -15t-44 -30.5t-35 -50.5t-15.5 -74q0 -74 80 -127t158 -69l80 -19q6 2 15 4t33.5 15.5t44 31t35 50t15.5 73.5z" />
    <glyph glyph-name="dieresis" unicode="&#xa8;" horiz-adv-x="798" 
d="M307 1290q0 -53 -34.5 -88t-88 -35t-88.5 35t-35 88t35 88t88.5 35t88 -35t34.5 -88zM737 1290q0 -53 -34.5 -88t-88 -35t-88 35t-34.5 88t34.5 88t88 35t88 -35t34.5 -88z" />
    <glyph glyph-name="copyright" unicode="&#xa9;" horiz-adv-x="1843" 
d="M1516 717q0 246 -174.5 420t-420 174t-419.5 -174t-174 -420t174 -420t419.5 -174t420 174t174.5 420zM1679 717q0 -309 -218 -523t-539.5 -214t-539.5 214t-218 523t218 523t539.5 214t539.5 -214t218 -523zM686 716.5q0 -100.5 72.5 -173t173.5 -72.5q63 0 117.5 30.5
t76.5 61.5l21 31l102 -102q-4 -6 -12 -17.5t-38 -40t-63.5 -50.5t-89 -39t-114.5 -17q-168 0 -284 113.5t-116 275.5t116 275.5t284 113.5q96 0 173 -39t105 -76l29 -39l-102 -102q-6 12 -20.5 30.5t-68 50.5t-116.5 32q-100 0 -173 -73t-73 -173.5z" />
    <glyph glyph-name="ordfeminine" unicode="&#xaa;" horiz-adv-x="696" 
d="M276 829q-98 0 -151 48.5t-53 126.5q0 70 52 120t142 64l205 31q0 47 -35 79.5t-88 32.5q-45 0 -84 -20.5t-55 -40.5l-14 -21l-93 82q2 4 8.5 13.5t28 30t48 36.5t69.5 29.5t92 13.5q115 0 180.5 -63.5t65.5 -171.5v-369h-123v72q-6 -10 -20.5 -25.5t-65 -41.5
t-109.5 -26zM471 1116l-184 -31q-37 -8 -59.5 -28.5t-22.5 -44.5q0 -70 102 -70q61 0 112.5 51t51.5 113v10z" />
    <glyph glyph-name="guillemotleft" unicode="&#xab;" horiz-adv-x="1024" 
d="M532 840l-245 -348l245 -349h-204l-246 349l246 348h204zM942 840l-246 -348l246 -349h-205l-245 349l245 348h205z" />
    <glyph glyph-name="logicalnot" unicode="&#xac;" horiz-adv-x="962" 
d="M881 819v-471h-205v287h-594v184h799z" />
    <glyph glyph-name="uni00AD" unicode="&#xad;" horiz-adv-x="880" 
d="M799 696v-184h-717v184h717z" />
    <glyph glyph-name="registered" unicode="&#xae;" horiz-adv-x="1843" 
d="M1085 655l175 -317h-164l-154 287h-133v-287h-154v758h318q106 0 181 -73t75 -173q0 -63 -36 -112.5t-71 -65.5zM809 952v-184h164q45 0 73.5 26.5t28.5 65.5t-28.5 65.5t-73.5 26.5h-164zM1516 717q0 246 -174.5 420t-420 174t-419.5 -174t-174 -420t174 -420
t419.5 -174t420 174t174.5 420zM1679 717q0 -309 -218 -523t-539.5 -214t-539.5 214t-218 523t218 523t539.5 214t539.5 -214t218 -523z" />
    <glyph glyph-name="macron" unicode="&#xaf;" horiz-adv-x="757" 
d="M696 1434v-144h-635v144h635z" />
    <glyph glyph-name="degree" unicode="&#xb0;" horiz-adv-x="757" 
d="M676 1167.5q0 -116.5 -87 -201.5t-210 -85t-210 85t-87 201.5t87 201.5t210 85t210 -85t87 -201.5zM236 1167.5q0 -67.5 40.5 -110.5t102 -43t102.5 43t41 110.5t-41 110.5t-102.5 43t-102 -43t-40.5 -110.5z" />
    <glyph glyph-name="plusminus" unicode="&#xb1;" horiz-adv-x="1075" 
d="M625 317h-174v369h-369v184h369v369h174v-369h368v-184h-368v-369zM82 0v184h911v-184h-911z" />
    <glyph glyph-name="uni00B2" unicode="&#xb2;" horiz-adv-x="655" 
d="M573 1423q0 -86 -56 -149.5t-144 -119.5t-117 -89h317v-143h-491v20q0 86 36 151.5t87 104.5t102 72t87 70.5t36 82.5q0 39 -28.5 66t-73.5 27q-37 0 -68 -26t-43 -52l-12 -25l-123 41q2 8 6 21.5t21.5 46t42 58.5t71.5 47.5t105 21.5q115 0 180 -63t65 -163z" />
    <glyph glyph-name="uni00B3" unicode="&#xb3;" horiz-adv-x="675" 
d="M481 1311q12 -6 30.5 -17.5t50.5 -56.5t32 -100q0 -94 -74 -160t-192 -66q-86 0 -152.5 34t-89.5 67l-25 32l93 93q6 -10 19 -25.5t59.5 -41.5t95.5 -26q59 0 91 26t32 67t-32 66.5t-91 25.5h-82v143h71q102 0 102.5 72t-102.5 72q-37 0 -72.5 -20.5t-51.5 -41.5l-19 -20
l-92 92q4 4 10 13t28.5 29.5t47.5 37t65.5 30t83.5 13.5q113 0 179.5 -58.5t66.5 -146.5q0 -41 -20.5 -75t-40.5 -46z" />
    <glyph glyph-name="acute" unicode="&#xb4;" horiz-adv-x="491" 
d="M61 1147l154 287h215l-215 -287h-154z" />
    <glyph glyph-name="mu" unicode="&#xb5;" 
d="M133 -430v1413h205v-573q0 -106 65.5 -176t159.5 -70q111 0 178.5 75.5t67.5 211.5v532h205v-758q0 -82 82 -82l41 11v-164q-31 -10 -72 -10q-86 0 -142.5 38.5t-70.5 75.5l-12 39q-4 -6 -11.5 -16.5t-36 -37t-61.5 -47t-89 -36.5t-120 -16q-45 0 -91 15t-71 30l-22 16
v-471h-205z" />
    <glyph glyph-name="paragraph" unicode="&#xb6;" horiz-adv-x="1167" 
d="M430 -205v942q-139 0 -243.5 104.5t-104.5 244t104.5 244t243.5 104.5h574v-1639h-185v1454h-205v-1454h-184z" />
    <glyph glyph-name="periodcentered" unicode="&#xb7;" horiz-adv-x="409" 
d="M338 512q0 -53 -40 -93t-93 -40t-93 40t-40 93t40 93t93 40t93 -40t40 -93z" />
    <glyph glyph-name="cedilla" unicode="&#xb8;" horiz-adv-x="522" 
d="M246 41h123l-82 -154q6 0 18 -1t42 -9t53.5 -22.5t42 -46t18.5 -74.5q0 -72 -54.5 -118t-150.5 -46q-55 0 -103.5 20.5t-70.5 40.5l-21 21l52 82q61 -51 143 -51q37 0 59.5 18t22.5 43t-22.5 43t-59.5 18q-14 0 -29.5 -5t-23.5 -9l-8 -6l-41 51z" />
    <glyph glyph-name="uni00B9" unicode="&#xb9;" horiz-adv-x="450" 
d="M215 1638h113v-716h-144v512h-123v112h21q49 0 87 28.5t46 63.5z" />
    <glyph glyph-name="ordmasculine" unicode="&#xba;" horiz-adv-x="757" 
d="M696 1137q0 -131 -93 -224.5t-224 -93.5t-224.5 93.5t-93.5 224.5t93.5 224t224.5 93t224 -93t93 -224zM553 1136.5q0 75.5 -52 130t-122 54.5t-122 -54.5t-52 -130t52 -130t122 -54.5t122 54.5t52 130z" />
    <glyph glyph-name="guillemotright" unicode="&#xbb;" horiz-adv-x="1024" 
d="M737 492l-245 348h204l246 -348l-246 -349h-204zM328 492l-246 348h205l245 -348l-245 -349h-205z" />
    <glyph glyph-name="onequarter" unicode="&#xbc;" horiz-adv-x="1361" 
d="M236 1434h112v-717h-143v512h-123v112h20q49 0 87.5 29t46.5 64zM123 0l881 1434h184l-881 -1434h-184zM1219 717v-430h81v-144h-81v-143h-144v143h-327v144l307 430h164zM901 287h174v245z" />
    <glyph glyph-name="onehalf" unicode="&#xbd;" horiz-adv-x="1433" 
d="M236 1434h112v-717h-143v512h-123v112h20q49 0 87.5 29t46.5 64zM123 0l881 1434h184l-881 -1434h-184zM1352 502q0 -86 -56.5 -149.5t-144.5 -120t-117 -89.5h318v-143h-492v20q0 86 36 152t87 104.5t102.5 71.5t87 71t35.5 83q0 39 -28.5 65.5t-73.5 26.5
q-37 0 -67.5 -25.5t-43.5 -52.5l-12 -24l-123 40q2 8 6 21.5t21.5 46.5t42 58.5t72 47t104.5 21.5q115 0 180.5 -62.5t65.5 -162.5z" />
    <glyph glyph-name="threequarters" unicode="&#xbe;" horiz-adv-x="1495" 
d="M481 1106q12 -6 30.5 -17.5t50.5 -56.5t32 -100q0 -94 -74 -159.5t-192 -65.5q-86 0 -152.5 33.5t-89.5 66.5l-25 33l93 92q6 -10 19 -25.5t59.5 -41t95.5 -25.5q59 0 91 25.5t32 66.5t-32 66.5t-91 25.5h-82v143h71q102 0 102.5 72t-102.5 72q-37 0 -72.5 -20.5
t-51.5 -41.5l-19 -20l-92 92q4 4 10 13t28.5 29.5t47.5 37t65.5 30t83.5 13.5q113 0 179.5 -58.5t66.5 -146.5q0 -41 -20.5 -75t-40.5 -46zM256 0l881 1434h184l-881 -1434h-184zM1352 717v-430h82v-144h-82v-143h-144v143h-327v144l307 430h164zM1034 287h174v245z" />
    <glyph glyph-name="questiondown" unicode="&#xbf;" horiz-adv-x="931" 
d="M655 512q0 -84 -37.5 -150.5t-92 -107.5t-109 -81t-92 -93t-37.5 -121q0 -86 65.5 -145.5t169.5 -59.5q66 0 120 21.5t84 51.5t49.5 59.5t27.5 52.5l6 20l184 -72q-4 -14 -11 -36.5t-43 -81t-83 -102.5t-136 -81t-198 -37q-201 0 -331 115t-130 275q0 90 30 160.5
t74 109.5t96 79t96 73.5t74 91t30 131.5v20h184q10 -51 10 -92zM686 870.5q0 -53.5 -40 -93.5t-93 -40t-93 40t-40 93.5t40 93.5t93 40t93 -40t40 -93.5z" />
    <glyph glyph-name="Agrave" unicode="&#xc0;" horiz-adv-x="1495" 
d="M41 0l594 1434h225l594 -1434h-235l-154 379h-635l-154 -379h-235zM748 1178l-236 -594h471zM666 1905l153 -287h-153l-215 287h215z" />
    <glyph glyph-name="Aacute" unicode="&#xc1;" horiz-adv-x="1495" 
d="M41 0l594 1434h225l594 -1434h-235l-154 379h-635l-154 -379h-235zM748 1178l-236 -594h471zM676 1618l153 287h215l-215 -287h-153z" />
    <glyph glyph-name="Acircumflex" unicode="&#xc2;" horiz-adv-x="1495" 
d="M41 0l594 1434h225l594 -1434h-235l-154 379h-635l-154 -379h-235zM748 1178l-236 -594h471zM850 1905l225 -287h-184l-143 184l-144 -184h-184l225 287h205z" />
    <glyph glyph-name="Atilde" unicode="&#xc3;" horiz-adv-x="1495" 
d="M41 0l594 1434h225l594 -1434h-235l-154 379h-635l-154 -379h-235zM748 1178l-236 -594h471zM885 1618q-61 0 -110.5 30.5t-89.5 61.5t-77 31q-82 0 -82 -123h-133q0 266 215 266q61 0 110.5 -30.5t89.5 -61.5t77 -31q82 0 82 123h133q0 -266 -215 -266z" />
    <glyph glyph-name="Adieresis" unicode="&#xc4;" horiz-adv-x="1495" 
d="M41 0l594 1434h225l594 -1434h-235l-154 379h-635l-154 -379h-235zM748 1178l-236 -594h471zM655 1741q0 -53 -34.5 -88t-88 -35t-88 35t-34.5 88t34.5 88t88 35t88 -35t34.5 -88zM1085 1741q0 -53 -34.5 -88t-88 -35t-88 35t-34.5 88t34.5 88t88 35t88 -35t34.5 -88z
" />
    <glyph glyph-name="Aring" unicode="&#xc5;" horiz-adv-x="1495" 
d="M41 0l594 1434h225l594 -1434h-235l-154 379h-635l-154 -379h-235zM748 1178l-236 -594h471zM952 1761q0 -84 -60.5 -144.5t-144 -60.5t-144 60.5t-60.5 144.5t60.5 144.5t144 60.5t144 -60.5t60.5 -144.5zM829 1761q0 37 -25.5 64.5t-56 27.5t-56 -27.5t-25.5 -64.5
t25.5 -64.5t56 -27.5t56 27.5t25.5 64.5z" />
    <glyph glyph-name="AE" unicode="&#xc6;" horiz-adv-x="2017" 
d="M-41 0l799 1434h1136v-205h-706v-379h543v-205h-543v-440h727v-205h-952v389h-543l-215 -389h-246zM881 1229l-349 -635h431v635h-82z" />
    <glyph glyph-name="Ccedilla" unicode="&#xc7;" horiz-adv-x="1556" 
d="M881 1454q109 0 209 -28.5t165.5 -69.5t114.5 -81t72 -69l22 -28l-143 -144q-6 8 -17.5 22.5t-52.5 52.5t-88 65.5t-122.5 51t-159.5 23.5q-223 0 -378 -154.5t-155 -377.5t154.5 -378t378.5 -155q84 0 160.5 23.5t127 56.5t89 65.5t57.5 55.5l16 25l144 -144
q-8 -10 -23.5 -28.5t-69 -66.5t-114 -85t-157.5 -68.5t-202 -35.5l-49 -95q6 0 18.5 -1t42 -9t53 -22.5t42 -46t18.5 -74.5q0 -72 -54 -118t-151 -46q-55 0 -103 20.5t-71 40.5l-20 21l51 82q61 -51 143 -51q37 0 59.5 18t22.5 43t-22.5 43t-59.5 18q-14 0 -29.5 -5
t-23.5 -9l-8 -6l-41 51l66 148q-289 31 -479.5 238.5t-190.5 494.5q0 309 218 523t540 214z" />
    <glyph glyph-name="Egrave" unicode="&#xc8;" horiz-adv-x="1341" 
d="M430 205h809v-205h-1034v1434h1014v-205h-789v-379h625v-205h-625v-440zM666 1905l153 -287h-153l-215 287h215z" />
    <glyph glyph-name="Eacute" unicode="&#xc9;" horiz-adv-x="1341" 
d="M430 205h809v-205h-1034v1434h1014v-205h-789v-379h625v-205h-625v-440zM635 1618l153 287h216l-216 -287h-153z" />
    <glyph glyph-name="Ecircumflex" unicode="&#xca;" horiz-adv-x="1341" 
d="M430 205h809v-205h-1034v1434h1014v-205h-789v-379h625v-205h-625v-440zM819 1905l225 -287h-184l-143 184l-144 -184h-184l225 287h205z" />
    <glyph glyph-name="Edieresis" unicode="&#xcb;" horiz-adv-x="1341" 
d="M430 205h809v-205h-1034v1434h1014v-205h-789v-379h625v-205h-625v-440zM635 1741q0 -53 -35 -88t-88 -35t-88 35t-35 88t35 88t88 35t88 -35t35 -88zM1065 1741q0 -53 -35 -88t-88 -35t-88 35t-35 88t35 88t88 35t88 -35t35 -88z" />
    <glyph glyph-name="Igrave" unicode="&#xcc;" horiz-adv-x="634" 
d="M205 0v1434h225v-1434h-225zM236 1905l153 -287h-153l-216 287h216z" />
    <glyph glyph-name="Iacute" unicode="&#xcd;" horiz-adv-x="634" 
d="M205 0v1434h225v-1434h-225zM246 1618l153 287h215l-215 -287h-153z" />
    <glyph glyph-name="Icircumflex" unicode="&#xce;" horiz-adv-x="634" 
d="M205 0v1434h225v-1434h-225zM420 1905l225 -287h-184l-144 184l-143 -184h-184l225 287h205z" />
    <glyph glyph-name="Idieresis" unicode="&#xcf;" horiz-adv-x="634" 
d="M205 0v1434h225v-1434h-225zM225 1741q0 -53 -34.5 -88t-88 -35t-88 35t-34.5 88t34.5 88t88 35t88 -35t34.5 -88zM655 1741q0 -53 -34.5 -88t-88 -35t-88 35t-34.5 88t34.5 88t88 35t88 -35t34.5 -88z" />
    <glyph glyph-name="Eth" unicode="&#xd0;" horiz-adv-x="1607" 
d="M61 614v205h195v615h502q299 0 513 -212t214 -505t-214 -505t-513 -212h-502v614h-195zM758 1229h-277v-410h318v-205h-318v-409h277q209 0 355.5 148.5t146.5 363.5t-146.5 363.5t-355.5 148.5z" />
    <glyph glyph-name="Ntilde" unicode="&#xd1;" horiz-adv-x="1628" 
d="M1198 1434h225v-1434h-194l-799 1034v-1034h-225v1434h194l799 -1035v1035zM952 1618q-61 0 -110 30.5t-89 61.5t-77 31q-82 0 -82 -123h-133q0 266 215 266q61 0 110.5 -30.5t89 -61.5t76.5 -31q82 0 82 123h133q0 -266 -215 -266z" />
    <glyph glyph-name="Ograve" unicode="&#xd2;" horiz-adv-x="1761" 
d="M348 717q0 -223 154.5 -378t378 -155t378 155t154.5 378t-154.5 377.5t-378 154.5t-378 -154.5t-154.5 -377.5zM123 717q0 309 218 523t539.5 214t539.5 -214t218 -523t-218 -523t-539.5 -214t-539.5 214t-218 523zM819 1905l154 -287h-154l-215 287h215z" />
    <glyph glyph-name="Oacute" unicode="&#xd3;" horiz-adv-x="1761" 
d="M348 717q0 -223 154.5 -378t378 -155t378 155t154.5 378t-154.5 377.5t-378 154.5t-378 -154.5t-154.5 -377.5zM123 717q0 309 218 523t539.5 214t539.5 -214t218 -523t-218 -523t-539.5 -214t-539.5 214t-218 523zM827 1618l154 287h215l-215 -287h-154z" />
    <glyph glyph-name="Ocircumflex" unicode="&#xd4;" horiz-adv-x="1761" 
d="M348 717q0 -223 154.5 -378t378 -155t378 155t154.5 378t-154.5 377.5t-378 154.5t-378 -154.5t-154.5 -377.5zM123 717q0 309 218 523t539.5 214t539.5 -214t218 -523t-218 -523t-539.5 -214t-539.5 214t-218 523zM983 1905l225 -287h-184l-143 184l-144 -184h-184
l225 287h205z" />
    <glyph glyph-name="Otilde" unicode="&#xd5;" horiz-adv-x="1761" 
d="M348 717q0 -223 154.5 -378t378 -155t378 155t154.5 378t-154.5 377.5t-378 154.5t-378 -154.5t-154.5 -377.5zM123 717q0 309 218 523t539.5 214t539.5 -214t218 -523t-218 -523t-539.5 -214t-539.5 214t-218 523zM1034 1618q-61 0 -110.5 30.5t-89 61.5t-76.5 31
q-82 0 -82 -123h-133q0 266 215 266q61 0 110.5 -30.5t89 -61.5t76.5 -31q82 0 82 123h133q0 -266 -215 -266z" />
    <glyph glyph-name="Odieresis" unicode="&#xd6;" horiz-adv-x="1761" 
d="M348 717q0 -223 154.5 -378t378 -155t378 155t154.5 378t-154.5 377.5t-378 154.5t-378 -154.5t-154.5 -377.5zM123 717q0 309 218 523t539.5 214t539.5 -214t218 -523t-218 -523t-539.5 -214t-539.5 214t-218 523zM788 1741q0 -53 -34.5 -88t-88 -35t-88 35t-34.5 88
t34.5 88t88 35t88 -35t34.5 -88zM1219 1741q0 -53 -35 -88t-88.5 -35t-88 35t-34.5 88t34.5 88t88 35t88.5 -35t35 -88z" />
    <glyph glyph-name="multiply" unicode="&#xd7;" horiz-adv-x="962" 
d="M369 635l-287 287l113 112l286 -286l287 286l113 -112l-287 -287l287 -287l-113 -112l-287 286l-286 -286l-113 112z" />
    <glyph glyph-name="Oslash" unicode="&#xd8;" horiz-adv-x="1761" 
d="M123 717q0 309 218 523t540 214q256 0 456 -145l189 186l133 -143l-180 -178q160 -199 159 -457q0 -309 -218 -523t-539 -214q-258 0 -459 145l-186 -186l-134 143l179 178q-158 197 -158 457zM1413 717q0 164 -92 299l-746 -740q133 -92 306 -92q223 0 377.5 155
t154.5 378zM348 717q0 -166 90 -301l746 739q-137 94 -303 94q-223 0 -378 -154.5t-155 -377.5z" />
    <glyph glyph-name="Ugrave" unicode="&#xd9;" horiz-adv-x="1576" 
d="M788.5 184q153.5 0 266 115t112.5 274v861h226v-861q0 -246 -176.5 -419.5t-428 -173.5t-428 174t-176.5 419v861h226v-861q0 -160 112.5 -274.5t266 -114.5zM748 1905l153 -287h-153l-216 287h216z" />
    <glyph glyph-name="Uacute" unicode="&#xda;" horiz-adv-x="1576" 
d="M788.5 184q153.5 0 266 115t112.5 274v861h226v-861q0 -246 -176.5 -419.5t-428 -173.5t-428 174t-176.5 419v861h226v-861q0 -160 112.5 -274.5t266 -114.5zM696 1618l154 287h215l-215 -287h-154z" />
    <glyph glyph-name="Ucircumflex" unicode="&#xdb;" horiz-adv-x="1576" 
d="M788.5 184q153.5 0 266 115t112.5 274v861h226v-861q0 -246 -176.5 -419.5t-428 -173.5t-428 174t-176.5 419v861h226v-861q0 -160 112.5 -274.5t266 -114.5zM891 1905l225 -287h-184l-144 184l-143 -184h-184l225 287h205z" />
    <glyph glyph-name="Udieresis" unicode="&#xdc;" horiz-adv-x="1576" 
d="M788.5 184q153.5 0 266 115t112.5 274v861h226v-861q0 -246 -176.5 -419.5t-428 -173.5t-428 174t-176.5 419v861h226v-861q0 -160 112.5 -274.5t266 -114.5zM696 1741q0 -53 -34.5 -88t-88 -35t-88 35t-34.5 88t34.5 88t88 35t88 -35t34.5 -88zM1126 1741
q0 -53 -34.5 -88t-88 -35t-88 35t-34.5 88t34.5 88t88 35t88 -35t34.5 -88z" />
    <glyph glyph-name="Yacute" unicode="&#xdd;" horiz-adv-x="1351" 
d="M287 1434l389 -686l389 686h246l-523 -922v-512h-225v512l-522 922h246zM604 1618l154 287h215l-215 -287h-154z" />
    <glyph glyph-name="Thorn" unicode="&#xde;" horiz-adv-x="1361" 
d="M430 1116v-758h164q197 0 308.5 103.5t111.5 275.5t-111.5 275.5t-308.5 103.5h-164zM430 1321h164q279 0 462 -171t183 -412.5t-183.5 -412.5t-461.5 -171h-164v-195h-225v1516h225v-154z" />
    <glyph glyph-name="germandbls" unicode="&#xdf;" horiz-adv-x="1228" 
d="M870 799q10 -4 26.5 -12.5t58.5 -41t75 -70.5t59.5 -104.5t26.5 -140.5q0 -186 -126 -308t-324 -122h-103v205h103q106 0 175.5 65.5t69.5 159.5t-69.5 159.5t-175.5 65.5h-103v205h21q98 0 161.5 59.5t63.5 145.5t-63.5 145.5t-161.5 59.5q-100 0 -163 -62.5t-63 -163.5
v-1044h-204v1044q0 178 119.5 294t310.5 116q188 0 309 -112.5t121 -276.5q0 -82 -36 -148.5t-73 -93.5z" />
    <glyph glyph-name="agrave" unicode="&#xe0;" horiz-adv-x="1075" 
d="M922 0h-205v102q-4 -4 -13.5 -13t-38 -29.5t-61.5 -37t-83 -29.5t-101 -13q-150 0 -249 87t-99 199q0 121 76.5 203t209.5 104l359 62q0 78 -57.5 131t-147.5 53q-78 0 -141.5 -32.5t-87.5 -65.5l-27 -35l-133 133q6 8 16.5 20.5t47 44t77.5 56.5t108.5 44.5t139.5 19.5
q180 0 295 -106.5t115 -262.5v-635zM451 164q125 0 195.5 74.5t70.5 212.5v20l-318 -51q-55 -10 -89 -45t-34 -88q0 -49 47.5 -86t127.5 -37zM471 1434l154 -287h-154l-215 287h215z" />
    <glyph glyph-name="aacute" unicode="&#xe1;" horiz-adv-x="1075" 
d="M922 0h-205v102q-4 -4 -13.5 -13t-38 -29.5t-61.5 -37t-83 -29.5t-101 -13q-150 0 -249 87t-99 199q0 121 76.5 203t209.5 104l359 62q0 78 -57.5 131t-147.5 53q-78 0 -141.5 -32.5t-87.5 -65.5l-27 -35l-133 133q6 8 16.5 20.5t47 44t77.5 56.5t108.5 44.5t139.5 19.5
q180 0 295 -106.5t115 -262.5v-635zM451 164q125 0 195.5 74.5t70.5 212.5v20l-318 -51q-55 -10 -89 -45t-34 -88q0 -49 47.5 -86t127.5 -37zM471 1147l154 287h215l-215 -287h-154z" />
    <glyph glyph-name="acircumflex" unicode="&#xe2;" horiz-adv-x="1075" 
d="M922 0h-205v102q-4 -4 -13.5 -13t-38 -29.5t-61.5 -37t-83 -29.5t-101 -13q-150 0 -249 87t-99 199q0 121 76.5 203t209.5 104l359 62q0 78 -57.5 131t-147.5 53q-78 0 -141.5 -32.5t-87.5 -65.5l-27 -35l-133 133q6 8 16.5 20.5t47 44t77.5 56.5t108.5 44.5t139.5 19.5
q180 0 295 -106.5t115 -262.5v-635zM451 164q125 0 195.5 74.5t70.5 212.5v20l-318 -51q-55 -10 -89 -45t-34 -88q0 -49 47.5 -86t127.5 -37zM666 1434l225 -287h-184l-144 184l-143 -184h-184l225 287h205z" />
    <glyph glyph-name="atilde" unicode="&#xe3;" horiz-adv-x="1075" 
d="M922 0h-205v102q-4 -4 -13.5 -13t-38 -29.5t-61.5 -37t-83 -29.5t-101 -13q-150 0 -249 87t-99 199q0 121 76.5 203t209.5 104l359 62q0 78 -57.5 131t-147.5 53q-78 0 -141.5 -32.5t-87.5 -65.5l-27 -35l-133 133q6 8 16.5 20.5t47 44t77.5 56.5t108.5 44.5t139.5 19.5
q180 0 295 -106.5t115 -262.5v-635zM451 164q125 0 195.5 74.5t70.5 212.5v20l-318 -51q-55 -10 -89 -45t-34 -88q0 -49 47.5 -86t127.5 -37zM696 1147q-61 0 -110 30.5t-89 61.5t-77 31q-82 0 -82 -123h-133q0 266 215 266q61 0 110.5 -30.5t89 -61.5t76.5 -31q82 0 82 123
h133q0 -266 -215 -266z" />
    <glyph glyph-name="adieresis" unicode="&#xe4;" horiz-adv-x="1075" 
d="M922 0h-205v102q-4 -4 -13.5 -13t-38 -29.5t-61.5 -37t-83 -29.5t-101 -13q-150 0 -249 87t-99 199q0 121 76.5 203t209.5 104l359 62q0 78 -57.5 131t-147.5 53q-78 0 -141.5 -32.5t-87.5 -65.5l-27 -35l-133 133q6 8 16.5 20.5t47 44t77.5 56.5t108.5 44.5t139.5 19.5
q180 0 295 -106.5t115 -262.5v-635zM451 164q125 0 195.5 74.5t70.5 212.5v20l-318 -51q-55 -10 -89 -45t-34 -88q0 -49 47.5 -86t127.5 -37zM471 1270q0 -53 -35 -88t-88 -35t-88 35t-35 88t35 88t88 35t88 -35t35 -88zM901 1270q0 -53 -35 -88t-88 -35t-88 35t-35 88
t35 88t88 35t88 -35t35 -88z" />
    <glyph glyph-name="aring" unicode="&#xe5;" horiz-adv-x="1075" 
d="M922 0h-205v102q-4 -4 -13.5 -13t-38 -29.5t-61.5 -37t-83 -29.5t-101 -13q-150 0 -249 87t-99 199q0 121 76.5 203t209.5 104l359 62q0 78 -57.5 131t-147.5 53q-78 0 -141.5 -32.5t-87.5 -65.5l-27 -35l-133 133q6 8 16.5 20.5t47 44t77.5 56.5t108.5 44.5t139.5 19.5
q180 0 295 -106.5t115 -262.5v-635zM451 164q125 0 195.5 74.5t70.5 212.5v20l-318 -51q-55 -10 -89 -45t-34 -88q0 -49 47.5 -86t127.5 -37zM748 1311q0 -84 -60.5 -144.5t-144.5 -60.5t-144.5 60.5t-60.5 144.5t60.5 144.5t144.5 60.5t144.5 -60.5t60.5 -144.5zM625 1311
q0 37 -26 64.5t-56.5 27.5t-56 -27.5t-25.5 -64.5t25.5 -64.5t56 -27.5t56.5 27.5t26 64.5z" />
    <glyph glyph-name="ae" unicode="&#xe6;" horiz-adv-x="1812" 
d="M532 1004q59 0 116 -16.5t93.5 -41t64.5 -49.5t42 -41l12 -16q6 6 16.5 17t46 40t76.5 50.5t105.5 39t134.5 17.5q207 0 344 -137.5t137 -344.5l-10 -102h-768q16 -104 102 -180t205 -76q86 0 161 39t106 76l30 38l133 -133q-6 -8 -18 -22.5t-53 -49t-87 -61t-120 -49
t-152 -22.5q-74 0 -143.5 21.5t-115.5 51t-82 59t-52 52.5l-16 20q-6 -8 -16.5 -22.5t-48.5 -49t-82 -61t-114.5 -49t-148.5 -22.5q-158 0 -258 90t-100 217q0 131 112.5 219t317.5 88h235q0 106 -55 165.5t-150 59.5q-78 0 -141 -32.5t-88 -65.5l-27 -35l-133 133
q6 8 16.5 20.5t47.5 44t78 56.5t108 44.5t139 19.5zM1239 829q-111 0 -186.5 -65.5t-102.5 -169.5h570q-18 104 -93 169.5t-188 65.5zM451 164q121 0 203.5 79t82.5 187h-235q-109 0 -167.5 -42t-58.5 -101q0 -49 47.5 -86t127.5 -37z" />
    <glyph glyph-name="ccedilla" unicode="&#xe7;" horiz-adv-x="1064" 
d="M72 492q0 207 152.5 359.5t359.5 152.5q115 0 214 -49.5t142 -98.5l43 -47l-133 -133q-10 16 -30.5 39.5t-89 63.5t-146.5 40q-125 0 -216.5 -95t-91.5 -232.5t91.5 -232.5t216.5 -95q78 0 146.5 39t98.5 76l31 38l133 -133q-6 -8 -16 -20t-47 -45t-77 -58.5t-102.5 -49
t-127.5 -29.5l-50 -95q6 0 18.5 -1t42.5 -9t53.5 -22.5t42 -46t18.5 -74.5q0 -72 -54.5 -118t-150.5 -46q-55 0 -103.5 20.5t-70.5 40.5l-21 21l51 82q61 -51 144 -51q37 0 59.5 18t22.5 43t-22.5 43t-59.5 18q-14 0 -29.5 -5t-24.5 -9l-8 -6l-41 51l68 150
q-184 29 -310 173.5t-126 332.5z" />
    <glyph glyph-name="egrave" unicode="&#xe8;" horiz-adv-x="1146" 
d="M1044 420h-768q16 -104 102.5 -180t205.5 -76q86 0 160.5 39t105.5 76l31 38l133 -133q-6 -8 -18.5 -22.5t-53.5 -49t-87 -61t-119.5 -49t-151.5 -22.5q-209 0 -360.5 153.5t-151.5 368.5q0 207 147.5 354.5t354 147.5t344 -137.5t137.5 -344.5zM573 829
q-111 0 -186.5 -65.5t-101.5 -169.5h569q-18 104 -93 169.5t-188 65.5zM532 1434l154 -287h-154l-215 287h215z" />
    <glyph glyph-name="eacute" unicode="&#xe9;" horiz-adv-x="1146" 
d="M1044 420h-768q16 -104 102.5 -180t205.5 -76q86 0 160.5 39t105.5 76l31 38l133 -133q-6 -8 -18.5 -22.5t-53.5 -49t-87 -61t-119.5 -49t-151.5 -22.5q-209 0 -360.5 153.5t-151.5 368.5q0 207 147.5 354.5t354 147.5t344 -137.5t137.5 -344.5zM573 829
q-111 0 -186.5 -65.5t-101.5 -169.5h569q-18 104 -93 169.5t-188 65.5zM512 1147l154 287h215l-215 -287h-154z" />
    <glyph glyph-name="ecircumflex" unicode="&#xea;" horiz-adv-x="1146" 
d="M1044 420h-768q16 -104 102.5 -180t205.5 -76q86 0 160.5 39t105.5 76l31 38l133 -133q-6 -8 -18.5 -22.5t-53.5 -49t-87 -61t-119.5 -49t-151.5 -22.5q-209 0 -360.5 153.5t-151.5 368.5q0 207 147.5 354.5t354 147.5t344 -137.5t137.5 -344.5zM573 829
q-111 0 -186.5 -65.5t-101.5 -169.5h569q-18 104 -93 169.5t-188 65.5zM686 1434l225 -287h-184l-143 184l-144 -184h-184l225 287h205z" />
    <glyph glyph-name="edieresis" unicode="&#xeb;" horiz-adv-x="1146" 
d="M1044 420h-768q16 -104 102.5 -180t205.5 -76q86 0 160.5 39t105.5 76l31 38l133 -133q-6 -8 -18.5 -22.5t-53.5 -49t-87 -61t-119.5 -49t-151.5 -22.5q-209 0 -360.5 153.5t-151.5 368.5q0 207 147.5 354.5t354 147.5t344 -137.5t137.5 -344.5zM573 829
q-111 0 -186.5 -65.5t-101.5 -169.5h569q-18 104 -93 169.5t-188 65.5zM492 1270q0 -53 -35 -88t-88.5 -35t-88 35t-34.5 88t34.5 88t88 35t88.5 -35t35 -88zM922 1270q0 -53 -35 -88t-88.5 -35t-88 35t-34.5 88t34.5 88t88 35t88.5 -35t35 -88z" />
    <glyph glyph-name="igrave" unicode="&#xec;" horiz-adv-x="491" 
d="M338 983v-983h-205v983h205zM164 1434l153 -287h-153l-215 287h215z" />
    <glyph glyph-name="iacute" unicode="&#xed;" horiz-adv-x="491" 
d="M338 983v-983h-205v983h205zM154 1147l153 287h215l-215 -287h-153z" />
    <glyph glyph-name="icircumflex" unicode="&#xee;" horiz-adv-x="491" 
d="M338 983v-983h-205v983h205zM338 1434l225 -287h-184l-143 184l-144 -184h-184l225 287h205z" />
    <glyph glyph-name="idieresis" unicode="&#xef;" horiz-adv-x="491" 
d="M338 983v-983h-205v983h205zM143 1270q0 -53 -34.5 -88t-88 -35t-88 35t-34.5 88t34.5 88t88 35t88 -35t34.5 -88zM573 1270q0 -53 -34.5 -88t-88 -35t-88 35t-34.5 88t34.5 88t88 35t88 -35t34.5 -88z" />
    <glyph glyph-name="eth" unicode="&#xf0;" horiz-adv-x="1208" 
d="M870 829q-37 115 -103.5 212.5t-115.5 138.5l-47 39l-246 -175l-102 144l184 123q-102 61 -235 92l51 164q90 -23 175 -58.5t124 -60.5l39 -25l246 174l102 -143l-194 -133q14 -10 35.5 -28.5t78 -87t99.5 -149.5t78.5 -214t35.5 -279q0 -270 -142 -426.5t-370 -156.5
q-199 0 -345 145t-146 346q0 199 142 345.5t329 146.5q90 0 172 -33t119 -66zM850 471q0 129 -85 218t-202 89t-202 -89t-85 -218t85 -218t202 -89t202 89t85 218z" />
    <glyph glyph-name="ntilde" unicode="&#xf1;" 
d="M338 983v-102l13 13q9 9 38 29.5t61.5 37t83 30t101.5 13.5q178 0 288.5 -117t110.5 -314v-573h-205v573q0 106 -67.5 176t-167.5 70q-117 0 -186.5 -75.5t-69.5 -211.5v-532h-205v983h205zM737 1147q-61 0 -110 30.5t-89 61.5t-77 31q-82 0 -82 -123h-133q0 266 215 266
q61 0 110.5 -30.5t89 -61.5t76.5 -31q82 0 82 123h133q0 -266 -215 -266z" />
    <glyph glyph-name="ograve" unicode="&#xf2;" 
d="M891 491.5q0 137.5 -91 232.5t-216 95t-216.5 -95t-91.5 -232.5t91.5 -232.5t216.5 -95t216 95t91 232.5zM72 491.5q0 206.5 152.5 359.5t359.5 153t359.5 -153t152.5 -359.5t-152.5 -359t-359.5 -152.5t-359.5 152.5t-152.5 359zM512 1434l154 -287h-154l-215 287h215z
" />
    <glyph glyph-name="oacute" unicode="&#xf3;" 
d="M891 491.5q0 137.5 -91 232.5t-216 95t-216.5 -95t-91.5 -232.5t91.5 -232.5t216.5 -95t216 95t91 232.5zM72 491.5q0 206.5 152.5 359.5t359.5 153t359.5 -153t152.5 -359.5t-152.5 -359t-359.5 -152.5t-359.5 152.5t-152.5 359zM512 1147l154 287h215l-215 -287h-154z
" />
    <glyph glyph-name="ocircumflex" unicode="&#xf4;" 
d="M891 491.5q0 137.5 -91 232.5t-216 95t-216.5 -95t-91.5 -232.5t91.5 -232.5t216.5 -95t216 95t91 232.5zM72 491.5q0 206.5 152.5 359.5t359.5 153t359.5 -153t152.5 -359.5t-152.5 -359t-359.5 -152.5t-359.5 152.5t-152.5 359zM686 1434l225 -287h-184l-143 184
l-144 -184h-184l225 287h205z" />
    <glyph glyph-name="otilde" unicode="&#xf5;" 
d="M891 491.5q0 137.5 -91 232.5t-216 95t-216.5 -95t-91.5 -232.5t91.5 -232.5t216.5 -95t216 95t91 232.5zM72 491.5q0 206.5 152.5 359.5t359.5 153t359.5 -153t152.5 -359.5t-152.5 -359t-359.5 -152.5t-359.5 152.5t-152.5 359zM727 1147q-61 0 -110.5 30.5t-89.5 61.5
t-76 31q-82 0 -82 -123h-133q0 266 215 266q61 0 110 -30.5t89 -61.5t77 -31q82 0 82 123h133q0 -266 -215 -266z" />
    <glyph glyph-name="odieresis" unicode="&#xf6;" 
d="M891 491.5q0 137.5 -91 232.5t-216 95t-216.5 -95t-91.5 -232.5t91.5 -232.5t216.5 -95t216 95t91 232.5zM72 491.5q0 206.5 152.5 359.5t359.5 153t359.5 -153t152.5 -359.5t-152.5 -359t-359.5 -152.5t-359.5 152.5t-152.5 359zM492 1270q0 -53 -35 -88t-88.5 -35
t-88 35t-34.5 88t34.5 88t88 35t88.5 -35t35 -88zM922 1270q0 -53 -35 -88t-88.5 -35t-88 35t-34.5 88t34.5 88t88 35t88.5 -35t35 -88z" />
    <glyph glyph-name="divide" unicode="&#xf7;" horiz-adv-x="1064" 
d="M666 246q0 -53 -40 -93t-93.5 -40t-93.5 40t-40 93t40 93t93.5 40t93.5 -40t40 -93zM983 696v-184h-901v184h901zM666 962.5q0 -53.5 -40 -93.5t-93.5 -40t-93.5 40t-40 93.5t40 93.5t93.5 40t93.5 -40t40 -93.5z" />
    <glyph glyph-name="oslash" unicode="&#xf8;" horiz-adv-x="1208" 
d="M82 492q0 207 152.5 359.5t359.5 152.5q154 0 289 -93l131 133l123 -122l-129 -134q98 -135 98 -296q0 -207 -152.5 -359.5t-359.5 -152.5q-158 0 -289 92l-131 -133l-123 122l129 132q-98 137 -98 299zM287 492q0 -84 35 -154l426 436q-72 45 -154 45q-125 0 -216 -95
t-91 -232zM901 492q0 78 -37 151l-426 -434q74 -45 156 -45q125 0 216 95.5t91 232.5z" />
    <glyph glyph-name="ugrave" unicode="&#xf9;" horiz-adv-x="1198" 
d="M829 0v102l-13 -13q-9 -9 -37.5 -29.5t-61.5 -37t-83 -29.5t-102 -13q-178 0 -288.5 116.5t-110.5 313.5v573h205v-573q0 -106 67.5 -176t167.5 -70q117 0 186.5 75.5t69.5 211.5v532h205v-983h-205zM502 1434l153 -287h-153l-215 287h215z" />
    <glyph glyph-name="uacute" unicode="&#xfa;" horiz-adv-x="1198" 
d="M829 0v102l-13 -13q-9 -9 -37.5 -29.5t-61.5 -37t-83 -29.5t-102 -13q-178 0 -288.5 116.5t-110.5 313.5v573h205v-573q0 -106 67.5 -176t167.5 -70q117 0 186.5 75.5t69.5 211.5v532h205v-983h-205zM492 1147l153 287h215l-215 -287h-153z" />
    <glyph glyph-name="ucircumflex" unicode="&#xfb;" horiz-adv-x="1198" 
d="M829 0v102l-13 -13q-9 -9 -37.5 -29.5t-61.5 -37t-83 -29.5t-102 -13q-178 0 -288.5 116.5t-110.5 313.5v573h205v-573q0 -106 67.5 -176t167.5 -70q117 0 186.5 75.5t69.5 211.5v532h205v-983h-205zM686 1434l225 -287h-184l-143 184l-144 -184h-184l225 287h205z" />
    <glyph glyph-name="udieresis" unicode="&#xfc;" horiz-adv-x="1198" 
d="M829 0v102l-13 -13q-9 -9 -37.5 -29.5t-61.5 -37t-83 -29.5t-102 -13q-178 0 -288.5 116.5t-110.5 313.5v573h205v-573q0 -106 67.5 -176t167.5 -70q117 0 186.5 75.5t69.5 211.5v532h205v-983h-205zM492 1270q0 -53 -35 -88t-88.5 -35t-88 35t-34.5 88t34.5 88t88 35
t88.5 -35t35 -88zM922 1270q0 -53 -35 -88t-88.5 -35t-88 35t-34.5 88t34.5 88t88 35t88.5 -35t35 -88z" />
    <glyph glyph-name="yacute" unicode="&#xfd;" horiz-adv-x="1044" 
d="M369 -102l41 102l-400 983h215l287 -717l287 717h215l-441 -1085q-76 -182 -150.5 -255t-186.5 -73q-41 0 -77 5t-53 11l-14 4v185q51 -20 103 -21q117 1 174 144zM451 1147l153 287h215l-215 -287h-153z" />
    <glyph glyph-name="thorn" unicode="&#xfe;" horiz-adv-x="1249" 
d="M676 -20q-55 0 -107.5 13t-89.5 32.5t-65.5 40t-40.5 32.5l-15 15v-543h-204v1864h204v-564q14 14 40 37t109 60t169 37q195 0 338 -149.5t143 -362.5t-143 -362.5t-338 -149.5zM655.5 819q-116.5 0 -207 -96t-90.5 -231.5t90.5 -231.5t207 -96t206.5 96t90 231.5
t-90 231.5t-206.5 96z" />
    <glyph glyph-name="ydieresis" unicode="&#xff;" horiz-adv-x="1044" 
d="M369 -102l41 102l-400 983h215l287 -717l287 717h215l-441 -1085q-76 -182 -150.5 -255t-186.5 -73q-41 0 -77 5t-53 11l-14 4v185q51 -20 103 -21q117 1 174 144zM420 1270q0 -53 -35 -88t-88 -35t-88 35t-35 88t35 88t88 35t88 -35t35 -88zM850 1270q0 -53 -35 -88
t-88 -35t-88 35t-35 88t35 88t88 35t88 -35t35 -88z" />
    <glyph glyph-name="Amacron" unicode="&#x100;" horiz-adv-x="1495" 
d="M41 0l594 1434h225l594 -1434h-235l-154 379h-635l-154 -379h-235zM748 1178l-236 -594h471zM1065 1843v-143h-635v143h635z" />
    <glyph glyph-name="amacron" unicode="&#x101;" horiz-adv-x="1075" 
d="M922 0h-205v102q-4 -4 -13.5 -13t-38 -29.5t-61.5 -37t-83 -29.5t-101 -13q-150 0 -249 87t-99 199q0 121 76.5 203t209.5 104l359 62q0 78 -57.5 131t-147.5 53q-78 0 -141.5 -32.5t-87.5 -65.5l-27 -35l-133 133q6 8 16.5 20.5t47 44t77.5 56.5t108.5 44.5t139.5 19.5
q180 0 295 -106.5t115 -262.5v-635zM451 164q125 0 195.5 74.5t70.5 212.5v20l-318 -51q-55 -10 -89 -45t-34 -88q0 -49 47.5 -86t127.5 -37zM870 1393v-144h-634v144h634z" />
    <glyph glyph-name="Abreve" unicode="&#x102;" horiz-adv-x="1495" 
d="M41 0l594 1434h225l594 -1434h-235l-154 379h-635l-154 -379h-235zM748 1178l-236 -594h471zM747.5 1761q61.5 0 102.5 41t41 103h153q0 -123 -83.5 -205t-213 -82t-213 82t-83.5 205h153q0 -61 41 -102.5t102.5 -41.5z" />
    <glyph glyph-name="abreve" unicode="&#x103;" horiz-adv-x="1075" 
d="M922 0h-205v102q-4 -4 -13.5 -13t-38 -29.5t-61.5 -37t-83 -29.5t-101 -13q-150 0 -249 87t-99 199q0 121 76.5 203t209.5 104l359 62q0 78 -57.5 131t-147.5 53q-78 0 -141.5 -32.5t-87.5 -65.5l-27 -35l-133 133q6 8 16.5 20.5t47 44t77.5 56.5t108.5 44.5t139.5 19.5
q180 0 295 -106.5t115 -262.5v-635zM451 164q125 0 195.5 74.5t70.5 212.5v20l-318 -51q-55 -10 -89 -45t-34 -88q0 -49 47.5 -86t127.5 -37zM542.5 1290q61.5 0 102.5 41t41 103h154q0 -123 -84 -205t-213 -82t-213 82t-84 205h153q0 -61 41 -102.5t102.5 -41.5z" />
    <glyph glyph-name="Aogonek" unicode="&#x104;" horiz-adv-x="1495" 
d="M1219 0l-154 379h-635l-154 -379h-235l594 1434h225l594 -1434h-102q-82 -102 -82 -197q0 -37 28.5 -63.5t73.5 -26.5q27 0 55.5 5.5t42.5 11.5l15 4v-123q-72 -31 -154 -31q-92 0 -148.5 54.5t-56.5 140.5q0 55 22.5 111.5t47.5 84.5zM748 1178l-236 -594h471z" />
    <glyph glyph-name="aogonek" unicode="&#x105;" horiz-adv-x="1075" 
d="M717 0v102q-4 -4 -13.5 -13t-38 -29.5t-61.5 -37t-83 -29.5t-101 -13q-150 0 -249 87t-99 199q0 121 76.5 203t209.5 104l359 62q0 78 -57.5 131t-147.5 53q-78 0 -141.5 -32.5t-87.5 -65.5l-27 -35l-133 133q6 8 16.5 20.5t47 44t77.5 56.5t108.5 44.5t139.5 19.5
q180 0 295 -106.5t115 -262.5v-635h-72q-82 -102 -82 -197q0 -37 28.5 -63.5t73.5 -26.5q27 0 55.5 5.5t43.5 11.5l14 4v-123q-72 -31 -154 -31q-92 0 -148 54.5t-56 140.5q0 55 23.5 111.5t45.5 84.5zM451 164q125 0 195.5 74.5t70.5 212.5v20l-318 -51q-55 -10 -89 -45
t-34 -88q0 -49 47.5 -86t127.5 -37z" />
    <glyph glyph-name="Cacute" unicode="&#x106;" horiz-adv-x="1556" 
d="M881 1454q109 0 209 -28.5t165.5 -69.5t114.5 -81t72 -69l22 -28l-143 -144q-6 8 -17.5 22.5t-52.5 52.5t-88 65.5t-122.5 51t-159.5 23.5q-223 0 -378 -154.5t-155 -377.5t154.5 -378t378.5 -155q84 0 160.5 23.5t127 56.5t89 65.5t57.5 55.5l16 25l144 -144
q-8 -12 -24.5 -31.5t-73 -68.5t-120 -87t-166 -68.5t-210.5 -30.5q-322 0 -540 214t-218 523t218 523t540 214zM768 1618l154 287h215l-215 -287h-154z" />
    <glyph glyph-name="cacute" unicode="&#x107;" horiz-adv-x="1064" 
d="M72 491.5q0 206.5 152.5 359.5t359.5 153q115 0 214 -49.5t142 -98.5l43 -47l-133 -133q-10 16 -30.5 39.5t-89 63.5t-146.5 40q-125 0 -216.5 -95t-91.5 -232.5t91.5 -232.5t216.5 -95q78 0 146.5 39t98.5 76l31 38l133 -133q-6 -8 -18 -22.5t-52 -49t-84 -61t-114 -49
t-141 -22.5q-207 0 -359.5 152.5t-152.5 359zM492 1147l153 287h215l-215 -287h-153z" />
    <glyph glyph-name="Ccircumflex" unicode="&#x108;" horiz-adv-x="1556" 
d="M881 1454q109 0 209 -28.5t165.5 -69.5t114.5 -81t72 -69l22 -28l-143 -144q-6 8 -17.5 22.5t-52.5 52.5t-88 65.5t-122.5 51t-159.5 23.5q-223 0 -378 -154.5t-155 -377.5t154.5 -378t378.5 -155q84 0 160.5 23.5t127 56.5t89 65.5t57.5 55.5l16 25l144 -144
q-8 -12 -24.5 -31.5t-73 -68.5t-120 -87t-166 -68.5t-210.5 -30.5q-322 0 -540 214t-218 523t218 523t540 214zM963 1905l225 -287h-184l-144 184l-143 -184h-185l226 287h205z" />
    <glyph glyph-name="ccircumflex" unicode="&#x109;" horiz-adv-x="1064" 
d="M72 491.5q0 206.5 152.5 359.5t359.5 153q115 0 214 -49.5t142 -98.5l43 -47l-133 -133q-10 16 -30.5 39.5t-89 63.5t-146.5 40q-125 0 -216.5 -95t-91.5 -232.5t91.5 -232.5t216.5 -95q78 0 146.5 39t98.5 76l31 38l133 -133q-6 -8 -18 -22.5t-52 -49t-84 -61t-114 -49
t-141 -22.5q-207 0 -359.5 152.5t-152.5 359zM666 1434l225 -287h-184l-144 184l-143 -184h-184l225 287h205z" />
    <glyph glyph-name="Ccaron" unicode="&#x10c;" horiz-adv-x="1556" 
d="M881 1454q109 0 209 -28.5t165.5 -69.5t114.5 -81t72 -69l22 -28l-143 -144q-6 8 -17.5 22.5t-52.5 52.5t-88 65.5t-122.5 51t-159.5 23.5q-223 0 -378 -154.5t-155 -377.5t154.5 -378t378.5 -155q84 0 160.5 23.5t127 56.5t89 65.5t57.5 55.5l16 25l144 -144
q-8 -12 -24.5 -31.5t-73 -68.5t-120 -87t-166 -68.5t-210.5 -30.5q-322 0 -540 214t-218 523t218 523t540 214zM1188 1905l-225 -287h-205l-226 287h185l143 -185l144 185h184z" />
    <glyph glyph-name="ccaron" unicode="&#x10d;" horiz-adv-x="1064" 
d="M72 491.5q0 206.5 152.5 359.5t359.5 153q115 0 214 -49.5t142 -98.5l43 -47l-133 -133q-10 16 -30.5 39.5t-89 63.5t-146.5 40q-125 0 -216.5 -95t-91.5 -232.5t91.5 -232.5t216.5 -95q78 0 146.5 39t98.5 76l31 38l133 -133q-6 -8 -18 -22.5t-52 -49t-84 -61t-114 -49
t-141 -22.5q-207 0 -359.5 152.5t-152.5 359zM891 1434l-225 -287h-205l-225 287h184l143 -185l144 185h184z" />
    <glyph glyph-name="Dcaron" unicode="&#x10e;" horiz-adv-x="1556" 
d="M205 1434h502q299 0 513 -212t214 -505t-214 -505t-513 -212h-502v1434zM707 1229h-277v-1024h277q209 0 355 148.5t146 363.5t-146 363.5t-355 148.5zM1106 1905l-225 -287h-205l-225 287h184l143 -185l144 185h184z" />
    <glyph glyph-name="dcaron" unicode="&#x10f;" horiz-adv-x="1361" 
d="M553 1004q55 0 107.5 -13.5t89 -33t65.5 -40t41 -32.5l14 -15v564h205v-1434h-205v113q-14 -14 -39.5 -37t-108.5 -59.5t-169 -36.5q-195 0 -338 149.5t-143 362.5t143 362.5t338 149.5zM573.5 164q116.5 0 206.5 96t90 231.5t-90 231.5t-206.5 96t-207 -96t-90.5 -231.5
t90.5 -231.5t207 -96zM1178 1147l92 287h184l-133 -287h-143z" />
    <glyph glyph-name="Dcroat" unicode="&#x110;" horiz-adv-x="1607" 
d="M61 614v205h195v615h502q299 0 513 -212t214 -505t-214 -505t-513 -212h-502v614h-195zM758 1229h-277v-410h318v-205h-318v-409h277q209 0 355.5 148.5t146.5 363.5t-146.5 363.5t-355.5 148.5z" />
    <glyph glyph-name="dcroat" unicode="&#x111;" horiz-adv-x="1228" 
d="M604 1085v185h246v164h205v-164h164v-185h-164v-1085h-205v113q-12 -14 -37 -37t-104.5 -59.5t-165.5 -36.5q-195 0 -333 143t-138 348t138 348.5t333 143.5q86 0 162.5 -33t109.5 -66l35 -35v256h-246zM563 164q117 0 202 89t85 218t-85 218t-202 89t-202 -89t-85 -218
t85 -218t202 -89z" />
    <glyph glyph-name="Emacron" unicode="&#x112;" horiz-adv-x="1341" 
d="M430 205h809v-205h-1034v1434h1014v-205h-789v-379h625v-205h-625v-440zM1044 1843v-143h-634v143h634z" />
    <glyph glyph-name="emacron" unicode="&#x113;" horiz-adv-x="1146" 
d="M1044 420h-768q16 -104 102.5 -180t205.5 -76q86 0 160.5 39t105.5 76l31 38l133 -133q-6 -8 -18.5 -22.5t-53.5 -49t-87 -61t-119.5 -49t-151.5 -22.5q-209 0 -360.5 153.5t-151.5 368.5q0 207 147.5 354.5t354 147.5t344 -137.5t137.5 -344.5zM573 829
q-111 0 -186.5 -65.5t-101.5 -169.5h569q-18 104 -93 169.5t-188 65.5zM901 1372v-143h-635v143h635z" />
    <glyph glyph-name="Edotaccent" unicode="&#x116;" horiz-adv-x="1341" 
d="M430 205h809v-205h-1034v1434h1014v-205h-789v-379h625v-205h-625v-440zM860 1761.5q0 -53.5 -34.5 -88.5t-88 -35t-88.5 35t-35 88.5t35 88t88.5 34.5t88 -34.5t34.5 -88z" />
    <glyph glyph-name="edotaccent" unicode="&#x117;" horiz-adv-x="1146" 
d="M1044 420h-768q16 -104 102.5 -180t205.5 -76q86 0 160.5 39t105.5 76l31 38l133 -133q-6 -8 -18.5 -22.5t-53.5 -49t-87 -61t-119.5 -49t-151.5 -22.5q-209 0 -360.5 153.5t-151.5 368.5q0 207 147.5 354.5t354 147.5t344 -137.5t137.5 -344.5zM573 829
q-111 0 -186.5 -65.5t-101.5 -169.5h569q-18 104 -93 169.5t-188 65.5zM707 1290q0 -53 -35 -88t-88.5 -35t-88 35t-34.5 88t34.5 88t88 35t88.5 -35t35 -88z" />
    <glyph glyph-name="Eogonek" unicode="&#x118;" horiz-adv-x="1341" 
d="M1106 0h-901v1434h1014v-205h-789v-379h625v-205h-625v-440h809v-205q-82 -102 -82 -197q0 -37 28.5 -63.5t74.5 -26.5q27 0 55 5.5t43 11.5l14 4v-123q-72 -31 -153 -31q-92 0 -148.5 54.5t-56.5 140.5q0 55 23.5 111.5t45.5 84.5z" />
    <glyph glyph-name="eogonek" unicode="&#x119;" horiz-adv-x="1146" 
d="M1044 420h-768q16 -104 102.5 -180t205.5 -76q86 0 160.5 39t105.5 76l31 38l133 -133q-6 -6 -16.5 -18t-46.5 -44t-75.5 -57.5t-103 -50t-131.5 -30.5q-68 -98 -68 -181q0 -37 29 -63.5t74 -26.5q27 0 55.5 5.5t42.5 11.5l14 4v-123q-72 -31 -153 -31q-92 0 -148.5 54.5
t-56.5 140.5q0 104 80 211q-184 29 -311 175t-127 341q0 207 147.5 354.5t354 147.5t344 -137.5t137.5 -344.5zM573 829q-111 0 -186.5 -65.5t-101.5 -169.5h569q-18 104 -93 169.5t-188 65.5z" />
    <glyph glyph-name="Ecaron" unicode="&#x11a;" horiz-adv-x="1341" 
d="M430 205h809v-205h-1034v1434h1014v-205h-789v-379h625v-205h-625v-440zM1065 1905l-225 -287h-205l-225 287h184l143 -185l144 185h184z" />
    <glyph glyph-name="ecaron" unicode="&#x11b;" horiz-adv-x="1146" 
d="M1044 420h-768q16 -104 102.5 -180t205.5 -76q86 0 160.5 39t105.5 76l31 38l133 -133q-6 -8 -18.5 -22.5t-53.5 -49t-87 -61t-119.5 -49t-151.5 -22.5q-209 0 -360.5 153.5t-151.5 368.5q0 207 147.5 354.5t354 147.5t344 -137.5t137.5 -344.5zM573 829
q-111 0 -186.5 -65.5t-101.5 -169.5h569q-18 104 -93 169.5t-188 65.5zM911 1434l-225 -287h-205l-225 287h184l144 -185l143 185h184z" />
    <glyph glyph-name="Gbreve" unicode="&#x11e;" horiz-adv-x="1658" 
d="M993 758h502v-512q-8 -10 -24.5 -28.5t-74 -65t-123 -81t-172 -63t-220.5 -28.5q-322 0 -540 214t-218 523t218 523t540 214q109 0 209 -28.5t165.5 -69.5t114.5 -81t72 -69l22 -28l-143 -144q-6 8 -17.5 22.5t-52.5 52.5t-88 65.5t-122.5 51t-159.5 23.5
q-223 0 -378 -154.5t-155 -377.5t154.5 -378t378.5 -155q74 0 141.5 14.5t110.5 36t75.5 43t46.5 35.5l15 15v225h-277v205zM860.5 1761q61.5 0 102.5 41t41 103h153q0 -123 -84 -205t-213 -82t-213 82t-84 205h154q0 -61 41 -102.5t102.5 -41.5z" />
    <glyph glyph-name="gbreve" unicode="&#x11f;" 
d="M829 59v84l-13 -13q-9 -9 -37.5 -29.5t-61.5 -37t-83 -30t-102 -13.5q-186 0 -323 143.5t-137 348.5t137 348.5t323 143.5q82 0 156 -31t107 -62l34 -30v102h205v-922q0 -207 -142 -349t-349 -142q-84 0 -160 21.5t-125 51t-86 59.5t-53 52l-17 21l134 133q4 -6 13 -16.5
t38.5 -37t62.5 -47t85 -37t108 -16.5q125 0 205.5 85t80.5 220zM276 512q0 -129 83 -218t194 -89t193.5 89t82.5 218t-82.5 218t-193.5 89t-194 -89t-83 -218zM583.5 1290q61.5 0 102.5 41t41 103h154q0 -123 -84 -205t-213 -82t-213 82t-84 205h153q0 -61 41 -102.5
t102.5 -41.5z" />
    <glyph glyph-name="uni0122" unicode="&#x122;" horiz-adv-x="1658" 
d="M993 758h502v-512q-8 -10 -24.5 -28.5t-74 -65t-123 -81t-172 -63t-220.5 -28.5q-322 0 -540 214t-218 523t218 523t540 214q109 0 209 -28.5t165.5 -69.5t114.5 -81t72 -69l22 -28l-143 -144q-6 8 -17.5 22.5t-52.5 52.5t-88 65.5t-122.5 51t-159.5 23.5
q-223 0 -378 -154.5t-155 -377.5t154.5 -378t378.5 -155q74 0 141.5 14.5t110.5 36t75.5 43t46.5 35.5l15 15v225h-277v205zM686 -451l92 287h185l-134 -287h-143z" />
    <glyph glyph-name="uni0123" unicode="&#x123;" 
d="M737 1434l-92 -287h-184l133 287h143zM829 59v84l-13 -13q-9 -9 -37.5 -29.5t-61.5 -37t-83 -30t-102 -13.5q-186 0 -323 143.5t-137 348.5t137 348.5t323 143.5q82 0 156 -31t107 -62l34 -30v102h205v-922q0 -207 -142 -349t-349 -142q-84 0 -160 21.5t-125 51t-86 59.5
t-53 52l-17 21l134 133q4 -6 13 -16.5t38.5 -37t62.5 -47t85 -37t108 -16.5q125 0 205.5 85t80.5 220zM276 512q0 -129 83 -218t194 -89t193.5 89t82.5 218t-82.5 218t-193.5 89t-194 -89t-83 -218z" />
    <glyph glyph-name="Imacron" unicode="&#x12a;" horiz-adv-x="634" 
d="M205 0v1434h225v-1434h-225zM635 1843v-143h-635v143h635z" />
    <glyph glyph-name="imacron" unicode="&#x12b;" horiz-adv-x="491" 
d="M338 983v-983h-205v983h205zM553 1372v-143h-635v143h635z" />
    <glyph glyph-name="Iogonek" unicode="&#x12e;" horiz-adv-x="634" 
d="M205 0v1434h225v-1434h-92q-82 -102 -82 -197q0 -37 28.5 -63.5t73.5 -26.5q27 0 55.5 5.5t43.5 11.5l14 4v-123q-72 -31 -154 -31q-92 0 -148 54.5t-56 140.5q0 55 23.5 111.5t45.5 84.5z" />
    <glyph glyph-name="iogonek" unicode="&#x12f;" horiz-adv-x="491" 
d="M133 0v983h205v-983h-72q-82 -102 -82 -197q0 -37 29 -63.5t74 -26.5q27 0 55.5 5.5t42.5 11.5l14 4v-123q-72 -31 -153 -31q-92 0 -148.5 54.5t-56.5 140.5q0 55 22.5 111.5t47.5 84.5zM358 1290q0 -53 -34.5 -88t-88 -35t-88 35t-34.5 88t34.5 88t88 35t88 -35
t34.5 -88z" />
    <glyph glyph-name="Idotaccent" unicode="&#x130;" horiz-adv-x="634" 
d="M205 0v1434h225v-1434h-225zM440 1761.5q0 -53.5 -34.5 -88.5t-88 -35t-88 35t-34.5 88.5t34.5 88t88 34.5t88 -34.5t34.5 -88z" />
    <glyph glyph-name="dotlessi" unicode="&#x131;" horiz-adv-x="491" 
d="M338 983v-983h-205v983h205z" />
    <glyph glyph-name="uni0136" unicode="&#x136;" horiz-adv-x="1423" 
d="M430 1434v-697l645 697h287l-553 -594l594 -840h-277l-471 676l-225 -246v-430h-225v1434h225zM563 -451l92 287h185l-133 -287h-144z" />
    <glyph glyph-name="uni0137" unicode="&#x137;" horiz-adv-x="1085" 
d="M1024 983l-379 -410l410 -573h-226l-317 440l-154 -164v-276h-204v1434h204v-891l420 440h246zM410 -451l92 287h184l-133 -287h-143z" />
    <glyph glyph-name="Lacute" unicode="&#x139;" 
d="M1126 0h-921v1434h225v-1229h696v-205zM246 1618l153 287h215l-215 -287h-153z" />
    <glyph glyph-name="lacute" unicode="&#x13a;" horiz-adv-x="532" 
d="M358 1434v-1434h-204v1434h204zM184 1618l154 287h215l-215 -287h-154z" />
    <glyph glyph-name="uni013B" unicode="&#x13b;" 
d="M1126 0h-921v1434h225v-1229h696v-205zM481 -451l92 287h185l-133 -287h-144z" />
    <glyph glyph-name="uni013C" unicode="&#x13c;" horiz-adv-x="532" 
d="M358 1434v-1434h-204v1434h204zM72 -451l92 287h184l-133 -287h-143z" />
    <glyph glyph-name="Lcaron" unicode="&#x13d;" 
d="M1126 0h-921v1434h225v-1229h696v-205zM543 1147l92 287h184l-133 -287h-143z" />
    <glyph glyph-name="lcaron" unicode="&#x13e;" horiz-adv-x="645" 
d="M358 1434v-1434h-204v1434h204zM461 1147l92 287h184l-133 -287h-143z" />
    <glyph glyph-name="Lslash" unicode="&#x141;" horiz-adv-x="1320" 
d="M1260 0h-922v543l-246 -144l-92 164l338 195v676h225v-553l256 153l92 -164l-348 -204v-461h697v-205z" />
    <glyph glyph-name="lslash" unicode="&#x142;" horiz-adv-x="757" 
d="M809 891l-338 -205v-686h-205v573l-256 -153l-82 143l338 205v666h205v-553l256 153z" />
    <glyph glyph-name="Nacute" unicode="&#x143;" horiz-adv-x="1628" 
d="M1198 1434h225v-1434h-194l-799 1034v-1034h-225v1434h194l799 -1035v1035zM748 1618l153 287h215l-215 -287h-153z" />
    <glyph glyph-name="nacute" unicode="&#x144;" 
d="M338 983v-102l13 13q9 9 38 29.5t61.5 37t83 30t101.5 13.5q178 0 288.5 -117t110.5 -314v-573h-205v573q0 106 -67.5 176t-167.5 70q-117 0 -186.5 -75.5t-69.5 -211.5v-532h-205v983h205zM532 1147l154 287h215l-215 -287h-154z" />
    <glyph glyph-name="uni0145" unicode="&#x145;" horiz-adv-x="1628" 
d="M1198 1434h225v-1434h-194l-799 1034v-1034h-225v1434h194l799 -1035v1035zM666 -451l92 287h184l-133 -287h-143z" />
    <glyph glyph-name="uni0146" unicode="&#x146;" 
d="M338 983v-102l13 13q9 9 38 29.5t61.5 37t83 30t101.5 13.5q178 0 288.5 -117t110.5 -314v-573h-205v573q0 106 -67.5 176t-167.5 70q-117 0 -186.5 -75.5t-69.5 -211.5v-532h-205v983h205zM410 -451l92 287h184l-133 -287h-143z" />
    <glyph glyph-name="Ncaron" unicode="&#x147;" horiz-adv-x="1628" 
d="M1198 1434h225v-1434h-194l-799 1034v-1034h-225v1434h194l799 -1035v1035zM1147 1905l-225 -287h-205l-225 287h184l143 -185l144 185h184z" />
    <glyph glyph-name="ncaron" unicode="&#x148;" 
d="M338 983v-102l13 13q9 9 38 29.5t61.5 37t83 30t101.5 13.5q178 0 288.5 -117t110.5 -314v-573h-205v573q0 106 -67.5 176t-167.5 70q-117 0 -186.5 -75.5t-69.5 -211.5v-532h-205v983h205zM932 1434l-225 -287h-205l-226 287h185l143 -185l144 185h184z" />
    <glyph glyph-name="Omacron" unicode="&#x14c;" horiz-adv-x="1761" 
d="M348 717q0 -223 154.5 -378t378 -155t378 155t154.5 378t-154.5 377.5t-378 154.5t-378 -154.5t-154.5 -377.5zM123 717q0 309 218 523t539.5 214t539.5 -214t218 -523t-218 -523t-539.5 -214t-539.5 214t-218 523zM1198 1843v-143h-635v143h635z" />
    <glyph glyph-name="omacron" unicode="&#x14d;" 
d="M891 491.5q0 137.5 -91 232.5t-216 95t-216.5 -95t-91.5 -232.5t91.5 -232.5t216.5 -95t216 95t91 232.5zM72 491.5q0 206.5 152.5 359.5t359.5 153t359.5 -153t152.5 -359.5t-152.5 -359t-359.5 -152.5t-359.5 152.5t-152.5 359zM901 1372v-143h-635v143h635z" />
    <glyph glyph-name="Ohungarumlaut" unicode="&#x150;" horiz-adv-x="1761" 
d="M348 717q0 -223 154.5 -378t378 -155t378 155t154.5 378t-154.5 377.5t-378 154.5t-378 -154.5t-154.5 -377.5zM123 717q0 309 218 523t539.5 214t539.5 -214t218 -523t-218 -523t-539.5 -214t-539.5 214t-218 523zM635 1618l153 287h216l-216 -287h-153zM993 1618
l154 287h215l-215 -287h-154z" />
    <glyph glyph-name="ohungarumlaut" unicode="&#x151;" 
d="M891 491.5q0 137.5 -91 232.5t-216 95t-216.5 -95t-91.5 -232.5t91.5 -232.5t216.5 -95t216 95t91 232.5zM72 491.5q0 206.5 152.5 359.5t359.5 153t359.5 -153t152.5 -359.5t-152.5 -359t-359.5 -152.5t-359.5 152.5t-152.5 359zM338 1147l154 287h215l-215 -287h-154z
M696 1147l154 287h215l-215 -287h-154z" />
    <glyph glyph-name="OE" unicode="&#x152;" horiz-adv-x="2099" 
d="M850 1434h1126v-205h-706v-379h542v-205h-542v-440h727v-205h-1147q-299 0 -513 212t-214 505t214 505t513 212zM1044 1229h-194q-209 0 -355.5 -148.5t-146.5 -363.5t146.5 -363.5t355.5 -148.5h194v1024z" />
    <glyph glyph-name="oe" unicode="&#x153;" horiz-adv-x="1945" 
d="M1843 420h-768q16 -104 102.5 -180t204.5 -76q86 0 161 39t106 76l30 38l133 -133q-6 -8 -18 -22.5t-53 -49t-87 -61t-120 -49t-152 -22.5q-74 0 -143.5 21.5t-115.5 51t-81.5 59t-52.5 52.5l-16 20q-6 -8 -17.5 -22.5t-49.5 -49t-81 -61t-111.5 -49t-140.5 -22.5
q-209 0 -355 148t-146 363.5t146.5 364t354.5 148.5q72 0 139.5 -21.5t112.5 -51.5t80 -59.5t51 -52.5l17 -20q6 8 17 22.5t49 49t81 61t111.5 49.5t140.5 23q207 0 344 -137.5t137 -344.5zM870 491.5q0 135.5 -90 231.5t-206.5 96t-207 -96t-90.5 -231.5t90.5 -231.5
t207 -96t206.5 96t90 231.5zM1372 829q-111 0 -186.5 -65.5t-102.5 -169.5h570q-18 104 -93 169.5t-188 65.5z" />
    <glyph glyph-name="Racute" unicode="&#x154;" horiz-adv-x="1433" 
d="M205 0v1434h604q199 0 330 -127t131 -314q0 -88 -30 -164.5t-72 -120.5t-84 -77t-72 -45l-29 -13l328 -573h-246l-307 553h-328v-553h-225zM1044 993.5q0 100.5 -67.5 168t-167.5 67.5h-379v-471h379q100 0 167.5 67.5t67.5 168zM625 1618l153 287h215l-215 -287h-153z
" />
    <glyph glyph-name="racute" unicode="&#x155;" horiz-adv-x="716" 
d="M686 809q-41 10 -92 10q-117 0 -186.5 -75.5t-69.5 -211.5v-532h-205v983h205v-102l13 13q9 9 38 29.5t61.5 37t83 30t101.5 13.5h51v-195zM328 1147l153 287h215l-215 -287h-153z" />
    <glyph glyph-name="uni0156" unicode="&#x156;" horiz-adv-x="1433" 
d="M205 0v1434h604q199 0 330 -127t131 -314q0 -88 -30 -164.5t-72 -120.5t-84 -77t-72 -45l-29 -13l328 -573h-246l-307 553h-328v-553h-225zM1044 993.5q0 100.5 -67.5 168t-167.5 67.5h-379v-471h379q100 0 167.5 67.5t67.5 168zM543 -451l92 287h184l-133 -287h-143z
" />
    <glyph glyph-name="uni0157" unicode="&#x157;" horiz-adv-x="716" 
d="M686 809q-41 10 -92 10q-117 0 -186.5 -75.5t-69.5 -211.5v-532h-205v983h205v-102l13 13q9 9 38 29.5t61.5 37t83 30t101.5 13.5h51v-195zM61 -451l93 287h184l-133 -287h-144z" />
    <glyph glyph-name="Rcaron" unicode="&#x158;" horiz-adv-x="1433" 
d="M205 0v1434h604q199 0 330 -127t131 -314q0 -88 -30 -164.5t-72 -120.5t-84 -77t-72 -45l-29 -13l328 -573h-246l-307 553h-328v-553h-225zM1044 993.5q0 100.5 -67.5 168t-167.5 67.5h-379v-471h379q100 0 167.5 67.5t67.5 168zM1044 1905l-225 -287h-205l-225 287h184
l144 -185l143 185h184z" />
    <glyph glyph-name="rcaron" unicode="&#x159;" horiz-adv-x="716" 
d="M686 809q-41 10 -92 10q-117 0 -186.5 -75.5t-69.5 -211.5v-532h-205v983h205v-102l13 13q9 9 38 29.5t61.5 37t83 30t101.5 13.5h51v-195zM727 1434l-225 -287h-205l-225 287h184l143 -185l144 185h184z" />
    <glyph glyph-name="Sacute" unicode="&#x15a;" horiz-adv-x="1208" 
d="M881 410q0 66 -42 110.5t-108.5 70t-147.5 46t-162 50.5t-147.5 72t-108.5 119.5t-42 186.5q0 166 127 277.5t344 111.5q80 0 153.5 -19.5t122 -46t85 -53t53.5 -45.5l16 -20l-143 -144q-4 4 -11.5 13.5t-34 30t-57 37t-80 29.5t-104.5 13q-111 0 -178.5 -55t-67.5 -129
q0 -66 42 -111t108.5 -70.5t147.5 -46t162 -50t147.5 -71.5t108.5 -120t42 -186q0 -190 -136 -310t-376 -120q-98 0 -186.5 23.5t-145.5 56t-99 65.5t-61 55l-20 25l143 143q4 -6 13.5 -17.5t43 -40t72.5 -50t103.5 -39t136.5 -17.5q133 0 210 65t77 161zM502 1618l153 287
h215l-215 -287h-153z" />
    <glyph glyph-name="sacute" unicode="&#x15b;" horiz-adv-x="890" 
d="M758 870l-133 -133q-8 8 -23.5 22.5t-64 37t-97.5 22.5q-66 0 -104.5 -30.5t-38.5 -71.5q0 -43 37 -72t93 -44t120.5 -37.5t121 -50.5t93.5 -86t37 -140q0 -127 -102.5 -217t-266.5 -90q-72 0 -137.5 18t-107.5 43t-73.5 50.5t-45.5 43.5l-15 19l133 133q10 -14 29.5 -35
t84 -54.5t132.5 -33.5q82 0 123 33.5t41 89.5q0 43 -37 71.5t-93 44t-120.5 38t-121 50t-93.5 86t-37 140.5q0 113 99.5 200t248.5 87q59 0 114.5 -13.5t90.5 -33t61.5 -40t38.5 -32.5zM348 1147l154 287h215l-215 -287h-154z" />
    <glyph glyph-name="Scedilla" unicode="&#x15e;" horiz-adv-x="1208" 
d="M881 410q0 66 -42 110.5t-108.5 70t-147.5 46t-162 50.5t-147.5 72t-108.5 119.5t-42 186.5q0 166 127 277.5t344 111.5q80 0 153.5 -19.5t122 -46t85 -53t53.5 -45.5l16 -20l-143 -144q-4 4 -11.5 13.5t-34 30t-57 37t-80 29.5t-104.5 13q-111 0 -178.5 -55t-67.5 -129
q0 -66 42 -111t108.5 -70.5t147.5 -46t162 -50t147.5 -71.5t108.5 -120t42 -186q0 -180 -123 -298t-340 -130l-49 -95q6 0 18.5 -1t42 -9t53 -22.5t42 -46t18.5 -74.5q0 -72 -54.5 -118t-150.5 -46q-55 0 -103 20.5t-71 40.5l-20 21l51 82q61 -51 143 -51q37 0 59.5 18
t22.5 43t-22.5 43t-59.5 18q-14 0 -29.5 -5t-23.5 -9l-8 -6l-41 51l65 148q-84 6 -161.5 31.5t-127 57t-86 61.5t-53.5 50l-16 21l143 143q4 -6 13.5 -17.5t43 -40t72.5 -50t103.5 -39t136.5 -17.5q133 0 210 65t77 161z" />
    <glyph glyph-name="scedilla" unicode="&#x15f;" horiz-adv-x="890" 
d="M758 870l-133 -133q-8 8 -23.5 22.5t-64 37t-97.5 22.5q-66 0 -104.5 -30.5t-38.5 -71.5q0 -43 37 -72t93 -44t120.5 -37.5t121 -50.5t93.5 -86t37 -140q0 -117 -88 -204t-232 -101l-49 -95q6 0 18.5 -1t42 -9t53 -22.5t42 -46t18.5 -74.5q0 -72 -54 -118t-151 -46
q-55 0 -103 20.5t-71 40.5l-20 21l51 82q61 -51 143 -51q37 0 59.5 18t22.5 43t-22.5 43t-59.5 18q-14 0 -29.5 -5t-23.5 -9l-8 -6l-41 51l65 148q-59 8 -112 27.5t-88 43t-61.5 46t-39.5 38.5l-10 15l133 133q10 -14 29.5 -35t84 -54.5t132.5 -33.5q82 0 123 33.5t41 89.5
q0 43 -37 71.5t-93 44t-120.5 38t-121 50t-93.5 86t-37 140.5q0 113 99.5 200t248.5 87q59 0 114.5 -13.5t90.5 -33t61.5 -40t38.5 -32.5z" />
    <glyph glyph-name="Scaron" unicode="&#x160;" horiz-adv-x="1208" 
d="M881 410q0 66 -42 110.5t-108.5 70t-147.5 46t-162 50.5t-147.5 72t-108.5 119.5t-42 186.5q0 166 127 277.5t344 111.5q80 0 153.5 -19.5t122 -46t85 -53t53.5 -45.5l16 -20l-143 -144q-4 4 -11.5 13.5t-34 30t-57 37t-80 29.5t-104.5 13q-111 0 -178.5 -55t-67.5 -129
q0 -66 42 -111t108.5 -70.5t147.5 -46t162 -50t147.5 -71.5t108.5 -120t42 -186q0 -190 -136 -310t-376 -120q-98 0 -186.5 23.5t-145.5 56t-99 65.5t-61 55l-20 25l143 143q4 -6 13.5 -17.5t43 -40t72.5 -50t103.5 -39t136.5 -17.5q133 0 210 65t77 161zM922 1905
l-226 -287h-204l-226 287h185l143 -185l143 185h185z" />
    <glyph glyph-name="scaron" unicode="&#x161;" horiz-adv-x="890" 
d="M758 870l-133 -133q-8 8 -23.5 22.5t-64 37t-97.5 22.5q-66 0 -104.5 -30.5t-38.5 -71.5q0 -43 37 -72t93 -44t120.5 -37.5t121 -50.5t93.5 -86t37 -140q0 -127 -102.5 -217t-266.5 -90q-72 0 -137.5 18t-107.5 43t-73.5 50.5t-45.5 43.5l-15 19l133 133q10 -14 29.5 -35
t84 -54.5t132.5 -33.5q82 0 123 33.5t41 89.5q0 43 -37 71.5t-93 44t-120.5 38t-121 50t-93.5 86t-37 140.5q0 113 99.5 200t248.5 87q59 0 114.5 -13.5t90.5 -33t61.5 -40t38.5 -32.5zM768 1434l-225 -287h-205l-225 287h184l143 -185l144 185h184z" />
    <glyph glyph-name="uni0162" unicode="&#x162;" horiz-adv-x="1167" 
d="M41 1434h1085v-205h-430v-1229h-225v1229h-430v205zM399 -451l93 287h184l-133 -287h-144z" />
    <glyph glyph-name="uni0163" unicode="&#x163;" horiz-adv-x="778" 
d="M256 1106v205h184v-328h205v-184h-205v-510q0 -55 35 -90t88 -35q23 0 48.5 5t39.5 11l15 4v-184q-61 -20 -144 -20q-287 0 -286 307v512h-185v184h103q102 0 102 123zM287 -451l92 287h184l-133 -287h-143z" />
    <glyph glyph-name="Tcaron" unicode="&#x164;" horiz-adv-x="1167" 
d="M41 1434h1085v-205h-430v-1229h-225v1229h-430v205zM911 1905l-225 -287h-205l-225 287h184l144 -185l143 185h184z" />
    <glyph glyph-name="tcaron" unicode="&#x165;" horiz-adv-x="808" 
d="M256 1106v205h184v-328h205v-184h-205v-510q0 -55 35 -90t88 -35q23 0 48.5 5t39.5 11l15 4v-184q-61 -20 -144 -20q-287 0 -286 307v512h-185v184h103q102 0 102 123zM625 1147l92 287h184l-133 -287h-143z" />
    <glyph glyph-name="Umacron" unicode="&#x16a;" horiz-adv-x="1576" 
d="M788.5 184q153.5 0 266 115t112.5 274v861h226v-861q0 -246 -176.5 -419.5t-428 -173.5t-428 174t-176.5 419v861h226v-861q0 -160 112.5 -274.5t266 -114.5zM1106 1843v-143h-635v143h635z" />
    <glyph glyph-name="umacron" unicode="&#x16b;" horiz-adv-x="1198" 
d="M829 0v102l-13 -13q-9 -9 -37.5 -29.5t-61.5 -37t-83 -29.5t-102 -13q-178 0 -288.5 116.5t-110.5 313.5v573h205v-573q0 -106 67.5 -176t167.5 -70q117 0 186.5 75.5t69.5 211.5v532h205v-983h-205zM901 1372v-143h-635v143h635z" />
    <glyph glyph-name="Uring" unicode="&#x16e;" horiz-adv-x="1576" 
d="M788.5 184q153.5 0 266 115t112.5 274v861h226v-861q0 -246 -176.5 -419.5t-428 -173.5t-428 174t-176.5 419v861h226v-861q0 -160 112.5 -274.5t266 -114.5zM993 1782q0 -84 -60.5 -144.5t-144 -60.5t-144 60.5t-60.5 144.5t60.5 144.5t144 60.5t144 -60.5t60.5 -144.5z
M870 1782q0 37 -25.5 64.5t-56 27.5t-56 -27.5t-25.5 -64.5t25.5 -64.5t56 -27.5t56 27.5t25.5 64.5z" />
    <glyph glyph-name="uring" unicode="&#x16f;" horiz-adv-x="1198" 
d="M829 0v102l-13 -13q-9 -9 -37.5 -29.5t-61.5 -37t-83 -29.5t-102 -13q-178 0 -288.5 116.5t-110.5 313.5v573h205v-573q0 -106 67.5 -176t167.5 -70q117 0 186.5 75.5t69.5 211.5v532h205v-983h-205zM788 1311q0 -84 -60 -144.5t-144 -60.5t-144.5 60.5t-60.5 144.5
t60.5 144.5t144.5 60.5t144 -60.5t60 -144.5zM666 1311q0 37 -26 64.5t-56.5 27.5t-56 -27.5t-25.5 -64.5t25.5 -64.5t56 -27.5t56.5 27.5t26 64.5z" />
    <glyph glyph-name="Uhungarumlaut" unicode="&#x170;" horiz-adv-x="1576" 
d="M788.5 184q153.5 0 266 115t112.5 274v861h226v-861q0 -246 -176.5 -419.5t-428 -173.5t-428 174t-176.5 419v861h226v-861q0 -160 112.5 -274.5t266 -114.5zM522 1618l154 287h215l-215 -287h-154zM881 1618l153 287h215l-215 -287h-153z" />
    <glyph glyph-name="uhungarumlaut" unicode="&#x171;" horiz-adv-x="1198" 
d="M829 0v102l-13 -13q-9 -9 -37.5 -29.5t-61.5 -37t-83 -29.5t-102 -13q-178 0 -288.5 116.5t-110.5 313.5v573h205v-573q0 -106 67.5 -176t167.5 -70q117 0 186.5 75.5t69.5 211.5v532h205v-983h-205zM307 1147l154 287h215l-215 -287h-154zM666 1147l153 287h215
l-215 -287h-153z" />
    <glyph glyph-name="Uogonek" unicode="&#x172;" horiz-adv-x="1576" 
d="M788.5 184q153.5 0 266 115t112.5 274v861h226v-861q0 -225 -149.5 -392t-375.5 -195q-70 -104 -69 -183q0 -37 28.5 -63.5t73.5 -26.5q27 0 55.5 5.5t42.5 11.5l15 4v-123q-72 -31 -154 -31q-92 0 -148.5 54.5t-56.5 140.5q0 100 76 207q-231 20 -389 190t-158 401v861
h226v-861q0 -160 112.5 -274.5t266 -114.5z" />
    <glyph glyph-name="uogonek" unicode="&#x173;" horiz-adv-x="1198" 
d="M829 0v102l-13 -13q-9 -9 -37.5 -29.5t-61.5 -37t-83 -29.5t-102 -13q-178 0 -288.5 116.5t-110.5 313.5v573h205v-573q0 -106 67.5 -176t167.5 -70q117 0 186.5 75.5t69.5 211.5v532h205v-983h-71q-82 -102 -82 -197q0 -37 28.5 -63.5t73.5 -26.5q27 0 55.5 5.5
t42.5 11.5l15 4v-123q-72 -31 -154 -31q-92 0 -148.5 54.5t-56.5 140.5q0 55 22.5 111.5t47.5 84.5z" />
    <glyph glyph-name="Ydieresis" unicode="&#x178;" horiz-adv-x="1351" 
d="M287 1434l389 -686l389 686h246l-523 -922v-512h-225v512l-522 922h246zM584 1741q0 -53 -35 -88t-88 -35t-88 35t-35 88t35 88t88 35t88 -35t35 -88zM1014 1741q0 -53 -35 -88t-88 -35t-88 35t-35 88t35 88t88 35t88 -35t35 -88z" />
    <glyph glyph-name="Zacute" unicode="&#x179;" horiz-adv-x="1290" 
d="M901 1229h-768v205h1034v-205l-798 -1024h819v-205h-1086v205zM563 1618l154 287h215l-215 -287h-154z" />
    <glyph glyph-name="zacute" unicode="&#x17a;" horiz-adv-x="983" 
d="M870 983v-184l-542 -615h563v-184h-819v184l542 615h-522v184h778zM408 1147l153 287h215l-215 -287h-153z" />
    <glyph glyph-name="Zdotaccent" unicode="&#x17b;" horiz-adv-x="1290" 
d="M901 1229h-768v205h1034v-205l-798 -1024h819v-205h-1086v205zM778 1761.5q0 -53.5 -34.5 -88.5t-88 -35t-88.5 35t-35 88.5t35 88t88.5 34.5t88 -34.5t34.5 -88z" />
    <glyph glyph-name="zdotaccent" unicode="&#x17c;" horiz-adv-x="983" 
d="M870 983v-184l-542 -615h563v-184h-819v184l542 615h-522v184h778zM604 1290q0 -53 -34.5 -88t-88 -35t-88.5 35t-35 88t35 88t88.5 35t88 -35t34.5 -88z" />
    <glyph glyph-name="Zcaron" unicode="&#x17d;" horiz-adv-x="1290" 
d="M901 1229h-768v205h1034v-205l-798 -1024h819v-205h-1086v205zM973 1905l-225 -287h-205l-226 287h185l143 -185l143 185h185z" />
    <glyph glyph-name="zcaron" unicode="&#x17e;" horiz-adv-x="983" 
d="M870 983v-184l-542 -615h563v-184h-819v184l542 615h-522v184h778zM809 1434l-225 -287h-205l-225 287h184l143 -185l144 185h184z" />
    <glyph glyph-name="florin" unicode="&#x192;" horiz-adv-x="737" 
d="M522 1147l-51 -307h215v-185h-246l-143 -778q-27 -141 -117 -224t-231 -83q-33 0 -63.5 5t-45.5 11l-14 4v174q51 -20 102 -20q141 0 164 133l144 778h-144v185h174l51 307q25 141 115 224t234 83q33 0 63.5 -5t44.5 -11l14 -4v-174q-51 20 -102 20q-141 0 -164 -133z
" />
    <glyph glyph-name="uni0218" unicode="&#x218;" horiz-adv-x="1208" 
d="M881 410q0 66 -42 110.5t-108.5 70t-147.5 46t-162 50.5t-147.5 72t-108.5 119.5t-42 186.5q0 166 127 277.5t344 111.5q80 0 153.5 -19.5t122 -46t85 -53t53.5 -45.5l16 -20l-143 -144q-4 4 -11.5 13.5t-34 30t-57 37t-80 29.5t-104.5 13q-111 0 -178.5 -55t-67.5 -129
q0 -66 42 -111t108.5 -70.5t147.5 -46t162 -50t147.5 -71.5t108.5 -120t42 -186q0 -190 -136 -310t-376 -120q-98 0 -186.5 23.5t-145.5 56t-99 65.5t-61 55l-20 25l143 143q4 -6 13.5 -17.5t43 -40t72.5 -50t103.5 -39t136.5 -17.5q133 0 210 65t77 161zM420 -451l92 287
h184l-133 -287h-143z" />
    <glyph glyph-name="uni0219" unicode="&#x219;" horiz-adv-x="890" 
d="M758 870l-133 -133q-8 8 -23.5 22.5t-64 37t-97.5 22.5q-66 0 -104.5 -30.5t-38.5 -71.5q0 -43 37 -72t93 -44t120.5 -37.5t121 -50.5t93.5 -86t37 -140q0 -127 -102.5 -217t-266.5 -90q-72 0 -137.5 18t-107.5 43t-73.5 50.5t-45.5 43.5l-15 19l133 133q10 -14 29.5 -35
t84 -54.5t132.5 -33.5q82 0 123 33.5t41 89.5q0 43 -37 71.5t-93 44t-120.5 38t-121 50t-93.5 86t-37 140.5q0 113 99.5 200t248.5 87q59 0 114.5 -13.5t90.5 -33t61.5 -40t38.5 -32.5zM256 -451l92 287h184l-133 -287h-143z" />
    <glyph glyph-name="uni021A" unicode="&#x21a;" horiz-adv-x="1167" 
d="M41 1434h1085v-205h-430v-1229h-225v1229h-430v205zM399 -451l93 287h184l-133 -287h-144z" />
    <glyph glyph-name="uni021B" unicode="&#x21b;" horiz-adv-x="778" 
d="M256 1106v205h184v-328h205v-184h-205v-510q0 -55 35 -90t88 -35q23 0 48.5 5t39.5 11l15 4v-184q-61 -20 -144 -20q-287 0 -286 307v512h-185v184h103q102 0 102 123zM287 -451l92 287h184l-133 -287h-143z" />
    <glyph glyph-name="uni02BC" unicode="&#x2bc;" horiz-adv-x="399" 
d="M61 1147l93 287h184l-133 -287h-144z" />
    <glyph glyph-name="circumflex" unicode="&#x2c6;" horiz-adv-x="778" 
d="M492 1434l225 -287h-185l-143 184l-143 -184h-185l226 287h205z" />
    <glyph glyph-name="caron" unicode="&#x2c7;" horiz-adv-x="778" 
d="M717 1434l-225 -287h-205l-226 287h185l143 -185l143 185h185z" />
    <glyph glyph-name="breve" unicode="&#x2d8;" horiz-adv-x="716" 
d="M358.5 1290q61.5 0 102.5 41t41 103h153q0 -123 -84 -205t-213 -82t-213 82t-84 205h154q0 -61 41 -102.5t102.5 -41.5z" />
    <glyph glyph-name="dotaccent" unicode="&#x2d9;" horiz-adv-x="368" 
d="M307 1310.5q0 -53.5 -34.5 -88t-88 -34.5t-88.5 34.5t-35 88t35 88.5t88.5 35t88 -35t34.5 -88.5z" />
    <glyph glyph-name="ring" unicode="&#x2da;" horiz-adv-x="532" 
d="M471 1229q0 -84 -60.5 -144.5t-144.5 -60.5t-144.5 60.5t-60.5 144.5t60.5 144.5t144.5 60.5t144.5 -60.5t60.5 -144.5zM348 1229q0 37 -25.5 64.5t-56 27.5t-56.5 -27.5t-26 -64.5t26 -64.5t56.5 -27.5t56 27.5t25.5 64.5z" />
    <glyph glyph-name="ogonek" unicode="&#x2db;" horiz-adv-x="481" 
d="M154 0h133q-82 -102 -82 -197q0 -37 28.5 -63.5t73.5 -26.5q27 0 55.5 5.5t43.5 11.5l14 4v-123q-72 -31 -154 -31q-92 0 -148.5 54.5t-56.5 140.5q0 55 22.5 111.5t47.5 84.5z" />
    <glyph glyph-name="tilde" unicode="&#x2dc;" horiz-adv-x="829" 
d="M553 1167q-61 0 -110.5 31t-89.5 61.5t-77 30.5q-82 0 -81 -123h-134q0 266 215 267q61 0 110.5 -31t89.5 -61.5t77 -30.5q82 0 82 123h133q0 -267 -215 -267z" />
    <glyph glyph-name="hungarumlaut" unicode="&#x2dd;" horiz-adv-x="849" 
d="M61 1147l154 287h215l-215 -287h-154zM420 1147l153 287h215l-215 -287h-153z" />
    <glyph glyph-name="uni0401" unicode="&#x401;" horiz-adv-x="1341" 
d="M430 205h809v-205h-1034v1434h1014v-205h-789v-379h625v-205h-625v-440zM625 1741q0 -53 -35 -88t-88 -35t-88 35t-35 88t35 88t88 35t88 -35t35 -88zM1055 1741q0 -53 -35 -88t-88 -35t-88 35t-35 88t35 88t88 35t88 -35t35 -88z" />
    <glyph glyph-name="uni0402" unicode="&#x402;" horiz-adv-x="1474" 
d="M922 963q203 0 326.5 -132.5t123.5 -359.5t-124 -359t-326 -132h-41v204q125 0 195.5 75t70.5 212t-70.5 212t-195.5 75q-137 0 -222.5 -81t-85.5 -206v-471h-225v1229h-348v205h922v-205h-349v-400q14 14 41 37t117.5 60t190.5 37z" />
    <glyph glyph-name="uni0403" unicode="&#x403;" horiz-adv-x="1146" 
d="M205 0v1434h921v-205h-696v-1229h-225zM584 1618l153 287h215l-215 -287h-153z" />
    <glyph glyph-name="uni0404" unicode="&#x404;" horiz-adv-x="1556" 
d="M881 1454q109 0 209 -28.5t165.5 -69.5t114.5 -81t72 -69l22 -28l-143 -144q-6 8 -17.5 22.5t-52.5 52.5t-88 65.5t-122.5 51t-159.5 23.5q-199 0 -336 -117.5t-187 -302.5h707v-204h-707q39 -199 176.5 -320t346.5 -121q84 0 160.5 23.5t127 56.5t89 65.5t57.5 55.5
l16 25l144 -144q-8 -12 -24.5 -31.5t-73 -68.5t-120 -87t-166 -68.5t-210.5 -30.5q-322 0 -540 214t-218 523t218 523t540 214z" />
    <glyph glyph-name="uni0405" unicode="&#x405;" horiz-adv-x="1208" 
d="M881 410q0 66 -42 110.5t-108.5 70t-147.5 46t-162 50.5t-147.5 72t-108.5 119.5t-42 186.5q0 166 127 277.5t344 111.5q80 0 153.5 -19.5t122 -46t85 -53t53.5 -45.5l16 -20l-143 -144q-4 4 -11.5 13.5t-34 30t-57 37t-80 29.5t-104.5 13q-111 0 -178.5 -55t-67.5 -129
q0 -66 42 -111t108.5 -70.5t147.5 -46t162 -50t147.5 -71.5t108.5 -120t42 -186q0 -190 -136 -310t-376 -120q-98 0 -186.5 23.5t-145.5 56t-99 65.5t-61 55l-20 25l143 143q4 -6 13.5 -17.5t43 -40t72.5 -50t103.5 -39t136.5 -17.5q133 0 210 65t77 161z" />
    <glyph glyph-name="uni0406" unicode="&#x406;" horiz-adv-x="634" 
d="M205 0v1434h225v-1434h-225z" />
    <glyph glyph-name="uni0407" unicode="&#x407;" horiz-adv-x="634" 
d="M225 1741q0 -53 -34.5 -88t-88 -35t-88 35t-34.5 88t34.5 88t88 35t88 -35t34.5 -88zM655 1741q0 -53 -34.5 -88t-88 -35t-88 35t-34.5 88t34.5 88t88 35t88 -35t34.5 -88zM205 0v1434h225v-1434h-225z" />
    <glyph glyph-name="uni0408" unicode="&#x408;" horiz-adv-x="1044" 
d="M614 1434h226v-1004q0 -201 -129 -325.5t-342 -124.5q-63 0 -122 16t-98.5 40.5t-69.5 49.5t-44 41l-15 16l144 144q6 -12 20.5 -28.5t67.5 -45.5t117 -29q115 0 180 65.5t65 180.5v1004z" />
    <glyph glyph-name="uni0409" unicode="&#x409;" horiz-adv-x="2252" 
d="M1649 0h-564v1229h-501v-225q0 -309 -30 -517t-90.5 -316t-133 -149.5t-176.5 -41.5q-37 0 -78 8t-64 16l-22 6v215q61 -20 112 -20q59 0 101.5 29.5t80.5 110.5t56 246t18 413v430h953v-512h338q205 0 343 -134.5t138 -327t-138 -326.5t-343 -134zM1311 205h338
q109 0 182.5 73.5t73.5 182t-74 182.5t-182 74h-338v-512z" />
    <glyph glyph-name="uni040A" unicode="&#x40a;" horiz-adv-x="2263" 
d="M1659 0h-563v717h-666v-717h-225v1434h225v-512h666v512h225v-512h338q205 0 343 -134.5t138 -327t-138 -326.5t-343 -134zM1321 205h338q106 0 181 73.5t75 182t-75 182.5t-181 74h-338v-512z" />
    <glyph glyph-name="uni040B" unicode="&#x40b;" horiz-adv-x="1536" 
d="M1147 512q0 109 -73 177.5t-193 68.5q-137 0 -222.5 -81t-85.5 -206v-471h-225v1229h-348v205h922v-205h-349v-400q14 14 41 37t117 60t191 37q215 0 332.5 -118t117.5 -333v-512h-225v512z" />
    <glyph glyph-name="uni040C" unicode="&#x40c;" horiz-adv-x="1423" 
d="M666 1618l153 287h215l-215 -287h-153zM430 1434v-697l645 697h287l-553 -594l594 -840h-277l-471 676l-225 -246v-430h-225v1434h225z" />
    <glyph glyph-name="uni040E" unicode="&#x40e;" horiz-adv-x="1290" 
d="M297 1434l389 -748l348 748h236l-512 -1086q-90 -193 -195.5 -280.5t-275.5 -87.5q-37 0 -73 8t-54 16l-17 6v195q41 -20 123 -21q100 0 157.5 40t98.5 124l51 103l-512 983h236zM675.5 1761q61.5 0 102.5 41t41 103h154q0 -123 -84 -205t-213 -82t-213 82t-84 205h153
q0 -61 41 -102.5t102.5 -41.5z" />
    <glyph glyph-name="uni040F" unicode="&#x40f;" horiz-adv-x="1556" 
d="M1352 1434v-1434h-461v-307h-225v307h-461v1434h225v-1229h696v1229h226z" />
    <glyph glyph-name="uni0410" unicode="&#x410;" horiz-adv-x="1495" 
d="M41 0l594 1434h225l594 -1434h-235l-154 379h-635l-154 -379h-235zM748 1178l-236 -594h471z" />
    <glyph glyph-name="uni0411" unicode="&#x411;" horiz-adv-x="1382" 
d="M430 205h369q100 0 167.5 67.5t67.5 168t-67.5 168t-167.5 67.5h-369v-471zM799 0h-594v1434h942v-205h-717v-348h369q199 0 330 -127t131 -313.5t-131 -313.5t-330 -127z" />
    <glyph glyph-name="uni0412" unicode="&#x412;" horiz-adv-x="1402" 
d="M819 0h-614v1434h583q174 0 297 -115t123 -264q0 -86 -35.5 -158t-70.5 -100l-37 -29q8 -4 22.5 -13.5t52.5 -41t65.5 -69.5t51 -98.5t23.5 -125.5q0 -172 -132 -296t-329 -124zM430 195h389q100 0 168 67.5t68 167.5t-67.5 168t-168.5 68h-389v-471zM788 1239h-358v-389
h358q84 0 139.5 55.5t55.5 139t-55.5 139t-139.5 55.5z" />
    <glyph glyph-name="uni0413" unicode="&#x413;" horiz-adv-x="1146" 
d="M205 0v1434h921v-205h-696v-1229h-225z" />
    <glyph glyph-name="uni0414" unicode="&#x414;" horiz-adv-x="1495" 
d="M0 205h82q10 8 26.5 27.5t58.5 89t74.5 152.5t59.5 226.5t27 303.5v430h932v-1229h174v-512h-226v307h-983v-307h-225v512zM553 1004q0 -160 -25.5 -301.5t-61.5 -228.5t-72 -151.5t-62 -91.5l-25 -26h727v1024h-481v-225z" />
    <glyph glyph-name="uni0415" unicode="&#x415;" horiz-adv-x="1341" 
d="M430 205h809v-205h-1034v1434h1014v-205h-789v-379h625v-205h-625v-440z" />
    <glyph glyph-name="uni0416" unicode="&#x416;" horiz-adv-x="2048" 
d="M911 0v522l-143 154l-471 -676h-277l594 840l-553 594h287l563 -605v605h226v-605l563 605h287l-553 -594l594 -840h-277l-471 676l-143 -154v-522h-226z" />
    <glyph glyph-name="uni0417" unicode="&#x417;" horiz-adv-x="1290" 
d="M901 758q11 -4 29 -11q18 -8 64 -35.5t81 -63.5t63.5 -100.5t28.5 -137.5q0 -178 -150.5 -304t-402.5 -126q-102 0 -197 24.5t-156.5 58t-109 68.5t-69.5 59l-21 25l144 143q6 -6 18.5 -18t52 -42t83.5 -53.5t114 -42t141 -18.5q154 0 241 69t87 167t-87 166.5t-241 68.5
h-174v205h174q125 0 196 57.5t71 139.5q0 80 -71 136t-196 56q-90 0 -177 -39t-130 -75l-41 -39l-143 143q6 8 20.5 22.5t61.5 52.5t99 65.5t137 51t173 23.5q229 0 360.5 -108.5t131.5 -270.5q0 -66 -21.5 -123t-51 -91t-59.5 -58.5t-52 -34.5z" />
    <glyph glyph-name="uni0418" unicode="&#x418;" horiz-adv-x="1628" 
d="M1423 0h-225v1034l-799 -1034h-194v1434h225v-1035l799 1035h194v-1434z" />
    <glyph glyph-name="uni0419" unicode="&#x419;" horiz-adv-x="1628" 
d="M1423 0h-225v1034l-799 -1034h-194v1434h225v-1035l799 1035h194v-1434zM819.5 1761q61.5 0 102.5 41t41 103h153q0 -123 -84 -205t-213 -82t-213 82t-84 205h154q0 -61 41 -102.5t102.5 -41.5z" />
    <glyph glyph-name="uni041A" unicode="&#x41a;" horiz-adv-x="1423" 
d="M430 1434v-697l645 697h287l-553 -594l594 -840h-277l-471 676l-225 -246v-430h-225v1434h225z" />
    <glyph glyph-name="uni041B" unicode="&#x41b;" horiz-adv-x="1536" 
d="M1331 1434v-1434h-225v1229h-522v-225q0 -309 -30 -517t-90.5 -316t-133 -149.5t-176.5 -41.5q-37 0 -78 8t-64 16l-22 6v215q61 -20 112 -20q59 0 101.5 29.5t80.5 110.5t56 246t18 413v430h973z" />
    <glyph glyph-name="uni041C" unicode="&#x41c;" horiz-adv-x="1904" 
d="M952 737l553 697h195v-1434h-225v1044l-523 -655l-522 655v-1044h-225v1434h194z" />
    <glyph glyph-name="uni041D" unicode="&#x41d;" horiz-adv-x="1566" 
d="M1362 1434v-1434h-225v625h-707v-625h-225v1434h225v-605h707v605h225z" />
    <glyph glyph-name="uni041E" unicode="&#x41e;" horiz-adv-x="1761" 
d="M348 717q0 -223 154.5 -378t378 -155t378 155t154.5 378t-154.5 377.5t-378 154.5t-378 -154.5t-154.5 -377.5zM123 717q0 309 218 523t539.5 214t539.5 -214t218 -523t-218 -523t-539.5 -214t-539.5 214t-218 523z" />
    <glyph glyph-name="uni041F" unicode="&#x41f;" horiz-adv-x="1566" 
d="M1362 1434v-1434h-225v1229h-707v-1229h-225v1434h1157z" />
    <glyph glyph-name="uni0420" unicode="&#x420;" horiz-adv-x="1382" 
d="M205 1434h573q205 0 343.5 -134.5t138.5 -327t-138.5 -326.5t-343.5 -134h-348v-512h-225v1434zM778 1229h-348v-512h348q106 0 181 73.5t75 182t-75 182.5t-181 74z" />
    <glyph glyph-name="uni0421" unicode="&#x421;" horiz-adv-x="1556" 
d="M881 1454q109 0 209 -28.5t165.5 -69.5t114.5 -81t72 -69l22 -28l-143 -144q-6 8 -17.5 22.5t-52.5 52.5t-88 65.5t-122.5 51t-159.5 23.5q-223 0 -378 -154.5t-155 -377.5t154.5 -378t378.5 -155q84 0 160.5 23.5t127 56.5t89 65.5t57.5 55.5l16 25l144 -144
q-8 -12 -24.5 -31.5t-73 -68.5t-120 -87t-166 -68.5t-210.5 -30.5q-322 0 -540 214t-218 523t218 523t540 214z" />
    <glyph glyph-name="uni0422" unicode="&#x422;" horiz-adv-x="1167" 
d="M41 1434h1085v-205h-430v-1229h-225v1229h-430v205z" />
    <glyph glyph-name="uni0423" unicode="&#x423;" horiz-adv-x="1290" 
d="M297 1434l389 -748l348 748h236l-512 -1086q-90 -193 -195.5 -280.5t-275.5 -87.5q-37 0 -73 8t-54 16l-17 6v195q41 -20 123 -21q100 0 157.5 40t98.5 124l51 103l-512 983h236z" />
    <glyph glyph-name="uni0424" unicode="&#x424;" horiz-adv-x="1740" 
d="M1638 737.5q0 -243.5 -180 -409.5t-475 -174v-195h-225v195q-295 8 -475.5 174t-180.5 409.5t180.5 409.5t475.5 174v154h225v-154q295 -8 475 -174t180 -409.5zM1413 737q0 172 -112.5 276.5t-317.5 112.5v-778q205 8 317.5 112.5t112.5 276.5zM328 737
q0 -172 112.5 -276.5t317.5 -112.5v778q-205 -8 -317.5 -112.5t-112.5 -276.5z" />
    <glyph glyph-name="uni0425" unicode="&#x425;" horiz-adv-x="1413" 
d="M707 932l358 502h266l-491 -686l532 -748h-266l-399 563l-400 -563h-266l532 748l-491 686h266z" />
    <glyph glyph-name="uni0426" unicode="&#x426;" horiz-adv-x="1576" 
d="M205 0v1434h225v-1229h686v1229h225v-1229h175v-512h-226v307h-1085z" />
    <glyph glyph-name="uni0427" unicode="&#x427;" horiz-adv-x="1474" 
d="M410 1434v-430q0 -154 79.5 -236t227.5 -82q90 0 172 34t119 66l36 33v615h226v-1434h-226v584q-16 -12 -45.5 -28.5t-126 -45.5t-196.5 -29q-231 0 -361.5 135.5t-130.5 387.5v430h226z" />
    <glyph glyph-name="uni0428" unicode="&#x428;" horiz-adv-x="2129" 
d="M1925 1434v-1434h-1720v1434h225v-1229h522v1229h226v-1229h522v1229h225z" />
    <glyph glyph-name="uni0429" unicode="&#x429;" horiz-adv-x="2160" 
d="M1925 1434v-1229h174v-512h-225v307h-1669v1434h225v-1229h522v1229h226v-1229h522v1229h225z" />
    <glyph glyph-name="uni042A" unicode="&#x42a;" horiz-adv-x="1525" 
d="M922 0h-574v1229h-348v205h573v-512h349q205 0 343 -134.5t138 -327t-138 -326.5t-343 -134zM573 205h349q106 0 181 73.5t75 182t-75 182.5t-181 74h-349v-512z" />
    <glyph glyph-name="uni042B" unicode="&#x42b;" horiz-adv-x="1853" 
d="M1649 1434v-1434h-226v1434h226zM758 0h-553v1434h225v-512h328q205 0 343 -134.5t138 -327t-138 -326.5t-343 -134zM430 205h328q106 0 181 73.5t75 182t-75 182.5t-181 74h-328v-512z" />
    <glyph glyph-name="uni042C" unicode="&#x42c;" horiz-adv-x="1382" 
d="M778 0h-573v1434h225v-512h348q205 0 343.5 -134.5t138.5 -327t-138.5 -326.5t-343.5 -134zM430 205h348q106 0 181 73.5t75 182t-74.5 182.5t-181.5 74h-348v-512z" />
    <glyph glyph-name="uni042D" unicode="&#x42d;" horiz-adv-x="1556" 
d="M676 1454q322 0 540 -214t218 -523t-218.5 -523t-539.5 -214q-109 0 -210 29.5t-168 71.5t-118 84t-74 73l-24 28l143 144q6 -8 18.5 -23.5t54.5 -54.5t90 -69t126 -54.5t162 -24.5q209 0 346 121t176 320h-706v204h706q-49 184 -186.5 302t-335.5 118q-84 0 -160 -22.5
t-125 -53t-86 -62.5t-53 -54l-16 -23l-144 144q8 10 23.5 29.5t70 66.5t117 84t163.5 66.5t210 29.5z" />
    <glyph glyph-name="uni042E" unicode="&#x42e;" horiz-adv-x="2211" 
d="M2089 717q0 -305 -212 -521t-505 -216q-272 0 -469.5 185t-236.5 460h-236v-625h-225v1434h225v-605h236q39 260 237.5 442.5t468.5 182.5q293 0 505 -216t212 -521zM1864 716.5q0 227.5 -144.5 380t-347.5 152.5t-347 -152.5t-144 -380t144 -380t347 -152.5t347.5 152.5
t144.5 380z" />
    <glyph glyph-name="uni042F" unicode="&#x42f;" horiz-adv-x="1413" 
d="M1208 1434v-1434h-225v553h-328l-307 -553h-246l328 573q-12 4 -31.5 13.5t-68.5 44.5t-87 78t-69 119.5t-31 164.5q0 186 131.5 313.5t329.5 127.5h604zM369 993.5q0 -100.5 67.5 -168t167.5 -67.5h379v471h-379q-100 0 -167.5 -67.5t-67.5 -168z" />
    <glyph glyph-name="uni0430" unicode="&#x430;" horiz-adv-x="1075" 
d="M922 0h-205v102q-4 -4 -13.5 -13t-38 -29.5t-61.5 -37t-83 -29.5t-101 -13q-150 0 -249 87t-99 199q0 121 76.5 203t209.5 104l359 62q0 78 -57.5 131t-147.5 53q-78 0 -141.5 -32.5t-87.5 -65.5l-27 -35l-133 133q6 8 16.5 20.5t47 44t77.5 56.5t108.5 44.5t139.5 19.5
q180 0 295 -106.5t115 -262.5v-635zM451 164q125 0 195.5 74.5t70.5 212.5v20l-318 -51q-55 -10 -89 -45t-34 -88q0 -49 47.5 -86t127.5 -37z" />
    <glyph glyph-name="uni0431" unicode="&#x431;" horiz-adv-x="1228" 
d="M1116 481q0 -207 -145.5 -354t-345.5 -147q-231 0 -371.5 165.5t-140.5 479.5q0 358 133 537t379 220q109 18 195.5 46t119.5 47l33 20l92 -154q-6 -8 -24.5 -23t-125 -54t-270.5 -66q-141 -23 -227 -117t-101 -252q4 6 14.5 16.5t42.5 37t67.5 47t91 37t112.5 16.5
q186 0 328.5 -148.5t142.5 -353.5zM338 481q0 -135 85 -226t201.5 -91t201.5 91t85 226t-85 226.5t-201.5 91.5t-201.5 -91.5t-85 -226.5z" />
    <glyph glyph-name="uni0432" unicode="&#x432;" horiz-adv-x="1054" 
d="M133 983h471q141 0 224 -72.5t83 -183.5q0 -63 -27.5 -114.5t-56.5 -71.5l-28 -19q6 -2 17 -7t40 -25.5t50.5 -45t39 -66.5t17.5 -91q0 -127 -90.5 -207t-247.5 -80h-492v983zM625 440h-287v-266h287q61 0 97 36t36 97q0 55 -37 94t-96 39zM707 706.5q0 47.5 -28 75
t-75 27.5h-266v-205h266q47 0 75 27.5t28 75z" />
    <glyph glyph-name="uni0433" unicode="&#x433;" horiz-adv-x="849" 
d="M819 983v-184h-481v-799h-205v983h686z" />
    <glyph glyph-name="uni0434" unicode="&#x434;" horiz-adv-x="1157" 
d="M-10 184h71q6 6 17.5 19.5t40 60.5t50 101.5t39 143.5t17.5 187v287h717v-799h143v-430h-204v246h-686v-246h-205v430zM430 799v-103q0 -98 -16.5 -186t-41 -145.5t-49 -99.5t-40.5 -60l-17 -21h471v615h-307z" />
    <glyph glyph-name="uni0435" unicode="&#x435;" horiz-adv-x="1146" 
d="M1044 420h-768q16 -104 102.5 -180t205.5 -76q86 0 160.5 39t105.5 76l31 38l133 -133q-6 -8 -18.5 -22.5t-53.5 -49t-87 -61t-119.5 -49t-151.5 -22.5q-209 0 -360.5 153.5t-151.5 368.5q0 207 147.5 354.5t354 147.5t344 -137.5t137.5 -344.5zM573 829
q-111 0 -186.5 -65.5t-101.5 -169.5h569q-18 104 -93 169.5t-188 65.5z" />
    <glyph glyph-name="uni0436" unicode="&#x436;" horiz-adv-x="1556" 
d="M870 584l379 399h246l-379 -410l410 -573h-226l-317 440l-113 -123v-317h-204v317l-113 123l-317 -440h-226l410 573l-379 410h246l379 -399v399h204v-399z" />
    <glyph glyph-name="uni0437" unicode="&#x437;" horiz-adv-x="921" 
d="M788 727q0 -68 -37.5 -119t-76.5 -67l-39 -19q8 -2 21.5 -7t46 -23.5t58 -44t47 -70.5t21.5 -101q0 -123 -109.5 -209.5t-299.5 -86.5q-72 0 -138.5 18t-110.5 43t-77 50.5t-49 43.5l-14 19l133 133q12 -14 32.5 -35t88 -54.5t135.5 -33.5q102 0 153.5 38t51.5 95
t-51.5 95t-153.5 38h-113v164h113q80 0 122 31.5t42 81t-42 81t-122 31.5q-59 0 -115.5 -22.5t-83.5 -46.5l-26 -23l-134 133q14 16 41 40t120 64t198 40q170 0 269 -82t99 -195z" />
    <glyph glyph-name="uni0438" unicode="&#x438;" 
d="M850 983h184v-983h-205v645l-512 -645h-184v983h205v-645z" />
    <glyph glyph-name="uni0439" unicode="&#x439;" 
d="M850 983h184v-983h-205v645l-512 -645h-184v983h205v-645zM583.5 1290q61.5 0 102.5 41t41 103h154q0 -123 -84 -205t-213 -82t-213 82t-84 205h153q0 -61 41 -102.5t102.5 -41.5z" />
    <glyph glyph-name="uni043A" unicode="&#x43a;" horiz-adv-x="1064" 
d="M1004 983l-379 -410l409 -573h-225l-317 440l-154 -164v-276h-205v983h205v-440l420 440h246z" />
    <glyph glyph-name="uni043B" unicode="&#x43b;" horiz-adv-x="1157" 
d="M246 983h758v-983h-205v799h-348v-103q0 -281 -44.5 -443.5t-114 -217.5t-179.5 -55q-27 0 -57.5 5t-47.5 11l-18 4v195q41 -10 71 -11q63 0 99.5 34t61 150.5t24.5 327.5v287z" />
    <glyph glyph-name="uni043C" unicode="&#x43c;" horiz-adv-x="1331" 
d="M655 553l359 430h164v-983h-205v645l-318 -379l-317 379v-645h-205v983h164z" />
    <glyph glyph-name="uni043D" unicode="&#x43d;" horiz-adv-x="1177" 
d="M338 410v-410h-205v983h205v-389h481v389h205v-983h-205v410h-481z" />
    <glyph glyph-name="uni043E" unicode="&#x43e;" 
d="M891 491.5q0 137.5 -91 232.5t-216 95t-216.5 -95t-91.5 -232.5t91.5 -232.5t216.5 -95t216 95t91 232.5zM72 491.5q0 206.5 152.5 359.5t359.5 153t359.5 -153t152.5 -359.5t-152.5 -359t-359.5 -152.5t-359.5 152.5t-152.5 359z" />
    <glyph glyph-name="uni043F" unicode="&#x43f;" horiz-adv-x="1177" 
d="M338 799v-799h-205v983h891v-983h-205v799h-481z" />
    <glyph glyph-name="uni0440" unicode="&#x440;" horiz-adv-x="1228" 
d="M655 -20q-55 0 -107 13t-89 32.5t-65.5 40t-41.5 32.5l-14 15v-543h-205v1413h205v-113q14 14 39.5 37t108.5 60t169 37q195 0 338.5 -149.5t143.5 -362.5t-143.5 -362.5t-338.5 -149.5zM635 819q-117 0 -207 -96t-90 -231.5t90 -231.5t207 -96t207 96t90 231.5
t-90 231.5t-207 96z" />
    <glyph glyph-name="uni0441" unicode="&#x441;" horiz-adv-x="1064" 
d="M72 491.5q0 206.5 152.5 359.5t359.5 153q115 0 214 -49.5t142 -98.5l43 -47l-133 -133q-10 16 -30.5 39.5t-89 63.5t-146.5 40q-125 0 -216.5 -95t-91.5 -232.5t91.5 -232.5t216.5 -95q78 0 146.5 39t98.5 76l31 38l133 -133q-6 -8 -18 -22.5t-52 -49t-84 -61t-114 -49
t-141 -22.5q-207 0 -359.5 152.5t-152.5 359z" />
    <glyph glyph-name="uni0442" unicode="&#x442;" horiz-adv-x="962" 
d="M31 799v184h880v-184h-338v-799h-204v799h-338z" />
    <glyph glyph-name="uni0443" unicode="&#x443;" horiz-adv-x="1044" 
d="M369 -102l41 102l-400 983h215l287 -717l287 717h215l-441 -1085q-76 -182 -150.5 -255t-186.5 -73q-41 0 -77 5t-53 11l-14 4v185q51 -20 103 -21q117 1 174 144z" />
    <glyph glyph-name="uni0444" unicode="&#x444;" horiz-adv-x="1515" 
d="M645 -430v410q-256 0 -414.5 146t-158.5 365.5t158.5 366t414.5 146.5v430h205v-430q256 0 414.5 -146.5t158.5 -366t-158.5 -365.5t-414.5 -146v-410h-205zM645 164v655q-174 0 -271.5 -89t-97.5 -238.5t97.5 -238.5t271.5 -89zM850 819v-655q174 0 271.5 89t97.5 238.5
t-97.5 238.5t-271.5 89z" />
    <glyph glyph-name="uni0445" unicode="&#x445;" horiz-adv-x="1024" 
d="M625 512l368 -512h-235l-256 358l-256 -358h-236l369 512l-338 471h235l226 -317l225 317h236z" />
    <glyph glyph-name="uni0446" unicode="&#x446;" horiz-adv-x="1218" 
d="M133 0v983h205v-799h461v799h205v-799h143v-430h-205v246h-809z" />
    <glyph glyph-name="uni0447" unicode="&#x447;" horiz-adv-x="1105" 
d="M748 0v369q-102 -72 -246 -72q-178 0 -283.5 107.5t-105.5 291.5v287h204v-287q0 -92 59.5 -153.5t145.5 -61.5q63 0 119.5 20.5t81.5 41.5l25 20v420h204v-983h-204z" />
    <glyph glyph-name="uni0448" unicode="&#x448;" horiz-adv-x="1617" 
d="M133 0v983h205v-799h358v799h205v-799h359v799h204v-983h-1331z" />
    <glyph glyph-name="uni0449" unicode="&#x449;" horiz-adv-x="1679" 
d="M133 0v983h205v-799h358v799h205v-799h359v799h204v-799h144v-430h-205v246h-1270z" />
    <glyph glyph-name="uni044A" unicode="&#x44a;" horiz-adv-x="1116" 
d="M1024 337.5q0 -147.5 -101.5 -242.5t-267.5 -95h-419v799h-246v184h450v-307h215q166 0 267.5 -95.5t101.5 -243zM440 174h215q70 0 117 47t47 117t-47 117t-117 47h-215v-328z" />
    <glyph glyph-name="uni044B" unicode="&#x44b;" horiz-adv-x="1423" 
d="M338 174h215q70 0 117 47t47 117t-47 117t-117 47h-215v-328zM922 337.5q0 -147.5 -101.5 -242.5t-267.5 -95h-420v983h205v-307h215q166 0 267.5 -95.5t101.5 -243zM1270 983v-983h-205v983h205z" />
    <glyph glyph-name="uni044C" unicode="&#x44c;" horiz-adv-x="1024" 
d="M338 174h225q70 0 117 47t47 117t-47 117t-117 47h-225v-328zM932 337.5q0 -147.5 -101.5 -242.5t-267.5 -95h-430v983h205v-307h225q166 0 267.5 -95.5t101.5 -243z" />
    <glyph glyph-name="uni044D" unicode="&#x44d;" horiz-adv-x="1064" 
d="M973 491.5q0 -206.5 -152.5 -359t-359.5 -152.5q-72 0 -140.5 21.5t-114.5 51t-83 59t-53 52.5l-19 20l133 133q4 -6 12.5 -16t35 -36.5t56 -47t77 -37t96.5 -16.5q70 0 125 26.5t85.5 63.5t51 75t27.5 64l8 27h-451v174h441q-2 8 -8.5 23.5t-29 54.5t-51 68.5t-82 54
t-116.5 24.5q-78 0 -144.5 -35.5t-95.5 -70.5l-26 -37l-134 133q6 8 17.5 21.5t49.5 46t81 58.5t111.5 47.5t140.5 21.5q207 0 359.5 -153t152.5 -359.5z" />
    <glyph glyph-name="uni044E" unicode="&#x44e;" horiz-adv-x="1638" 
d="M1546 491.5q0 -206.5 -152.5 -359t-359.5 -152.5q-195 0 -336 128t-166 302h-194v-410h-205v983h205v-389h194q33 162 175.5 286t326.5 124q207 0 359.5 -153t152.5 -359.5zM1341 491.5q0 137.5 -91 232.5t-216 95t-216 -95t-91 -232.5t91 -232.5t216 -95t216 95
t91 232.5z" />
    <glyph glyph-name="uni044F" unicode="&#x44f;" horiz-adv-x="1064" 
d="M461 983h450v-983h-204v307h-215l-195 -307h-225l215 338q-8 2 -21.5 9t-46.5 31.5t-58.5 56.5t-47 88.5t-21.5 121.5q0 147 101.5 242.5t267.5 95.5zM707 809h-246q-70 0 -117 -47t-47 -117t47 -117t117 -47h246v328z" />
    <glyph glyph-name="uni0451" unicode="&#x451;" horiz-adv-x="1146" 
d="M1044 420h-768q16 -104 102.5 -180t205.5 -76q86 0 160.5 39t105.5 76l31 38l133 -133q-6 -8 -18.5 -22.5t-53.5 -49t-87 -61t-119.5 -49t-151.5 -22.5q-209 0 -360.5 153.5t-151.5 368.5q0 207 147.5 354.5t354 147.5t344 -137.5t137.5 -344.5zM573 829
q-111 0 -186.5 -65.5t-101.5 -169.5h569q-18 104 -93 169.5t-188 65.5zM481 1290q0 -53 -34.5 -88t-88 -35t-88 35t-34.5 88t34.5 88t88 35t88 -35t34.5 -88zM911 1290q0 -53 -34.5 -88t-88 -35t-88 35t-34.5 88t34.5 88t88 35t88 -35t34.5 -88z" />
    <glyph glyph-name="uni0452" unicode="&#x452;" horiz-adv-x="1198" 
d="M666 963q188 0 303.5 -128t115.5 -354q0 -221 -136 -361t-345 -140v184q119 0 198 87t79 230.5t-69 220t-187 76.5q-117 0 -186.5 -75.5t-69.5 -210.5v-492h-205v1085h-174v185h174v164h205v-164h256v-185h-256v-245l13 13q9 9 38 29.5t61.5 37t83 30t101.5 13.5z" />
    <glyph glyph-name="uni0453" unicode="&#x453;" horiz-adv-x="849" 
d="M819 983v-184h-481v-799h-205v983h686zM389 1147l154 287h215l-215 -287h-154z" />
    <glyph glyph-name="uni0454" unicode="&#x454;" horiz-adv-x="1064" 
d="M72 491.5q0 206.5 152.5 359.5t359.5 153q115 0 214 -49.5t142 -98.5l43 -47l-133 -133q-10 16 -30.5 39.5t-89 63.5t-146.5 40q-63 0 -115.5 -23.5t-83.5 -56t-52.5 -65.5t-29.5 -56l-6 -24h440v-174h-450q2 -10 7 -27.5t26.5 -61.5t52 -78t86 -61.5t125.5 -27.5
q78 0 146.5 39t98.5 76l31 38l133 -133q-6 -8 -18 -22.5t-52 -49t-84 -61t-114 -49t-141 -22.5q-207 0 -359.5 152.5t-152.5 359z" />
    <glyph glyph-name="uni0455" unicode="&#x455;" horiz-adv-x="890" 
d="M758 870l-133 -133q-8 8 -23.5 22.5t-64 37t-97.5 22.5q-66 0 -104.5 -30.5t-38.5 -71.5q0 -43 37 -72t93 -44t120.5 -37.5t121 -50.5t93.5 -86t37 -140q0 -127 -102.5 -217t-266.5 -90q-72 0 -137.5 18t-107.5 43t-73.5 50.5t-45.5 43.5l-15 19l133 133q10 -14 29.5 -35
t84 -54.5t132.5 -33.5q82 0 123 33.5t41 89.5q0 43 -37 71.5t-93 44t-120.5 38t-121 50t-93.5 86t-37 140.5q0 113 99.5 200t248.5 87q59 0 114.5 -13.5t90.5 -33t61.5 -40t38.5 -32.5z" />
    <glyph glyph-name="uni0456" unicode="&#x456;" horiz-adv-x="512" 
d="M348 983v-983h-205v983h205zM369 1290q0 -53 -35 -88t-88 -35t-88 35t-35 88t35 88t88 35t88 -35t35 -88z" />
    <glyph glyph-name="uni0457" unicode="&#x457;" horiz-adv-x="532" 
d="M164 1290q0 -53 -35 -88t-88 -35t-88 35t-35 88t35 88t88 35t88 -35t35 -88zM594 1290q0 -53 -35 -88t-88 -35t-88 35t-35 88t35 88t88 35t88 -35t35 -88zM358 983v-983h-204v983h204z" />
    <glyph glyph-name="uni0458" unicode="&#x458;" horiz-adv-x="512" 
d="M143 -121v1104h205v-1106q0 -307 -287 -307q-37 0 -72.5 5t-54.5 11l-16 4v185q51 -20 102 -21q53 0 88 35t35 90zM369 1290q0 -53 -35 -88t-88 -35t-88 35t-35 88t35 88t88 35t88 -35t35 -88z" />
    <glyph glyph-name="uni0459" unicode="&#x459;" horiz-adv-x="1669" 
d="M1577 317.5q0 -141.5 -98.5 -229.5t-270.5 -88h-430v799h-327v-103q0 -281 -44.5 -443.5t-114 -217.5t-179.5 -55q-27 0 -57.5 5t-47.5 11l-18 4v195q41 -10 71 -11q63 0 99.5 34t61 150.5t24.5 327.5v287h737v-348h225q172 0 270.5 -88t98.5 -229.5zM1372 317.5
q0 63.5 -44 103.5t-120 40h-225v-287h225q76 0 120 40t44 103.5z" />
    <glyph glyph-name="uni045A" unicode="&#x45a;" horiz-adv-x="1689" 
d="M1597 317.5q0 -141.5 -98 -229.5t-270 -88h-430v451h-461v-451h-205v983h205v-348h461v348h205v-348h225q172 0 270 -88t98 -229.5zM1393 317.5q0 63.5 -44 103.5t-120 40h-225v-287h225q76 0 120 40t44 103.5z" />
    <glyph glyph-name="uni045B" unicode="&#x45b;" horiz-adv-x="1218" 
d="M369 1434v-164h256v-185h-256v-245l13 13q9 9 38 29.5t61.5 37t82.5 30t102 13.5q178 0 288.5 -117t110.5 -314v-532h-205v532q0 106 -67.5 176t-167.5 70q-117 0 -186.5 -75.5t-69.5 -210.5v-492h-205v1085h-174v185h174v164h205z" />
    <glyph glyph-name="uni045C" unicode="&#x45c;" horiz-adv-x="1064" 
d="M1004 983l-379 -410l409 -573h-225l-317 440l-154 -164v-276h-205v983h205v-440l420 440h246zM471 1147l154 287h215l-215 -287h-154z" />
    <glyph glyph-name="uni045E" unicode="&#x45e;" horiz-adv-x="1044" 
d="M369 -102l41 102l-400 983h215l287 -717l287 717h215l-441 -1085q-76 -182 -150.5 -255t-186.5 -73q-41 0 -77 5t-53 11l-14 4v185q51 -20 103 -21q117 1 174 144zM512 1290q61 0 102 41t41 103h154q0 -123 -84 -205t-213 -82t-213 82t-84 205h154q0 -61 41 -102.5
t102 -41.5z" />
    <glyph glyph-name="uni045F" unicode="&#x45f;" horiz-adv-x="1167" 
d="M133 0v983h205v-799h471v799h205v-983h-338v-246h-205v246h-338z" />
    <glyph glyph-name="uni0490" unicode="&#x490;" horiz-adv-x="1126" 
d="M922 1434v286h204v-491h-696v-1229h-225v1434h717z" />
    <glyph glyph-name="uni0491" unicode="&#x491;" horiz-adv-x="849" 
d="M133 0v983h502v246h184v-430h-481v-799h-205z" />
    <glyph glyph-name="uni1E9E" unicode="&#x1e9e;" horiz-adv-x="1351" 
d="M872 860l13 -4q10 -2 31.5 -10t47 -19.5t56.5 -30t59.5 -42t56 -55t48 -69.5t33 -87t12.5 -103q0 -180 -138.5 -310t-342.5 -130h-113v205h113q113 0 184.5 67.5t71.5 168t-72 168t-184 67.5h-113v194l266 359h-246q-106 0 -175.5 -68.5t-69.5 -175.5v-985h-226v985
q0 184 136.5 316.5t334.5 132.5h492v-195z" />
    <glyph glyph-name="endash" unicode="&#x2013;" horiz-adv-x="942" 
d="M881 696v-184h-820v184h820z" />
    <glyph glyph-name="emdash" unicode="&#x2014;" horiz-adv-x="1433" 
d="M1372 696v-184h-1311v184h1311z" />
    <glyph glyph-name="quoteleft" unicode="&#x2018;" horiz-adv-x="471" 
d="M225 963l-184 102l256 410l133 -72z" />
    <glyph glyph-name="quoteright" unicode="&#x2019;" horiz-adv-x="471" 
d="M246 1475l184 -103l-256 -409l-133 71z" />
    <glyph glyph-name="quotesinglbase" unicode="&#x201a;" horiz-adv-x="491" 
d="M205 246l184 -103l-256 -409l-133 71z" />
    <glyph glyph-name="quotedblleft" unicode="&#x201c;" horiz-adv-x="839" 
d="M594 963l-184 102l256 410l133 -72zM225 963l-184 102l256 410l133 -72z" />
    <glyph glyph-name="quotedblright" unicode="&#x201d;" horiz-adv-x="839" 
d="M246 1475l184 -103l-256 -409l-133 71zM614 1475l185 -103l-256 -409l-133 71z" />
    <glyph glyph-name="quotedblbase" unicode="&#x201e;" horiz-adv-x="860" 
d="M205 246l184 -103l-256 -409l-133 71zM573 246l185 -103l-256 -409l-133 71z" />
    <glyph glyph-name="dagger" unicode="&#x2020;" horiz-adv-x="880" 
d="M358 1178v256h164v-256h236v-154h-236v-614h-164v614h-235v154h235z" />
    <glyph glyph-name="daggerdbl" unicode="&#x2021;" horiz-adv-x="880" 
d="M522 1434v-256h236v-154h-236v-205h236v-153h-236v-256h-164v256h-235v153h235v205h-235v154h235v256h164z" />
    <glyph glyph-name="bullet" unicode="&#x2022;" horiz-adv-x="860" 
d="M655 491.5q0 -92.5 -66.5 -159t-158.5 -66.5t-158.5 66.5t-66.5 159t66.5 159t158.5 66.5t158.5 -66.5t66.5 -159z" />
    <glyph glyph-name="ellipsis" unicode="&#x2026;" horiz-adv-x="1536" 
d="M369 112.5q0 -53.5 -40 -93t-93.5 -39.5t-93.5 39.5t-40 93t40 93.5t93.5 40t93.5 -40t40 -93.5zM901 112.5q0 -53.5 -40 -93t-93 -39.5t-93 39.5t-40 93t40 93.5t93 40t93 -40t40 -93.5zM1434 112.5q0 -53.5 -40 -93t-93.5 -39.5t-93.5 39.5t-40 93t40 93.5t93.5 40
t93.5 -40t40 -93.5z" />
    <glyph glyph-name="perthousand" unicode="&#x2030;" horiz-adv-x="2334" 
d="M737 1137q0 -131 -95 -224.5t-232.5 -93.5t-232.5 93.5t-95 224.5t95 224t232.5 93t232.5 -93t95 -224zM246 1136.5q0 -69.5 47 -116.5t116.5 -47t116.5 47t47 116.5t-47 116.5t-116.5 47t-116.5 -47t-47 -116.5zM246 0l901 1434h184l-901 -1434h-184zM840 297
q0 131 95 224t232.5 93t232.5 -93t95 -224t-95 -224t-232.5 -93t-232.5 93t-95 224zM1331 297q0 70 -47 117t-116.5 47t-116.5 -47t-47 -117t47 -117t116.5 -47t116.5 47t47 117zM1597 297q0 131 95.5 224t232.5 93t232.5 -93t95.5 -224t-95.5 -224t-232.5 -93t-232.5 93
t-95.5 224zM2089 297q0 70 -47 117t-117 47t-117 -47t-47 -117t47 -117t117 -47t117 47t47 117z" />
    <glyph glyph-name="guilsinglleft" unicode="&#x2039;" horiz-adv-x="614" 
d="M532 840l-245 -348l245 -349h-204l-246 349l246 348h204z" />
    <glyph glyph-name="guilsinglright" unicode="&#x203a;" horiz-adv-x="614" 
d="M328 492l-246 348h205l245 -348l-245 -349h-205z" />
    <glyph glyph-name="fraction" unicode="&#x2044;" horiz-adv-x="368" 
d="M-348 0l880 1434h185l-881 -1434h-184z" />
    <glyph glyph-name="uni2070" unicode="&#x2070;" horiz-adv-x="737" 
d="M205 1280q0 -109 49 -172.5t114.5 -63.5t114.5 63.5t49 172.5t-49 172.5t-114.5 63.5t-114.5 -63.5t-49 -172.5zM676 1280q0 -172 -86 -270.5t-221.5 -98.5t-221.5 98.5t-86 270.5t86 270.5t221.5 98.5t221.5 -98.5t86 -270.5z" />
    <glyph glyph-name="uni2074" unicode="&#x2074;" horiz-adv-x="655" 
d="M512 1638v-430h82v-143h-82v-143h-143v143h-328v143l307 430h164zM195 1208h174v246z" />
    <glyph glyph-name="uni2075" unicode="&#x2075;" horiz-adv-x="614" 
d="M338 1382q100 0 167.5 -67.5t67.5 -167.5q0 -102 -74.5 -169t-201.5 -67q-86 0 -155.5 26t-96.5 50l-25 27l93 102q63 -72 174 -72q66 0 104.5 31t38.5 72q0 47 -37 80t-96 33q-33 0 -60.5 -7.5t-39.5 -15.5l-13 -8h-112l41 409h419v-143h-296l-11 -133q41 20 113 20z
" />
    <glyph glyph-name="uni2076" unicode="&#x2076;" horiz-adv-x="614" 
d="M471 1638l-154 -215q123 -8 195 -77.5t72 -178t-78 -182.5t-199 -74t-198.5 74t-77.5 182q0 37 10 73t20 54l11 17l235 327h164zM440 1167.5q0 55.5 -35.5 89t-97 33.5t-97.5 -33.5t-36 -89t36 -89.5t97.5 -34t97 34t35.5 89.5z" />
    <glyph glyph-name="uni2077" unicode="&#x2077;" horiz-adv-x="573" 
d="M31 1638h512v-143l-267 -573h-153l266 573h-358v143z" />
    <glyph glyph-name="uni2078" unicode="&#x2078;" horiz-adv-x="614" 
d="M307.5 1044q65.5 0 99 26t33.5 67t-33.5 66.5t-99 25.5t-99.5 -25.5t-34 -66.5t34 -67t99.5 -26zM307.5 1362q102.5 0 102.5 82q0 72 -102.5 72t-102.5 -72q0 -82 102.5 -82zM307 911q-125 0 -200.5 62.5t-75.5 148.5q0 61 35.5 105.5t72.5 58.5l35 14q-4 2 -12 5.5
t-27.5 16.5t-34 29.5t-27 44t-12.5 58.5q0 80 68 137.5t178.5 57.5t178 -57.5t67.5 -137.5q0 -49 -28.5 -88t-57.5 -51l-27 -15q6 -2 15.5 -5t34 -17t44 -32.5t35 -51.5t15.5 -72q0 -86 -76 -148.5t-201 -62.5z" />
    <glyph glyph-name="uni2079" unicode="&#x2079;" horiz-adv-x="614" 
d="M143 922l154 215q-123 8 -194.5 77.5t-71.5 178t77.5 182.5t198.5 74t199 -74t78 -182q0 -37 -10.5 -73t-20.5 -54l-10 -17l-236 -327h-164zM174 1392.5q0 -55.5 36 -89t97.5 -33.5t97 33.5t35.5 89t-35.5 89.5t-97 34t-97.5 -34t-36 -89.5z" />
    <glyph glyph-name="uni2080" unicode="&#x2080;" horiz-adv-x="737" 
d="M205 153.5q0 -108.5 49 -172t114.5 -63.5t114.5 63.5t49 172t-49 172t-114.5 63.5t-114.5 -63.5t-49 -172zM676 154q0 -172 -86 -270.5t-221.5 -98.5t-221.5 98.5t-86 270.5t86 270t221.5 98t221.5 -98t86 -270z" />
    <glyph glyph-name="uni2081" unicode="&#x2081;" horiz-adv-x="450" 
d="M215 512h113v-717h-144v512h-123v113h21q49 0 87 28.5t46 63.5z" />
    <glyph glyph-name="uni2082" unicode="&#x2082;" horiz-adv-x="655" 
d="M573 297q0 -86 -56 -149.5t-144 -120t-117 -88.5h317v-144h-491v21q0 86 36 151.5t87 104.5t102 71.5t87 70.5t36 83q0 39 -28.5 65.5t-73.5 26.5q-37 0 -68 -25.5t-43 -52.5l-12 -24l-123 41q2 8 6 21t21.5 46t42 58.5t71.5 47t105 21.5q115 0 180 -62.5t65 -162.5z" />
    <glyph glyph-name="uni2083" unicode="&#x2083;" horiz-adv-x="675" 
d="M481 184q12 -6 30.5 -17t50.5 -56t32 -101q0 -94 -74 -159.5t-192 -65.5q-86 0 -152.5 34t-89.5 66l-25 33l93 92q6 -10 19 -25.5t59.5 -41t95.5 -25.5q59 0 91 25.5t32 66.5t-32 66.5t-91 25.5h-82v144h71q102 0 102.5 71.5t-102.5 71.5q-37 0 -72.5 -20.5t-51.5 -40.5
l-19 -21l-92 92q4 4 10 13.5t28.5 30t47.5 37t65.5 29.5t83.5 13q113 0 179.5 -58t66.5 -147q0 -41 -20.5 -73.5t-40.5 -46.5z" />
    <glyph glyph-name="uni2084" unicode="&#x2084;" horiz-adv-x="655" 
d="M512 512v-430h82v-143h-82v-144h-143v144h-328v143l307 430h164zM195 82h174v246z" />
    <glyph glyph-name="uni2085" unicode="&#x2085;" horiz-adv-x="614" 
d="M338 256q100 0 167.5 -67.5t67.5 -168.5q0 -102 -74.5 -168.5t-201.5 -66.5q-86 0 -155.5 25.5t-96.5 50.5l-25 26l93 103q63 -72 174 -72q66 0 104.5 31t38.5 71q0 47 -37 80t-96 33q-33 0 -60.5 -7t-39.5 -15l-13 -9h-112l41 410h419v-143h-296l-11 -133q41 20 113 20z
" />
    <glyph glyph-name="uni2086" unicode="&#x2086;" horiz-adv-x="614" 
d="M471 512l-154 -215q123 -8 195 -77.5t72 -178.5t-78 -182.5t-199 -73.5t-198.5 73.5t-77.5 182.5q0 37 10 73t20 54l11 16l235 328h164zM440 41q0 55 -35.5 89t-97 34t-97.5 -34t-36 -89t36 -89t97.5 -34t97 34t35.5 89z" />
    <glyph glyph-name="uni2087" unicode="&#x2087;" horiz-adv-x="573" 
d="M31 512h512v-143l-267 -574h-153l266 574h-358v143z" />
    <glyph glyph-name="uni2088" unicode="&#x2088;" horiz-adv-x="614" 
d="M307.5 -82q65.5 0 99 25.5t33.5 66.5t-33.5 66.5t-99 25.5t-99.5 -25.5t-34 -66.5t34 -66.5t99.5 -25.5zM307.5 236q102.5 0 102.5 81q0 72 -102.5 72t-102.5 -72q0 -81 102.5 -81zM307 -215q-125 0 -200.5 62.5t-75.5 148.5q0 61 35.5 105t72.5 59l35 14q-4 2 -12 5
t-27.5 16.5t-34 30t-27 44t-12.5 58.5q0 80 68 137t178.5 57t178 -57t67.5 -137q0 -49 -28.5 -88t-57.5 -52l-27 -14q6 -2 15.5 -5t34 -17.5t44 -33t35 -51t15.5 -71.5q0 -86 -76 -148.5t-201 -62.5z" />
    <glyph glyph-name="uni2089" unicode="&#x2089;" horiz-adv-x="614" 
d="M143 -205l154 215q-123 8 -194.5 78t-71.5 178.5t77.5 182t198.5 73.5t199 -73.5t78 -182.5q0 -37 -10.5 -72.5t-20.5 -54.5l-10 -16l-236 -328h-164zM174 266.5q0 -55.5 36 -89.5t97.5 -34t97 34t35.5 89.5t-35.5 89t-97 33.5t-97.5 -33.5t-36 -89z" />
    <glyph glyph-name="Euro" unicode="&#x20ac;" horiz-adv-x="1525" 
d="M492 799v-164h450v-174h-399q4 -10 13 -29.5t43 -67t76 -84t116.5 -66.5t160.5 -30q63 0 122 16.5t98.5 41t69.5 49t44 41.5l14 16l144 -143q-6 -8 -19.5 -23.5t-59.5 -54.5t-98.5 -68.5t-137.5 -54t-177 -24.5q-104 0 -196 26.5t-156.5 68.5t-119 94t-87.5 103.5
t-55.5 93.5t-30.5 68l-10 27h-215v174h184v164h-184v174h215q6 20 18.5 52t64.5 115t119.5 146.5t188.5 115.5t264 52q92 0 175 -22.5t136.5 -53t94.5 -62.5t59 -54l17 -23l-144 -143q-4 6 -13 16t-41 37t-67.5 47.5t-94 36.5t-122.5 16q-86 0 -159.5 -28.5t-117.5 -69.5
t-76 -81t-44 -69l-12 -28h399v-174h-450z" />
    <glyph glyph-name="uni20B4" unicode="&#x20b4;" horiz-adv-x="1310" 
d="M614 1249q-86 0 -157.5 -30.5t-100.5 -61.5l-28 -31l-144 144q6 8 17.5 20.5t51.5 44t86 56t121 44t154 19.5q215 0 343 -107.5t128 -261.5q0 -33 -8 -60.5t-16 -39.5l-6 -12h133v-174h-1065v174h706q31 31 31 92q0 74 -67.5 129t-178.5 55zM696 184q86 0 158 31t100 61
l29 31l143 -143q-6 -8 -17 -20.5t-51 -44t-86 -56.5t-121 -44t-155 -19q-215 0 -343 107.5t-128 260.5q0 33 8.5 60.5t16.5 40.5l6 12h-133v174h1065v-174h-707q-31 -31 -30 -92q0 -74 67 -129.5t178 -55.5z" />
    <glyph glyph-name="uni20BD" unicode="&#x20bd;" horiz-adv-x="1413" 
d="M492 758h337q100 0 168 67.5t68 168t-67.5 168t-168.5 67.5h-337v-471zM829 553h-337v-143h460v-205h-460v-205h-226v205h-164v205h164v143h-164v205h164v676h563q199 0 330 -127t131 -313.5t-131 -313.5t-330 -127z" />
    <glyph glyph-name="uni2116" unicode="&#x2116;" horiz-adv-x="2355" 
d="M2253 184v-184h-635v184h635zM1198 1434h225v-1434h-194l-799 1034v-1034h-225v1434h194l799 -1035v1035zM1597 676q0 139 96.5 233.5t242 94.5t241.5 -94.5t96 -233.5t-96 -233.5t-241.5 -94.5t-242 94.5t-96.5 233.5zM2109 676q0 78 -49 126t-124.5 48t-125 -48
t-49.5 -126t49.5 -126t125 -48t124.5 48t49 126z" />
    <glyph glyph-name="trademark" unicode="&#x2122;" horiz-adv-x="1341" 
d="M20 1311v123h482v-123h-174v-492h-133v492h-175zM1126 1434h113v-615h-133v369l-184 -225l-185 225v-369h-133v615h113l205 -267z" />
    <glyph glyph-name="minus" unicode="&#x2212;" horiz-adv-x="1085" 
d="M1004 696v-184h-922v184h922z" />
    <glyph glyph-name="approxequal" unicode="&#x2248;" horiz-adv-x="1126" 
d="M758 788q55 0 101 31t65 62l18 30l123 -92q-4 -8 -12.5 -20.5t-37 -44t-61 -56t-86 -44t-110.5 -19.5q-70 0 -127.5 20.5t-90 46t-78.5 46t-93 20.5q-55 0 -101.5 -30.5t-64.5 -61.5l-19 -31l-123 92q4 8 12.5 20.5t37 44.5t61.5 56.5t86 44t111 19.5q70 0 127 -20.5
t89.5 -46.5t79 -46.5t93.5 -20.5zM758 440q55 0 101 31t65 61l18 31l123 -92q-4 -8 -12.5 -20.5t-37 -44t-61 -56t-86 -44t-110.5 -19.5q-70 0 -127.5 20.5t-90 46t-78.5 46t-93 20.5q-55 0 -101.5 -31t-64.5 -61l-19 -31l-123 92q4 8 12.5 20.5t37 44t61.5 56.5t86 44
t111 19q70 0 127 -20.5t89.5 -46t79 -46t93.5 -20.5z" />
    <glyph glyph-name="notequal" unicode="&#x2260;" horiz-adv-x="1003" 
d="M922 512v-184h-441l-92 -236h-184l92 236h-215v184h287l82 184h-369v185h440l92 235h185l-92 -235h215v-185h-287l-82 -184h369z" />
    <glyph glyph-name="lessequal" unicode="&#x2264;" horiz-adv-x="1024" 
d="M82 0v184h860v-184h-860zM942 1157v-194l-553 -246l553 -246v-195l-860 400v82z" />
    <glyph glyph-name="greaterequal" unicode="&#x2265;" horiz-adv-x="1024" 
d="M942 184v-184h-860v184h860zM82 963v194l860 -399v-82l-860 -400v195l553 246z" />
    <glyph glyph-name="uniF6C3" unicode="&#xf6c3;" horiz-adv-x="399" 
d="M61 -451l93 287h184l-133 -287h-144z" />
    <glyph glyph-name="uniF6D1" unicode="&#xf6d1;" horiz-adv-x="716" 
d="M358.5 1761q61.5 0 102.5 41t41 103h153q0 -123 -84 -205t-213 -82t-213 82t-84 205h154q0 -61 41 -102.5t102.5 -41.5z" />
    <glyph glyph-name="uniF6D4" unicode="&#xf6d4;" horiz-adv-x="716" 
d="M358.5 1290q61.5 0 102.5 41t41 103h153q0 -123 -84 -205t-213 -82t-213 82t-84 205h154q0 -61 41 -102.5t102.5 -41.5z" />
    <glyph glyph-name="glyph2" horiz-adv-x="681" 
 />
    <glyph glyph-name="lslash.salt" horiz-adv-x="798" 
d="M829 891l-337 -205v-397q0 -55 34.5 -90t87.5 -35q23 0 48.5 5t39.5 11l15 4v-184q-61 -20 -144 -20q-287 0 -286 307v286l-256 -153l-82 143l338 205v666h205v-553l256 153z" />
    <glyph glyph-name="glyph444" horiz-adv-x="1351" 
d="M872 860l13 -4q10 -2 31.5 -10t47 -19.5t56.5 -30t59.5 -42t56 -55t48 -69.5t33 -87t12.5 -103q0 -180 -138.5 -310t-342.5 -130h-113v205h113q113 0 184.5 67.5t71.5 168t-72 168t-184 67.5h-113v194l266 359h-246q-106 0 -175.5 -68.5t-69.5 -175.5v-985h-226v985
q0 184 136.5 316.5t334.5 132.5h492v-195z" />
    <glyph glyph-name="uni045E.salt" horiz-adv-x="1044" 
d="M225 -430l185 430l-400 983h215l287 -717l287 717h215l-574 -1413h-215zM512 1290q61 0 102 41t41 103h154q0 -123 -84 -205t-213 -82t-213 82t-84 205h154q0 -61 41 -102.5t102 -41.5z" />
    <glyph glyph-name="agrave.salt" horiz-adv-x="1095" 
d="M471 1434l154 -287h-154l-215 287h215zM973 -20q-86 0 -142.5 38.5t-68.5 75.5l-14 39q-4 -6 -11.5 -16.5t-36 -37t-61.5 -47t-89 -36.5t-120 -16q-156 0 -257 87t-101 199q0 121 76.5 203t209.5 104l359 62q0 78 -57.5 131t-147.5 53q-78 0 -141.5 -32.5t-87.5 -65.5
l-27 -35l-133 133q6 8 16.5 20.5t47 44t77.5 56.5t108.5 44.5t139.5 19.5q180 0 295 -106.5t115 -262.5v-410q0 -82 82 -82l40 11v-164q-30 -10 -71 -10zM451 164q125 0 195.5 74.5t70.5 212.5v20l-318 -51q-55 -10 -89 -45t-34 -88q0 -49 47.5 -86t127.5 -37z" />
    <glyph glyph-name="aacute.salt" horiz-adv-x="1095" 
d="M471 1147l154 287h215l-215 -287h-154zM973 -20q-86 0 -142.5 38.5t-68.5 75.5l-14 39q-4 -6 -11.5 -16.5t-36 -37t-61.5 -47t-89 -36.5t-120 -16q-156 0 -257 87t-101 199q0 121 76.5 203t209.5 104l359 62q0 78 -57.5 131t-147.5 53q-78 0 -141.5 -32.5t-87.5 -65.5
l-27 -35l-133 133q6 8 16.5 20.5t47 44t77.5 56.5t108.5 44.5t139.5 19.5q180 0 295 -106.5t115 -262.5v-410q0 -82 82 -82l40 11v-164q-30 -10 -71 -10zM451 164q125 0 195.5 74.5t70.5 212.5v20l-318 -51q-55 -10 -89 -45t-34 -88q0 -49 47.5 -86t127.5 -37z" />
    <glyph glyph-name="abreve.salt" horiz-adv-x="1095" 
d="M563.5 1290q61.5 0 102.5 41t41 103h153q0 -123 -84 -205t-213 -82t-213 82t-84 205h154q0 -61 41 -102.5t102.5 -41.5zM973 -20q-86 0 -142.5 38.5t-68.5 75.5l-14 39q-4 -6 -11.5 -16.5t-36 -37t-61.5 -47t-89 -36.5t-120 -16q-156 0 -257 87t-101 199q0 121 76.5 203
t209.5 104l359 62q0 78 -57.5 131t-147.5 53q-78 0 -141.5 -32.5t-87.5 -65.5l-27 -35l-133 133q6 8 16.5 20.5t47 44t77.5 56.5t108.5 44.5t139.5 19.5q180 0 295 -106.5t115 -262.5v-410q0 -82 82 -82l40 11v-164q-30 -10 -71 -10zM451 164q125 0 195.5 74.5t70.5 212.5
v20l-318 -51q-55 -10 -89 -45t-34 -88q0 -49 47.5 -86t127.5 -37z" />
    <glyph glyph-name="acircumflex.salt" horiz-adv-x="1095" 
d="M666 1434l225 -287h-184l-144 184l-143 -184h-184l225 287h205zM973 -20q-86 0 -142.5 38.5t-68.5 75.5l-14 39q-4 -6 -11.5 -16.5t-36 -37t-61.5 -47t-89 -36.5t-120 -16q-156 0 -257 87t-101 199q0 121 76.5 203t209.5 104l359 62q0 78 -57.5 131t-147.5 53
q-78 0 -141.5 -32.5t-87.5 -65.5l-27 -35l-133 133q6 8 16.5 20.5t47 44t77.5 56.5t108.5 44.5t139.5 19.5q180 0 295 -106.5t115 -262.5v-410q0 -82 82 -82l40 11v-164q-30 -10 -71 -10zM451 164q125 0 195.5 74.5t70.5 212.5v20l-318 -51q-55 -10 -89 -45t-34 -88
q0 -49 47.5 -86t127.5 -37z" />
    <glyph glyph-name="adieresis.salt" horiz-adv-x="1095" 
d="M471 1270q0 -53 -35 -88t-88 -35t-88 35t-35 88t35 88t88 35t88 -35t35 -88zM901 1270q0 -53 -35 -88t-88 -35t-88 35t-35 88t35 88t88 35t88 -35t35 -88zM973 -20q-86 0 -142.5 38.5t-68.5 75.5l-14 39q-4 -6 -11.5 -16.5t-36 -37t-61.5 -47t-89 -36.5t-120 -16
q-156 0 -257 87t-101 199q0 121 76.5 203t209.5 104l359 62q0 78 -57.5 131t-147.5 53q-78 0 -141.5 -32.5t-87.5 -65.5l-27 -35l-133 133q6 8 16.5 20.5t47 44t77.5 56.5t108.5 44.5t139.5 19.5q180 0 295 -106.5t115 -262.5v-410q0 -82 82 -82l40 11v-164q-30 -10 -71 -10
zM451 164q125 0 195.5 74.5t70.5 212.5v20l-318 -51q-55 -10 -89 -45t-34 -88q0 -49 47.5 -86t127.5 -37z" />
    <glyph glyph-name="amacron.salt" horiz-adv-x="1095" 
d="M870 1393v-144h-634v144h634zM973 -20q-86 0 -142.5 38.5t-68.5 75.5l-14 39q-4 -6 -11.5 -16.5t-36 -37t-61.5 -47t-89 -36.5t-120 -16q-156 0 -257 87t-101 199q0 121 76.5 203t209.5 104l359 62q0 78 -57.5 131t-147.5 53q-78 0 -141.5 -32.5t-87.5 -65.5l-27 -35
l-133 133q6 8 16.5 20.5t47 44t77.5 56.5t108.5 44.5t139.5 19.5q180 0 295 -106.5t115 -262.5v-410q0 -82 82 -82l40 11v-164q-30 -10 -71 -10zM451 164q125 0 195.5 74.5t70.5 212.5v20l-318 -51q-55 -10 -89 -45t-34 -88q0 -49 47.5 -86t127.5 -37z" />
    <glyph glyph-name="aogonek.salt" horiz-adv-x="1095" 
d="M1044 154v-164q-25 -8 -57 -10q-66 -96 -65 -177q0 -37 28.5 -63.5t73.5 -26.5q27 0 55.5 5.5t42.5 11.5l15 4v-123q-72 -31 -154 -31q-92 0 -148.5 54.5t-56.5 140.5q0 115 90 223q-45 18 -75.5 52t-38.5 59l-6 24q-4 -6 -11.5 -16.5t-36 -37t-61.5 -47t-89 -36.5
t-120 -16q-156 0 -257 87t-101 199q0 121 76.5 203t209.5 104l359 62q0 78 -57.5 131t-147.5 53q-78 0 -141.5 -32.5t-87.5 -65.5l-27 -35l-133 133q6 8 16.5 20.5t47 44t77.5 56.5t108.5 44.5t139.5 19.5q180 0 295 -106.5t115 -262.5v-410q0 -82 82 -82zM451 164
q125 0 195.5 74.5t70.5 212.5v20l-318 -51q-55 -10 -89 -45t-34 -88q0 -49 47.5 -86t127.5 -37z" />
    <glyph glyph-name="aring.salt" horiz-adv-x="1095" 
d="M748 1311q0 -84 -60.5 -144.5t-144.5 -60.5t-144.5 60.5t-60.5 144.5t60.5 144.5t144.5 60.5t144.5 -60.5t60.5 -144.5zM625 1311q0 37 -26 64.5t-56.5 27.5t-56 -27.5t-25.5 -64.5t25.5 -64.5t56 -27.5t56.5 27.5t26 64.5zM973 -20q-86 0 -142.5 38.5t-68.5 75.5l-14 39
q-4 -6 -11.5 -16.5t-36 -37t-61.5 -47t-89 -36.5t-120 -16q-156 0 -257 87t-101 199q0 121 76.5 203t209.5 104l359 62q0 78 -57.5 131t-147.5 53q-78 0 -141.5 -32.5t-87.5 -65.5l-27 -35l-133 133q6 8 16.5 20.5t47 44t77.5 56.5t108.5 44.5t139.5 19.5q180 0 295 -106.5
t115 -262.5v-410q0 -82 82 -82l40 11v-164q-30 -10 -71 -10zM451 164q125 0 195.5 74.5t70.5 212.5v20l-318 -51q-55 -10 -89 -45t-34 -88q0 -49 47.5 -86t127.5 -37z" />
    <glyph glyph-name="atilde.salt" horiz-adv-x="1095" 
d="M696 1147q-61 0 -110 30.5t-89 61.5t-77 31q-82 0 -82 -123h-133q0 266 215 266q61 0 110.5 -30.5t89 -61.5t76.5 -31q82 0 82 123h133q0 -266 -215 -266zM973 -20q-86 0 -142.5 38.5t-68.5 75.5l-14 39q-4 -6 -11.5 -16.5t-36 -37t-61.5 -47t-89 -36.5t-120 -16
q-156 0 -257 87t-101 199q0 121 76.5 203t209.5 104l359 62q0 78 -57.5 131t-147.5 53q-78 0 -141.5 -32.5t-87.5 -65.5l-27 -35l-133 133q6 8 16.5 20.5t47 44t77.5 56.5t108.5 44.5t139.5 19.5q180 0 295 -106.5t115 -262.5v-410q0 -82 82 -82l40 11v-164q-30 -10 -71 -10
zM451 164q125 0 195.5 74.5t70.5 212.5v20l-318 -51q-55 -10 -89 -45t-34 -88q0 -49 47.5 -86t127.5 -37z" />
    <glyph glyph-name="lacute.salt" horiz-adv-x="634" 
d="M184 1618l154 287h215l-215 -287h-154zM358 1434v-1145q0 -55 35 -90t88 -35q23 0 48.5 5t39.5 11l15 4v-184q-61 -20 -144 -20q-287 0 -286 307v1147h204z" />
    <glyph glyph-name="lcaron.salt" horiz-adv-x="645" 
d="M461 1147l92 287h184l-133 -287h-143zM358 1434v-1145q0 -55 35 -90t88 -35q23 0 48.5 5t39.5 11l15 4v-184q-61 -20 -144 -20q-287 0 -286 307v1147h204z" />
    <glyph glyph-name="uni013C.salt" horiz-adv-x="634" 
d="M174 -451l92 287h185l-134 -287h-143zM358 1434v-1145q0 -55 35 -90t88 -35q23 0 48.5 5t39.5 11l15 4v-184q-61 -20 -144 -20q-287 0 -286 307v1147h204z" />
    <glyph glyph-name="Igrave.salt" horiz-adv-x="798" 
d="M317 1905l154 -287h-154l-215 287h215zM82 1229v205h635v-205h-205v-1024h205v-205h-635v205h205v1024h-205z" />
    <glyph glyph-name="Iacute.salt" horiz-adv-x="798" 
d="M82 1229v205h635v-205h-205v-1024h205v-205h-635v205h205v1024h-205zM330 1618l153 287h215l-215 -287h-153z" />
    <glyph glyph-name="Icircumflex.salt" horiz-adv-x="798" 
d="M502 1905l225 -287h-184l-144 184l-143 -184h-184l225 287h205zM82 1229v205h635v-205h-205v-1024h205v-205h-635v205h205v1024h-205z" />
    <glyph glyph-name="Idieresis.salt" horiz-adv-x="798" 
d="M307 1741q0 -53 -34.5 -88t-88 -35t-88.5 35t-35 88t35 88t88.5 35t88 -35t34.5 -88zM737 1741q0 -53 -34.5 -88t-88 -35t-88 35t-34.5 88t34.5 88t88 35t88 -35t34.5 -88zM82 1229v205h635v-205h-205v-1024h205v-205h-635v205h205v1024h-205z" />
    <glyph glyph-name="Idotaccent.salt" horiz-adv-x="798" 
d="M522 1761.5q0 -53.5 -34.5 -88.5t-88 -35t-88.5 35t-35 88.5t35 88t88.5 34.5t88 -34.5t34.5 -88zM82 1229v205h635v-205h-205v-1024h205v-205h-635v205h205v1024h-205z" />
    <glyph glyph-name="Imacron.salt" horiz-adv-x="798" 
d="M717 1843v-143h-635v143h635zM82 1229v205h635v-205h-205v-1024h205v-205h-635v205h205v1024h-205z" />
    <glyph glyph-name="Iogonek.salt" horiz-adv-x="798" 
d="M82 1229v205h635v-205h-205v-1024h205v-205q-82 -102 -82 -197q0 -37 28.5 -63.5t73.5 -26.5q27 0 55.5 5.5t43.5 11.5l14 4v-123q-72 -31 -154 -31q-92 0 -148 54.5t-56 140.5q0 55 22.5 111.5t46.5 84.5l23 29h-502v205h205v1024h-205z" />
    <glyph glyph-name="yacute.salt" horiz-adv-x="1198" 
d="M512 1147l154 287h215l-215 -287h-154zM840 983h204v-942q0 -201 -135 -336t-336 -135q-84 0 -159.5 21.5t-124.5 51t-86 59.5t-53 52l-17 21l133 133q4 -6 13.5 -16.5t39 -37t62.5 -47t85 -37t107 -16.5q117 0 192 79t75 208v102q-4 -4 -13.5 -13t-38 -29.5t-61.5 -37
t-83 -30t-101 -13.5q-178 0 -289 117t-111 314v532h205v-532q0 -106 67.5 -176t168.5 -70q117 0 186.5 75.5t69.5 211.5v491z" />
    <glyph glyph-name="ydieresis.salt" horiz-adv-x="1198" 
d="M502 1270q0 -53 -35 -88t-88 -35t-88 35t-35 88t35 88t88 35t88 -35t35 -88zM932 1270q0 -53 -35 -88t-88 -35t-88 35t-35 88t35 88t88 35t88 -35t35 -88zM840 983h204v-942q0 -201 -135 -336t-336 -135q-84 0 -159.5 21.5t-124.5 51t-86 59.5t-53 52l-17 21l133 133
q4 -6 13.5 -16.5t39 -37t62.5 -47t85 -37t107 -16.5q117 0 192 79t75 208v102q-4 -4 -13.5 -13t-38 -29.5t-61.5 -37t-83 -30t-101 -13.5q-178 0 -289 117t-111 314v532h205v-532q0 -106 67.5 -176t168.5 -70q117 0 186.5 75.5t69.5 211.5v491z" />
    <glyph glyph-name="ugrave.salt" horiz-adv-x="1198" 
d="M512 1434l154 -287h-154l-215 287h215zM133 410v573h205v-573q0 -106 65.5 -176t159.5 -70q111 0 178.5 75.5t67.5 211.5v532h205v-758q0 -82 82 -82l41 11v-164q-31 -10 -72 -10q-86 0 -142.5 38.5t-70.5 75.5l-12 39q-4 -6 -11.5 -16.5t-36 -37t-61.5 -47t-89 -36.5
t-120 -16q-172 0 -280.5 116.5t-108.5 313.5z" />
    <glyph glyph-name="uacute.salt" horiz-adv-x="1198" 
d="M502 1147l153 287h215l-215 -287h-153zM133 410v573h205v-573q0 -106 65.5 -176t159.5 -70q111 0 178.5 75.5t67.5 211.5v532h205v-758q0 -82 82 -82l41 11v-164q-31 -10 -72 -10q-86 0 -142.5 38.5t-70.5 75.5l-12 39q-4 -6 -11.5 -16.5t-36 -37t-61.5 -47t-89 -36.5
t-120 -16q-172 0 -280.5 116.5t-108.5 313.5z" />
    <glyph glyph-name="ucircumflex.salt" horiz-adv-x="1198" 
d="M686 1434l225 -287h-184l-143 184l-144 -184h-184l225 287h205zM133 410v573h205v-573q0 -106 65.5 -176t159.5 -70q111 0 178.5 75.5t67.5 211.5v532h205v-758q0 -82 82 -82l41 11v-164q-31 -10 -72 -10q-86 0 -142.5 38.5t-70.5 75.5l-12 39q-4 -6 -11.5 -16.5t-36 -37
t-61.5 -47t-89 -36.5t-120 -16q-172 0 -280.5 116.5t-108.5 313.5z" />
    <glyph glyph-name="udieresis.salt" horiz-adv-x="1198" 
d="M492 1270q0 -53 -35 -88t-88.5 -35t-88 35t-34.5 88t34.5 88t88 35t88.5 -35t35 -88zM922 1270q0 -53 -35 -88t-88.5 -35t-88 35t-34.5 88t34.5 88t88 35t88.5 -35t35 -88zM133 410v573h205v-573q0 -106 65.5 -176t159.5 -70q111 0 178.5 75.5t67.5 211.5v532h205v-758
q0 -82 82 -82l41 11v-164q-31 -10 -72 -10q-86 0 -142.5 38.5t-70.5 75.5l-12 39q-4 -6 -11.5 -16.5t-36 -37t-61.5 -47t-89 -36.5t-120 -16q-172 0 -280.5 116.5t-108.5 313.5z" />
    <glyph glyph-name="uhungarumlaut.salt" horiz-adv-x="1198" 
d="M317 1147l154 287h215l-215 -287h-154zM676 1147l153 287h215l-215 -287h-153zM133 410v573h205v-573q0 -106 65.5 -176t159.5 -70q111 0 178.5 75.5t67.5 211.5v532h205v-758q0 -82 82 -82l41 11v-164q-31 -10 -72 -10q-86 0 -142.5 38.5t-70.5 75.5l-12 39
q-4 -6 -11.5 -16.5t-36 -37t-61.5 -47t-89 -36.5t-120 -16q-172 0 -280.5 116.5t-108.5 313.5z" />
    <glyph glyph-name="umacron.salt" horiz-adv-x="1198" 
d="M901 1372v-143h-635v143h635zM133 410v573h205v-573q0 -106 65.5 -176t159.5 -70q111 0 178.5 75.5t67.5 211.5v532h205v-758q0 -82 82 -82l41 11v-164q-31 -10 -72 -10q-86 0 -142.5 38.5t-70.5 75.5l-12 39q-4 -6 -11.5 -16.5t-36 -37t-61.5 -47t-89 -36.5t-120 -16
q-172 0 -280.5 116.5t-108.5 313.5z" />
    <glyph glyph-name="uogonek.salt" horiz-adv-x="1198" 
d="M840 133q-4 -6 -11.5 -16.5t-36 -37t-61.5 -47t-89 -36.5t-120 -16q-172 0 -280.5 116.5t-108.5 313.5v573h205v-573q0 -106 65.5 -176t159.5 -70q111 0 178.5 75.5t67.5 211.5v532h205v-758q0 -82 82 -82l41 11v-164q-25 -8 -58 -10q-66 -96 -65 -177q0 -37 28.5 -63.5
t73.5 -26.5q27 0 55.5 5.5t42.5 11.5l15 4v-123q-72 -31 -154 -31q-92 0 -148.5 54.5t-56.5 140.5q0 115 91 223q-45 18 -76 52t-37 59z" />
    <glyph glyph-name="uring.salt" horiz-adv-x="1198" 
d="M788 1311q0 -84 -60 -144.5t-144 -60.5t-144.5 60.5t-60.5 144.5t60.5 144.5t144.5 60.5t144 -60.5t60 -144.5zM666 1311q0 37 -26 64.5t-56.5 27.5t-56 -27.5t-25.5 -64.5t25.5 -64.5t56 -27.5t56.5 27.5t26 64.5zM133 410v573h205v-573q0 -106 65.5 -176t159.5 -70
q111 0 178.5 75.5t67.5 211.5v532h205v-758q0 -82 82 -82l41 11v-164q-31 -10 -72 -10q-86 0 -142.5 38.5t-70.5 75.5l-12 39q-4 -6 -11.5 -16.5t-36 -37t-61.5 -47t-89 -36.5t-120 -16q-172 0 -280.5 116.5t-108.5 313.5z" />
    <glyph glyph-name="a.salt" horiz-adv-x="1095" 
d="M973 -20q-86 0 -142.5 38.5t-68.5 75.5l-14 39q-4 -6 -11.5 -16.5t-36 -37t-61.5 -47t-89 -36.5t-120 -16q-156 0 -257 87t-101 199q0 121 76.5 203t209.5 104l359 62q0 78 -57.5 131t-147.5 53q-78 0 -141.5 -32.5t-87.5 -65.5l-27 -35l-133 133q6 8 16.5 20.5t47 44
t77.5 56.5t108.5 44.5t139.5 19.5q180 0 295 -106.5t115 -262.5v-410q0 -82 82 -82l40 11v-164q-30 -10 -71 -10zM451 164q125 0 195.5 74.5t70.5 212.5v20l-318 -51q-55 -10 -89 -45t-34 -88q0 -49 47.5 -86t127.5 -37z" />
    <glyph glyph-name="l.salt" horiz-adv-x="634" 
d="M358 1434v-1145q0 -55 35 -90t88 -35q23 0 48.5 5t39.5 11l15 4v-184q-61 -20 -144 -20q-287 0 -286 307v1147h204z" />
    <glyph glyph-name="uni0443.salt" horiz-adv-x="1044" 
d="M225 -430l185 430l-400 983h215l287 -717l287 717h215l-574 -1413h-215z" />
    <glyph glyph-name="y.salt" horiz-adv-x="1198" 
d="M840 983h204v-942q0 -201 -135 -336t-336 -135q-84 0 -159.5 21.5t-124.5 51t-86 59.5t-53 52l-17 21l133 133q4 -6 13.5 -16.5t39 -37t62.5 -47t85 -37t107 -16.5q117 0 192 79t75 208v102q-4 -4 -13.5 -13t-38 -29.5t-61.5 -37t-83 -30t-101 -13.5q-178 0 -289 117
t-111 314v532h205v-532q0 -106 67.5 -176t168.5 -70q117 0 186.5 75.5t69.5 211.5v491z" />
    <glyph glyph-name="I.salt" horiz-adv-x="798" 
d="M82 1229v205h635v-205h-205v-1024h205v-205h-635v205h205v1024h-205z" />
    <glyph glyph-name="u.salt" horiz-adv-x="1198" 
d="M133 410v573h205v-573q0 -106 65.5 -176t159.5 -70q111 0 178.5 75.5t67.5 211.5v532h205v-758q0 -82 82 -82l41 11v-164q-31 -10 -72 -10q-86 0 -142.5 38.5t-70.5 75.5l-12 39q-4 -6 -11.5 -16.5t-36 -37t-61.5 -47t-89 -36.5t-120 -16q-172 0 -280.5 116.5
t-108.5 313.5z" />
    <glyph glyph-name="uni0430.salt" horiz-adv-x="1095" 
d="M973 -20q-86 0 -142.5 38.5t-68.5 75.5l-14 39q-4 -6 -11.5 -16.5t-36 -37t-61.5 -47t-89 -36.5t-120 -16q-156 0 -257 87t-101 199q0 121 76.5 203t209.5 104l359 62q0 78 -57.5 131t-147.5 53q-78 0 -141.5 -32.5t-87.5 -65.5l-27 -35l-133 133q6 8 16.5 20.5t47 44
t77.5 56.5t108.5 44.5t139.5 19.5q180 0 295 -106.5t115 -262.5v-410q0 -82 82 -82l40 11v-164q-30 -10 -71 -10zM451 164q125 0 195.5 74.5t70.5 212.5v20l-318 -51q-55 -10 -89 -45t-34 -88q0 -49 47.5 -86t127.5 -37z" />
    <glyph glyph-name="at.case" horiz-adv-x="1863" 
d="M922 942q-92 0 -159 -68.5t-67 -167t66.5 -167t159.5 -68.5q86 0 145 65.5t59 170t-59 170t-145 65.5zM901 1085q68 0 124 -23.5t79 -45.5l22 -23v82h144v-481q0 -53 32.5 -88t79.5 -35q76 0 125 70.5t49 216.5q0 248 -179 421t-445 173q-254 0 -439.5 -187.5
t-185.5 -447.5t185.5 -447.5t439.5 -187.5q104 0 196.5 32.5t133.5 65.5l38 35l93 -113q-6 -6 -19.5 -17t-57.5 -40t-93 -50.5t-128 -38.5t-163 -17q-322 0 -555.5 231t-233.5 546.5t233.5 547t555.5 231.5q334 0 561 -217t227 -520q0 -209 -93 -319.5t-245 -110.5
q-68 0 -124 30.5t-78 61.5l-23 31q-8 -14 -25.5 -35t-83 -54.5t-147.5 -33.5q-147 0 -252.5 109.5t-105.5 269t105.5 269t252.5 109.5z" />
    <glyph glyph-name="parenleft.case" horiz-adv-x="696" 
d="M348 716.5q0 -143.5 30 -286.5t72 -245.5t83.5 -184.5t72.5 -123l29 -41l-154 -92q-12 16 -33.5 45t-77 126t-96.5 202.5t-75.5 269.5t-34.5 330t32.5 327.5t80 273.5t93.5 199t79 130l32 43l154 -93q-12 -14 -31.5 -42.5t-69 -120t-87 -187.5t-68.5 -241.5t-31 -289z
" />
    <glyph glyph-name="parenright.case" horiz-adv-x="696" 
d="M348 716.5q0 143.5 -29.5 287t-71.5 246t-84 184.5t-73 122l-29 41l154 93q12 -16 33.5 -45t77 -126.5t96.5 -203t75.5 -269t34.5 -329.5t-32.5 -328t-79.5 -273.5t-93 -198.5t-79 -130l-33 -43l-154 92q12 14 32 43t69 120t87 187.5t68.5 241.5t30.5 288.5z" />
    <glyph glyph-name="bracketleft.case" horiz-adv-x="675" 
d="M348 1495v-1556h266v-164h-450v1884h450v-164h-266z" />
    <glyph glyph-name="bracketright.case" horiz-adv-x="675" 
d="M328 -61v1556h-267v164h451v-1884h-451v164h267z" />
    <glyph glyph-name="braceleft.case" horiz-adv-x="737" 
d="M123 635v164q123 0 123 123v440q0 139 83 218t234 79h113v-164h-113q-61 0 -97 -36t-36 -97v-440q0 -37 -6 -69t-16.5 -52.5t-22.5 -36.5t-23.5 -24.5t-21.5 -14.5t-16 -8h-5h5q6 -2 16 -8.5t21.5 -14.5t23.5 -24.5t22.5 -37t16.5 -52t6 -68.5v-440q0 -61 36 -97t97 -36
h113v-164h-113q-152 0 -234.5 78.5t-82.5 218.5v440q0 123 -123 123z" />
    <glyph glyph-name="braceright.case" horiz-adv-x="737" 
d="M614 799v-164q-123 0 -122 -123v-440q0 -139 -83 -218t-235 -79h-113v164h113q61 0 97 35.5t36 97.5v440q0 37 6 68.5t16.5 52t23 37t23.5 24.5t21.5 14.5t16.5 8.5h4h-4q-6 2 -16.5 8t-21.5 14.5t-23.5 24.5t-23 36.5t-16.5 52.5t-6 69v440q0 61 -35.5 97t-97.5 36h-113
v164h113q152 0 235 -79t83 -218v-440q-1 -123 122 -123z" />
    <glyph glyph-name="exclamdown.case" horiz-adv-x="675" 
d="M256 1055h164l41 -1055h-246zM205 1321q0 53 40 93t93 40t93 -40t40 -93t-40 -93t-93 -40t-93 40t-40 93z" />
    <glyph glyph-name="questiondown.case" horiz-adv-x="1095" 
d="M655 952q0 -84 -37.5 -152.5t-92 -112.5t-109 -87t-92 -98.5t-37.5 -122.5q0 -86 65.5 -145.5t169.5 -59.5q66 0 120 21.5t84 51t49.5 59.5t27.5 50l6 23l184 -72q-4 -14 -11 -36.5t-43 -81t-83 -102.5t-136 -81t-198 -37q-201 0 -331 116t-130 273q0 113 41 194
t100.5 128t118 89t99.5 105.5t41 149.5v20h184q10 -51 10 -92zM686 1310.5q0 -53.5 -40 -93t-93 -39.5t-93 39.5t-40 93t40 93.5t93 40t93 -40t40 -93.5z" />
    <glyph glyph-name="guillemotleft.case" horiz-adv-x="1064" 
d="M553 1065l-246 -348l246 -348h-205l-246 348l246 348h205zM963 1065l-246 -348l246 -348h-205l-246 348l246 348h205z" />
    <glyph glyph-name="guillemotright.case" horiz-adv-x="1064" 
d="M758 717l-246 348h205l246 -348l-246 -348h-205zM348 717l-246 348h205l246 -348l-246 -348h-205z" />
    <glyph glyph-name="guilsinglleft.case" horiz-adv-x="655" 
d="M553 1065l-246 -348l246 -348h-205l-246 348l246 348h205z" />
    <glyph glyph-name="guilsinglright.case" horiz-adv-x="655" 
d="M348 717l-246 348h205l246 -348l-246 -348h-205z" />
    <glyph glyph-name="hyphen.case" horiz-adv-x="880" 
d="M799 778v-184h-717v184h717z" />
    <glyph glyph-name="endash.case" horiz-adv-x="942" 
d="M881 799v-185h-820v185h820z" />
    <glyph glyph-name="emdash.case" horiz-adv-x="1433" 
d="M1372 799v-185h-1311v185h1311z" />
    <glyph glyph-name="periodcentered.case" horiz-adv-x="409" 
d="M338 717q0 -53 -40 -93t-93 -40t-93 40t-40 93t40 93t93 40t93 -40t40 -93z" />
    <glyph glyph-name="zero.tnum" horiz-adv-x="1310" 
d="M51 717q0 336 175 536.5t429 200.5t429.5 -200.5t175.5 -536.5t-175.5 -536.5t-429.5 -200.5t-429 200.5t-175 536.5zM1034 717q0 248 -111.5 390t-267 142t-267.5 -142t-112 -390t112 -390.5t267.5 -142.5t267 142.5t111.5 390.5z" />
    <glyph glyph-name="one.tnum" horiz-adv-x="1310" 
d="M645 1434h174v-1434h-225v1085h-256v154q129 14 196.5 61.5t110.5 133.5z" />
    <glyph glyph-name="two.tnum" horiz-adv-x="1310" 
d="M1116 0h-952q0 133 40 241.5t104.5 180.5t142 132t154.5 109.5t141.5 97.5t104.5 112.5t40 140.5q0 109 -67.5 172t-188.5 63q-59 0 -110.5 -21.5t-80 -51t-50 -59.5t-29.5 -52l-7 -21l-184 82q4 14 11.5 36t42 78t80.5 99t133 79t194 36q211 0 346 -127t135 -313
q0 -98 -40 -182t-101.5 -140.5t-141 -116t-154.5 -108.5t-147.5 -117.5t-111.5 -144.5h696v-205z" />
    <glyph glyph-name="three.tnum" horiz-adv-x="1310" 
d="M881 758q10 -4 27.5 -11.5t61.5 -36t77.5 -65.5t61.5 -102.5t28 -143.5q0 -176 -140.5 -297.5t-371.5 -121.5q-98 0 -186.5 23.5t-145.5 56t-99 65.5t-63 55l-18 25l143 143q4 -6 14.5 -17.5t45 -40t73.5 -50t102.5 -39t133.5 -17.5q133 0 209.5 64.5t76.5 161t-76.5 161
t-209.5 64.5h-144v205h144q106 0 165.5 55t59.5 149.5t-59.5 149.5t-165.5 55q-90 0 -170 -39t-115 -75l-33 -39l-143 143q6 8 18.5 22.5t55.5 52.5t92 65.5t129 51t166 23.5q211 0 330.5 -108.5t119.5 -280.5q0 -59 -20.5 -113.5t-48 -88.5t-56 -58.5t-49.5 -34.5z" />
    <glyph glyph-name="four.tnum" horiz-adv-x="1310" 
d="M1034 492h185v-205h-185v-287h-225v287h-696v245l635 902h286v-942zM809 492v686l-481 -686h481z" />
    <glyph glyph-name="five.tnum" horiz-adv-x="1310" 
d="M686 952q215 0 353.5 -136t138.5 -345q0 -217 -141.5 -354t-370.5 -137q-98 0 -186.5 23.5t-146 56t-99 65.5t-62.5 55l-18 25l143 143q4 -6 14.5 -17.5t45 -40t73.5 -50t102.5 -39t133.5 -17.5q123 0 204.5 82t81.5 205t-82 205t-204 82q-90 0 -162 -33t-98 -66l-27 -34
h-164l41 809h829v-205h-624l-21 -338q82 61 246 61z" />
    <glyph glyph-name="six.tnum" horiz-adv-x="1310" 
d="M686 963q186 0 328.5 -146.5t142.5 -345.5q0 -201 -149.5 -346t-362.5 -145t-362.5 145t-149.5 346q0 82 27.5 164t56.5 123l29 41l409 635h226l-318 -492q51 21 123 21zM952 471q0 123 -89 210t-218 87t-218 -87t-89 -210t89 -210t218 -87t218 87t89 210z" />
    <glyph glyph-name="seven.tnum" horiz-adv-x="1310" 
d="M184 1434h953v-185l-605 -1249h-225l594 1229h-717v205z" />
    <glyph glyph-name="eight.tnum" horiz-adv-x="1310" 
d="M655.5 686q-120.5 0 -203.5 -77t-83 -179t83 -179t203.5 -77t203.5 77t83 179t-83 179t-203.5 77zM655.5 1270q-98.5 0 -162 -59.5t-63.5 -145.5t63.5 -145.5t162 -59.5t162 59.5t63.5 145.5t-63.5 145.5t-162 59.5zM655.5 1454q180.5 0 305 -116.5t124.5 -272.5
q0 -51 -14 -99t-35.5 -79t-43 -54.5t-36.5 -33.5l-14 -11q8 -6 22.5 -16t49.5 -45t61.5 -74t49 -99t22.5 -124q0 -186 -140.5 -318t-351.5 -132t-351 132t-140 318q0 100 51 189.5t102 130.5l52 38q-16 10 -40 31t-64 92.5t-40 153.5q0 156 125 272.5t305.5 116.5z" />
    <glyph glyph-name="nine.tnum" horiz-adv-x="1310" 
d="M625 471q-186 0 -328.5 146.5t-142.5 345.5q0 201 149.5 346t362.5 145t362.5 -145.5t149.5 -345.5q0 -82 -28 -164t-56 -123l-29 -41l-410 -635h-225l318 492q-51 -21 -123 -21zM358 962.5q0 -122.5 89.5 -209.5t218.5 -87t218 87t89 209.5t-89 210t-218 87.5
t-218.5 -87.5t-89.5 -210z" />
    <glyph glyph-name="zero.frac" horiz-adv-x="737" 
d="M205 1075.5q0 -108.5 49 -172t114.5 -63.5t114.5 63.5t49 172t-49 172t-114.5 63.5t-114.5 -63.5t-49 -172zM676 1075q0 -172 -86 -270t-221.5 -98t-221.5 98t-86 270t86 270.5t221.5 98.5t221.5 -98.5t86 -270.5z" />
    <glyph glyph-name="one.frac" horiz-adv-x="450" 
d="M215 1434h113v-717h-144v512h-123v112h21q49 0 87 29t46 64z" />
    <glyph glyph-name="two.frac" horiz-adv-x="655" 
d="M573 1219q0 -86 -56 -149.5t-144 -120t-117 -89.5h317v-143h-491v20q0 86 36 151.5t87 104.5t102 72t87 71t36 83q0 39 -28.5 65.5t-73.5 26.5q-37 0 -68 -25.5t-43 -52.5l-12 -25l-123 41q2 8 6 21.5t21.5 46.5t42 58.5t71.5 47t105 21.5q115 0 180 -62.5t65 -162.5z
" />
    <glyph glyph-name="three.frac" horiz-adv-x="675" 
d="M481 1106q12 -6 30.5 -17.5t50.5 -56.5t32 -100q0 -94 -74 -159.5t-192 -65.5q-86 0 -152.5 33.5t-89.5 66.5l-25 33l93 92q6 -10 19 -25.5t59.5 -41t95.5 -25.5q59 0 91 25.5t32 66.5t-32 66.5t-91 25.5h-82v143h71q102 0 102.5 72t-102.5 72q-37 0 -72.5 -20.5
t-51.5 -41.5l-19 -20l-92 92q4 4 10 13t28.5 29.5t47.5 37t65.5 30t83.5 13.5q113 0 179.5 -58.5t66.5 -146.5q0 -41 -20.5 -75t-40.5 -46z" />
    <glyph glyph-name="four.frac" horiz-adv-x="655" 
d="M512 1434v-430h82v-144h-82v-143h-143v143h-328v144l307 430h164zM195 1004h174v245z" />
    <glyph glyph-name="five.frac" horiz-adv-x="614" 
d="M338 1178q100 0 167.5 -68t67.5 -168q0 -102 -74.5 -168.5t-201.5 -66.5q-86 0 -155.5 25.5t-96.5 49.5l-25 27l93 102q63 -72 174 -71q66 0 104.5 30.5t38.5 71.5q0 47 -37 80t-96 33q-33 0 -60.5 -7.5t-39.5 -15.5l-13 -8h-112l41 410h419v-144h-296l-11 -133
q41 21 113 21z" />
    <glyph glyph-name="six.frac" horiz-adv-x="614" 
d="M471 1434l-154 -215q123 -8 195 -78t72 -178.5t-78 -182t-199 -73.5t-198.5 73.5t-77.5 182.5q0 37 10 72.5t20 54.5l11 16l235 328h164zM440 962.5q0 55.5 -35.5 89t-97 33.5t-97.5 -33.5t-36 -89t36 -89t97.5 -33.5t97 33.5t35.5 89z" />
    <glyph glyph-name="seven.frac" horiz-adv-x="573" 
d="M31 1434h512v-144l-267 -573h-153l266 573h-358v144z" />
    <glyph glyph-name="eight.frac" horiz-adv-x="614" 
d="M307.5 840q65.5 0 99 25.5t33.5 66.5t-33.5 66.5t-99 25.5t-99.5 -25.5t-34 -66.5t34 -66.5t99.5 -25.5zM307.5 1157q102.5 0 102.5 82q0 72 -102.5 72t-102.5 -72q0 -82 102.5 -82zM307 707q-125 0 -200.5 62t-75.5 149q0 61 35.5 105t72.5 58l35 15q-4 2 -12 5
t-27.5 16t-34 29.5t-27 44.5t-12.5 58q0 80 68 137.5t178.5 57.5t178 -57.5t67.5 -137.5q0 -49 -28.5 -88t-57.5 -51l-27 -14q6 -2 15.5 -5.5t34 -17.5t44 -32.5t35 -51.5t15.5 -71q0 -86 -76 -148.5t-201 -62.5z" />
    <glyph glyph-name="nine.frac" horiz-adv-x="614" 
d="M143 717l154 215q-123 8 -194.5 77.5t-71.5 178t77.5 182.5t198.5 74t199 -74t78 -182q0 -37 -10.5 -73t-20.5 -54l-10 -17l-236 -327h-164zM174 1188q0 -55 36 -89t97.5 -34t97 34t35.5 89t-35.5 89t-97 34t-97.5 -34t-36 -89z" />
    <glyph glyph-name="zero.dnom" horiz-adv-x="737" 
d="M205 358.5q0 -108.5 49 -172t114.5 -63.5t114.5 63.5t49 172t-49 172t-114.5 63.5t-114.5 -63.5t-49 -172zM676 358q0 -172 -86 -270t-221.5 -98t-221.5 98t-86 270t86 270.5t221.5 98.5t221.5 -98.5t86 -270.5z" />
    <glyph glyph-name="one.dnom" horiz-adv-x="450" 
d="M215 717h113v-717h-144v512h-123v113h21q49 0 87 28.5t46 63.5z" />
    <glyph glyph-name="two.dnom" horiz-adv-x="655" 
d="M573 502q0 -86 -56 -149.5t-144 -120t-117 -89.5h317v-143h-491v20q0 86 36 152t87 104.5t102 71.5t87 71t36 83q0 39 -28.5 65.5t-73.5 26.5q-37 0 -68 -25.5t-43 -52.5l-12 -24l-123 40q2 8 6 21.5t21.5 46.5t42 58.5t71.5 47t105 21.5q115 0 180 -62.5t65 -162.5z" />
    <glyph glyph-name="three.dnom" horiz-adv-x="675" 
d="M481 389q12 -6 30.5 -17.5t50.5 -56.5t32 -100q0 -94 -74 -159.5t-192 -65.5q-86 0 -152.5 33.5t-89.5 66.5l-25 33l93 92q6 -10 19 -25.5t59.5 -41t95.5 -25.5q59 0 91 25.5t32 66.5t-32 66.5t-91 25.5h-82v144h71q102 0 102.5 71.5t-102.5 71.5q-37 0 -72.5 -20.5
t-51.5 -41.5l-19 -20l-92 92q4 4 10 13.5t28.5 30t47.5 36.5t65.5 29.5t83.5 13.5q113 0 179.5 -58.5t66.5 -146.5q0 -41 -20.5 -74.5t-40.5 -46.5z" />
    <glyph glyph-name="four.dnom" horiz-adv-x="655" 
d="M512 717v-430h82v-144h-82v-143h-143v143h-328v144l307 430h164zM195 287h174v245z" />
    <glyph glyph-name="five.dnom" horiz-adv-x="614" 
d="M338 461q100 0 167.5 -67.5t67.5 -168.5q0 -102 -74.5 -168.5t-201.5 -66.5q-86 0 -155.5 25.5t-96.5 50.5l-25 26l93 103q63 -72 174 -72q66 0 104.5 30.5t38.5 71.5q0 47 -37 80t-96 33q-33 0 -60.5 -7t-39.5 -16l-13 -8h-112l41 410h419v-144h-296l-11 -133
q41 21 113 21z" />
    <glyph glyph-name="six.dnom" horiz-adv-x="614" 
d="M471 717l-154 -215q123 -8 195 -78t72 -178.5t-78 -182t-199 -73.5t-198.5 73.5t-77.5 182.5q0 37 10 72.5t20 54.5l11 16l235 328h164zM440 245.5q0 55.5 -35.5 89.5t-97 34t-97.5 -34t-36 -89.5t36 -89t97.5 -33.5t97 33.5t35.5 89z" />
    <glyph glyph-name="seven.dnom" horiz-adv-x="573" 
d="M31 717h512v-144l-267 -573h-153l266 573h-358v144z" />
    <glyph glyph-name="eight.dnom" horiz-adv-x="614" 
d="M307.5 123q65.5 0 99 25.5t33.5 66.5t-33.5 66.5t-99 25.5t-99.5 -25.5t-34 -66.5t34 -66.5t99.5 -25.5zM307.5 440q102.5 0 102.5 82q0 72 -102.5 72t-102.5 -72q0 -82 102.5 -82zM307 -10q-125 0 -200.5 62.5t-75.5 148.5q0 61 35.5 105t72.5 59l35 14q-4 2 -12 5
t-27.5 16.5t-34 29.5t-27 44t-12.5 58q0 80 68 137.5t178.5 57.5t178 -57.5t67.5 -137.5q0 -49 -28.5 -87.5t-57.5 -51.5l-27 -14q6 -2 15.5 -5t34 -17.5t44 -33t35 -51t15.5 -71.5q0 -86 -76 -148.5t-201 -62.5z" />
    <glyph glyph-name="nine.dnom" horiz-adv-x="614" 
d="M143 0l154 215q-123 8 -194.5 77.5t-71.5 178.5t77.5 182.5t198.5 73.5t199 -73.5t78 -182.5q0 -37 -10.5 -73t-20.5 -54l-10 -16l-236 -328h-164zM174 471q0 -55 36 -89t97.5 -34t97 34t35.5 89t-35.5 89t-97 34t-97.5 -34t-36 -89z" />
    <glyph glyph-name="glyph532" horiz-adv-x="3149" 
d="M569 942v-63h-147v-408h-72v408h-145v63h364zM1063 811q66 0 112 -51t46 -121q0 -74 -46.5 -124t-111.5 -50q-59 0 -96 43v-162h-70v459h49l19 -39q39 45 98 45zM1057 528q39 0 67.5 33t28.5 78q0 43 -28.5 74.5t-67.5 31.5t-67.5 -31.5t-28.5 -74.5q0 -45 27.5 -78
t68.5 -33zM682 567l90 238h76l-158 -389q-33 -70 -100 -70q-14 0 -21 2v58q47 0 64 40l12 33l-129 326h76zM1435.5 811q65.5 0 110.5 -50t45 -120l-2 -31h-243q4 -35 29.5 -59.5t60.5 -24.5q55 0 75 35h72q-18 -45 -58 -70.5t-89 -25.5q-66 0 -113 50t-47 124q0 72 47 122
t112.5 50zM1346 666h180q-2 35 -30 58.5t-60.5 23.5t-59 -22.5t-30.5 -59.5zM1923 942v-63h-147v-408h-72v408h-145v63h364zM2417 811q66 0 111.5 -51t45.5 -121q0 -74 -46 -124t-111 -50q-59 0 -97 43v-162h-69v459h49l18 -39q40 45 99 45zM2410 528q39 0 68 33t29 78
q0 43 -29 74.5t-67.5 31.5t-67.5 -31.5t-29 -74.5q0 -45 27.5 -78t68.5 -33zM2036 567l90 238h76l-158 -389q-33 -70 -100 -70q-14 0 -21 2v58q47 0 64 40l12 33l-129 326h76zM2789.5 811q65.5 0 110.5 -50t45 -120l-2 -31h-244q4 -35 30 -59.5t60 -24.5q55 0 76 35h72
q-18 -45 -58 -70.5t-90 -25.5q-66 0 -112.5 50t-46.5 124q0 72 47 122t112.5 50zM2699 666h180q-2 35 -29.5 58.5t-60 23.5t-59.5 -22.5t-31 -59.5z" />
    </font>
</defs>
</svg>
