<svg width="37" height="38" fill="none" xmlns="http://www.w3.org/2000/svg"><path d="M23.606 17.973a1.85 1.85 0 0 0-1.85 2.015h3.81a1.848 1.848 0 0 0-1.96-2.015ZM13.857 20.025H11.58v3.587h1.85c1.85 0 2.664-.61 2.664-1.849 0-1.239-.85-1.738-2.238-1.738ZM15.466 16.734c0-.98-.647-1.572-1.757-1.572H11.58v3.217h1.573c1.646 0 2.312-.591 2.312-1.645Z" fill="#252525"/><path d="M18.5.98A18.507 18.507 0 0 0 1.408 12.394a18.482 18.482 0 0 0 4.01 20.151A18.504 18.504 0 0 0 37 19.47a18.483 18.483 0 0 0-5.419-13.075A18.5 18.5 0 0 0 18.5.98Zm-4.255 24.407H9.25V13.368h4.995c2.165 0 3.589 1.128 3.589 2.959a2.588 2.588 0 0 1-2.072 2.644 2.811 2.811 0 0 1 2.738 3.032c0 2.145-1.85 3.384-4.255 3.384Zm6.568-11.094h5.55v.924h-5.55v-.924Zm6.937 7.119h-6.105v.259a1.978 1.978 0 0 0 2.017 2.2 1.665 1.665 0 0 0 1.85-1.165h2.238a3.698 3.698 0 0 1-4.015 2.866 3.981 3.981 0 0 1-4.12-2.548 3.974 3.974 0 0 1-.245-1.705v-.813a3.899 3.899 0 0 1 2.563-3.94 3.905 3.905 0 0 1 1.654-.22 3.924 3.924 0 0 1 4.163 4.197v.869Z" fill="#252525"/></svg>