<svg width="40" height="39" fill="none" xmlns="http://www.w3.org/2000/svg"><path d="M24.895 17.92a1.953 1.953 0 0 0-1.95 2.126h4.018a1.949 1.949 0 0 0-2.068-2.125ZM14.613 20.085h-2.4v3.783h1.952c1.95 0 2.81-.644 2.81-1.95 0-1.307-.898-1.833-2.362-1.833ZM16.31 16.614c0-1.034-.682-1.658-1.853-1.658h-2.243v3.393h1.658c1.736 0 2.439-.623 2.439-1.735Z" fill="#1C1C1C"/><path d="M19.51 0A19.518 19.518 0 0 0 1.485 12.038a19.49 19.49 0 0 0 4.23 21.25 19.514 19.514 0 0 0 21.262 4.228 19.493 19.493 0 0 0 0-36.031A19.52 19.52 0 0 0 19.51 0Zm-4.487 25.74H9.755V13.065h5.268c2.283 0 3.785 1.19 3.785 3.12a2.728 2.728 0 0 1-2.185 2.789 2.966 2.966 0 0 1 2.887 3.198c0 2.261-1.95 3.568-4.487 3.568Zm6.926-11.7h5.853v.975H21.95v-.975Zm7.317 7.508h-6.439v.273a2.085 2.085 0 0 0 2.127 2.32 1.757 1.757 0 0 0 1.95-1.228h2.362a3.9 3.9 0 0 1-4.234 3.022 4.198 4.198 0 0 1-4.345-2.688 4.19 4.19 0 0 1-.26-1.797v-.858a4.114 4.114 0 0 1 4.449-4.387 4.137 4.137 0 0 1 4.39 4.426v.916Z" fill="#1C1C1C"/></svg>